<?xml version="1.0" standalone="no"?>
<!DOCTYPE svg PUBLIC "-//W3C//DTD SVG 20010904//EN"
 "http://www.w3.org/TR/2001/REC-SVG-20010904/DTD/svg10.dtd">
<svg version="1.0" xmlns="http://www.w3.org/2000/svg"
 width="250.000000pt" height="250.000000pt" viewBox="0 0 250.000000 250.000000"
 preserveAspectRatio="xMidYMid meet">
<metadata>
Created by potrace 1.14, written by Peter Selinger 2001-2017
</metadata>
<g transform="translate(0.000000,250.000000) scale(0.100000,-0.100000)"
fill="#000000" stroke="none">
<path d="M290 1445 l0 -175 281 0 280 0 -3 -42 -3 -43 -277 -3 -278 -2 0 -140
0 -140 945 0 945 0 0 360 0 360 -945 0 -945 0 0 -175z m656 -71 c47 -23 68
-65 69 -141 0 -47 -5 -68 -21 -90 -26 -35 -79 -63 -121 -63 -31 0 -33 -2 -33
-35 l0 -35 -75 0 -76 0 3 78 3 77 88 3 87 3 0 59 0 60 -90 0 -90 0 0 50 0 50
111 0 c82 0 120 -4 145 -16z m624 -81 l1 -98 25 43 c25 41 27 42 80 42 30 0
54 -2 54 -4 0 -3 -16 -32 -35 -65 l-36 -60 33 -63 c18 -35 34 -66 36 -70 2 -5
-21 -8 -52 -8 -54 0 -55 1 -80 43 l-26 42 0 -43 0 -43 -52 3 -53 3 -3 188 -2
187 55 0 55 0 0 -97z m-122 -65 c3 -47 3 -48 -27 -48 l-30 0 -3 -82 -3 -83
-52 -3 -53 -3 0 109 c0 71 4 114 13 125 16 22 62 36 112 34 l40 -2 3 -47z
m462 34 c36 -18 47 -41 49 -104 l1 -38 -55 0 -55 0 0 35 c0 19 -4 35 -10 35
-5 0 -10 -20 -10 -45 l0 -45 66 0 65 0 -3 -42 -3 -43 -82 -3 c-93 -3 -138 12
-153 54 -13 33 -13 126 0 159 19 51 123 71 190 37z m238 -34 l3 -48 -35 0 -36
0 0 -85 0 -85 -50 0 -50 0 0 104 c0 57 3 112 6 121 10 25 63 45 114 42 l45 -2
3 -47z m-912 21 c16 -18 19 -37 19 -128 l0 -106 -103 -3 c-97 -3 -103 -2 -127
22 -33 33 -35 89 -2 110 12 8 40 16 62 18 40 3 40 3 43 -34 5 -56 24 -46 20
10 l-3 47 -55 1 -55 1 -3 41 -3 42 94 0 c83 0 96 -3 113 -21z"/>
</g>
</svg>
