<?xml version="1.0" standalone="no"?>
<!DOCTYPE svg PUBLIC "-//W3C//DTD SVG 1.1//EN" "http://www.w3.org/Graphics/SVG/1.1/DTD/svg11.dtd" >
<svg xmlns="http://www.w3.org/2000/svg" xmlns:xlink="http://www.w3.org/1999/xlink" version="1.1">
<metadata>
Created by FontForge 20201107 at Thu Dec 17 14:39:56 2015
 By Jimmy Wärting
DIN 2014 is a contemporary version of a well-known DIN typeface. The Regular performs well in long text settings, while Light and Bold faces are extremely legible at large sizes. Type family spans 18 faces: 6 Upright with the matching Italics of normal width and 6 Narrow ones. The typeface was designed by Vasily Biryukov and released by Paratype in 2015.
</metadata>
<defs>
<font id="DIN2014-Bold" horiz-adv-x="486" >
  <font-face 
    font-family="DIN 2014 Bold"
    font-weight="700"
    font-stretch="normal"
    units-per-em="1000"
    panose-1="2 11 7 4 2 2 2 2 2 4"
    ascent="779"
    descent="-221"
    x-height="500"
    cap-height="690"
    bbox="-378 -297 3054 1010"
    underline-thickness="50"
    underline-position="-100"
    stemh="108"
    stemv="127"
    unicode-range="U+0020-1F4F1"
  />
<missing-glyph horiz-adv-x="250" 
 />
    <glyph glyph-name="afii10017.var.accented" unicode="&#x410;`" horiz-adv-x="607" 
d="M146 0h-150l240 690h134l240 -690h-149l-42 131h-231zM303 492l-78 -243h156zM244 742l80 129h147l-103 -129h-124z" />
    <glyph glyph-name="afii10022.var.accented" unicode="&#x415;`" horiz-adv-x="527" 
d="M68 690h430v-119h-290v-155h260v-118h-260v-180h290v-118h-430v690zM201 742l80 129h147l-103 -129h-124z" />
    <glyph glyph-name="afii10026.var.accented" unicode="&#x418;`" horiz-adv-x="676" 
d="M68 690h140v-433l288 433h112v-690h-140v428l-285 -428h-115v690zM271 742l80 129h147l-103 -129h-124z" />
    <glyph glyph-name="afii10032.var.accented" unicode="&#x41e;`" horiz-adv-x="623" 
d="M576 296c0 -211 -109 -305 -265 -305c-155 0 -264 94 -264 305v98c0 213 109 305 264 305c156 0 265 -92 265 -305v-98zM187 394v-98c0 -132 43 -187 124 -187s125 55 125 187v98c0 132 -44 187 -125 187s-124 -55 -124 -187zM237 742l80 129h147l-103 -129h-124z" />
    <glyph glyph-name="afii10037.var.accented" unicode="&#x423;`" horiz-adv-x="579" 
d="M435 690h144l-212 -550c-46 -119 -111 -149 -249 -149v122c72 0 104 10 126 51l-236 526h155l148 -344zM233 742l80 129h147l-103 -129h-124z" />
    <glyph glyph-name="afii10045.var.accented" unicode="&#x42b;`" horiz-adv-x="816" 
d="M68 690h140v-253h97c184 0 258 -98 258 -219c0 -119 -74 -218 -272 -218h-223v690zM748 690v-690h-140v690h140zM297 319h-89v-201h89c92 0 126 39 126 100c0 62 -34 101 -126 101zM324 742l80 129h147l-103 -129h-124z" />
    <glyph glyph-name="afii10047.var.accented" unicode="&#x42d;`" horiz-adv-x="594" 
d="M199 288v118h208c-3 123 -47 175 -125 175c-67 0 -106 -40 -118 -105h-134c23 151 115 223 252 223c156 0 265 -92 265 -305v-98c0 -211 -109 -305 -265 -305c-141 0 -228 68 -252 223h134c14 -70 49 -105 118 -105c80 0 123 56 125 179h-208zM209 742l80 129h147
l-103 -129h-124z" />
    <glyph glyph-name="afii10048.var.accented" unicode="&#x42e;`" horiz-adv-x="842" 
d="M795 306c0 -223 -93 -315 -250 -315c-154 0 -248 90 -250 307h-87v-298h-140v690h140v-274h87c9 200 101 283 250 283c157 0 250 -92 250 -315v-78zM435 378v-65c0 -139 28 -204 110 -204c83 0 110 65 110 204v65c0 137 -27 203 -110 203c-82 0 -110 -66 -110 -203z
M270 742l80 129h147l-103 -129h-124z" />
    <glyph glyph-name="afii10049.var.accented" unicode="&#x42f;`" horiz-adv-x="614" 
d="M167 0h-154l160 289c-84 29 -132 91 -132 192c0 140 101 209 261 209h244v-690h-140v271h-96zM312 389h94v182h-94c-85 0 -131 -22 -131 -90c0 -61 28 -92 131 -92zM249 742l80 129h147l-103 -129h-124z" />
    <glyph glyph-name="afii10023.var.accented" unicode="&#x401;`" horiz-adv-x="527" 
d="M68 690h430v-119h-290v-155h260v-118h-260v-180h290v-118h-430v690zM119 752v117h124v-117h-124zM322 752v117h124v-117h-124zM217 881l80 129h147l-103 -129h-124z" />
    <glyph glyph-name="afii10065.var.accented" unicode="&#x430;`" 
d="M26 148c0 106 80 152 185 152h99v29c0 56 -17 74 -89 74c-49 0 -73 -7 -94 -40l-90 63c37 61 93 83 196 83c129 0 202 -38 202 -181v-328h-125v44c-20 -34 -50 -53 -108 -53c-104 0 -176 55 -176 157zM310 187v19h-84c-52 0 -75 -17 -75 -56c0 -38 29 -56 73 -56
c58 0 86 25 86 93zM162 567l70 158h143l-91 -158h-122z" />
    <glyph glyph-name="afii10070.var.accented" unicode="&#x435;`" 
d="M343 142l95 -66c-35 -61 -93 -85 -183 -85c-150 0 -222 97 -222 226v68c0 151 76 224 206 224c141 0 206 -82 206 -234v-57h-285c1 -69 23 -119 94 -119c53 0 70 16 89 43zM240 401c-51 0 -75 -35 -80 -92h157c-3 65 -29 92 -77 92zM179 567l70 158h143l-91 -158h-122z
" />
    <glyph glyph-name="afii10074.var.accented" unicode="&#x438;`" horiz-adv-x="532" 
d="M179 500v-273l191 273h110v-500h-127v283l-193 -283h-109v500h128zM202 567l70 158h143l-91 -158h-122z" />
    <glyph glyph-name="afii10080.var.accented" unicode="&#x43e;`" horiz-adv-x="499" 
d="M465 281v-60c0 -137 -65 -230 -216 -230c-145 0 -216 90 -216 230v60c0 150 79 228 216 228c139 0 216 -78 216 -228zM249 99c70 0 89 54 89 126v52c0 80 -26 124 -89 124s-89 -44 -89 -124v-52c0 -72 18 -126 89 -126zM179 567l70 158h143l-91 -158h-122z" />
    <glyph glyph-name="afii10085.var.accented" unicode="&#x443;`" horiz-adv-x="479" 
d="M5 500h134l111 -320l100 320h129l-175 -523c-45 -134 -89 -167 -229 -167v114c69 0 96 11 117 69zM185 567l70 158h143l-91 -158h-122z" />
    <glyph glyph-name="afii10093.var.accented" unicode="&#x44b;`" horiz-adv-x="661" 
d="M51 500h128v-172h53c139 0 211 -54 211 -163c0 -112 -77 -165 -201 -165h-191v500zM482 500h127v-500h-127v500zM179 220v-112h56c47 0 71 19 71 57c0 34 -20 55 -83 55h-44zM251 567l70 158h143l-91 -158h-122z" />
    <glyph glyph-name="afii10095.var.accented" unicode="&#x44d;`" horiz-adv-x="451" 
d="M134 204v99h156c-3 58 -28 98 -96 98c-36 0 -63 -13 -83 -42l-95 67c39 51 100 83 173 83c153 0 229 -82 229 -224v-68c0 -138 -77 -226 -229 -226c-79 0 -142 29 -176 85l93 66c20 -29 49 -43 88 -43c77 0 95 50 96 105h-156zM138 567l70 158h143l-91 -158h-122z" />
    <glyph glyph-name="afii10096.var.accented" unicode="&#x44e;`" horiz-adv-x="691" 
d="M657 285v-68c0 -137 -73 -226 -204 -226c-116 0 -199 69 -204 210h-70v-201h-128v500h128v-190h71c8 132 85 199 203 199c126 0 204 -74 204 -224zM453 99c57 0 77 46 77 124v56c0 88 -28 122 -77 122s-77 -35 -77 -122v-56c0 -79 18 -124 77 -124zM211 567l70 158h143
l-91 -158h-122z" />
    <glyph glyph-name="afii10097.var.accented" unicode="&#x44f;`" horiz-adv-x="500" 
d="M448 0h-127v178h-63l-105 -178h-135l120 199c-59 26 -94 75 -94 146c0 86 55 155 204 155h200v-500zM321 284v108h-67c-48 0 -73 -18 -73 -53c0 -39 26 -55 81 -55h59zM203 567l70 158h143l-91 -158h-122z" />
    <glyph glyph-name="afii10071.var.accented" unicode="&#x451;`" 
d="M343 142l95 -66c-35 -61 -93 -85 -183 -85c-150 0 -222 97 -222 226v68c0 151 76 224 206 224c141 0 206 -82 206 -234v-57h-285c1 -69 23 -119 94 -119c53 0 70 16 89 43zM240 401c-51 0 -75 -35 -80 -92h157c-3 65 -29 92 -77 92zM171 717l70 158h143l-91 -158h-122z
M73 573v117h124v-117h-124zM277 573v117h123v-117h-123z" />
    <glyph glyph-name="fi" unicode="fi" horiz-adv-x="494" 
d="M14 500h64v27c0 129 50 163 171 163h37v-112h-24c-47 0 -57 -21 -57 -71v-7h252v-500h-128v392h-124v-392h-127v392h-64v108z" />
    <glyph glyph-name="fl" unicode="fl" horiz-adv-x="553" 
d="M330 160v418h-68c-47 0 -57 -21 -57 -71v-7h81v-108h-81v-392h-127v392h-64v108h64v27c0 129 50 163 171 163h209v-501c0 -54 16 -79 70 -79v-110c-135 0 -198 35 -198 160z" />
    <glyph glyph-name=".notdef" horiz-adv-x="250" 
 />
    <glyph glyph-name="space" unicode=" " horiz-adv-x="250" 
 />
    <glyph glyph-name="exclam" unicode="!" horiz-adv-x="250" 
d="M188 690v-501h-126v501h126zM193 0v136h-136v-136h136z" />
    <glyph glyph-name="quotedbl" unicode="&#x22;" horiz-adv-x="362" 
d="M160 690v-183h-120v183h120zM322 690v-183h-119v183h119z" />
    <glyph glyph-name="numbersign" unicode="#" horiz-adv-x="615" 
d="M51 501h105l35 189h128l-35 -189h96l35 189h128l-35 -189h79v-112h-100l-16 -85h79v-112h-100l-36 -192h-127l35 192h-96l-35 -192h-129l36 192h-84v112h105l16 85h-84v112zM263 389l-16 -85h96l16 85h-96z" />
    <glyph glyph-name="dollar" unicode="$" horiz-adv-x="540" 
d="M515 583l-105 -75c-22 33 -46 56 -83 66v-174c134 -37 195 -89 195 -206c0 -102 -60 -183 -187 -200v-110h-116v111c-87 11 -152 47 -201 112l107 75c27 -35 57 -59 101 -68v180c-126 37 -189 99 -189 209c0 96 56 175 182 192v117h116v-118c79 -12 140 -50 180 -111z
M382 187c0 32 -14 55 -55 75v-146c39 12 55 41 55 71zM177 504c0 -33 16 -55 49 -72v141c-32 -11 -49 -36 -49 -69z" />
    <glyph glyph-name="percent" unicode="%" horiz-adv-x="759" 
d="M510 690h123l-385 -690h-124zM739 200v-59c0 -90 -43 -150 -151 -150c-98 0 -150 53 -150 150v59c0 97 54 148 150 148c98 0 151 -50 151 -148zM588 78c33 0 48 20 48 63v56c0 46 -16 63 -48 63c-30 0 -46 -18 -46 -63v-56c0 -43 14 -63 46 -63zM323 551v-59
c0 -90 -43 -150 -152 -150c-97 0 -149 53 -149 150v59c0 97 54 148 149 148c99 0 152 -50 152 -148zM172 429c33 0 48 20 48 63v56c0 46 -16 63 -48 63c-30 0 -46 -18 -46 -63v-56c0 -43 13 -63 46 -63z" />
    <glyph glyph-name="ampersand" unicode="&#x26;" horiz-adv-x="666" 
d="M35 183c0 91 54 151 116 200c-40 49 -66 98 -66 159c0 95 80 157 189 157c125 0 187 -66 187 -137c0 -77 -71 -133 -143 -186l132 -147c9 27 14 59 14 93h132c0 -72 -19 -139 -54 -195l115 -127h-161l-38 41c-49 -32 -111 -50 -185 -50c-154 0 -238 94 -238 192zM279 109
c38 0 71 8 97 23l-153 168c-31 -30 -52 -61 -52 -97c0 -57 43 -94 108 -94zM218 542c0 -29 15 -60 35 -88c46 32 82 62 82 100c0 25 -21 48 -59 48c-33 0 -58 -19 -58 -60z" />
    <glyph glyph-name="quotesingle" unicode="'" horiz-adv-x="200" 
d="M160 690v-183h-120v183h120z" />
    <glyph glyph-name="parenleft" unicode="(" horiz-adv-x="317" 
d="M307 -17l-70 -99c-141 89 -174 160 -174 271v386c0 111 33 181 174 271l70 -99c-84 -63 -117 -90 -117 -198v-334c0 -108 33 -135 117 -198z" />
    <glyph glyph-name="parenright" unicode=")" horiz-adv-x="317" 
d="M93 -116l-70 99c84 63 117 90 117 198v334c0 108 -33 135 -117 198l70 99c141 -90 174 -160 174 -271v-386c0 -111 -33 -182 -174 -271z" />
    <glyph glyph-name="asterisk" unicode="*" horiz-adv-x="425" 
d="M254 690l-5 -102l85 56l47 -82l-88 -46l89 -47l-48 -81l-85 54l5 -101h-95l4 100l-83 -54l-48 82l90 46l-89 47l46 82l84 -54l-4 100h95z" />
    <glyph glyph-name="plus" unicode="+" horiz-adv-x="540" 
d="M58 300v108h139v141h110v-141h140v-108h-140v-140h-110v140h-139z" />
    <glyph glyph-name="comma" unicode="," horiz-adv-x="256" 
d="M196 156v-202l-136 -116v318h136z" />
    <glyph glyph-name="hyphen" unicode="-" horiz-adv-x="319" 
d="M30 233v112h259v-112h-259z" />
    <glyph glyph-name="period" unicode="." horiz-adv-x="276" 
d="M216 156v-156h-156v156h156z" />
    <glyph glyph-name="slash" unicode="/" horiz-adv-x="485" 
d="M162 -116h-115l336 928h115z" />
    <glyph glyph-name="zero" unicode="0" horiz-adv-x="540" 
d="M502 480v-269c0 -155 -108 -220 -232 -220s-232 65 -232 220v268c0 162 108 220 232 220s232 -58 232 -219zM362 467c0 74 -30 114 -92 114c-63 0 -93 -40 -93 -114v-244c0 -74 30 -114 93 -114c62 0 92 40 92 114v244z" />
    <glyph glyph-name="one" unicode="1" horiz-adv-x="540" 
d="M364 690v-690h-140v544l-99 -65v135l113 76h126z" />
    <glyph glyph-name="two" unicode="2" horiz-adv-x="540" 
d="M477 118v-118h-426v90l231 272c43 50 64 92 64 137c0 56 -41 84 -86 84c-47 0 -82 -29 -86 -84h-124c0 119 98 200 217 200c124 0 218 -86 218 -200c0 -91 -60 -162 -104 -214l-142 -167h238z" />
    <glyph glyph-name="three" unicode="3" horiz-adv-x="540" 
d="M194 297v118h51c57 0 96 30 96 88c0 46 -35 80 -86 80c-49 0 -80 -31 -86 -74h-124c5 113 98 190 217 190c126 0 218 -87 218 -190c0 -78 -48 -126 -94 -151c59 -29 104 -83 104 -165c0 -112 -78 -202 -220 -202c-146 0 -229 82 -234 194h123c7 -44 40 -76 102 -76
c56 0 90 40 90 91c0 61 -35 97 -106 97h-51z" />
    <glyph glyph-name="four" unicode="4" horiz-adv-x="540" 
d="M245 690h153l-215 -473h132v176h140v-176h63v-119h-63v-98h-140v98h-306v97z" />
    <glyph glyph-name="five" unicode="5" horiz-adv-x="540" 
d="M272 355c-36 0 -58 -20 -73 -51h-126v386h393v-127h-256v-118c19 18 50 36 102 36c106 0 180 -81 180 -246c0 -163 -74 -244 -216 -244c-116 0 -213 65 -224 187h138c11 -44 37 -69 82 -69c50 0 80 38 80 119c0 84 -24 127 -80 127z" />
    <glyph glyph-name="six" unicode="6" horiz-adv-x="540" 
d="M390 690l-144 -284c21 10 42 13 67 13c106 0 189 -87 189 -206c0 -153 -103 -222 -231 -222c-129 0 -233 68 -233 221c0 54 24 118 63 197l139 281h150zM178 207c0 -58 31 -98 93 -98c60 0 91 40 91 98c0 57 -31 97 -91 97c-62 0 -93 -40 -93 -97z" />
    <glyph glyph-name="seven" unicode="7" horiz-adv-x="540" 
d="M185 464h-119v226h422v-98l-199 -592h-145l200 571h-159v-107z" />
    <glyph glyph-name="eight" unicode="8" horiz-adv-x="540" 
d="M35 192c0 78 49 141 103 166c-55 28 -93 87 -93 152c0 122 108 189 225 189c118 0 225 -67 225 -189c0 -65 -38 -124 -93 -152c56 -25 103 -88 103 -166c0 -129 -107 -201 -235 -201s-235 72 -235 201zM175 205c0 -53 40 -97 95 -97c53 0 96 44 96 97c0 60 -50 96 -96 96
c-47 0 -95 -36 -95 -96zM184 496c0 -48 38 -87 86 -87c47 0 86 39 86 87c0 47 -39 85 -86 85c-48 0 -86 -38 -86 -85z" />
    <glyph glyph-name="nine" unicode="9" horiz-adv-x="540" 
d="M150 0l145 284c-22 -10 -43 -13 -67 -13c-106 0 -190 87 -190 206c0 153 104 222 232 222c129 0 233 -68 233 -221c0 -54 -25 -118 -64 -197l-139 -281h-150zM363 483c0 58 -32 98 -93 98c-60 0 -92 -40 -92 -98c0 -57 32 -97 92 -97c61 0 93 40 93 97z" />
    <glyph glyph-name="colon" unicode=":" horiz-adv-x="246" 
d="M196 500v-137h-136v137h136zM196 136v-136h-136v136h136z" />
    <glyph glyph-name="semicolon" unicode=";" horiz-adv-x="246" 
d="M196 136v-188l-136 -117v305h136zM196 500v-137h-136v137h136z" />
    <glyph glyph-name="less" unicode="&#x3c;" horiz-adv-x="540" 
d="M426 436l-181 -94l181 -93v-144l-325 183v109l325 183v-144z" />
    <glyph glyph-name="equal" unicode="=" horiz-adv-x="540" 
d="M76 359v120h389v-120h-389zM76 182v119h389v-119h-389z" />
    <glyph glyph-name="greater" unicode="&#x3e;" horiz-adv-x="540" 
d="M293 342l-181 94v144l325 -183v-109l-325 -183v144z" />
    <glyph glyph-name="question" unicode="?" horiz-adv-x="487" 
d="M297 189h-121v69c0 42 7 67 39 98l45 43c40 38 64 63 64 110c0 46 -33 73 -77 73c-41 0 -77 -23 -78 -68h-132c0 124 96 185 210 185c117 0 217 -61 217 -191c0 -80 -45 -136 -100 -190l-33 -32c-20 -20 -34 -33 -34 -66v-31zM305 0v136h-137v-136h137z" />
    <glyph glyph-name="at" unicode="@" horiz-adv-x="898" 
d="M640 484v-243c0 -56 15 -75 46 -75c39 0 58 37 58 127c0 212 -139 284 -295 284c-216 0 -289 -158 -289 -301c0 -208 132 -300 294 -300c91 0 149 16 221 52l47 -91c-46 -33 -139 -69 -273 -69c-212 0 -416 136 -416 408c0 264 197 409 416 409c239 0 422 -142 422 -393
c0 -146 -64 -234 -182 -234c-60 0 -105 19 -133 65c-22 -43 -63 -65 -131 -65c-107 0 -168 74 -168 190v52c0 128 70 189 168 189c37 0 66 -9 88 -23v18h127zM446 166c49 0 67 25 67 80v50c0 64 -21 85 -67 85c-44 0 -61 -31 -61 -85v-38c0 -64 17 -92 61 -92z" />
    <glyph glyph-name="A" unicode="A" horiz-adv-x="607" 
d="M146 0h-150l240 690h134l240 -690h-149l-42 131h-231zM303 492l-78 -243h156z" />
    <glyph glyph-name="B" unicode="B" horiz-adv-x="606" 
d="M68 690h231c163 0 252 -58 252 -181c0 -71 -36 -120 -91 -147c71 -26 113 -78 113 -164c0 -107 -70 -198 -252 -198h-253v690zM208 299v-181h101c84 0 124 32 124 91c0 65 -43 90 -137 90h-88zM208 572v-155h93c77 0 110 30 110 79c0 48 -24 76 -125 76h-78z" />
    <glyph glyph-name="C" unicode="C" horiz-adv-x="594" 
d="M564 476h-134c-13 65 -51 105 -119 105c-81 0 -124 -55 -124 -187v-98c0 -128 43 -187 124 -187c70 0 104 35 119 105h133c-23 -155 -110 -223 -252 -223c-155 0 -264 94 -264 305v98c0 213 109 305 264 305c137 0 230 -72 253 -223z" />
    <glyph glyph-name="D" unicode="D" horiz-adv-x="625" 
d="M313 0h-245v690h245c156 0 265 -80 265 -300v-90c0 -219 -109 -300 -265 -300zM313 118c93 0 125 63 125 182v90c0 119 -32 181 -125 181h-105v-453h105z" />
    <glyph glyph-name="E" unicode="E" horiz-adv-x="527" 
d="M68 690h430v-119h-290v-155h260v-118h-260v-180h290v-118h-430v690z" />
    <glyph glyph-name="F" unicode="F" horiz-adv-x="521" 
d="M68 690h430v-119h-290v-171h260v-118h-260v-282h-140v690z" />
    <glyph glyph-name="G" unicode="G" horiz-adv-x="612" 
d="M314 359h251v-63c0 -211 -98 -305 -254 -305c-155 0 -264 94 -264 305v88c0 223 109 315 264 315c145 0 232 -82 253 -223h-134c-12 63 -49 105 -119 105c-81 0 -124 -55 -124 -187v-98c0 -132 43 -187 124 -187c79 0 111 49 119 132h-116v118z" />
    <glyph glyph-name="H" unicode="H" horiz-adv-x="656" 
d="M208 690v-274h239v274h140v-690h-140v298h-239v-298h-140v690h140z" />
    <glyph glyph-name="I" unicode="I" horiz-adv-x="296" 
d="M218 690v-690h-140v690h140z" />
    <glyph glyph-name="J" unicode="J" horiz-adv-x="512" 
d="M-9 94l116 65c22 -31 56 -50 94 -50c67 0 103 36 103 156v425h140v-425c0 -199 -89 -274 -234 -274c-99 0 -172 36 -219 103z" />
    <glyph glyph-name="K" unicode="K" horiz-adv-x="645" 
d="M633 0h-167l-176 291l-82 -108v-183h-140v690h140v-298l218 298h166l-211 -279z" />
    <glyph glyph-name="L" unicode="L" horiz-adv-x="504" 
d="M208 690v-572h290v-118h-430v690h140z" />
    <glyph glyph-name="M" unicode="M" horiz-adv-x="786" 
d="M199 690l194 -376l192 376h133v-690h-134v428l-150 -304h-85l-148 301v-425h-133v690h131z" />
    <glyph glyph-name="N" unicode="N" horiz-adv-x="656" 
d="M454 690h133v-690h-117l-269 427v-427h-133v690h116l270 -433v433z" />
    <glyph glyph-name="O" unicode="O" horiz-adv-x="623" 
d="M576 296c0 -211 -109 -305 -265 -305c-155 0 -264 94 -264 305v98c0 213 109 305 264 305c156 0 265 -92 265 -305v-98zM187 394v-98c0 -132 43 -187 124 -187s125 55 125 187v98c0 132 -44 187 -125 187s-124 -55 -124 -187z" />
    <glyph glyph-name="P" unicode="P" horiz-adv-x="590" 
d="M315 243h-107v-243h-140v690h247c159 0 258 -73 258 -221c0 -146 -98 -226 -258 -226zM208 361h87c97 0 138 34 138 108c0 66 -41 102 -138 102h-87v-210z" />
    <glyph glyph-name="Q" unicode="Q" horiz-adv-x="630" 
d="M576 296c0 -67 -11 -121 -31 -165l96 -82l-74 -88l-93 79c-44 -33 -99 -49 -163 -49c-155 0 -264 94 -264 305v98c0 213 109 305 264 305c156 0 265 -92 265 -305v-98zM187 394v-98c0 -132 43 -187 124 -187c24 0 46 5 63 16l-78 67l76 89l59 -52c3 20 5 42 5 67v98
c0 132 -44 187 -125 187s-124 -55 -124 -187z" />
    <glyph glyph-name="R" unicode="R" horiz-adv-x="617" 
d="M598 0h-154l-124 271h-112v-271h-140v690h247c159 0 258 -71 258 -211c0 -93 -43 -154 -118 -185zM208 389h94c83 0 131 18 131 90s-48 92 -131 92h-94v-182z" />
    <glyph glyph-name="S" unicode="S" horiz-adv-x="575" 
d="M532 586l-105 -75c-30 47 -66 70 -136 70c-63 0 -97 -29 -97 -76c0 -54 44 -78 136 -101c144 -36 209 -90 209 -212c0 -113 -76 -201 -238 -201c-121 0 -205 33 -266 113l107 74c37 -46 79 -69 150 -69c80 0 107 35 107 77c0 48 -29 75 -141 104
c-136 36 -204 101 -204 215c0 109 72 194 236 194c110 0 193 -37 242 -113z" />
    <glyph glyph-name="T" unicode="T" horiz-adv-x="536" 
d="M8 690h520v-119h-190v-571h-140v571h-190v119z" />
    <glyph glyph-name="U" unicode="U" horiz-adv-x="666" 
d="M458 690h140v-410c0 -204 -112 -289 -265 -289s-265 85 -265 288v411h140v-411c0 -118 39 -170 125 -170s125 52 125 170v411z" />
    <glyph glyph-name="V" unicode="V" horiz-adv-x="614" 
d="M3 690h153l151 -464l151 464h153l-240 -690h-127z" />
    <glyph glyph-name="W" unicode="W" horiz-adv-x="889" 
d="M444 475l-146 -475h-133l-158 690h150l92 -454l131 454h126l135 -457l91 457h151l-159 -690h-134z" />
    <glyph glyph-name="X" unicode="X" horiz-adv-x="592" 
d="M165 0h-152l194 356l-173 334h152l110 -220l111 220h151l-174 -334l195 -356h-151l-132 235z" />
    <glyph glyph-name="Y" unicode="Y" horiz-adv-x="583" 
d="M6 690h162l123 -257l124 257h161l-215 -408v-282h-140v282z" />
    <glyph glyph-name="Z" unicode="Z" horiz-adv-x="519" 
d="M30 690h456v-92l-278 -480h288v-118h-466v92l280 479h-280v119z" />
    <glyph glyph-name="bracketleft" unicode="[" horiz-adv-x="335" 
d="M70 -102v894h239v-108h-112v-678h112v-108h-239z" />
    <glyph glyph-name="backslash" unicode="\" horiz-adv-x="485" 
d="M25 812h116l336 -928h-116z" />
    <glyph glyph-name="bracketright" unicode="]" horiz-adv-x="335" 
d="M26 792h239v-894h-239v106h112v682h-112v106z" />
    <glyph glyph-name="asciicircum" unicode="^" horiz-adv-x="540" 
d="M212 690h115l176 -253h-144l-89 129l-82 -129h-150z" />
    <glyph glyph-name="underscore" unicode="_" horiz-adv-x="526" 
d="M0 -66h526v-103h-526v103z" />
    <glyph glyph-name="grave" unicode="`" horiz-adv-x="337" 
d="M205 725l70 -158h-122l-91 158h143z" />
    <glyph glyph-name="a" unicode="a" 
d="M26 148c0 106 80 152 185 152h99v29c0 56 -17 74 -89 74c-49 0 -73 -7 -94 -40l-90 63c37 61 93 83 196 83c129 0 202 -38 202 -181v-328h-125v44c-20 -34 -50 -53 -108 -53c-104 0 -176 55 -176 157zM310 187v19h-84c-52 0 -75 -17 -75 -56c0 -38 29 -56 73 -56
c58 0 86 25 86 93z" />
    <glyph glyph-name="b" unicode="b" horiz-adv-x="510" 
d="M172 690v-221c27 29 65 40 108 40c120 0 197 -78 197 -228v-60c0 -137 -65 -230 -197 -230c-49 0 -84 13 -108 39v-30h-121v690h121zM261 99c69 0 89 54 89 126v52c0 80 -26 124 -89 124s-89 -44 -89 -124v-52c0 -72 22 -126 89 -126z" />
    <glyph glyph-name="c" unicode="c" horiz-adv-x="446" 
d="M343 142l95 -66c-35 -59 -92 -85 -182 -85c-143 0 -223 90 -223 226v68c0 146 81 224 230 224c77 0 140 -28 175 -83l-96 -67c-17 24 -42 42 -82 42c-72 0 -100 -44 -100 -124v-52c0 -72 19 -126 100 -126c38 0 65 13 83 43z" />
    <glyph glyph-name="d" unicode="d" horiz-adv-x="517" 
d="M338 474v216h127v-690h-127v29c-26 -24 -60 -38 -107 -38c-131 0 -198 93 -198 226v68c0 146 79 224 198 224c43 0 79 -11 107 -35zM249 99c72 0 89 54 89 126v63c0 73 -29 113 -89 113c-63 0 -89 -44 -89 -124v-52c0 -72 20 -126 89 -126z" />
    <glyph glyph-name="e" unicode="e" 
d="M343 142l95 -66c-35 -61 -93 -85 -183 -85c-150 0 -222 97 -222 226v68c0 151 76 224 206 224c141 0 206 -82 206 -234v-57h-285c1 -69 23 -119 94 -119c53 0 70 16 89 43zM240 401c-51 0 -75 -35 -80 -92h157c-3 65 -29 92 -77 92z" />
    <glyph glyph-name="f" unicode="f" horiz-adv-x="301" 
d="M14 500h64v27c0 129 50 163 171 163h37v-112h-24c-47 0 -57 -21 -57 -71v-7h81v-108h-81v-392h-127v392h-64v108z" />
    <glyph glyph-name="g" unicode="g" horiz-adv-x="517" 
d="M338 474v26h127v-490c0 -167 -94 -206 -220 -206c-93 0 -152 22 -196 90l86 62c22 -30 51 -45 98 -45c76 0 105 22 105 99v16c-27 -23 -62 -35 -107 -35c-131 0 -198 93 -198 226v68c0 146 79 224 198 224c45 0 80 -12 107 -35zM249 99c68 0 89 49 89 115v63
c0 80 -26 124 -89 124s-89 -44 -89 -124v-52c0 -72 20 -126 89 -126z" />
    <glyph glyph-name="h" unicode="h" horiz-adv-x="526" 
d="M51 0v690h128v-229c19 25 54 48 112 48c101 0 183 -48 183 -196v-313h-127v293c0 78 -28 106 -80 106c-59 0 -88 -39 -88 -105v-294h-128z" />
    <glyph glyph-name="i" unicode="i" horiz-adv-x="260" 
d="M66 0v500h128v-500h-128zM61 566v124h138v-124h-138z" />
    <glyph glyph-name="j" unicode="j" horiz-adv-x="251" 
d="M194 500v-527c0 -128 -61 -163 -194 -163v110c53 0 67 24 67 71v509h127zM62 566v124h137v-124h-137z" />
    <glyph glyph-name="k" unicode="k" horiz-adv-x="502" 
d="M319 500h152l-173 -209l202 -291h-150l-137 188l-34 -42v-146h-128v690h128v-372z" />
    <glyph glyph-name="l" unicode="l" horiz-adv-x="285" 
d="M51 160v530h128v-501c0 -54 16 -79 70 -79v-110c-135 0 -198 35 -198 160z" />
    <glyph glyph-name="m" unicode="m" horiz-adv-x="795" 
d="M461 294v-294h-127v293c0 80 -31 106 -76 106c-46 0 -79 -34 -79 -105v-294h-128v500h125v-42c19 26 55 51 111 51c60 0 109 -23 140 -67c32 39 81 67 144 67c109 0 173 -66 173 -196v-313h-128v293c0 75 -26 106 -77 106c-46 0 -78 -34 -78 -105z" />
    <glyph glyph-name="n" unicode="n" horiz-adv-x="526" 
d="M51 0v500h125v-42c19 25 59 51 115 51c101 0 183 -48 183 -196v-313h-127v293c0 78 -28 106 -80 106c-59 0 -88 -39 -88 -105v-294h-128z" />
    <glyph glyph-name="o" unicode="o" horiz-adv-x="499" 
d="M465 281v-60c0 -137 -65 -230 -216 -230c-145 0 -216 90 -216 230v60c0 150 79 228 216 228c139 0 216 -78 216 -228zM249 99c70 0 89 54 89 126v52c0 80 -26 124 -89 124s-89 -44 -89 -124v-52c0 -72 18 -126 89 -126z" />
    <glyph glyph-name="p" unicode="p" horiz-adv-x="517" 
d="M484 285v-68c0 -130 -66 -226 -195 -226c-52 0 -87 10 -110 29v-210h-128v690h128v-33c24 27 60 42 111 42c116 0 194 -81 194 -224zM268 99c69 0 88 54 88 126v52c0 80 -25 124 -88 124c-61 0 -89 -40 -89 -113v-63c0 -72 17 -126 89 -126z" />
    <glyph glyph-name="q" unicode="q" horiz-adv-x="517" 
d="M338 475v25h127v-690h-127v218c-27 -24 -62 -37 -107 -37c-131 0 -198 93 -198 226v68c0 146 79 224 198 224c46 0 81 -13 107 -34zM249 99c72 0 89 54 89 126v52c0 80 -26 124 -89 124s-89 -44 -89 -124v-52c0 -72 20 -126 89 -126z" />
    <glyph glyph-name="r" unicode="r" horiz-adv-x="410" 
d="M420 431l-98 -70c-13 19 -31 38 -63 38c-48 0 -80 -35 -80 -105v-294h-128v500h125v-42c17 25 50 51 109 51c60 0 105 -26 135 -78z" />
    <glyph glyph-name="s" unicode="s" horiz-adv-x="464" 
d="M419 426l-94 -67c-22 26 -44 40 -98 40c-33 0 -63 -10 -63 -39c0 -30 27 -41 80 -49c123 -19 185 -66 185 -165c0 -96 -67 -155 -196 -155c-102 0 -164 25 -207 83l98 70c20 -27 45 -43 107 -43c44 0 71 15 71 41c0 31 -22 41 -85 51c-104 17 -180 61 -180 162
c0 95 68 154 193 154c82 0 150 -19 189 -83z" />
    <glyph glyph-name="t" unicode="t" horiz-adv-x="331" 
d="M14 392v108h64v110h127v-110h98v-108h-98v-209c0 -50 10 -71 57 -71h41v-112h-54c-121 0 -171 34 -171 163v229h-64z" />
    <glyph glyph-name="u" unicode="u" horiz-adv-x="526" 
d="M474 500v-500h-125v42c-21 -34 -48 -51 -114 -51c-101 0 -184 50 -184 197v312h128v-293c0 -79 28 -106 81 -106c59 0 87 36 87 105v294h127z" />
    <glyph glyph-name="v" unicode="v" horiz-adv-x="504" 
d="M363 500h141l-190 -500h-120l-194 500h140l112 -324z" />
    <glyph glyph-name="w" unicode="w" horiz-adv-x="716" 
d="M358 313l-113 -313h-104l-138 500h132l71 -286l101 286h94l108 -287l71 287h133l-139 -500h-103z" />
    <glyph glyph-name="x" unicode="x" horiz-adv-x="490" 
d="M484 0h-142l-97 152l-97 -152h-141l164 256l-151 244h141l84 -143l84 143h141l-151 -244z" />
    <glyph glyph-name="y" unicode="y" horiz-adv-x="479" 
d="M5 500h134l111 -320l100 320h129l-175 -523c-45 -134 -89 -167 -229 -167v114c69 0 96 11 117 69z" />
    <glyph glyph-name="z" unicode="z" horiz-adv-x="449" 
d="M30 89l220 303h-217v108h382v-89l-217 -303h224v-108h-392v89z" />
    <glyph glyph-name="braceleft" unicode="{" horiz-adv-x="328" 
d="M227 606v-190c0 -43 -14 -60 -45 -70c31 -10 45 -41 45 -70v-190c0 -65 19 -73 64 -73h14v-108h-41c-102 0 -164 25 -164 155v178c0 38 -15 52 -50 52h-19v112h19c35 0 50 14 50 52v178c0 130 62 155 164 155h41v-108h-14c-45 0 -64 -8 -64 -73z" />
    <glyph glyph-name="bar" unicode="|" horiz-adv-x="290" 
d="M206 812v-928h-121v928h121z" />
    <glyph glyph-name="braceright" unicode="}" horiz-adv-x="317" 
d="M108 416v190c0 65 -18 73 -63 73h-14v108h41c102 0 164 -25 164 -155v-178c0 -38 15 -52 50 -52h19v-112h-19c-35 0 -50 -14 -50 -52v-178c0 -130 -62 -155 -164 -155h-41v108h14c45 0 63 8 63 73v190c0 29 14 60 45 70c-31 10 -45 27 -45 70z" />
    <glyph glyph-name="asciitilde" unicode="~" horiz-adv-x="540" 
d="M355 259c-87 0 -111 45 -171 45c-38 0 -66 -17 -88 -45l-85 69c40 50 98 86 173 86c89 0 111 -45 171 -45c38 0 66 17 88 46l86 -70c-43 -52 -100 -86 -174 -86z" />
    <glyph glyph-name="uni00A0" unicode="&#xa0;" horiz-adv-x="250" 
 />
    <glyph glyph-name="exclamdown" unicode="&#xa1;" horiz-adv-x="250" 
d="M188 -190v501h-126v-501h126zM193 500v-136h-136v136h136z" />
    <glyph glyph-name="cent" unicode="&#xa2;" horiz-adv-x="540" 
d="M371 145l95 -66c-27 -47 -68 -73 -126 -82v-113h-114v115c-107 21 -165 104 -165 220v64c0 122 57 198 165 218v121h114v-120c54 -10 99 -36 126 -79l-96 -67c-17 24 -42 42 -82 42c-72 0 -100 -44 -100 -124v-46c0 -72 19 -126 100 -126c38 0 65 12 83 43z" />
    <glyph glyph-name="sterling" unicode="&#xa3;" horiz-adv-x="540" 
d="M27 0v118h73v159h-73v119h73v31c0 200 92 272 219 272c91 0 155 -30 203 -103l-115 -65c-18 24 -44 50 -82 50c-52 0 -85 -37 -85 -154v-31h131v-119h-131v-159h259v-118h-472z" />
    <glyph glyph-name="currency" unicode="&#xa4;" horiz-adv-x="540" 
d="M72 366c0 33 8 64 22 92l-79 79l84 84l77 -78c28 15 60 24 95 24c34 0 66 -8 94 -23l78 78l84 -84l-78 -78c15 -28 23 -60 23 -94s-9 -66 -24 -94l79 -78l-84 -84l-79 78c-28 -14 -60 -22 -93 -22c-34 0 -66 8 -94 23l-78 -78l-84 84l79 79c-14 27 -22 58 -22 92z
M179 366c0 -53 40 -95 92 -95c53 0 93 42 93 95s-40 96 -93 96c-52 0 -92 -43 -92 -96z" />
    <glyph glyph-name="yen" unicode="&#xa5;" horiz-adv-x="540" 
d="M60 231h137v51h-137v112h74l-112 296h155l90 -293l95 293h157l-119 -296h74v-112h-137v-51h137v-112h-137v-119h-140v119h-137v112z" />
    <glyph glyph-name="brokenbar" unicode="&#xa6;" horiz-adv-x="268" 
d="M209 243v-243h-140v243h140zM209 690v-243h-140v243h140z" />
    <glyph glyph-name="section" unicode="&#xa7;" horiz-adv-x="533" 
d="M72 -35h127c2 -24 10 -46 51 -46c37 0 53 19 53 43c0 29 -19 53 -82 75c-112 39 -178 84 -178 213c0 75 35 130 91 160c-37 29 -62 68 -62 125c0 96 71 156 183 156c118 0 176 -54 176 -156h-126c-3 24 -11 46 -52 46c-37 0 -52 -19 -52 -43c0 -29 18 -53 87 -77
c104 -36 172 -80 172 -211c0 -76 -35 -131 -91 -161c37 -29 62 -68 62 -124c0 -96 -71 -156 -182 -156c-119 0 -176 54 -177 156zM333 250c0 54 -33 81 -81 81c-51 0 -82 -30 -82 -81s31 -81 82 -81s81 30 81 81z" />
    <glyph glyph-name="dieresis" unicode="&#xa8;" horiz-adv-x="426" 
d="M49 573v117h124v-117h-124zM253 573v117h123v-117h-123z" />
    <glyph glyph-name="copyright" unicode="&#xa9;" horiz-adv-x="956" 
d="M34 250c0 246 197 440 440 440s440 -194 440 -440s-197 -440 -440 -440s-440 194 -440 440zM154 250c0 -182 141 -327 320 -327c180 0 319 145 319 327s-139 326 -319 326c-179 0 -320 -144 -320 -326zM565 142l95 -66c-35 -59 -92 -85 -182 -85c-143 0 -223 90 -223 226
v68c0 146 81 224 230 224c77 0 140 -28 175 -83l-96 -67c-17 24 -42 42 -82 42c-72 0 -100 -44 -100 -124v-52c0 -72 19 -126 100 -126c38 0 65 13 83 43z" />
    <glyph glyph-name="ordfeminine" unicode="&#xaa;" horiz-adv-x="316" 
d="M16 467c0 67 43 98 120 98h60v15c0 32 -12 44 -52 44c-33 0 -47 -9 -61 -33l-60 41c22 42 61 60 130 60c84 0 130 -26 130 -101v-217h-87v23c-16 -21 -35 -27 -71 -27c-60 0 -109 30 -109 97zM196 489v11h-47c-33 0 -45 -11 -45 -33c0 -21 17 -29 41 -29c31 0 51 8 51 51
z" />
    <glyph glyph-name="guillemotleft" unicode="&#xab;" horiz-adv-x="519" 
d="M30 283l232 231v-143l-90 -88l90 -89v-142zM245 283l232 231v-143l-89 -88l89 -89v-142z" />
    <glyph glyph-name="logicalnot" unicode="&#xac;" horiz-adv-x="534" 
d="M484 167h-129v133h-318v112h447v-245z" />
    <glyph glyph-name="uni00AD" unicode="&#xad;" horiz-adv-x="319" 
d="M30 233v112h259v-112h-259z" />
    <glyph glyph-name="registered" unicode="&#xae;" horiz-adv-x="544" 
d="M7 501c0 144 118 262 262 262s262 -118 262 -262s-118 -262 -262 -262s-262 118 -262 262zM82 501c0 -103 84 -187 187 -187s187 84 187 187s-84 187 -187 187s-187 -84 -187 -187zM230 374h-67v261h111c72 0 101 -41 101 -83c0 -38 -18 -63 -48 -76l61 -102h-76l-51 90
h-31v-90zM230 520h30c32 0 46 8 46 31c0 20 -15 28 -41 28h-35v-59z" />
    <glyph glyph-name="macron" unicode="&#xaf;" horiz-adv-x="405" 
d="M61 573v111h283v-111h-283z" />
    <glyph glyph-name="degree" unicode="&#xb0;" horiz-adv-x="308" 
d="M13 559c0 80 63 141 141 141s141 -61 141 -141s-63 -141 -141 -141s-141 61 -141 141zM102 559c0 -30 23 -53 52 -53s50 23 50 53c0 29 -21 52 -50 52s-52 -23 -52 -52z" />
    <glyph glyph-name="plusminus" unicode="&#xb1;" horiz-adv-x="506" 
d="M59 340v108h139v141h109v-141h141v-108h-141v-105h-109v105h-139zM59 104v108h389v-108h-389z" />
    <glyph glyph-name="twosuperior" unicode="&#xb2;" horiz-adv-x="278" 
d="M264 442v-68h-233v63l103 89c23 20 36 37 36 58c0 19 -11 31 -30 31c-18 0 -31 -13 -33 -33h-82c0 73 57 111 119 111c68 0 115 -38 115 -104c0 -44 -28 -76 -63 -106l-47 -41h115z" />
    <glyph glyph-name="threesuperior" unicode="&#xb3;" horiz-adv-x="301" 
d="M119 507v59h13c25 0 39 10 39 30c0 16 -12 25 -29 25c-19 0 -30 -11 -32 -27h-84c0 61 52 99 119 99s110 -33 110 -89c0 -35 -21 -56 -43 -66c31 -11 49 -38 49 -70c0 -65 -50 -97 -116 -97c-78 0 -120 45 -123 101h85c3 -16 13 -27 35 -27c18 0 33 9 33 30
c0 18 -12 32 -43 32h-13z" />
    <glyph glyph-name="acute" unicode="&#xb4;" horiz-adv-x="399" 
d="M93 567l70 158h143l-91 -158h-122z" />
    <glyph glyph-name="mu" unicode="&#x3bc;" horiz-adv-x="518" 
d="M175 -137h-127v637h127v-291c0 -93 38 -108 84 -108c57 0 85 37 85 106v293h113v-500h-111v42c-22 -36 -54 -51 -103 -51c-28 0 -50 5 -68 15v-143z" />
    <glyph glyph-name="mu" unicode="&#xb5;" horiz-adv-x="518" 
d="M175 -137h-127v637h127v-291c0 -93 38 -108 84 -108c57 0 85 37 85 106v293h113v-500h-111v42c-22 -36 -54 -51 -103 -51c-28 0 -50 5 -68 15v-143z" />
    <glyph glyph-name="paragraph" unicode="&#xb6;" horiz-adv-x="655" 
d="M576 690v-880h-133v761h-75v-761h-133v500c-105 0 -190 85 -190 190s85 190 190 190h341z" />
    <glyph glyph-name="periodcentered" unicode="&#xb7;" horiz-adv-x="216" 
d="M183 423v-150h-150v150h150z" />
    <glyph glyph-name="cedilla" unicode="&#xb8;" horiz-adv-x="350" 
d="M116 -72l20 97l81 -3l-12 -44c33 -13 52 -37 52 -72c0 -54 -49 -86 -118 -86c-21 0 -38 2 -46 4l15 65c6 -1 11 -2 19 -2c20 0 33 7 33 21c0 15 -17 20 -44 20z" />
    <glyph glyph-name="onesuperior" unicode="&#xb9;" horiz-adv-x="277" 
d="M215 690v-316h-88v223l-57 -37v87l64 43h81z" />
    <glyph glyph-name="ordmasculine" unicode="&#xba;" horiz-adv-x="350" 
d="M308 555v-45c0 -87 -51 -139 -140 -139c-82 0 -139 47 -139 139v45c0 94 59 138 139 138c82 0 140 -43 140 -138zM168 451c33 0 52 22 52 60v43c0 42 -21 59 -52 59s-51 -17 -51 -59v-43c0 -39 16 -60 51 -60z" />
    <glyph glyph-name="guillemotright" unicode="&#xbb;" horiz-adv-x="519" 
d="M257 514l232 -231l-232 -231v142l89 89l-89 88v143zM41 514l232 -231l-232 -231v142l90 89l-90 88v143z" />
    <glyph glyph-name="onequarter" unicode="&#xbc;" horiz-adv-x="658" 
d="M210 690v-316h-88v223l-57 -37v87l64 43h81zM457 316h102l-123 -198h51v45h88v-45h39v-71h-39v-47h-88v47h-161v64zM488 690h127l-474 -690h-128z" />
    <glyph glyph-name="onehalf" unicode="&#xbd;" horiz-adv-x="650" 
d="M210 690v-316h-88v223l-57 -37v87l64 43h81zM611 68v-68h-233v63l103 89c23 20 36 37 36 58c0 19 -11 31 -30 31c-18 0 -31 -13 -33 -33h-82c0 73 57 111 119 111c68 0 115 -38 115 -104c0 -44 -28 -76 -63 -106l-47 -41h115zM488 690h127l-474 -690h-128z" />
    <glyph glyph-name="threequarters" unicode="&#xbe;" horiz-adv-x="632" 
d="M113 507v59h13c25 0 39 10 39 30c0 16 -12 25 -29 25c-19 0 -30 -11 -32 -27h-84c0 61 52 99 119 99s110 -33 110 -89c0 -35 -21 -56 -43 -66c31 -11 49 -38 49 -70c0 -65 -50 -97 -116 -97c-78 0 -120 45 -123 101h85c3 -16 13 -27 35 -27c18 0 33 9 33 30
c0 18 -12 32 -43 32h-13zM457 316h102l-123 -198h51v45h88v-45h39v-71h-39v-47h-88v47h-161v64zM488 690h127l-474 -690h-128z" />
    <glyph glyph-name="questiondown" unicode="&#xbf;" horiz-adv-x="487" 
d="M204 311h121v-69c0 -42 -7 -67 -39 -98l-45 -43c-40 -38 -64 -63 -64 -110c0 -46 33 -73 77 -73c41 0 77 23 78 68h132c0 -124 -96 -185 -210 -185c-117 0 -217 61 -217 191c0 80 45 136 100 190l33 32c20 20 34 33 34 66v31zM196 364v136h137v-136h-137z" />
    <glyph glyph-name="Agrave" unicode="&#xc0;" horiz-adv-x="607" 
d="M146 0h-150l240 690h134l240 -690h-149l-42 131h-231zM303 492l-78 -243h156zM282 871l80 -129h-125l-103 129h148z" />
    <glyph glyph-name="Aacute" unicode="&#xc1;" horiz-adv-x="607" 
d="M146 0h-150l240 690h134l240 -690h-149l-42 131h-231zM303 492l-78 -243h156zM244 742l80 129h147l-103 -129h-124z" />
    <glyph glyph-name="Acircumflex" unicode="&#xc2;" horiz-adv-x="607" 
d="M146 0h-150l240 690h134l240 -690h-149l-42 131h-231zM303 492l-78 -243h156zM251 879h105l138 -142h-133l-58 61l-57 -61h-133z" />
    <glyph glyph-name="Atilde" unicode="&#xc3;" horiz-adv-x="607" 
d="M146 0h-150l240 690h134l240 -690h-149l-42 131h-231zM303 492l-78 -243h156zM365 738c-51 0 -83 29 -118 29c-19 0 -37 -9 -52 -26l-68 69c30 36 73 60 118 60c46 0 80 -29 117 -29c18 0 35 9 50 27l68 -69c-29 -36 -72 -61 -115 -61z" />
    <glyph glyph-name="Adieresis" unicode="&#xc4;" horiz-adv-x="607" 
d="M146 0h-150l240 690h134l240 -690h-149l-42 131h-231zM303 492l-78 -243h156zM140 752v117h124v-117h-124zM343 752v117h124v-117h-124z" />
    <glyph glyph-name="Aring" unicode="&#xc5;" horiz-adv-x="607" 
d="M146 0h-150l230 661c-24 17 -38 43 -38 76c0 61 49 99 115 99c68 0 117 -38 117 -99c0 -33 -15 -60 -40 -77l230 -660h-149l-42 131h-231zM303 492l-78 -243h156zM267 737c0 -20 14 -31 36 -31c24 0 37 11 37 31c0 21 -13 31 -37 31c-22 0 -36 -10 -36 -31z" />
    <glyph glyph-name="AE" unicode="&#xc6;" horiz-adv-x="894" 
d="M160 0h-164l391 690h477v-119h-289v-155h259v-118h-259v-180h289v-118h-429v138h-198zM302 256h133v238z" />
    <glyph glyph-name="Ccedilla" unicode="&#xc7;" horiz-adv-x="594" 
d="M262 -72l13 65c-136 13 -228 108 -228 303v98c0 213 109 305 264 305c137 0 230 -72 253 -223h-134c-13 65 -51 105 -119 105c-81 0 -124 -55 -124 -187v-98c0 -128 43 -187 124 -187c70 0 104 35 119 105h133c-21 -139 -92 -207 -208 -220l-4 -16c34 -13 53 -37 53 -72
c0 -54 -50 -86 -119 -86c-21 0 -38 2 -46 4l15 65c6 -1 11 -2 19 -2c20 0 33 7 33 21c0 15 -17 20 -44 20z" />
    <glyph glyph-name="Egrave" unicode="&#xc8;" horiz-adv-x="527" 
d="M68 690h430v-119h-290v-155h260v-118h-260v-180h290v-118h-430v690zM289 871l80 -129h-125l-103 129h148z" />
    <glyph glyph-name="Eacute" unicode="&#xc9;" horiz-adv-x="527" 
d="M68 690h430v-119h-290v-155h260v-118h-260v-180h290v-118h-430v690zM201 742l80 129h147l-103 -129h-124z" />
    <glyph glyph-name="Ecircumflex" unicode="&#xca;" horiz-adv-x="527" 
d="M68 690h430v-119h-290v-155h260v-118h-260v-180h290v-118h-430v690zM230 879h105l138 -142h-133l-58 61l-57 -61h-133z" />
    <glyph glyph-name="Edieresis" unicode="&#xcb;" horiz-adv-x="527" 
d="M68 690h430v-119h-290v-155h260v-118h-260v-180h290v-118h-430v690zM119 752v117h124v-117h-124zM322 752v117h124v-117h-124z" />
    <glyph glyph-name="Igrave" unicode="&#xcc;" horiz-adv-x="296" 
d="M218 690v-690h-140v690h140zM139 871l80 -129h-125l-103 129h148z" />
    <glyph glyph-name="Iacute" unicode="&#xcd;" horiz-adv-x="296" 
d="M218 690v-690h-140v690h140zM78 742l80 129h147l-103 -129h-124z" />
    <glyph glyph-name="Icircumflex" unicode="&#xce;" horiz-adv-x="296" 
d="M218 690v-690h-140v690h140zM96 879h105l138 -142h-133l-58 61l-57 -61h-133z" />
    <glyph glyph-name="Idieresis" unicode="&#xcf;" horiz-adv-x="296" 
d="M218 690v-690h-140v690h140zM-15 752v117h124v-117h-124zM188 752v117h124v-117h-124z" />
    <glyph glyph-name="Eth" unicode="&#xd0;" horiz-adv-x="626" 
d="M314 0h-245v298h-79v118h79v274h245c156 0 265 -80 265 -300v-90c0 -219 -109 -300 -265 -300zM314 118c93 0 125 63 125 182v90c0 119 -32 181 -125 181h-105v-155h136v-118h-136v-180h105z" />
    <glyph glyph-name="Ntilde" unicode="&#xd1;" horiz-adv-x="656" 
d="M454 690h133v-690h-117l-269 427v-427h-133v690h116l270 -433v433zM389 738c-51 0 -83 29 -118 29c-19 0 -37 -9 -52 -26l-68 69c30 36 73 60 118 60c46 0 80 -29 117 -29c18 0 35 9 50 27l68 -69c-29 -36 -72 -61 -115 -61z" />
    <glyph glyph-name="Ograve" unicode="&#xd2;" horiz-adv-x="623" 
d="M576 296c0 -211 -109 -305 -265 -305c-155 0 -264 94 -264 305v98c0 213 109 305 264 305c156 0 265 -92 265 -305v-98zM187 394v-98c0 -132 43 -187 124 -187s125 55 125 187v98c0 132 -44 187 -125 187s-124 -55 -124 -187zM312 871l80 -129h-125l-103 129h148z" />
    <glyph glyph-name="Oacute" unicode="&#xd3;" horiz-adv-x="623" 
d="M576 296c0 -211 -109 -305 -265 -305c-155 0 -264 94 -264 305v98c0 213 109 305 264 305c156 0 265 -92 265 -305v-98zM187 394v-98c0 -132 43 -187 124 -187s125 55 125 187v98c0 132 -44 187 -125 187s-124 -55 -124 -187zM237 742l80 129h147l-103 -129h-124z" />
    <glyph glyph-name="Ocircumflex" unicode="&#xd4;" horiz-adv-x="623" 
d="M576 296c0 -211 -109 -305 -265 -305c-155 0 -264 94 -264 305v98c0 213 109 305 264 305c156 0 265 -92 265 -305v-98zM187 394v-98c0 -132 43 -187 124 -187s125 55 125 187v98c0 132 -44 187 -125 187s-124 -55 -124 -187zM259 879h105l138 -142h-133l-58 61l-57 -61
h-133z" />
    <glyph glyph-name="Otilde" unicode="&#xd5;" horiz-adv-x="623" 
d="M576 296c0 -211 -109 -305 -265 -305c-155 0 -264 94 -264 305v98c0 213 109 305 264 305c156 0 265 -92 265 -305v-98zM187 394v-98c0 -132 43 -187 124 -187s125 55 125 187v98c0 132 -44 187 -125 187s-124 -55 -124 -187zM373 738c-51 0 -83 29 -118 29
c-19 0 -37 -9 -52 -26l-68 69c30 36 73 60 118 60c46 0 80 -29 117 -29c18 0 35 9 50 27l68 -69c-29 -36 -72 -61 -115 -61z" />
    <glyph glyph-name="Odieresis" unicode="&#xd6;" horiz-adv-x="623" 
d="M576 296c0 -211 -109 -305 -265 -305c-155 0 -264 94 -264 305v98c0 213 109 305 264 305c156 0 265 -92 265 -305v-98zM187 394v-98c0 -132 43 -187 124 -187s125 55 125 187v98c0 132 -44 187 -125 187s-124 -55 -124 -187zM148 752v117h124v-117h-124zM351 752v117
h124v-117h-124z" />
    <glyph glyph-name="multiply" unicode="&#xd7;" horiz-adv-x="563" 
d="M170 159l-78 78l117 117l-117 118l77 77l118 -118l118 118l77 -77l-118 -118l117 -117l-78 -78l-117 117z" />
    <glyph glyph-name="Oslash" unicode="&#xd8;" horiz-adv-x="623" 
d="M204 -116h-115l57 157c-62 48 -99 132 -99 255v98c0 213 109 305 264 305c24 0 48 -3 70 -7l44 120h115l-60 -166c60 -48 96 -130 96 -252v-98c0 -211 -109 -305 -265 -305c-23 0 -45 3 -66 7zM187 394v-98c0 -43 4 -77 13 -105l140 387c-9 2 -19 3 -29 3
c-81 0 -124 -55 -124 -187zM436 394c0 40 -4 72 -12 99l-138 -382c8 -2 16 -2 25 -2c81 0 125 55 125 187v98z" />
    <glyph glyph-name="Ugrave" unicode="&#xd9;" horiz-adv-x="666" 
d="M458 690h140v-410c0 -204 -112 -289 -265 -289s-265 85 -265 288v411h140v-411c0 -118 39 -170 125 -170s125 52 125 170v411zM325 871l80 -129h-125l-103 129h148z" />
    <glyph glyph-name="Uacute" unicode="&#xda;" horiz-adv-x="666" 
d="M458 690h140v-410c0 -204 -112 -289 -265 -289s-265 85 -265 288v411h140v-411c0 -118 39 -170 125 -170s125 52 125 170v411zM261 742l80 129h147l-103 -129h-124z" />
    <glyph glyph-name="Ucircumflex" unicode="&#xdb;" horiz-adv-x="666" 
d="M458 690h140v-410c0 -204 -112 -289 -265 -289s-265 85 -265 288v411h140v-411c0 -118 39 -170 125 -170s125 52 125 170v411zM281 879h105l138 -142h-133l-58 61l-57 -61h-133z" />
    <glyph glyph-name="Udieresis" unicode="&#xdc;" horiz-adv-x="666" 
d="M458 690h140v-410c0 -204 -112 -289 -265 -289s-265 85 -265 288v411h140v-411c0 -118 39 -170 125 -170s125 52 125 170v411zM170 752v117h124v-117h-124zM373 752v117h124v-117h-124z" />
    <glyph glyph-name="Yacute" unicode="&#xdd;" horiz-adv-x="583" 
d="M6 690h162l123 -257l124 257h161l-215 -408v-282h-140v282zM221 742l80 129h147l-103 -129h-124z" />
    <glyph glyph-name="Thorn" unicode="&#xde;" horiz-adv-x="590" 
d="M315 136h-107v-136h-140v690h140v-107h107c159 0 258 -73 258 -220s-98 -227 -258 -227zM208 255h87c97 0 138 34 138 108c0 65 -41 102 -138 102h-87v-210z" />
    <glyph glyph-name="germandbls" unicode="&#xdf;" horiz-adv-x="513" 
d="M462 565c0 -43 -17 -77 -61 -98c50 -18 61 -56 61 -115v-212c0 -120 -46 -140 -146 -140h-63v106h33c37 0 49 18 49 56v187c0 39 -10 59 -49 59h-33v99h33c34 0 49 19 49 47c0 27 -20 46 -69 46c-65 0 -87 -41 -87 -109v-491h-128v499c0 128 66 200 215 200
c144 0 196 -67 196 -134z" />
    <glyph glyph-name="agrave" unicode="&#xe0;" 
d="M26 148c0 106 80 152 185 152h99v29c0 56 -17 74 -89 74c-49 0 -73 -7 -94 -40l-90 63c37 61 93 83 196 83c129 0 202 -38 202 -181v-328h-125v44c-20 -34 -50 -53 -108 -53c-104 0 -176 55 -176 157zM310 187v19h-84c-52 0 -75 -17 -75 -56c0 -38 29 -56 73 -56
c58 0 86 25 86 93zM250 725l70 -158h-122l-91 158h143z" />
    <glyph glyph-name="aacute" unicode="&#xe1;" 
d="M26 148c0 106 80 152 185 152h99v29c0 56 -17 74 -89 74c-49 0 -73 -7 -94 -40l-90 63c37 61 93 83 196 83c129 0 202 -38 202 -181v-328h-125v44c-20 -34 -50 -53 -108 -53c-104 0 -176 55 -176 157zM310 187v19h-84c-52 0 -75 -17 -75 -56c0 -38 29 -56 73 -56
c58 0 86 25 86 93zM162 567l70 158h143l-91 -158h-122z" />
    <glyph glyph-name="acircumflex" unicode="&#xe2;" 
d="M26 148c0 106 80 152 185 152h99v29c0 56 -17 74 -89 74c-49 0 -73 -7 -94 -40l-90 63c37 61 93 83 196 83c129 0 202 -38 202 -181v-328h-125v44c-20 -34 -50 -53 -108 -53c-104 0 -176 55 -176 157zM310 187v19h-84c-52 0 -75 -17 -75 -56c0 -38 29 -56 73 -56
c58 0 86 25 86 93zM188 710h106l108 -142h-114l-47 65l-47 -65h-114z" />
    <glyph glyph-name="atilde" unicode="&#xe3;" 
d="M26 148c0 106 80 152 185 152h99v29c0 56 -17 74 -89 74c-49 0 -73 -7 -94 -40l-90 63c37 61 93 83 196 83c129 0 202 -38 202 -181v-328h-125v44c-20 -34 -50 -53 -108 -53c-104 0 -176 55 -176 157zM310 187v19h-84c-52 0 -75 -17 -75 -56c0 -38 29 -56 73 -56
c58 0 86 25 86 93zM307 569c-50 0 -82 29 -117 29c-20 0 -38 -9 -53 -27l-67 64c29 37 73 61 117 61c46 0 80 -29 117 -29c18 0 35 9 51 27l67 -64c-28 -36 -71 -61 -115 -61z" />
    <glyph glyph-name="adieresis" unicode="&#xe4;" 
d="M26 148c0 106 80 152 185 152h99v29c0 56 -17 74 -89 74c-49 0 -73 -7 -94 -40l-90 63c37 61 93 83 196 83c129 0 202 -38 202 -181v-328h-125v44c-20 -34 -50 -53 -108 -53c-104 0 -176 55 -176 157zM310 187v19h-84c-52 0 -75 -17 -75 -56c0 -38 29 -56 73 -56
c58 0 86 25 86 93zM69 573v117h124v-117h-124zM273 573v117h123v-117h-123z" />
    <glyph glyph-name="aring" unicode="&#xe5;" 
d="M26 148c0 106 80 152 185 152h99v29c0 56 -17 74 -89 74c-49 0 -73 -7 -94 -40l-90 63c37 61 93 83 196 83c129 0 202 -38 202 -181v-328h-125v44c-20 -34 -50 -53 -108 -53c-104 0 -176 55 -176 157zM310 187v19h-84c-52 0 -75 -17 -75 -56c0 -38 29 -56 73 -56
c58 0 86 25 86 93zM121 646c0 64 49 110 123 110s123 -46 123 -110c0 -63 -49 -109 -123 -109s-123 46 -123 109zM207 646c0 -27 14 -44 37 -44c24 0 37 17 37 44c0 28 -13 43 -37 43c-23 0 -37 -15 -37 -43z" />
    <glyph glyph-name="ae" unicode="&#xe6;" horiz-adv-x="760" 
d="M618 142l94 -66c-35 -61 -93 -85 -182 -85c-78 0 -131 25 -163 69c-34 -43 -86 -69 -164 -69c-108 0 -177 56 -177 155c0 111 83 154 189 154h95v25c0 53 -11 78 -86 78c-58 0 -78 -11 -97 -40l-90 61c35 58 104 85 199 85c69 0 117 -16 146 -48c30 30 73 48 132 48
c128 0 206 -68 206 -235v-58h-285c1 -86 38 -117 95 -117c47 0 68 14 88 43zM310 186v20h-85c-49 0 -74 -18 -74 -56c0 -41 31 -56 73 -56c52 0 86 20 86 92zM515 401c-51 0 -75 -33 -80 -94h157c-3 58 -24 94 -77 94z" />
    <glyph glyph-name="ccedilla" unicode="&#xe7;" horiz-adv-x="446" 
d="M204 -72l13 66c-118 14 -184 100 -184 223v68c0 146 81 224 230 224c77 0 140 -28 175 -83l-96 -67c-17 24 -42 42 -82 42c-72 0 -100 -44 -100 -124v-52c0 -72 19 -126 100 -126c38 0 65 13 83 43l95 -66c-30 -50 -75 -76 -141 -83l-4 -15c33 -13 52 -37 52 -72
c0 -54 -49 -86 -118 -86c-21 0 -38 2 -46 4l15 65c6 -1 11 -2 19 -2c20 0 33 7 33 21c0 15 -17 20 -44 20z" />
    <glyph glyph-name="egrave" unicode="&#xe8;" 
d="M343 142l95 -66c-35 -61 -93 -85 -183 -85c-150 0 -222 97 -222 226v68c0 151 76 224 206 224c141 0 206 -82 206 -234v-57h-285c1 -69 23 -119 94 -119c53 0 70 16 89 43zM240 401c-51 0 -75 -35 -80 -92h157c-3 65 -29 92 -77 92zM256 725l70 -158h-122l-91 158h143z
" />
    <glyph glyph-name="eacute" unicode="&#xe9;" 
d="M343 142l95 -66c-35 -61 -93 -85 -183 -85c-150 0 -222 97 -222 226v68c0 151 76 224 206 224c141 0 206 -82 206 -234v-57h-285c1 -69 23 -119 94 -119c53 0 70 16 89 43zM240 401c-51 0 -75 -35 -80 -92h157c-3 65 -29 92 -77 92zM164 567l70 158h143l-91 -158h-122z
" />
    <glyph glyph-name="ecircumflex" unicode="&#xea;" 
d="M343 142l95 -66c-35 -61 -93 -85 -183 -85c-150 0 -222 97 -222 226v68c0 151 76 224 206 224c141 0 206 -82 206 -234v-57h-285c1 -69 23 -119 94 -119c53 0 70 16 89 43zM240 401c-51 0 -75 -35 -80 -92h157c-3 65 -29 92 -77 92zM186 710h106l108 -142h-114l-47 65
l-47 -65h-114z" />
    <glyph glyph-name="edieresis" unicode="&#xeb;" 
d="M343 142l95 -66c-35 -61 -93 -85 -183 -85c-150 0 -222 97 -222 226v68c0 151 76 224 206 224c141 0 206 -82 206 -234v-57h-285c1 -69 23 -119 94 -119c53 0 70 16 89 43zM240 401c-51 0 -75 -35 -80 -92h157c-3 65 -29 92 -77 92zM75 573v117h124v-117h-124zM279 573
v117h123v-117h-123z" />
    <glyph glyph-name="igrave" unicode="&#xec;" horiz-adv-x="260" 
d="M66 0v500h128v-500h-128zM119 725l70 -158h-122l-91 158h143z" />
    <glyph glyph-name="iacute" unicode="&#xed;" horiz-adv-x="260" 
d="M66 0v500h128v-500h-128zM61 567l70 158h143l-91 -158h-122z" />
    <glyph glyph-name="icircumflex" unicode="&#xee;" horiz-adv-x="260" 
d="M66 0v500h128v-500h-128zM72 710h106l108 -142h-114l-47 65l-47 -65h-114z" />
    <glyph glyph-name="idieresis" unicode="&#xef;" horiz-adv-x="260" 
d="M66 0v500h128v-500h-128zM-39 573v117h124v-117h-124zM165 573v117h123v-117h-123z" />
    <glyph glyph-name="eth" unicode="&#xf0;" horiz-adv-x="505" 
d="M165 562l22 42c-17 6 -35 13 -54 21l45 85l53 -22l26 50l73 -39l-24 -45c117 -56 159 -109 159 -264v-98v-14v-57c0 -137 -65 -230 -216 -230c-145 0 -216 90 -216 230v60c0 150 79 228 212 228c42 0 82 -10 110 -35c-8 47 -31 70 -92 98l-25 -48zM249 99
c70 0 89 54 89 126v52c0 80 -26 124 -89 124s-89 -44 -89 -124v-52c0 -72 18 -126 89 -126z" />
    <glyph glyph-name="ntilde" unicode="&#xf1;" horiz-adv-x="526" 
d="M51 0v500h125v-42c19 25 59 51 115 51c101 0 183 -48 183 -196v-313h-127v293c0 78 -28 106 -80 106c-59 0 -88 -39 -88 -105v-294h-128zM324 569c-50 0 -82 29 -117 29c-20 0 -38 -9 -53 -27l-67 64c29 37 73 61 117 61c46 0 80 -29 117 -29c18 0 35 9 51 27l67 -64
c-28 -36 -71 -61 -115 -61z" />
    <glyph glyph-name="ograve" unicode="&#xf2;" horiz-adv-x="499" 
d="M465 281v-60c0 -137 -65 -230 -216 -230c-145 0 -216 90 -216 230v60c0 150 79 228 216 228c139 0 216 -78 216 -228zM249 99c70 0 89 54 89 126v52c0 80 -26 124 -89 124s-89 -44 -89 -124v-52c0 -72 18 -126 89 -126zM269 725l70 -158h-122l-91 158h143z" />
    <glyph glyph-name="oacute" unicode="&#xf3;" horiz-adv-x="499" 
d="M465 281v-60c0 -137 -65 -230 -216 -230c-145 0 -216 90 -216 230v60c0 150 79 228 216 228c139 0 216 -78 216 -228zM249 99c70 0 89 54 89 126v52c0 80 -26 124 -89 124s-89 -44 -89 -124v-52c0 -72 18 -126 89 -126zM179 567l70 158h143l-91 -158h-122z" />
    <glyph glyph-name="ocircumflex" unicode="&#xf4;" horiz-adv-x="499" 
d="M465 281v-60c0 -137 -65 -230 -216 -230c-145 0 -216 90 -216 230v60c0 150 79 228 216 228c139 0 216 -78 216 -228zM249 99c70 0 89 54 89 126v52c0 80 -26 124 -89 124s-89 -44 -89 -124v-52c0 -72 18 -126 89 -126zM196 710h106l108 -142h-114l-47 65l-47 -65h-114z
" />
    <glyph glyph-name="otilde" unicode="&#xf5;" horiz-adv-x="499" 
d="M465 281v-60c0 -137 -65 -230 -216 -230c-145 0 -216 90 -216 230v60c0 150 79 228 216 228c139 0 216 -78 216 -228zM249 99c70 0 89 54 89 126v52c0 80 -26 124 -89 124s-89 -44 -89 -124v-52c0 -72 18 -126 89 -126zM311 569c-50 0 -82 29 -117 29
c-20 0 -38 -9 -53 -27l-67 64c29 37 73 61 117 61c46 0 80 -29 117 -29c18 0 35 9 51 27l67 -64c-28 -36 -71 -61 -115 -61z" />
    <glyph glyph-name="odieresis" unicode="&#xf6;" horiz-adv-x="499" 
d="M465 281v-60c0 -137 -65 -230 -216 -230c-145 0 -216 90 -216 230v60c0 150 79 228 216 228c139 0 216 -78 216 -228zM249 99c70 0 89 54 89 126v52c0 80 -26 124 -89 124s-89 -44 -89 -124v-52c0 -72 18 -126 89 -126zM85 573v117h124v-117h-124zM289 573v117h123v-117
h-123z" />
    <glyph glyph-name="divide" unicode="&#xf7;" horiz-adv-x="506" 
d="M58 298v112h389v-112h-389zM192 460v121h121v-121h-121zM192 128v120h121v-120h-121z" />
    <glyph glyph-name="oslash" unicode="&#xf8;" horiz-adv-x="499" 
d="M140 -79h-77l49 109c-53 39 -79 106 -79 191v60c0 150 79 228 216 228c27 0 51 -3 73 -9l37 82h77l-50 -111c52 -37 79 -101 79 -190v-60c0 -137 -65 -230 -216 -230c-27 0 -52 3 -74 9zM160 225c0 -26 2 -49 8 -69l108 241c-8 2 -17 4 -27 4c-63 0 -89 -44 -89 -124v-52
zM249 99c70 0 89 54 89 126v52c0 26 -3 48 -9 66l-108 -241c8 -2 17 -3 28 -3z" />
    <glyph glyph-name="ugrave" unicode="&#xf9;" horiz-adv-x="526" 
d="M474 500v-500h-125v42c-21 -34 -48 -51 -114 -51c-101 0 -184 50 -184 197v312h128v-293c0 -79 28 -106 81 -106c59 0 87 36 87 105v294h127zM281 725l70 -158h-122l-91 158h143z" />
    <glyph glyph-name="uacute" unicode="&#xfa;" horiz-adv-x="526" 
d="M474 500v-500h-125v42c-21 -34 -48 -51 -114 -51c-101 0 -184 50 -184 197v312h128v-293c0 -79 28 -106 81 -106c59 0 87 36 87 105v294h127zM196 567l70 158h143l-91 -158h-122z" />
    <glyph glyph-name="ucircumflex" unicode="&#xfb;" horiz-adv-x="526" 
d="M474 500v-500h-125v42c-21 -34 -48 -51 -114 -51c-101 0 -184 50 -184 197v312h128v-293c0 -79 28 -106 81 -106c59 0 87 36 87 105v294h127zM210 710h106l108 -142h-114l-47 65l-47 -65h-114z" />
    <glyph glyph-name="udieresis" unicode="&#xfc;" horiz-adv-x="526" 
d="M474 500v-500h-125v42c-21 -34 -48 -51 -114 -51c-101 0 -184 50 -184 197v312h128v-293c0 -79 28 -106 81 -106c59 0 87 36 87 105v294h127zM99 573v117h124v-117h-124zM303 573v117h123v-117h-123z" />
    <glyph glyph-name="yacute" unicode="&#xfd;" horiz-adv-x="479" 
d="M5 500h134l111 -320l100 320h129l-175 -523c-45 -134 -89 -167 -229 -167v114c69 0 96 11 117 69zM187 567l70 158h143l-91 -158h-122z" />
    <glyph glyph-name="thorn" unicode="&#xfe;" horiz-adv-x="517" 
d="M484 285v-68c0 -130 -66 -226 -195 -226c-52 0 -87 10 -110 29v-210h-128v880h128v-223c24 27 60 42 111 42c116 0 194 -81 194 -224zM268 99c69 0 88 54 88 126v52c0 80 -25 124 -88 124c-61 0 -89 -40 -89 -113v-63c0 -72 17 -126 89 -126z" />
    <glyph glyph-name="ydieresis" unicode="&#xff;" horiz-adv-x="479" 
d="M5 500h134l111 -320l100 320h129l-175 -523c-45 -134 -89 -167 -229 -167v114c69 0 96 11 117 69zM84 573v117h124v-117h-124zM288 573v117h123v-117h-123z" />
    <glyph glyph-name="Amacron" unicode="&#x100;" horiz-adv-x="607" 
d="M146 0h-150l240 690h134l240 -690h-149l-42 131h-231zM303 492l-78 -243h156zM143 744v112h322v-112h-322z" />
    <glyph glyph-name="amacron" unicode="&#x101;" 
d="M26 148c0 106 80 152 185 152h99v29c0 56 -17 74 -89 74c-49 0 -73 -7 -94 -40l-90 63c37 61 93 83 196 83c129 0 202 -38 202 -181v-328h-125v44c-20 -34 -50 -53 -108 -53c-104 0 -176 55 -176 157zM310 187v19h-84c-52 0 -75 -17 -75 -56c0 -38 29 -56 73 -56
c58 0 86 25 86 93zM103 573v111h283v-111h-283z" />
    <glyph glyph-name="Abreve" unicode="&#x102;" horiz-adv-x="607" 
d="M146 0h-150l240 690h134l240 -690h-149l-42 131h-231zM303 492l-78 -243h156zM383 879h112c0 -100 -81 -152 -191 -152s-191 52 -191 152h111c7 -33 28 -54 80 -54c53 0 73 21 79 54z" />
    <glyph glyph-name="abreve" unicode="&#x103;" 
d="M26 148c0 106 80 152 185 152h99v29c0 56 -17 74 -89 74c-49 0 -73 -7 -94 -40l-90 63c37 61 93 83 196 83c129 0 202 -38 202 -181v-328h-125v44c-20 -34 -50 -53 -108 -53c-104 0 -176 55 -176 157zM310 187v19h-84c-52 0 -75 -17 -75 -56c0 -38 29 -56 73 -56
c58 0 86 25 86 93zM310 690h92c-3 -85 -58 -132 -149 -132s-147 47 -150 132h93c4 -32 18 -53 57 -53s53 21 57 53z" />
    <glyph glyph-name="Aogonek" unicode="&#x104;" horiz-adv-x="607" 
d="M146 0h-150l240 690h134l240 -690c-27 -24 -44 -40 -44 -61c0 -16 11 -22 27 -22c7 0 14 1 19 2l15 -65c-8 -2 -27 -4 -48 -4c-51 0 -110 19 -110 76c0 29 12 53 35 74h-43l-42 131h-231zM303 492l-78 -243h156z" />
    <glyph glyph-name="aogonek" unicode="&#x105;" horiz-adv-x="495" 
d="M26 148c0 106 80 152 185 152h99v29c0 56 -17 74 -89 74c-49 0 -73 -7 -94 -40l-90 63c37 61 93 83 196 83c129 0 202 -38 202 -181v-328c-27 -24 -45 -40 -45 -61c0 -16 12 -22 27 -22c7 0 14 1 19 2l15 -65c-8 -2 -26 -4 -48 -4c-51 0 -110 19 -110 76
c0 29 12 53 35 74h-18v44c-20 -34 -50 -53 -108 -53c-104 0 -176 55 -176 157zM310 187v19h-84c-52 0 -75 -17 -75 -56c0 -38 29 -56 73 -56c58 0 86 25 86 93z" />
    <glyph glyph-name="Cacute" unicode="&#x106;" horiz-adv-x="594" 
d="M564 476h-134c-13 65 -51 105 -119 105c-81 0 -124 -55 -124 -187v-98c0 -128 43 -187 124 -187c70 0 104 35 119 105h133c-23 -155 -110 -223 -252 -223c-155 0 -264 94 -264 305v98c0 213 109 305 264 305c137 0 230 -72 253 -223zM221 742l80 129h147l-103 -129h-124z
" />
    <glyph glyph-name="cacute" unicode="&#x107;" horiz-adv-x="446" 
d="M343 142l95 -66c-35 -59 -92 -85 -182 -85c-143 0 -223 90 -223 226v68c0 146 81 224 230 224c77 0 140 -28 175 -83l-96 -67c-17 24 -42 42 -82 42c-72 0 -100 -44 -100 -124v-52c0 -72 19 -126 100 -126c38 0 65 13 83 43zM183 567l70 158h143l-91 -158h-122z" />
    <glyph glyph-name="Ccircumflex" unicode="&#x108;" horiz-adv-x="594" 
d="M564 476h-134c-13 65 -51 105 -119 105c-81 0 -124 -55 -124 -187v-98c0 -128 43 -187 124 -187c70 0 104 35 119 105h133c-23 -155 -110 -223 -252 -223c-155 0 -264 94 -264 305v98c0 213 109 305 264 305c137 0 230 -72 253 -223zM256 879h105l138 -142h-133l-58 61
l-57 -61h-133z" />
    <glyph glyph-name="ccircumflex" unicode="&#x109;" horiz-adv-x="446" 
d="M343 142l95 -66c-35 -59 -92 -85 -182 -85c-143 0 -223 90 -223 226v68c0 146 81 224 230 224c77 0 140 -28 175 -83l-96 -67c-17 24 -42 42 -82 42c-72 0 -100 -44 -100 -124v-52c0 -72 19 -126 100 -126c38 0 65 13 83 43zM206 710h106l108 -142h-114l-47 65l-47 -65
h-114z" />
    <glyph glyph-name="Cdotaccent" unicode="&#x10a;" horiz-adv-x="594" 
d="M564 476h-134c-13 65 -51 105 -119 105c-81 0 -124 -55 -124 -187v-98c0 -128 43 -187 124 -187c70 0 104 35 119 105h133c-23 -155 -110 -223 -252 -223c-155 0 -264 94 -264 305v98c0 213 109 305 264 305c137 0 230 -72 253 -223zM239 759v110h141v-110h-141z" />
    <glyph glyph-name="cdotaccent" unicode="&#x10b;" horiz-adv-x="446" 
d="M343 142l95 -66c-35 -59 -92 -85 -182 -85c-143 0 -223 90 -223 226v68c0 146 81 224 230 224c77 0 140 -28 175 -83l-96 -67c-17 24 -42 42 -82 42c-72 0 -100 -44 -100 -124v-52c0 -72 19 -126 100 -126c38 0 65 13 83 43zM182 566v124h138v-124h-138z" />
    <glyph glyph-name="Ccaron" unicode="&#x10c;" horiz-adv-x="594" 
d="M564 476h-134c-13 65 -51 105 -119 105c-81 0 -124 -55 -124 -187v-98c0 -128 43 -187 124 -187c70 0 104 35 119 105h133c-23 -155 -110 -223 -252 -223c-155 0 -264 94 -264 305v98c0 213 109 305 264 305c137 0 230 -72 253 -223zM358 737h-105l-138 142h133l57 -61
l58 61h133z" />
    <glyph glyph-name="ccaron" unicode="&#x10d;" horiz-adv-x="446" 
d="M343 142l95 -66c-35 -59 -92 -85 -182 -85c-143 0 -223 90 -223 226v68c0 146 81 224 230 224c77 0 140 -28 175 -83l-96 -67c-17 24 -42 42 -82 42c-72 0 -100 -44 -100 -124v-52c0 -72 19 -126 100 -126c38 0 65 13 83 43zM308 568h-106l-108 142h114l47 -65l47 65h114
z" />
    <glyph glyph-name="Dcaron" unicode="&#x10e;" horiz-adv-x="625" 
d="M313 0h-245v690h245c156 0 265 -80 265 -300v-90c0 -219 -109 -300 -265 -300zM313 118c93 0 125 63 125 182v90c0 119 -32 181 -125 181h-105v-453h105zM341 737h-105l-138 142h133l57 -61l58 61h133z" />
    <glyph glyph-name="dcaron" unicode="&#x10f;" horiz-adv-x="538" 
d="M338 474v216h127v-690h-127v29c-26 -24 -60 -38 -107 -38c-131 0 -198 93 -198 226v68c0 146 79 224 198 224c43 0 79 -11 107 -35zM249 99c72 0 89 54 89 126v63c0 73 -29 113 -89 113c-63 0 -89 -44 -89 -124v-52c0 -72 20 -126 89 -126zM636 689v-129l-137 -117v246
h137z" />
    <glyph glyph-name="Dcroat" unicode="&#x110;" horiz-adv-x="636" 
d="M324 0h-245v298h-89v118h89v274h245c156 0 265 -80 265 -300v-90c0 -219 -109 -300 -265 -300zM324 118c93 0 125 63 125 182v90c0 119 -32 181 -125 181h-105v-155h140v-118h-140v-180h105z" />
    <glyph glyph-name="dcroat" unicode="&#x111;" horiz-adv-x="517" 
d="M338 474v64h-124v105h124v47h127v-47h75v-105h-75v-538h-127v29c-26 -24 -60 -38 -107 -38c-131 0 -198 93 -198 226v68c0 146 79 224 198 224c43 0 79 -11 107 -35zM249 99c72 0 89 54 89 126v63c0 73 -29 113 -89 113c-63 0 -89 -44 -89 -124v-52
c0 -72 20 -126 89 -126z" />
    <glyph glyph-name="Emacron" unicode="&#x112;" horiz-adv-x="527" 
d="M68 690h430v-119h-290v-155h260v-118h-260v-180h290v-118h-430v690zM122 744v112h322v-112h-322z" />
    <glyph glyph-name="emacron" unicode="&#x113;" 
d="M343 142l95 -66c-35 -61 -93 -85 -183 -85c-150 0 -222 97 -222 226v68c0 151 76 224 206 224c141 0 206 -82 206 -234v-57h-285c1 -69 23 -119 94 -119c53 0 70 16 89 43zM240 401c-51 0 -75 -35 -80 -92h157c-3 65 -29 92 -77 92zM98 573v111h283v-111h-283z" />
    <glyph glyph-name="Edotaccent" unicode="&#x116;" horiz-adv-x="527" 
d="M68 690h430v-119h-290v-155h260v-118h-260v-180h290v-118h-430v690zM212 759v110h141v-110h-141z" />
    <glyph glyph-name="edotaccent" unicode="&#x117;" 
d="M343 142l95 -66c-35 -61 -93 -85 -183 -85c-150 0 -222 97 -222 226v68c0 151 76 224 206 224c141 0 206 -82 206 -234v-57h-285c1 -69 23 -119 94 -119c53 0 70 16 89 43zM240 401c-51 0 -75 -35 -80 -92h157c-3 65 -29 92 -77 92zM170 566v124h138v-124h-138z" />
    <glyph glyph-name="Eogonek" unicode="&#x118;" horiz-adv-x="527" 
d="M68 690h430v-119h-290v-155h260v-118h-260v-180h290v-118h-111c-27 -24 -45 -40 -45 -61c0 -16 12 -22 27 -22c7 0 14 1 19 2l15 -65c-8 -2 -26 -4 -48 -4c-51 0 -110 19 -110 76c0 29 12 53 35 74h-212v690z" />
    <glyph glyph-name="eogonek" unicode="&#x119;" 
d="M343 142l95 -66c-26 -46 -65 -70 -120 -80c-25 -21 -40 -37 -40 -57c0 -16 12 -22 27 -22c7 0 14 1 19 2l15 -65c-8 -2 -26 -4 -48 -4c-51 0 -110 19 -110 76c0 27 10 49 29 69c-119 17 -177 106 -177 222v68c0 151 76 224 206 224c141 0 206 -82 206 -234v-57h-285
c1 -69 23 -119 94 -119c53 0 70 16 89 43zM240 401c-51 0 -75 -35 -80 -92h157c-3 65 -29 92 -77 92z" />
    <glyph glyph-name="Ecaron" unicode="&#x11a;" horiz-adv-x="527" 
d="M68 690h430v-119h-290v-155h260v-118h-260v-180h290v-118h-430v690zM335 737h-105l-138 142h133l57 -61l58 61h133z" />
    <glyph glyph-name="ecaron" unicode="&#x11b;" 
d="M343 142l95 -66c-35 -61 -93 -85 -183 -85c-150 0 -222 97 -222 226v68c0 151 76 224 206 224c141 0 206 -82 206 -234v-57h-285c1 -69 23 -119 94 -119c53 0 70 16 89 43zM240 401c-51 0 -75 -35 -80 -92h157c-3 65 -29 92 -77 92zM295 568h-106l-108 142h114l47 -65
l47 65h114z" />
    <glyph glyph-name="Gcircumflex" unicode="&#x11c;" horiz-adv-x="612" 
d="M314 359h251v-63c0 -211 -98 -305 -254 -305c-155 0 -264 94 -264 305v88c0 223 109 315 264 315c145 0 232 -82 253 -223h-134c-12 63 -49 105 -119 105c-81 0 -124 -55 -124 -187v-98c0 -132 43 -187 124 -187c79 0 111 49 119 132h-116v118zM253 879h105l138 -142
h-133l-58 61l-57 -61h-133z" />
    <glyph glyph-name="gcircumflex" unicode="&#x11d;" horiz-adv-x="517" 
d="M338 474v26h127v-490c0 -167 -94 -206 -220 -206c-93 0 -152 22 -196 90l86 62c22 -30 51 -45 98 -45c76 0 105 22 105 99v16c-27 -23 -62 -35 -107 -35c-131 0 -198 93 -198 226v68c0 146 79 224 198 224c45 0 80 -12 107 -35zM249 99c68 0 89 49 89 115v63
c0 80 -26 124 -89 124s-89 -44 -89 -124v-52c0 -72 20 -126 89 -126zM230 710h106l108 -142h-114l-47 65l-47 -65h-114z" />
    <glyph glyph-name="Gbreve" unicode="&#x11e;" horiz-adv-x="612" 
d="M314 359h251v-63c0 -211 -98 -305 -254 -305c-155 0 -264 94 -264 305v88c0 223 109 315 264 315c145 0 232 -82 253 -223h-134c-12 63 -49 105 -119 105c-81 0 -124 -55 -124 -187v-98c0 -132 43 -187 124 -187c79 0 111 49 119 132h-116v118zM385 879h112
c0 -100 -81 -152 -191 -152s-191 52 -191 152h111c7 -33 28 -54 80 -54c53 0 73 21 79 54z" />
    <glyph glyph-name="gbreve" unicode="&#x11f;" horiz-adv-x="517" 
d="M338 474v26h127v-490c0 -167 -94 -206 -220 -206c-93 0 -152 22 -196 90l86 62c22 -30 51 -45 98 -45c76 0 105 22 105 99v16c-27 -23 -62 -35 -107 -35c-131 0 -198 93 -198 226v68c0 146 79 224 198 224c45 0 80 -12 107 -35zM249 99c68 0 89 49 89 115v63
c0 80 -26 124 -89 124s-89 -44 -89 -124v-52c0 -72 20 -126 89 -126zM341 690h92c-3 -85 -58 -132 -149 -132s-147 47 -150 132h93c4 -32 18 -53 57 -53s53 21 57 53z" />
    <glyph glyph-name="Gdotaccent" unicode="&#x120;" horiz-adv-x="612" 
d="M314 359h251v-63c0 -211 -98 -305 -254 -305c-155 0 -264 94 -264 305v88c0 223 109 315 264 315c145 0 232 -82 253 -223h-134c-12 63 -49 105 -119 105c-81 0 -124 -55 -124 -187v-98c0 -132 43 -187 124 -187c79 0 111 49 119 132h-116v118zM240 759v110h141v-110
h-141z" />
    <glyph glyph-name="gdotaccent" unicode="&#x121;" horiz-adv-x="517" 
d="M338 474v26h127v-490c0 -167 -94 -206 -220 -206c-93 0 -152 22 -196 90l86 62c22 -30 51 -45 98 -45c76 0 105 22 105 99v16c-27 -23 -62 -35 -107 -35c-131 0 -198 93 -198 226v68c0 146 79 224 198 224c45 0 80 -12 107 -35zM249 99c68 0 89 49 89 115v63
c0 80 -26 124 -89 124s-89 -44 -89 -124v-52c0 -72 20 -126 89 -126zM208 566v124h138v-124h-138z" />
    <glyph glyph-name="Gcommaaccent" unicode="&#x122;" horiz-adv-x="612" 
d="M314 359h251v-63c0 -211 -98 -305 -254 -305c-155 0 -264 94 -264 305v88c0 223 109 315 264 315c145 0 232 -82 253 -223h-134c-12 63 -49 105 -119 105c-81 0 -124 -55 -124 -187v-98c0 -132 43 -187 124 -187c79 0 111 49 119 132h-116v118zM375 -51v-129l-137 -117
v246h137z" />
    <glyph glyph-name="gcommaaccent" unicode="&#x123;" horiz-adv-x="517" 
d="M338 474v26h127v-490c0 -167 -94 -206 -220 -206c-93 0 -152 22 -196 90l86 62c22 -30 51 -45 98 -45c76 0 105 22 105 99v16c-27 -23 -62 -35 -107 -35c-131 0 -198 93 -198 226v68c0 146 79 224 198 224c45 0 80 -12 107 -35zM249 99c68 0 89 49 89 115v63
c0 80 -26 124 -89 124s-89 -44 -89 -124v-52c0 -72 20 -126 89 -126zM189 542v129l137 117v-246h-137z" />
    <glyph glyph-name="Hcircumflex" unicode="&#x124;" horiz-adv-x="656" 
d="M208 690v-274h239v274h140v-690h-140v298h-239v-298h-140v690h140zM275 879h105l138 -142h-133l-58 61l-57 -61h-133z" />
    <glyph glyph-name="hcircumflex" unicode="&#x125;" horiz-adv-x="526" 
d="M51 0v690h128v-229c19 25 54 48 112 48c101 0 183 -48 183 -196v-313h-127v293c0 78 -28 106 -80 106c-59 0 -88 -39 -88 -105v-294h-128zM62 876h106l108 -142h-114l-47 65l-47 -65h-114z" />
    <glyph glyph-name="Hbar" unicode="&#x126;" horiz-adv-x="672" 
d="M216 690v-97h239v97h140v-97h87v-125h-87v-468h-140v298h-239v-298h-140v468h-86v125h86v97h140zM216 416h239v52h-239v-52z" />
    <glyph glyph-name="hbar" unicode="&#x127;" horiz-adv-x="529" 
d="M-26 538v105h80v47h128v-47h131v-105h-131v-77c19 25 54 48 112 48c101 0 183 -48 183 -196v-313h-127v293c0 78 -28 106 -80 106c-59 0 -88 -39 -88 -105v-294h-128v538h-80z" />
    <glyph glyph-name="Imacron" unicode="&#x12a;" horiz-adv-x="296" 
d="M218 690v-690h-140v690h140zM-12 744v112h322v-112h-322z" />
    <glyph glyph-name="imacron" unicode="&#x12b;" horiz-adv-x="260" 
d="M66 0v500h128v-500h-128zM-16 573v111h283v-111h-283z" />
    <glyph glyph-name="Iogonek" unicode="&#x12e;" horiz-adv-x="296" 
d="M218 690v-690c-27 -24 -45 -40 -45 -61c0 -16 12 -22 27 -22c7 0 14 1 19 2l15 -65c-8 -2 -26 -4 -48 -4c-51 0 -110 19 -110 76c0 29 12 53 35 74h-33v690h140z" />
    <glyph glyph-name="iogonek" unicode="&#x12f;" horiz-adv-x="260" 
d="M66 0v500h128v-500c-27 -24 -45 -40 -45 -61c0 -16 12 -22 27 -22c7 0 14 1 19 2l15 -65c-8 -2 -26 -4 -48 -4c-51 0 -110 19 -110 76c0 29 12 53 35 74h-21zM61 566v124h138v-124h-138z" />
    <glyph glyph-name="Idotaccent" unicode="&#x130;" horiz-adv-x="296" 
d="M218 690v-690h-140v690h140zM78 759v110h141v-110h-141z" />
    <glyph glyph-name="dotlessi" unicode="&#x131;" horiz-adv-x="260" 
d="M66 0v500h128v-500h-128z" />
    <glyph glyph-name="Jcircumflex" unicode="&#x134;" horiz-adv-x="512" 
d="M-9 94l116 65c22 -31 56 -50 94 -50c67 0 103 36 103 156v425h140v-425c0 -199 -89 -274 -234 -274c-99 0 -172 36 -219 103zM325 879h105l138 -142h-133l-58 61l-57 -61h-133z" />
    <glyph glyph-name="jcircumflex" unicode="&#x135;" horiz-adv-x="251" 
d="M194 500v-527c0 -128 -61 -163 -194 -163v110c53 0 67 24 67 71v509h127zM74 710h106l108 -142h-114l-47 65l-47 -65h-114z" />
    <glyph glyph-name="Kcommaaccent" unicode="&#x136;" horiz-adv-x="645" 
d="M633 0h-167l-176 291l-82 -108v-183h-140v690h140v-298l218 298h166l-211 -279zM393 -51v-129l-137 -117v246h137z" />
    <glyph glyph-name="kcommaaccent" unicode="&#x137;" horiz-adv-x="502" 
d="M319 500h152l-173 -209l202 -291h-150l-137 188l-34 -42v-146h-128v690h128v-372zM329 -51v-129l-137 -117v246h137z" />
    <glyph glyph-name="Lacute" unicode="&#x139;" horiz-adv-x="504" 
d="M208 690v-572h290v-118h-430v690h140zM84 742l80 129h147l-103 -129h-124z" />
    <glyph glyph-name="lacute" unicode="&#x13a;" horiz-adv-x="285" 
d="M51 160v530h128v-501c0 -54 16 -79 70 -79v-110c-135 0 -198 35 -198 160zM54 723l70 158h143l-91 -158h-122z" />
    <glyph glyph-name="Lcommaaccent" unicode="&#x13b;" horiz-adv-x="504" 
d="M208 690v-572h290v-118h-430v690h140zM352 -51v-129l-137 -117v246h137z" />
    <glyph glyph-name="lcommaaccent" unicode="&#x13c;" horiz-adv-x="285" 
d="M51 160v530h128v-501c0 -54 16 -79 70 -79v-110c-135 0 -198 35 -198 160zM223 -51v-129l-137 -117v246h137z" />
    <glyph glyph-name="Lcaron" unicode="&#x13d;" horiz-adv-x="504" 
d="M208 690v-572h290v-118h-430v690h140zM441 706v-165l-134 -114v279h134z" />
    <glyph glyph-name="lcaron" unicode="&#x13e;" horiz-adv-x="281" 
d="M51 160v530h128v-501c0 -54 16 -79 70 -79v-110c-135 0 -198 35 -198 160zM359 689v-129l-137 -117v246h137z" />
    <glyph glyph-name="Ldot" unicode="&#x13f;" horiz-adv-x="504" 
d="M208 690v-572h290v-118h-430v690h140zM321 326v124h138v-124h-138z" />
    <glyph glyph-name="ldot" unicode="&#x140;" horiz-adv-x="367" 
d="M51 160v530h128v-501c0 -54 16 -79 70 -79v-110c-135 0 -198 35 -198 160zM224 353v110h141v-110h-141z" />
    <glyph glyph-name="Lslash" unicode="&#x141;" horiz-adv-x="538" 
d="M241 690v-192l94 75l71 -90l-165 -132v-233h290v-118h-430v239l-57 -45l-71 90l128 102v304h140z" />
    <glyph glyph-name="lslash" unicode="&#x142;" horiz-adv-x="294" 
d="M30 236l-40 60l91 62v332h128v-243l54 37l40 -59l-94 -65v-171c0 -54 16 -79 70 -79v-110c-135 0 -198 35 -198 160v111z" />
    <glyph glyph-name="Nacute" unicode="&#x143;" horiz-adv-x="656" 
d="M454 690h133v-690h-117l-269 427v-427h-133v690h116l270 -433v433zM262 742l80 129h147l-103 -129h-124z" />
    <glyph glyph-name="nacute" unicode="&#x144;" horiz-adv-x="526" 
d="M51 0v500h125v-42c19 25 59 51 115 51c101 0 183 -48 183 -196v-313h-127v293c0 78 -28 106 -80 106c-59 0 -88 -39 -88 -105v-294h-128zM191 567l70 158h143l-91 -158h-122z" />
    <glyph glyph-name="Ncommaaccent" unicode="&#x145;" horiz-adv-x="656" 
d="M454 690h133v-690h-117l-269 427v-427h-133v690h116l270 -433v433zM401 -51v-129l-137 -117v246h137z" />
    <glyph glyph-name="ncommaaccent" unicode="&#x146;" horiz-adv-x="526" 
d="M51 0v500h125v-42c19 25 59 51 115 51c101 0 183 -48 183 -196v-313h-127v293c0 78 -28 106 -80 106c-59 0 -88 -39 -88 -105v-294h-128zM334 -51v-129l-137 -117v246h137z" />
    <glyph glyph-name="Ncaron" unicode="&#x147;" horiz-adv-x="656" 
d="M454 690h133v-690h-117l-269 427v-427h-133v690h116l270 -433v433zM380 737h-105l-138 142h133l57 -61l58 61h133z" />
    <glyph glyph-name="ncaron" unicode="&#x148;" horiz-adv-x="526" 
d="M51 0v500h125v-42c19 25 59 51 115 51c101 0 183 -48 183 -196v-313h-127v293c0 78 -28 106 -80 106c-59 0 -88 -39 -88 -105v-294h-128zM316 568h-106l-108 142h114l47 -65l47 65h114z" />
    <glyph glyph-name="Omacron" unicode="&#x14c;" horiz-adv-x="623" 
d="M576 296c0 -211 -109 -305 -265 -305c-155 0 -264 94 -264 305v98c0 213 109 305 264 305c156 0 265 -92 265 -305v-98zM187 394v-98c0 -132 43 -187 124 -187s125 55 125 187v98c0 132 -44 187 -125 187s-124 -55 -124 -187zM151 744v112h322v-112h-322z" />
    <glyph glyph-name="omacron" unicode="&#x14d;" horiz-adv-x="499" 
d="M465 281v-60c0 -137 -65 -230 -216 -230c-145 0 -216 90 -216 230v60c0 150 79 228 216 228c139 0 216 -78 216 -228zM249 99c70 0 89 54 89 126v52c0 80 -26 124 -89 124s-89 -44 -89 -124v-52c0 -72 18 -126 89 -126zM108 573v111h283v-111h-283z" />
    <glyph glyph-name="Ohungarumlaut" unicode="&#x150;" horiz-adv-x="623" 
d="M576 296c0 -211 -109 -305 -265 -305c-155 0 -264 94 -264 305v98c0 213 109 305 264 305c156 0 265 -92 265 -305v-98zM187 394v-98c0 -132 43 -187 124 -187s125 55 125 187v98c0 132 -44 187 -125 187s-124 -55 -124 -187zM130 742l80 129h148l-103 -129h-125z
M334 742l90 129h147l-113 -129h-124z" />
    <glyph glyph-name="ohungarumlaut" unicode="&#x151;" horiz-adv-x="499" 
d="M465 281v-60c0 -137 -65 -230 -216 -230c-145 0 -216 90 -216 230v60c0 150 79 228 216 228c139 0 216 -78 216 -228zM249 99c70 0 89 54 89 126v52c0 80 -26 124 -89 124s-89 -44 -89 -124v-52c0 -72 18 -126 89 -126zM263 567l90 158h144l-111 -158h-123zM89 567
l70 158h143l-91 -158h-122z" />
    <glyph glyph-name="OE" unicode="&#x152;" horiz-adv-x="896" 
d="M866 690v-119h-290v-155h260v-118h-260v-180h290v-118h-430v24c-32 -22 -73 -33 -125 -33c-155 0 -264 94 -264 305v98c0 213 109 305 264 305c52 0 93 -11 125 -33v24h430zM187 394v-98c0 -132 43 -187 124 -187c79 0 125 52 125 177v118c0 125 -46 177 -125 177
c-81 0 -124 -55 -124 -187z" />
    <glyph glyph-name="oe" unicode="&#x153;" horiz-adv-x="791" 
d="M648 142l95 -66c-34 -57 -84 -85 -185 -85c-66 0 -118 24 -153 67c-32 -42 -83 -67 -156 -67c-141 0 -216 88 -216 226v68c0 142 77 224 216 224c68 0 120 -22 153 -63c33 41 83 63 148 63c132 0 200 -83 200 -230v-63h-285c0 -83 37 -117 94 -117c52 0 70 16 89 43z
M249 99c68 0 89 52 89 118v68c0 75 -29 116 -89 116c-59 0 -89 -42 -89 -116v-68c0 -66 20 -118 89 -118zM544 401c-49 0 -74 -36 -79 -94h157c-3 59 -24 94 -78 94z" />
    <glyph glyph-name="Racute" unicode="&#x154;" horiz-adv-x="617" 
d="M598 0h-154l-124 271h-112v-271h-140v690h247c159 0 258 -71 258 -211c0 -93 -43 -154 -118 -185zM208 389h94c83 0 131 18 131 90s-48 92 -131 92h-94v-182zM208 742l80 129h147l-103 -129h-124z" />
    <glyph glyph-name="racute" unicode="&#x155;" horiz-adv-x="410" 
d="M420 431l-98 -70c-13 19 -31 38 -63 38c-48 0 -80 -35 -80 -105v-294h-128v500h125v-42c17 25 50 51 109 51c60 0 105 -26 135 -78zM136 567l70 158h143l-91 -158h-122z" />
    <glyph glyph-name="Rcommaaccent" unicode="&#x156;" horiz-adv-x="617" 
d="M598 0h-154l-124 271h-112v-271h-140v690h247c159 0 258 -71 258 -211c0 -93 -43 -154 -118 -185zM208 389h94c83 0 131 18 131 90s-48 92 -131 92h-94v-182zM389 -51v-129l-137 -117v246h137z" />
    <glyph glyph-name="rcommaaccent" unicode="&#x157;" horiz-adv-x="410" 
d="M420 431l-98 -70c-13 19 -31 38 -63 38c-48 0 -80 -35 -80 -105v-294h-128v500h125v-42c17 25 50 51 109 51c60 0 105 -26 135 -78zM185 -51v-129l-137 -117v246h137z" />
    <glyph glyph-name="Rcaron" unicode="&#x158;" horiz-adv-x="617" 
d="M598 0h-154l-124 271h-112v-271h-140v690h247c159 0 258 -71 258 -211c0 -93 -43 -154 -118 -185zM208 389h94c83 0 131 18 131 90s-48 92 -131 92h-94v-182zM355 737h-105l-138 142h133l57 -61l58 61h133z" />
    <glyph glyph-name="rcaron" unicode="&#x159;" horiz-adv-x="410" 
d="M420 431l-98 -70c-13 19 -31 38 -63 38c-48 0 -80 -35 -80 -105v-294h-128v500h125v-42c17 25 50 51 109 51c60 0 105 -26 135 -78zM285 568h-106l-108 142h114l47 -65l47 65h114z" />
    <glyph glyph-name="Sacute" unicode="&#x15a;" horiz-adv-x="575" 
d="M532 586l-105 -75c-30 47 -66 70 -136 70c-63 0 -97 -29 -97 -76c0 -54 44 -78 136 -101c144 -36 209 -90 209 -212c0 -113 -76 -201 -238 -201c-121 0 -205 33 -266 113l107 74c37 -46 79 -69 150 -69c80 0 107 35 107 77c0 48 -29 75 -141 104
c-136 36 -204 101 -204 215c0 109 72 194 236 194c110 0 193 -37 242 -113zM215 742l80 129h147l-103 -129h-124z" />
    <glyph glyph-name="sacute" unicode="&#x15b;" horiz-adv-x="464" 
d="M419 426l-94 -67c-22 26 -44 40 -98 40c-33 0 -63 -10 -63 -39c0 -30 27 -41 80 -49c123 -19 185 -66 185 -165c0 -96 -67 -155 -196 -155c-102 0 -164 25 -207 83l98 70c20 -27 45 -43 107 -43c44 0 71 15 71 41c0 31 -22 41 -85 51c-104 17 -180 61 -180 162
c0 95 68 154 193 154c82 0 150 -19 189 -83zM154 567l70 158h143l-91 -158h-122z" />
    <glyph glyph-name="Scircumflex" unicode="&#x15c;" horiz-adv-x="575" 
d="M532 586l-105 -75c-30 47 -66 70 -136 70c-63 0 -97 -29 -97 -76c0 -54 44 -78 136 -101c144 -36 209 -90 209 -212c0 -113 -76 -201 -238 -201c-121 0 -205 33 -266 113l107 74c37 -46 79 -69 150 -69c80 0 107 35 107 77c0 48 -29 75 -141 104
c-136 36 -204 101 -204 215c0 109 72 194 236 194c110 0 193 -37 242 -113zM242 879h105l138 -142h-133l-58 61l-57 -61h-133z" />
    <glyph glyph-name="scircumflex" unicode="&#x15d;" horiz-adv-x="464" 
d="M419 426l-94 -67c-22 26 -44 40 -98 40c-33 0 -63 -10 -63 -39c0 -30 27 -41 80 -49c123 -19 185 -66 185 -165c0 -96 -67 -155 -196 -155c-102 0 -164 25 -207 83l98 70c20 -27 45 -43 107 -43c44 0 71 15 71 41c0 31 -22 41 -85 51c-104 17 -180 61 -180 162
c0 95 68 154 193 154c82 0 150 -19 189 -83zM176 710h106l108 -142h-114l-47 65l-47 -65h-114z" />
    <glyph glyph-name="Scedilla" unicode="&#x15e;" horiz-adv-x="575" 
d="M241 -72l13 65c-96 8 -166 41 -219 111l107 74c37 -46 79 -69 150 -69c80 0 107 35 107 77c0 48 -29 75 -141 104c-136 36 -204 101 -204 215c0 109 72 194 236 194c110 0 193 -37 242 -113l-105 -75c-30 47 -66 70 -136 70c-63 0 -97 -29 -97 -76c0 -54 44 -78 136 -101
c144 -36 209 -90 209 -212c0 -105 -66 -188 -205 -199l-4 -15c34 -13 53 -37 53 -72c0 -54 -50 -86 -119 -86c-21 0 -38 2 -46 4l15 65c6 -1 11 -2 19 -2c20 0 33 7 33 21c0 15 -17 20 -44 20z" />
    <glyph glyph-name="scedilla" unicode="&#x15f;" horiz-adv-x="464" 
d="M182 -72l13 64c-80 6 -132 31 -169 82l98 70c20 -27 45 -43 107 -43c44 0 71 15 71 41c0 31 -22 41 -85 51c-104 17 -180 61 -180 162c0 95 68 154 193 154c82 0 150 -19 189 -83l-94 -67c-22 26 -44 40 -98 40c-33 0 -63 -10 -63 -39c0 -30 27 -41 80 -49
c123 -19 185 -66 185 -165c0 -85 -53 -142 -154 -153l-4 -15c33 -13 52 -37 52 -72c0 -54 -49 -86 -118 -86c-21 0 -38 2 -46 4l15 65c6 -1 11 -2 19 -2c20 0 33 7 33 21c0 15 -17 20 -44 20z" />
    <glyph glyph-name="Scaron" unicode="&#x160;" horiz-adv-x="575" 
d="M532 586l-105 -75c-30 47 -66 70 -136 70c-63 0 -97 -29 -97 -76c0 -54 44 -78 136 -101c144 -36 209 -90 209 -212c0 -113 -76 -201 -238 -201c-121 0 -205 33 -266 113l107 74c37 -46 79 -69 150 -69c80 0 107 35 107 77c0 48 -29 75 -141 104
c-136 36 -204 101 -204 215c0 109 72 194 236 194c110 0 193 -37 242 -113zM340 737h-105l-138 142h133l57 -61l58 61h133z" />
    <glyph glyph-name="scaron" unicode="&#x161;" horiz-adv-x="464" 
d="M419 426l-94 -67c-22 26 -44 40 -98 40c-33 0 -63 -10 -63 -39c0 -30 27 -41 80 -49c123 -19 185 -66 185 -165c0 -96 -67 -155 -196 -155c-102 0 -164 25 -207 83l98 70c20 -27 45 -43 107 -43c44 0 71 15 71 41c0 31 -22 41 -85 51c-104 17 -180 61 -180 162
c0 95 68 154 193 154c82 0 150 -19 189 -83zM282 568h-106l-108 142h114l47 -65l47 65h114z" />
    <glyph glyph-name="Tcedilla" unicode="&#x162;" horiz-adv-x="536" 
d="M211 -72l15 72h-28v571h-190v119h520v-119h-190v-571h-32l-6 -22c34 -13 53 -37 53 -72c0 -54 -50 -86 -119 -86c-21 0 -38 2 -46 4l15 65c6 -1 11 -2 19 -2c20 0 33 7 33 21c0 15 -17 20 -44 20z" />
    <glyph glyph-name="tcedilla" unicode="&#x163;" horiz-adv-x="331" 
d="M156 -72l16 79c-66 15 -94 58 -94 156v229h-64v108h64v110h127v-110h98v-108h-98v-209c0 -50 10 -71 57 -71h41v-112h-52l-6 -22c33 -13 52 -37 52 -72c0 -54 -49 -86 -118 -86c-21 0 -38 2 -46 4l15 65c6 -1 11 -2 19 -2c20 0 33 7 33 21c0 15 -17 20 -44 20z" />
    <glyph glyph-name="Tcaron" unicode="&#x164;" horiz-adv-x="536" 
d="M8 690h520v-119h-190v-571h-140v571h-190v119zM321 737h-105l-138 142h133l57 -61l58 61h133z" />
    <glyph glyph-name="tcaron" unicode="&#x165;" horiz-adv-x="367" 
d="M14 392v108h64v110h127v-110h98v-108h-98v-209c0 -50 10 -71 57 -71h41v-112h-54c-121 0 -171 34 -171 163v229h-64zM459 689v-129l-137 -117v246h137z" />
    <glyph glyph-name="Umacron" unicode="&#x16a;" horiz-adv-x="666" 
d="M458 690h140v-410c0 -204 -112 -289 -265 -289s-265 85 -265 288v411h140v-411c0 -118 39 -170 125 -170s125 52 125 170v411zM172 744v112h322v-112h-322z" />
    <glyph glyph-name="umacron" unicode="&#x16b;" horiz-adv-x="526" 
d="M474 500v-500h-125v42c-21 -34 -48 -51 -114 -51c-101 0 -184 50 -184 197v312h128v-293c0 -79 28 -106 81 -106c59 0 87 36 87 105v294h127zM122 573v111h283v-111h-283z" />
    <glyph glyph-name="Ubreve" unicode="&#x16c;" horiz-adv-x="666" 
d="M458 690h140v-410c0 -204 -112 -289 -265 -289s-265 85 -265 288v411h140v-411c0 -118 39 -170 125 -170s125 52 125 170v411zM413 879h112c0 -100 -81 -152 -191 -152s-191 52 -191 152h111c7 -33 28 -54 80 -54c53 0 73 21 79 54z" />
    <glyph glyph-name="ubreve" unicode="&#x16d;" horiz-adv-x="526" 
d="M474 500v-500h-125v42c-21 -34 -48 -51 -114 -51c-101 0 -184 50 -184 197v312h128v-293c0 -79 28 -106 81 -106c59 0 87 36 87 105v294h127zM320 690h92c-3 -85 -58 -132 -149 -132s-147 47 -150 132h93c4 -32 18 -53 57 -53s53 21 57 53z" />
    <glyph glyph-name="Uring" unicode="&#x16e;" horiz-adv-x="666" 
d="M458 690h140v-410c0 -204 -112 -289 -265 -289s-265 85 -265 288v411h140v-411c0 -118 39 -170 125 -170s125 52 125 170v411zM218 800c0 61 49 99 115 99c68 0 117 -38 117 -99c0 -60 -49 -98 -117 -98c-66 0 -115 38 -115 98zM297 800c0 -20 14 -31 36 -31
c24 0 37 11 37 31c0 21 -13 31 -37 31c-22 0 -36 -10 -36 -31z" />
    <glyph glyph-name="uring" unicode="&#x16f;" horiz-adv-x="526" 
d="M474 500v-500h-125v42c-21 -34 -48 -51 -114 -51c-101 0 -184 50 -184 197v312h128v-293c0 -79 28 -106 81 -106c59 0 87 36 87 105v294h127zM140 646c0 64 49 110 123 110s123 -46 123 -110c0 -63 -49 -109 -123 -109s-123 46 -123 109zM226 646c0 -27 14 -44 37 -44
c24 0 37 17 37 44c0 28 -13 43 -37 43c-23 0 -37 -15 -37 -43z" />
    <glyph glyph-name="Uhungarumlaut" unicode="&#x170;" horiz-adv-x="666" 
d="M458 690h140v-410c0 -204 -112 -289 -265 -289s-265 85 -265 288v411h140v-411c0 -118 39 -170 125 -170s125 52 125 170v411zM159 742l80 129h148l-103 -129h-125zM363 742l90 129h147l-113 -129h-124z" />
    <glyph glyph-name="uhungarumlaut" unicode="&#x171;" horiz-adv-x="526" 
d="M474 500v-500h-125v42c-21 -34 -48 -51 -114 -51c-101 0 -184 50 -184 197v312h128v-293c0 -79 28 -106 81 -106c59 0 87 36 87 105v294h127zM284 567l90 158h144l-111 -158h-123zM110 567l70 158h143l-91 -158h-122z" />
    <glyph glyph-name="Uogonek" unicode="&#x172;" horiz-adv-x="666" 
d="M458 690h140v-410c0 -178 -85 -265 -207 -284c-24 -22 -40 -37 -40 -57c0 -16 12 -22 27 -22c7 0 14 1 19 2l15 -65c-8 -2 -26 -4 -48 -4c-51 0 -110 19 -110 76c0 26 10 48 29 68c-127 17 -215 105 -215 285v411h140v-411c0 -118 39 -170 125 -170s125 52 125 170v411z
" />
    <glyph glyph-name="uogonek" unicode="&#x173;" horiz-adv-x="526" 
d="M474 500v-497l1 -3c-27 -24 -45 -40 -45 -61c0 -16 12 -22 27 -22c7 0 14 1 19 2l15 -65c-8 -2 -26 -4 -48 -4c-51 0 -110 19 -110 76c0 29 12 53 35 74h-19v42c-21 -34 -48 -51 -114 -51c-101 0 -184 50 -184 197v312h128v-293c0 -79 28 -106 81 -106c59 0 87 36 87 105
v294h127z" />
    <glyph glyph-name="Ydieresis" unicode="&#x178;" horiz-adv-x="583" 
d="M6 690h162l123 -257l124 257h161l-215 -408v-282h-140v282zM128 752v117h124v-117h-124zM331 752v117h124v-117h-124z" />
    <glyph glyph-name="Zacute" unicode="&#x179;" horiz-adv-x="519" 
d="M30 690h456v-92l-278 -480h288v-118h-466v92l280 479h-280v119zM188 742l80 129h147l-103 -129h-124z" />
    <glyph glyph-name="zacute" unicode="&#x17a;" horiz-adv-x="449" 
d="M30 89l220 303h-217v108h382v-89l-217 -303h224v-108h-392v89zM163 567l70 158h143l-91 -158h-122z" />
    <glyph glyph-name="Zdotaccent" unicode="&#x17b;" horiz-adv-x="519" 
d="M30 690h456v-92l-278 -480h288v-118h-466v92l280 479h-280v119zM195 759v110h141v-110h-141z" />
    <glyph glyph-name="zdotaccent" unicode="&#x17c;" horiz-adv-x="449" 
d="M30 89l220 303h-217v108h382v-89l-217 -303h224v-108h-392v89zM163 566v124h138v-124h-138z" />
    <glyph glyph-name="Zcaron" unicode="&#x17d;" horiz-adv-x="519" 
d="M30 690h456v-92l-278 -480h288v-118h-466v92l280 479h-280v119zM318 737h-105l-138 142h133l57 -61l58 61h133z" />
    <glyph glyph-name="zcaron" unicode="&#x17e;" horiz-adv-x="449" 
d="M30 89l220 303h-217v108h382v-89l-217 -303h224v-108h-392v89zM288 568h-106l-108 142h114l47 -65l47 65h114z" />
    <glyph glyph-name="uni018F" unicode="&#x18f;" horiz-adv-x="602" 
d="M47 296v73h378v25c0 132 -43 187 -124 187c-69 0 -107 -42 -118 -105h-134c20 141 107 223 252 223c155 0 264 -92 264 -315v-88c0 -211 -109 -305 -264 -305c-156 0 -254 94 -254 305zM301 109c71 0 113 38 122 141h-242c6 -89 37 -141 120 -141z" />
    <glyph glyph-name="florin" unicode="&#x192;" horiz-adv-x="540" 
d="M121 500h64v27c0 129 59 163 180 163h37v-119h-21c-47 0 -59 -21 -59 -66v-5h80v-119h-80v-408c0 -128 -71 -163 -204 -163v119c53 0 67 23 67 70v382h-64v119z" />
    <glyph glyph-name="uni01DD" unicode="&#x1dd;" 
d="M143 358l-95 66c35 61 93 85 183 85c150 0 222 -97 222 -226v-68c0 -151 -76 -224 -206 -224c-141 0 -206 82 -206 234v57h285c-1 69 -23 119 -94 119c-53 0 -70 -16 -89 -43zM246 99c51 0 75 35 80 92h-157c3 -65 29 -92 77 -92z" />
    <glyph glyph-name="Scommaaccent" unicode="&#x218;" horiz-adv-x="575" 
d="M532 586l-105 -75c-30 47 -66 70 -136 70c-63 0 -97 -29 -97 -76c0 -54 44 -78 136 -101c144 -36 209 -90 209 -212c0 -113 -76 -201 -238 -201c-121 0 -205 33 -266 113l107 74c37 -46 79 -69 150 -69c80 0 107 35 107 77c0 48 -29 75 -141 104
c-136 36 -204 101 -204 215c0 109 72 194 236 194c110 0 193 -37 242 -113zM372 -51v-129l-137 -117v246h137z" />
    <glyph glyph-name="scommaaccent" unicode="&#x219;" horiz-adv-x="464" 
d="M419 426l-94 -67c-22 26 -44 40 -98 40c-33 0 -63 -10 -63 -39c0 -30 27 -41 80 -49c123 -19 185 -66 185 -165c0 -96 -67 -155 -196 -155c-102 0 -164 25 -207 83l98 70c20 -27 45 -43 107 -43c44 0 71 15 71 41c0 31 -22 41 -85 51c-104 17 -180 61 -180 162
c0 95 68 154 193 154c82 0 150 -19 189 -83zM306 -51v-129l-137 -117v246h137z" />
    <glyph glyph-name="Tcommaaccent" unicode="&#x21a;" horiz-adv-x="536" 
d="M8 690h520v-119h-190v-571h-140v571h-190v119zM337 -51v-129l-137 -117v246h137z" />
    <glyph glyph-name="tcommaaccent" unicode="&#x21b;" horiz-adv-x="331" 
d="M14 392v108h64v110h127v-110h98v-108h-98v-209c0 -50 10 -71 57 -71h41v-112h-54c-121 0 -171 34 -171 163v229h-64zM264 -51v-129l-137 -117v246h137z" />
    <glyph glyph-name="uni0237" unicode="&#x237;" horiz-adv-x="251" 
d="M194 500v-527c0 -128 -61 -163 -194 -163v110c53 0 67 24 67 71v509h127z" />
    <glyph glyph-name="uni0259" unicode="&#x259;" 
d="M143 358l-95 66c35 61 93 85 183 85c150 0 222 -97 222 -226v-68c0 -151 -76 -224 -206 -224c-141 0 -206 82 -206 234v57h285c-1 69 -23 119 -94 119c-53 0 -70 -16 -89 -43zM246 99c51 0 75 35 80 92h-157c3 -65 29 -92 77 -92z" />
    <glyph glyph-name="afii57929" unicode="&#x2bc;" horiz-adv-x="185" 
d="M171 500v-146l-136 -117v263h136z" />
    <glyph glyph-name="circumflex" unicode="&#x2c6;" horiz-adv-x="414" 
d="M154 710h106l108 -142h-114l-47 65l-47 -65h-114z" />
    <glyph glyph-name="caron" unicode="&#x2c7;" horiz-adv-x="414" 
d="M260 568h-106l-108 142h114l47 -65l47 65h114z" />
    <glyph glyph-name="breve" unicode="&#x2d8;" horiz-adv-x="412" 
d="M263 690h92c-3 -85 -58 -132 -149 -132s-147 47 -150 132h93c4 -32 18 -53 57 -53s53 21 57 53z" />
    <glyph glyph-name="dotaccent" unicode="&#x2d9;" horiz-adv-x="329" 
d="M95 566v124h138v-124h-138z" />
    <glyph glyph-name="ring" unicode="&#x2da;" horiz-adv-x="386" 
d="M70 646c0 64 49 110 123 110s123 -46 123 -110c0 -63 -49 -109 -123 -109s-123 46 -123 109zM156 646c0 -27 14 -44 37 -44c24 0 37 17 37 44c0 28 -13 43 -37 43c-23 0 -37 -15 -37 -43z" />
    <glyph glyph-name="ogonek" unicode="&#x2db;" horiz-adv-x="343" 
d="M215 55l19 -55c-27 -24 -45 -40 -45 -61c0 -16 12 -22 27 -22c7 0 14 1 19 2l15 -65c-8 -2 -26 -4 -48 -4c-51 0 -110 19 -110 76c0 56 47 93 123 129z" />
    <glyph glyph-name="tilde" unicode="&#x2dc;" horiz-adv-x="437" 
d="M279 569c-50 0 -82 29 -117 29c-20 0 -38 -9 -53 -27l-67 64c29 37 73 61 117 61c46 0 80 -29 117 -29c18 0 35 9 51 27l67 -64c-28 -36 -71 -61 -115 -61z" />
    <glyph glyph-name="hungarumlaut" unicode="&#x2dd;" horiz-adv-x="505" 
d="M222 567l90 158h144l-111 -158h-123zM48 567l70 158h143l-91 -158h-122z" />
    <glyph glyph-name="acutecomb" unicode="&#x301;" horiz-adv-x="0" 
d="M-314 567l70 158h143l-91 -158h-122z" />
    <glyph glyph-name="uni0394" unicode="&#x2206;" horiz-adv-x="590" 
d="M570 0h-550l202 690h146zM394 118l-99 389l-100 -389h199z" />
    <glyph glyph-name="uni0394" unicode="&#x394;" horiz-adv-x="590" 
d="M570 0h-550l202 690h146zM394 118l-99 389l-100 -389h199z" />
    <glyph glyph-name="uni03A9" unicode="&#x2126;" horiz-adv-x="629" 
d="M516 118h64v-118h-213v118c47 26 73 65 73 182v94c0 132 -44 187 -125 187s-125 -55 -125 -187v-94c0 -117 25 -158 72 -182v-118h-212v118h64c-43 44 -64 89 -64 182v94c0 213 109 305 265 305c155 0 265 -92 265 -305v-94c0 -93 -22 -138 -64 -182z" />
    <glyph glyph-name="uni03A9" unicode="&#x3a9;" horiz-adv-x="629" 
d="M516 118h64v-118h-213v118c47 26 73 65 73 182v94c0 132 -44 187 -125 187s-125 -55 -125 -187v-94c0 -117 25 -158 72 -182v-118h-212v118h64c-43 44 -64 89 -64 182v94c0 213 109 305 265 305c155 0 265 -92 265 -305v-94c0 -93 -22 -138 -64 -182z" />
    <glyph glyph-name="pi" unicode="&#x3c0;" horiz-adv-x="565" 
d="M340 160v232h-158v-392h-121v392h-74v108h550v-108h-70v-203c0 -54 16 -79 70 -79v-110c-135 0 -197 35 -197 160z" />
    <glyph glyph-name="afii10023" unicode="&#x401;" horiz-adv-x="527" 
d="M68 690h430v-119h-290v-155h260v-118h-260v-180h290v-118h-430v690zM119 752v117h124v-117h-124zM322 752v117h124v-117h-124z" />
    <glyph glyph-name="afii10051" unicode="&#x402;" horiz-adv-x="727" 
d="M-2 690h520v-119h-190v-186c20 18 76 47 147 47c151 0 215 -71 215 -214v-61c0 -146 -108 -157 -198 -157h-23v112h23c43 0 58 21 58 65v32c0 79 -36 104 -108 104c-58 0 -91 -23 -114 -54v-259h-140v571h-190v119z" />
    <glyph glyph-name="afii10052" unicode="&#x403;" horiz-adv-x="491" 
d="M491 690v-119h-283v-571h-140v690h423zM204 742l80 129h147l-103 -129h-124z" />
    <glyph glyph-name="afii10053" unicode="&#x404;" horiz-adv-x="585" 
d="M560 476h-134c-12 65 -50 105 -118 105c-79 0 -123 -52 -125 -175h208v-118h-208c2 -123 44 -179 125 -179c69 0 104 35 118 105h134c-24 -155 -111 -223 -252 -223c-156 0 -265 94 -265 305v98c0 213 109 305 265 305c137 0 229 -72 252 -223z" />
    <glyph glyph-name="afii10054" unicode="&#x405;" horiz-adv-x="575" 
d="M532 586l-105 -75c-30 47 -66 70 -136 70c-63 0 -97 -29 -97 -76c0 -54 44 -78 136 -101c144 -36 209 -90 209 -212c0 -113 -76 -201 -238 -201c-121 0 -205 33 -266 113l107 74c37 -46 79 -69 150 -69c80 0 107 35 107 77c0 48 -29 75 -141 104
c-136 36 -204 101 -204 215c0 109 72 194 236 194c110 0 193 -37 242 -113z" />
    <glyph glyph-name="afii10055" unicode="&#x406;" horiz-adv-x="296" 
d="M218 690v-690h-140v690h140zM78 759v110h141v-110h-141z" />
    <glyph glyph-name="afii10056" unicode="&#x407;" horiz-adv-x="296" 
d="M218 690v-690h-140v690h140zM-15 752v117h124v-117h-124zM188 752v117h124v-117h-124z" />
    <glyph glyph-name="afii10057" unicode="&#x408;" horiz-adv-x="512" 
d="M-9 94l116 65c22 -31 56 -50 94 -50c67 0 103 36 103 156v425h140v-425c0 -199 -89 -274 -234 -274c-99 0 -172 36 -219 103z" />
    <glyph glyph-name="afii10058" unicode="&#x409;" horiz-adv-x="977" 
d="M124 690h462v-253h106c184 0 258 -98 258 -219c0 -119 -74 -218 -258 -218h-246v571h-182v-76c0 -229 -9 -302 -34 -366c-32 -84 -108 -126 -217 -138v146c42 8 75 25 90 64c17 44 21 124 21 294v195zM685 319h-99v-201h99c91 0 125 39 125 100c0 62 -34 101 -125 101z
" />
    <glyph glyph-name="afii10059" unicode="&#x40a;" horiz-adv-x="979" 
d="M208 690v-274h239v274h140v-253h107c184 0 258 -98 258 -219c0 -119 -74 -218 -258 -218h-247v298h-239v-298h-140v690h140zM686 319h-99v-201h99c92 0 126 39 126 100c0 62 -34 101 -126 101z" />
    <glyph glyph-name="afii10060" unicode="&#x40b;" horiz-adv-x="737" 
d="M8 690h520v-119h-190v-186c20 18 76 47 147 47c151 0 215 -71 215 -214v-218h-140v209c0 79 -36 104 -108 104c-57 0 -91 -23 -114 -54v-259h-140v571h-190v119z" />
    <glyph glyph-name="afii10061" unicode="&#x40c;" horiz-adv-x="623" 
d="M610 0h-166l-177 288h-59v-288h-140v690h140v-284h56l158 284h154l-186 -334zM232 742l80 129h147l-103 -129h-124z" />
    <glyph glyph-name="afii10062" unicode="&#x40e;" horiz-adv-x="579" 
d="M435 690h144l-212 -550c-46 -119 -111 -149 -249 -149v122c72 0 104 10 126 51l-236 526h155l148 -344zM359 879h128c0 -100 -60 -151 -190 -151s-191 51 -191 151h129c0 -37 13 -62 62 -62s62 25 62 62z" />
    <glyph glyph-name="afii10145" unicode="&#x40f;" horiz-adv-x="638" 
d="M396 -130h-126v130h-202v690h140v-572h250v572h140v-690h-202v-130z" />
    <glyph glyph-name="afii10017" unicode="&#x410;" horiz-adv-x="607" 
d="M146 0h-150l240 690h134l240 -690h-149l-42 131h-231zM303 492l-78 -243h156z" />
    <glyph glyph-name="afii10018" unicode="&#x411;" horiz-adv-x="596" 
d="M522 690v-119h-314v-134h107c183 0 258 -98 258 -218s-75 -219 -258 -219h-247v690h454zM307 319h-99v-201h99c91 0 126 39 126 101c0 61 -35 100 -126 100z" />
    <glyph glyph-name="afii10019" unicode="&#x412;" horiz-adv-x="606" 
d="M68 690h231c163 0 252 -58 252 -181c0 -71 -36 -120 -91 -147c71 -26 113 -78 113 -164c0 -107 -70 -198 -252 -198h-253v690zM208 299v-181h101c84 0 124 32 124 91c0 65 -43 90 -137 90h-88zM208 572v-155h93c77 0 110 30 110 79c0 48 -24 76 -125 76h-78z" />
    <glyph glyph-name="afii10020" unicode="&#x413;" horiz-adv-x="491" 
d="M491 690v-119h-283v-571h-140v690h423z" />
    <glyph glyph-name="afii10021" unicode="&#x414;" horiz-adv-x="697" 
d="M136 -130h-126v248h44c17 19 33 50 45 84c20 65 31 135 31 303v185h461v-572h86v-248h-126v130h-415v-130zM228 156c-5 -14 -12 -26 -19 -38h242v453h-181v-66c0 -193 -15 -273 -42 -349z" />
    <glyph glyph-name="afii10022" unicode="&#x415;" horiz-adv-x="527" 
d="M68 690h430v-119h-290v-155h260v-118h-260v-180h290v-118h-430v690z" />
    <glyph glyph-name="afii10024" unicode="&#x416;" horiz-adv-x="908" 
d="M160 0h-157l206 348l-172 342h148l140 -284h59v284h140v-284h58l141 284h148l-172 -342l206 -348h-157l-169 288h-55v-288h-140v288h-55z" />
    <glyph glyph-name="afii10025" unicode="&#x417;" horiz-adv-x="592" 
d="M212 299v118h75c80 0 110 34 110 84c0 48 -28 81 -103 81s-105 -35 -123 -84h-123c12 124 121 201 251 201c126 0 238 -61 238 -185c0 -72 -34 -118 -90 -151c67 -28 112 -84 112 -165c0 -125 -96 -207 -261 -207c-147 0 -244 66 -271 209h134c25 -62 61 -91 132 -91
c85 0 126 31 126 95c0 63 -43 95 -134 95h-73z" />
    <glyph glyph-name="afii10026" unicode="&#x418;" horiz-adv-x="676" 
d="M68 690h140v-433l288 433h112v-690h-140v428l-285 -428h-115v690z" />
    <glyph glyph-name="afii10027" unicode="&#x419;" horiz-adv-x="676" 
d="M68 690h140v-433l288 433h112v-690h-140v428l-285 -428h-115v690zM408 879h128c0 -100 -60 -151 -190 -151s-191 51 -191 151h129c0 -37 13 -62 62 -62s62 25 62 62z" />
    <glyph glyph-name="afii10028" unicode="&#x41a;" horiz-adv-x="623" 
d="M610 0h-166l-177 288h-59v-288h-140v690h140v-284h56l158 284h154l-186 -334z" />
    <glyph glyph-name="afii10029" unicode="&#x41b;" horiz-adv-x="654" 
d="M124 690h462v-690h-140v571h-182v-76c0 -229 -9 -302 -34 -366c-32 -84 -108 -126 -217 -138v146c42 8 75 25 90 64c17 44 21 124 21 294v195z" />
    <glyph glyph-name="afii10030" unicode="&#x41c;" horiz-adv-x="786" 
d="M199 690l194 -376l192 376h133v-690h-134v428l-150 -304h-85l-148 301v-425h-133v690h131z" />
    <glyph glyph-name="afii10031" unicode="&#x41d;" horiz-adv-x="656" 
d="M208 690v-274h239v274h140v-690h-140v298h-239v-298h-140v690h140z" />
    <glyph glyph-name="afii10032" unicode="&#x41e;" horiz-adv-x="623" 
d="M576 296c0 -211 -109 -305 -265 -305c-155 0 -264 94 -264 305v98c0 213 109 305 264 305c156 0 265 -92 265 -305v-98zM187 394v-98c0 -132 43 -187 124 -187s125 55 125 187v98c0 132 -44 187 -125 187s-124 -55 -124 -187z" />
    <glyph glyph-name="afii10033" unicode="&#x41f;" horiz-adv-x="666" 
d="M68 690h530v-690h-140v571h-250v-571h-140v690z" />
    <glyph glyph-name="afii10034" unicode="&#x420;" horiz-adv-x="590" 
d="M315 243h-107v-243h-140v690h247c159 0 258 -73 258 -221c0 -146 -98 -226 -258 -226zM208 361h87c97 0 138 34 138 108c0 66 -41 102 -138 102h-87v-210z" />
    <glyph glyph-name="afii10035" unicode="&#x421;" horiz-adv-x="594" 
d="M564 476h-134c-13 65 -51 105 -119 105c-81 0 -124 -55 -124 -187v-98c0 -128 43 -187 124 -187c70 0 104 35 119 105h133c-23 -155 -110 -223 -252 -223c-155 0 -264 94 -264 305v98c0 213 109 305 264 305c137 0 230 -72 253 -223z" />
    <glyph glyph-name="afii10036" unicode="&#x422;" horiz-adv-x="536" 
d="M8 690h520v-119h-190v-571h-140v571h-190v119z" />
    <glyph glyph-name="afii10037" unicode="&#x423;" horiz-adv-x="579" 
d="M435 690h144l-212 -550c-46 -119 -111 -149 -249 -149v122c72 0 104 10 126 51l-236 526h155l148 -344z" />
    <glyph glyph-name="afii10038" unicode="&#x424;" horiz-adv-x="786" 
d="M323 640v50h140v-50c160 0 280 -66 280 -279v-32c0 -213 -120 -279 -280 -279v-50h-140v50c-160 0 -280 66 -280 279v32c0 213 120 279 280 279zM463 522v-354c93 0 140 34 140 161v32c0 127 -47 161 -140 161zM323 168v354c-92 0 -140 -34 -140 -161v-32
c0 -127 48 -161 140 -161z" />
    <glyph glyph-name="afii10039" unicode="&#x425;" horiz-adv-x="592" 
d="M165 0h-152l194 356l-173 334h152l110 -220l111 220h151l-174 -334l195 -356h-151l-132 235z" />
    <glyph glyph-name="afii10040" unicode="&#x426;" horiz-adv-x="714" 
d="M208 690v-572h250v572h140v-572h100v-248h-127v130h-503v690h140z" />
    <glyph glyph-name="afii10041" unicode="&#x427;" horiz-adv-x="598" 
d="M161 690v-203c0 -94 31 -131 119 -131c63 0 95 18 110 43v291h140v-690h-140v270c-20 -14 -61 -32 -136 -32c-172 0 -233 74 -233 249v203h140z" />
    <glyph glyph-name="afii10042" unicode="&#x428;" horiz-adv-x="934" 
d="M208 690v-572h189v572h140v-572h189v572h140v-690h-798v690h140z" />
    <glyph glyph-name="afii10043" unicode="&#x429;" horiz-adv-x="982" 
d="M208 690v-572h189v572h140v-572h189v572h140v-572h100v-248h-127v130h-771v690h140z" />
    <glyph glyph-name="afii10044" unicode="&#x42a;" horiz-adv-x="657" 
d="M-27 690h293v-253h107c183 0 258 -98 258 -219c0 -119 -75 -218 -258 -218h-247v571h-153v119zM365 319h-99v-201h99c91 0 126 39 126 100c0 62 -35 101 -126 101z" />
    <glyph glyph-name="afii10045" unicode="&#x42b;" horiz-adv-x="816" 
d="M68 690h140v-253h97c184 0 258 -98 258 -219c0 -119 -74 -218 -272 -218h-223v690zM748 690v-690h-140v690h140zM297 319h-89v-201h89c92 0 126 39 126 100c0 62 -34 101 -126 101z" />
    <glyph glyph-name="afii10046" unicode="&#x42c;" horiz-adv-x="599" 
d="M68 690h140v-253h107c183 0 258 -98 258 -219c0 -119 -75 -218 -258 -218h-247v690zM307 319h-99v-201h99c91 0 126 39 126 100c0 62 -35 101 -126 101z" />
    <glyph glyph-name="afii10047" unicode="&#x42d;" horiz-adv-x="594" 
d="M199 288v118h208c-3 123 -47 175 -125 175c-67 0 -106 -40 -118 -105h-134c23 151 115 223 252 223c156 0 265 -92 265 -305v-98c0 -211 -109 -305 -265 -305c-141 0 -228 68 -252 223h134c14 -70 49 -105 118 -105c80 0 123 56 125 179h-208z" />
    <glyph glyph-name="afii10048" unicode="&#x42e;" horiz-adv-x="842" 
d="M795 306c0 -223 -93 -315 -250 -315c-154 0 -248 90 -250 307h-87v-298h-140v690h140v-274h87c9 200 101 283 250 283c157 0 250 -92 250 -315v-78zM435 378v-65c0 -139 28 -204 110 -204c83 0 110 65 110 204v65c0 137 -27 203 -110 203c-82 0 -110 -66 -110 -203z" />
    <glyph glyph-name="afii10049" unicode="&#x42f;" horiz-adv-x="614" 
d="M167 0h-154l160 289c-84 29 -132 91 -132 192c0 140 101 209 261 209h244v-690h-140v271h-96zM312 389h94v182h-94c-85 0 -131 -22 -131 -90c0 -61 28 -92 131 -92z" />
    <glyph glyph-name="afii10065" unicode="&#x430;" 
d="M26 148c0 106 80 152 185 152h99v29c0 56 -17 74 -89 74c-49 0 -73 -7 -94 -40l-90 63c37 61 93 83 196 83c129 0 202 -38 202 -181v-328h-125v44c-20 -34 -50 -53 -108 -53c-104 0 -176 55 -176 157zM310 187v19h-84c-52 0 -75 -17 -75 -56c0 -38 29 -56 73 -56
c58 0 86 25 86 93z" />
    <glyph glyph-name="afii10066" unicode="&#x431;" horiz-adv-x="502" 
d="M404 723l66 -82c-17 -35 -42 -52 -98 -55l-92 -5c-53 -3 -81 -13 -100 -44c-8 -13 -14 -32 -18 -60c27 20 63 32 107 32c131 0 200 -78 200 -224v-68c0 -133 -66 -226 -216 -226c-146 0 -216 90 -216 226v65c0 125 13 246 44 308c26 52 81 97 169 101l100 5
c31 2 43 11 54 27zM253 99c69 0 89 54 89 126v60c0 72 -26 116 -89 116s-89 -44 -89 -116v-60c0 -72 17 -126 89 -126z" />
    <glyph glyph-name="afii10067" unicode="&#x432;" horiz-adv-x="497" 
d="M51 500h200c123 0 186 -44 186 -127c0 -53 -34 -87 -68 -101c59 -17 97 -63 97 -126c0 -75 -47 -146 -192 -146h-223v500zM179 212v-113h73c48 0 77 15 77 56c0 40 -22 57 -85 57h-65zM179 401v-95h54c49 0 67 19 67 47c0 31 -19 48 -73 48h-48z" />
    <glyph glyph-name="afii10068" unicode="&#x433;" horiz-adv-x="373" 
d="M383 500v-108h-204v-392h-128v500h332z" />
    <glyph glyph-name="afii10069" unicode="&#x434;" horiz-adv-x="567" 
d="M129 -117h-117v225h39c12 10 25 28 38 60c19 48 22 125 22 212v120h373v-392h66v-225h-116v117h-305v-117zM195 118l-5 -10h167v284h-125v-31c0 -101 -8 -184 -37 -243z" />
    <glyph glyph-name="afii10070" unicode="&#x435;" 
d="M343 142l95 -66c-35 -61 -93 -85 -183 -85c-150 0 -222 97 -222 226v68c0 151 76 224 206 224c141 0 206 -82 206 -234v-57h-285c1 -69 23 -119 94 -119c53 0 70 16 89 43zM240 401c-51 0 -75 -35 -80 -92h157c-3 65 -29 92 -77 92z" />
    <glyph glyph-name="afii10072" unicode="&#x436;" horiz-adv-x="693" 
d="M539 500h133l-105 -243l126 -257h-141l-92 199h-50v-199h-127v199h-50l-92 -199h-141l126 257l-105 243h133l81 -194h48v194h127v-194h47z" />
    <glyph glyph-name="afii10073" unicode="&#x437;" horiz-adv-x="454" 
d="M134 212v94h51c54 0 77 21 77 54c0 28 -20 49 -65 49c-39 0 -64 -12 -91 -41l-87 61c30 37 87 80 195 80c123 0 185 -57 185 -127c0 -55 -29 -92 -72 -113c49 -19 91 -58 91 -127c0 -89 -66 -151 -205 -151c-101 0 -162 31 -199 87l82 64c21 -28 47 -51 108 -51
c53 0 77 28 77 62s-21 59 -99 59h-48z" />
    <glyph glyph-name="afii10074" unicode="&#x438;" horiz-adv-x="532" 
d="M179 500v-273l191 273h110v-500h-127v283l-193 -283h-109v500h128z" />
    <glyph glyph-name="afii10075" unicode="&#x439;" horiz-adv-x="532" 
d="M179 500v-273l191 273h110v-500h-127v283l-193 -283h-109v500h128zM315 687h104c0 -94 -66 -129 -154 -129s-155 35 -155 129h104c0 -32 13 -55 51 -55c37 0 50 23 50 55z" />
    <glyph glyph-name="afii10076" unicode="&#x43a;" horiz-adv-x="492" 
d="M337 500h140l-137 -242l151 -258h-147l-114 199h-51v-199h-128v500h128v-194h48z" />
    <glyph glyph-name="afii10077" unicode="&#x43b;" horiz-adv-x="519" 
d="M91 500h377v-500h-127v392h-129v-116c0 -98 -7 -143 -31 -191c-30 -59 -90 -92 -173 -96v112c35 10 56 28 68 60c14 37 15 92 15 174v165z" />
    <glyph glyph-name="afii10078" unicode="&#x43c;" horiz-adv-x="636" 
d="M163 500l155 -272l155 272h111v-500h-127v258l-100 -183h-85l-93 180v-255h-128v500h112z" />
    <glyph glyph-name="afii10079" unicode="&#x43d;" horiz-adv-x="515" 
d="M179 500v-190h157v190h128v-500h-128v201h-157v-201h-128v500h128z" />
    <glyph glyph-name="afii10080" unicode="&#x43e;" horiz-adv-x="499" 
d="M465 281v-60c0 -137 -65 -230 -216 -230c-145 0 -216 90 -216 230v60c0 150 79 228 216 228c139 0 216 -78 216 -228zM249 99c70 0 89 54 89 126v52c0 80 -26 124 -89 124s-89 -44 -89 -124v-52c0 -72 18 -126 89 -126z" />
    <glyph glyph-name="afii10081" unicode="&#x43f;" horiz-adv-x="515" 
d="M51 500h413v-500h-128v392h-157v-392h-128v500z" />
    <glyph glyph-name="afii10082" unicode="&#x440;" horiz-adv-x="517" 
d="M484 285v-68c0 -130 -66 -226 -195 -226c-52 0 -87 10 -110 29v-210h-128v690h128v-33c24 27 60 42 111 42c116 0 194 -81 194 -224zM268 99c69 0 88 54 88 126v52c0 80 -25 124 -88 124c-61 0 -89 -40 -89 -113v-63c0 -72 17 -126 89 -126z" />
    <glyph glyph-name="afii10083" unicode="&#x441;" horiz-adv-x="446" 
d="M343 142l95 -66c-35 -59 -92 -85 -182 -85c-143 0 -223 90 -223 226v68c0 146 81 224 230 224c77 0 140 -28 175 -83l-96 -67c-17 24 -42 42 -82 42c-72 0 -100 -44 -100 -124v-52c0 -72 19 -126 100 -126c38 0 65 13 83 43z" />
    <glyph glyph-name="afii10084" unicode="&#x442;" horiz-adv-x="420" 
d="M0 500h420v-108h-147v-392h-127v392h-146v108z" />
    <glyph glyph-name="afii10085" unicode="&#x443;" horiz-adv-x="479" 
d="M5 500h134l111 -320l100 320h129l-175 -523c-45 -134 -89 -167 -229 -167v114c69 0 96 11 117 69z" />
    <glyph glyph-name="afii10086" unicode="&#x444;" horiz-adv-x="698" 
d="M413 690v-181c170 0 252 -78 252 -224v-68c0 -142 -80 -226 -252 -226v-181h-128v181c-172 0 -252 84 -252 226v68c0 146 82 224 252 224v181h128zM160 222c0 -84 34 -123 125 -123v302c-81 0 -125 -29 -125 -123v-56zM537 278c0 94 -43 123 -124 123v-302
c91 0 124 39 124 123v56z" />
    <glyph glyph-name="afii10087" unicode="&#x445;" horiz-adv-x="490" 
d="M484 0h-142l-97 152l-97 -152h-141l164 256l-151 244h141l84 -143l84 143h141l-151 -244z" />
    <glyph glyph-name="afii10088" unicode="&#x446;" horiz-adv-x="546" 
d="M530 -117h-117v117h-362v500h128v-392h157v392h128v-392h66v-225z" />
    <glyph glyph-name="afii10089" unicode="&#x447;" horiz-adv-x="470" 
d="M152 500v-144c0 -72 35 -82 71 -82c38 0 59 16 68 33v193h127v-500h-127v186c-18 -14 -54 -24 -94 -24c-94 0 -172 38 -172 175v163h127z" />
    <glyph glyph-name="afii10090" unicode="&#x448;" horiz-adv-x="746" 
d="M695 0h-644v500h128v-392h130v392h128v-392h130v392h128v-500z" />
    <glyph glyph-name="afii10091" unicode="&#x449;" horiz-adv-x="778" 
d="M761 -117h-117v117h-593v500h128v-392h130v392h128v-392h130v392h128v-392h66v-225z" />
    <glyph glyph-name="afii10092" unicode="&#x44a;" horiz-adv-x="545" 
d="M-13 500h249v-172h77c139 0 211 -54 211 -163c0 -103 -66 -165 -201 -165h-214v392h-122v108zM236 220v-112h80c46 0 71 19 71 57c0 34 -20 55 -83 55h-68z" />
    <glyph glyph-name="afii10093" unicode="&#x44b;" horiz-adv-x="661" 
d="M51 500h128v-172h53c139 0 211 -54 211 -163c0 -112 -77 -165 -201 -165h-191v500zM482 500h127v-500h-127v500zM179 220v-112h56c47 0 71 19 71 57c0 34 -20 55 -83 55h-44z" />
    <glyph glyph-name="afii10094" unicode="&#x44c;" horiz-adv-x="488" 
d="M51 500h128v-172h76c139 0 211 -54 211 -163c0 -103 -65 -165 -201 -165h-214v500zM179 220v-112h79c47 0 71 19 71 57c0 34 -20 55 -83 55h-67z" />
    <glyph glyph-name="afii10095" unicode="&#x44d;" horiz-adv-x="451" 
d="M134 204v99h156c-3 58 -28 98 -96 98c-36 0 -63 -13 -83 -42l-95 67c39 51 100 83 173 83c153 0 229 -82 229 -224v-68c0 -138 -77 -226 -229 -226c-79 0 -142 29 -176 85l93 66c20 -29 49 -43 88 -43c77 0 95 50 96 105h-156z" />
    <glyph glyph-name="afii10096" unicode="&#x44e;" horiz-adv-x="691" 
d="M657 285v-68c0 -137 -73 -226 -204 -226c-116 0 -199 69 -204 210h-70v-201h-128v500h128v-190h71c8 132 85 199 203 199c126 0 204 -74 204 -224zM453 99c57 0 77 46 77 124v56c0 88 -28 122 -77 122s-77 -35 -77 -122v-56c0 -79 18 -124 77 -124z" />
    <glyph glyph-name="afii10097" unicode="&#x44f;" horiz-adv-x="500" 
d="M448 0h-127v178h-63l-105 -178h-135l120 199c-59 26 -94 75 -94 146c0 86 55 155 204 155h200v-500zM321 284v108h-67c-48 0 -73 -18 -73 -53c0 -39 26 -55 81 -55h59z" />
    <glyph glyph-name="afii10071" unicode="&#x451;" 
d="M343 142l95 -66c-35 -61 -93 -85 -183 -85c-150 0 -222 97 -222 226v68c0 151 76 224 206 224c141 0 206 -82 206 -234v-57h-285c1 -69 23 -119 94 -119c53 0 70 16 89 43zM240 401c-51 0 -75 -35 -80 -92h157c-3 65 -29 92 -77 92zM73 573v117h124v-117h-124zM277 573
v117h123v-117h-123z" />
    <glyph glyph-name="afii10099" unicode="&#x452;" horiz-adv-x="526" 
d="M-29 538v99h94v53h127v-53h138v-99h-138v-108c19 25 56 46 113 46c101 0 183 -48 183 -196v-300c0 -126 -67 -170 -178 -170h-13v110h11c34 0 53 14 53 60v280c0 78 -29 106 -81 106c-59 0 -88 -39 -88 -105v-261h-127v538h-94z" />
    <glyph glyph-name="afii10100" unicode="&#x453;" horiz-adv-x="373" 
d="M383 500v-108h-204v-392h-128v500h332zM147 567l70 158h143l-91 -158h-122z" />
    <glyph glyph-name="afii10101" unicode="&#x454;" horiz-adv-x="459" 
d="M314 303v-99h-157c1 -55 20 -105 97 -105c38 0 68 14 87 43l94 -66c-35 -56 -97 -85 -176 -85c-153 0 -229 88 -229 226v68c0 142 76 224 229 224c73 0 134 -32 173 -83l-96 -67c-20 29 -47 42 -82 42c-68 0 -95 -40 -97 -98h157z" />
    <glyph glyph-name="afii10102" unicode="&#x455;" horiz-adv-x="464" 
d="M419 426l-94 -67c-22 26 -44 40 -98 40c-33 0 -63 -10 -63 -39c0 -30 27 -41 80 -49c123 -19 185 -66 185 -165c0 -96 -67 -155 -196 -155c-102 0 -164 25 -207 83l98 70c20 -27 45 -43 107 -43c44 0 71 15 71 41c0 31 -22 41 -85 51c-104 17 -180 61 -180 162
c0 95 68 154 193 154c82 0 150 -19 189 -83z" />
    <glyph glyph-name="afii10103" unicode="&#x456;" horiz-adv-x="260" 
d="M66 0v500h128v-500h-128zM61 566v124h138v-124h-138z" />
    <glyph glyph-name="afii10104" unicode="&#x457;" horiz-adv-x="260" 
d="M66 0v500h128v-500h-128zM-38 573v117h124v-117h-124zM166 573v117h123v-117h-123z" />
    <glyph glyph-name="afii10105" unicode="&#x458;" horiz-adv-x="251" 
d="M194 500v-527c0 -128 -61 -163 -194 -163v110c53 0 67 24 67 71v509h127zM62 566v124h137v-124h-137z" />
    <glyph glyph-name="afii10106" unicode="&#x459;" horiz-adv-x="777" 
d="M91 500h377v-172h77c139 0 211 -54 211 -163c0 -103 -66 -165 -202 -165h-213v392h-129v-116c0 -98 -7 -143 -31 -191c-30 -59 -90 -92 -173 -96v112c35 10 56 28 68 60c14 37 15 92 15 174v165zM468 220v-112h80c46 0 70 19 70 57c0 34 -19 55 -82 55h-68z" />
    <glyph glyph-name="afii10107" unicode="&#x45a;" horiz-adv-x="773" 
d="M179 500v-190h157v190h128v-172h76c139 0 211 -54 211 -163c0 -103 -65 -165 -202 -165h-213v201h-157v-201h-128v500h128zM464 220v-112h79c47 0 71 19 71 57c0 34 -20 55 -83 55h-67z" />
    <glyph glyph-name="afii10108" unicode="&#x45b;" horiz-adv-x="526" 
d="M-29 538v99h94v53h127v-53h138v-99h-138v-108c19 25 56 46 113 46c101 0 183 -48 183 -196v-280h-127v260c0 78 -29 106 -81 106c-59 0 -88 -39 -88 -105v-261h-127v538h-94z" />
    <glyph glyph-name="afii10109" unicode="&#x45c;" horiz-adv-x="492" 
d="M337 500h140l-137 -242l151 -258h-147l-114 199h-51v-199h-128v500h128v-194h48zM185 567l70 158h143l-91 -158h-122z" />
    <glyph glyph-name="afii10110" unicode="&#x45e;" horiz-adv-x="479" 
d="M5 500h134l111 -320l100 320h129l-175 -523c-45 -134 -89 -167 -229 -167v114c69 0 96 11 117 69zM299 687h104c0 -94 -66 -129 -154 -129s-155 35 -155 129h104c0 -32 13 -55 51 -55c37 0 50 23 50 55z" />
    <glyph glyph-name="afii10193" unicode="&#x45f;" horiz-adv-x="526" 
d="M304 -117h-93v117h-160v500h128v-391h157v391h128v-500h-160v-117z" />
    <glyph glyph-name="afii10146" unicode="&#x462;" horiz-adv-x="599" 
d="M68 690h140v-72h151v-118h-151v-63h107c183 0 258 -98 258 -219c0 -119 -75 -218 -258 -218h-247v500h-78v118h78v72zM307 319h-99v-201h99c91 0 126 39 126 100c0 62 -35 101 -126 101z" />
    <glyph glyph-name="afii10194" unicode="&#x463;" horiz-adv-x="488" 
d="M-29 401v99h80v190h128v-190h151v-99h-151v-73h76c139 0 211 -54 211 -163c0 -103 -65 -165 -201 -165h-214v401h-80zM179 220v-112h79c47 0 71 19 71 57c0 34 -20 55 -83 55h-67z" />
    <glyph glyph-name="afii10147" unicode="&#x472;" horiz-adv-x="623" 
d="M576 296c0 -211 -109 -305 -265 -305c-155 0 -264 94 -264 305v98c0 213 109 305 264 305c156 0 265 -92 265 -305v-98zM311 109c81 0 125 55 125 187v2h-249v-2c0 -132 43 -187 124 -187zM311 581c-77 0 -119 -49 -124 -165h248c-4 116 -48 165 -124 165z" />
    <glyph glyph-name="afii10195" unicode="&#x473;" horiz-adv-x="499" 
d="M465 281v-60c0 -137 -65 -230 -216 -230c-145 0 -216 90 -216 230v60c0 150 79 228 216 228c139 0 216 -78 216 -228zM249 99c62 0 84 42 88 102h-176c4 -60 25 -102 88 -102zM249 401c-54 0 -81 -32 -88 -91h175c-6 59 -34 91 -87 91z" />
    <glyph glyph-name="afii10148" unicode="&#x474;" horiz-adv-x="617" 
d="M3 690h154l151 -464l108 332c31 96 79 141 216 141v-115c-48 0 -65 -20 -83 -72l-178 -512h-127z" />
    <glyph glyph-name="afii10196" unicode="&#x475;" horiz-adv-x="501" 
d="M511 509v-107c-40 0 -51 -19 -67 -61l-130 -341h-120l-194 500h140l112 -324l77 221c34 99 77 112 182 112z" />
    <glyph glyph-name="afii10050" unicode="&#x490;" horiz-adv-x="491" 
d="M375 690v108h116v-227h-283v-571h-140v690h307z" />
    <glyph glyph-name="afii10098" unicode="&#x491;" horiz-adv-x="373" 
d="M275 500v93h108v-201h-204v-392h-128v500h224z" />
    <glyph glyph-name="uni0492" unicode="&#x492;" horiz-adv-x="492" 
d="M492 690v-119h-283v-155h136v-118h-136v-298h-140v298h-79v118h79v274h423z" />
    <glyph glyph-name="uni0493" unicode="&#x493;" horiz-adv-x="395" 
d="M405 500v-108h-204v-82h106v-109h-106v-201h-128v201h-86v109h86v190h332z" />
    <glyph glyph-name="uni0496" unicode="&#x496;" horiz-adv-x="962" 
d="M160 0h-157l206 348l-172 342h148l140 -284h59v284h140v-284h58l141 284h148l-172 -342l136 -230h111v-248h-127v130h-71l-169 288h-55v-288h-140v288h-55z" />
    <glyph glyph-name="uni0497" unicode="&#x497;" horiz-adv-x="725" 
d="M539 500h133l-105 -243l73 -149h75v-225h-117v117h-46l-92 199h-50v-199h-127v199h-50l-92 -199h-141l126 257l-105 243h133l81 -194h48v194h127v-194h47z" />
    <glyph glyph-name="uni0498" unicode="&#x498;" horiz-adv-x="592" 
d="M362 -130h-127v126c-112 16 -185 82 -208 204h134c25 -62 61 -91 132 -91c85 0 126 31 126 95c0 63 -43 95 -134 95h-73v118h75c80 0 110 34 110 84c0 48 -28 81 -103 81s-105 -35 -123 -84h-123c12 124 121 201 251 201c126 0 238 -61 238 -185c0 -72 -34 -118 -90 -151
c67 -28 112 -84 112 -165c0 -108 -72 -184 -197 -202v-126z" />
    <glyph glyph-name="uni0499" unicode="&#x499;" horiz-adv-x="454" 
d="M277 -117h-117v111c-70 9 -116 38 -146 84l82 64c21 -28 47 -51 108 -51c53 0 77 28 77 62s-21 59 -99 59h-48v94h51c54 0 77 21 77 54c0 28 -20 49 -65 49c-39 0 -64 -12 -91 -41l-87 61c30 37 87 80 195 80c123 0 185 -57 185 -127c0 -55 -29 -92 -72 -113
c49 -19 91 -58 91 -127c0 -74 -46 -130 -141 -146v-113z" />
    <glyph glyph-name="uni049A" unicode="&#x49a;" horiz-adv-x="665" 
d="M648 -130h-126v130h-78l-177 288h-59v-288h-140v690h140v-284h56l158 284h154l-186 -334l147 -238h111v-248z" />
    <glyph glyph-name="uni049B" unicode="&#x49b;" horiz-adv-x="522" 
d="M337 500h140l-137 -242l88 -150h81v-225h-117v117h-48l-114 199h-51v-199h-128v500h128v-194h48z" />
    <glyph glyph-name="uni049C" unicode="&#x49c;" horiz-adv-x="720" 
d="M706 0h-165l-178 288h-19v-107h-105v107h-31v-288h-140v690h140v-284h31v114h105v-114h17l157 284h154l-186 -334z" />
    <glyph glyph-name="uni049D" unicode="&#x49d;" horiz-adv-x="569" 
d="M414 500h140l-137 -242l151 -258h-147l-114 199h-10v-96h-95v96h-23v-199h-128v500h128v-194h23v98h95v-98h7z" />
    <glyph glyph-name="uni04A0" unicode="&#x4a0;" horiz-adv-x="681" 
d="M668 0h-166l-177 288h-59v-288h-140v571h-153v119h293v-284h56l158 284h154l-186 -334z" />
    <glyph glyph-name="uni04A1" unicode="&#x4a1;" horiz-adv-x="549" 
d="M394 500h140l-137 -242l151 -258h-147l-114 199h-51v-199h-128v392h-121v108h249v-194h48z" />
    <glyph glyph-name="uni04A2" unicode="&#x4a2;" horiz-adv-x="704" 
d="M208 690v-274h239v274h140v-572h100v-248h-127v130h-113v298h-239v-298h-140v690h140z" />
    <glyph glyph-name="uni04A3" unicode="&#x4a3;" horiz-adv-x="546" 
d="M179 500v-190h157v190h128v-392h66v-225h-117v117h-77v201h-157v-201h-128v500h128z" />
    <glyph glyph-name="uni04AA" unicode="&#x4aa;" horiz-adv-x="594" 
d="M375 -130h-127v127c-121 23 -201 118 -201 299v98c0 213 109 305 264 305c137 0 230 -72 253 -223h-134c-13 65 -51 105 -119 105c-81 0 -124 -55 -124 -187v-98c0 -128 43 -187 124 -187c70 0 104 35 119 105h133c-20 -130 -84 -199 -188 -217v-127z" />
    <glyph glyph-name="uni04AB" unicode="&#x4ab;" horiz-adv-x="446" 
d="M318 -117h-116v113c-109 19 -169 103 -169 221v68c0 146 81 224 230 224c77 0 140 -28 175 -83l-96 -67c-17 24 -42 42 -82 42c-72 0 -100 -44 -100 -124v-52c0 -72 19 -126 100 -126c38 0 65 13 83 43l95 -66c-26 -44 -65 -70 -120 -80v-113z" />
    <glyph glyph-name="uni04AE" unicode="&#x4ae;" horiz-adv-x="583" 
d="M6 690h162l123 -257l124 257h161l-215 -408v-282h-140v282z" />
    <glyph glyph-name="uni04AF" unicode="&#x4af;" horiz-adv-x="504" 
d="M363 500h141l-186 -490v-200h-128v200l-190 490h140l112 -324z" />
    <glyph glyph-name="uni04B0" unicode="&#x4b0;" horiz-adv-x="583" 
d="M6 690h162l123 -257l124 257h161l-201 -381h115v-118h-129v-191h-140v191h-127v118h113z" />
    <glyph glyph-name="uni04B1" unicode="&#x4b1;" horiz-adv-x="504" 
d="M363 500h141l-190 -500h99v-108h-99v-82h-120v82h-102v108h102l-194 500h140l112 -324z" />
    <glyph glyph-name="uni04B2" unicode="&#x4b2;" horiz-adv-x="642" 
d="M165 0h-152l194 356l-173 334h152l110 -220l111 220h151l-174 -334l130 -238h111v-248h-127v130h-70l-132 235z" />
    <glyph glyph-name="uni04B3" unicode="&#x4b3;" horiz-adv-x="511" 
d="M501 -117h-116v117h-43l-97 152l-97 -152h-141l164 256l-151 244h141l84 -143l84 143h141l-151 -244l95 -148h87v-225z" />
    <glyph glyph-name="uni04B6" unicode="&#x4b6;" horiz-adv-x="646" 
d="M161 690v-203c0 -94 31 -131 119 -131c63 0 95 18 110 43v291h140v-572h99v-248h-126v130h-113v270c-20 -14 -61 -32 -136 -32c-172 0 -233 74 -233 249v203h140z" />
    <glyph glyph-name="uni04B7" unicode="&#x4b7;" horiz-adv-x="503" 
d="M154 500v-144c0 -72 35 -82 71 -82c38 0 59 16 68 33v193h127v-392h66v-225h-117v117h-76v186c-18 -14 -54 -24 -94 -24c-94 0 -172 38 -172 175v163h127z" />
    <glyph glyph-name="uni04B8" unicode="&#x4b8;" horiz-adv-x="618" 
d="M348 473v-109c30 7 53 20 62 35v291h140v-690h-140v270c-11 -8 -33 -16 -62 -23v-113h-118v104c-154 7 -209 82 -209 249v203h140v-203c0 -74 19 -112 69 -126v112h118z" />
    <glyph glyph-name="uni04B9" unicode="&#x4b9;" horiz-adv-x="512" 
d="M154 500v-144c0 -52 18 -72 42 -79v104h95v-97c18 5 33 13 42 22v194h127v-500h-127v186c-10 -5 -25 -10 -42 -13v-92h-95v81c-93 0 -170 39 -170 175v163h128z" />
    <glyph glyph-name="uni04BA" unicode="&#x4ba;" horiz-adv-x="598" 
d="M437 0v260c0 94 -31 131 -119 131c-63 0 -95 -17 -110 -43v-348h-140v690h140v-213c20 14 61 32 137 32c171 0 232 -74 232 -248v-261h-140z" />
    <glyph glyph-name="uni04BB" unicode="&#x4bb;" horiz-adv-x="526" 
d="M51 0v690h128v-229c19 25 54 48 112 48c101 0 183 -48 183 -196v-313h-127v293c0 78 -28 106 -80 106c-59 0 -88 -39 -88 -105v-294h-128z" />
    <glyph glyph-name="uni04D8" unicode="&#x4d8;" horiz-adv-x="602" 
d="M47 296v73h378v25c0 132 -43 187 -124 187c-69 0 -107 -42 -118 -105h-134c20 141 107 223 252 223c155 0 264 -92 264 -315v-88c0 -211 -109 -305 -264 -305c-156 0 -254 94 -254 305zM301 109c71 0 113 38 122 141h-242c6 -89 37 -141 120 -141z" />
    <glyph glyph-name="afii10846" unicode="&#x4d9;" 
d="M143 358l-95 66c35 61 93 85 183 85c150 0 222 -97 222 -226v-68c0 -151 -76 -224 -206 -224c-141 0 -206 82 -206 234v57h285c-1 69 -23 119 -94 119c-53 0 -70 -16 -89 -43zM246 99c51 0 75 35 80 92h-157c3 -65 29 -92 77 -92z" />
    <glyph glyph-name="uni04E2" unicode="&#x4e2;" horiz-adv-x="676" 
d="M68 690h140v-433l288 433h112v-690h-140v428l-285 -428h-115v690zM178 744v112h322v-112h-322z" />
    <glyph glyph-name="uni04E3" unicode="&#x4e3;" horiz-adv-x="532" 
d="M179 500v-273l191 273h110v-500h-127v283l-193 -283h-109v500h128zM125 573v111h283v-111h-283z" />
    <glyph glyph-name="uni04E8" unicode="&#x4e8;" horiz-adv-x="623" 
d="M576 296c0 -211 -109 -305 -265 -305c-155 0 -264 94 -264 305v98c0 213 109 305 264 305c156 0 265 -92 265 -305v-98zM311 109c81 0 125 55 125 187v2h-249v-2c0 -132 43 -187 124 -187zM311 581c-77 0 -119 -49 -124 -165h248c-4 116 -48 165 -124 165z" />
    <glyph glyph-name="uni04E9" unicode="&#x4e9;" horiz-adv-x="499" 
d="M465 281v-60c0 -137 -65 -230 -216 -230c-145 0 -216 90 -216 230v60c0 150 79 228 216 228c139 0 216 -78 216 -228zM249 99c62 0 84 42 88 102h-176c4 -60 25 -102 88 -102zM249 401c-54 0 -81 -32 -88 -91h175c-6 59 -34 91 -87 91z" />
    <glyph glyph-name="uni04EE" unicode="&#x4ee;" horiz-adv-x="579" 
d="M435 690h144l-212 -550c-46 -119 -111 -149 -249 -149v122c72 0 104 10 126 51l-236 526h155l148 -344zM142 744v112h322v-112h-322z" />
    <glyph glyph-name="uni04EF" unicode="&#x4ef;" horiz-adv-x="479" 
d="M5 500h134l111 -320l100 320h129l-175 -523c-45 -134 -89 -167 -229 -167v114c69 0 96 11 117 69zM105 573v111h283v-111h-283z" />
    <glyph glyph-name="uni1E9E" unicode="&#x1e9e;" horiz-adv-x="607" 
d="M541 642l-99 -179c74 -17 99 -58 99 -127v-196c0 -120 -48 -140 -148 -140h-91v118h50c37 0 49 19 49 56v132c0 39 -9 59 -49 59h-50v90l67 116c-12 4 -38 10 -63 10c-68 0 -98 -29 -98 -101v-480h-140v488c0 127 69 211 238 211c102 0 203 -37 235 -57z" />
    <glyph glyph-name="uni2010" unicode="&#x2010;" horiz-adv-x="319" 
d="M30 233v112h259v-112h-259z" />
    <glyph glyph-name="uni2011" unicode="&#x2011;" horiz-adv-x="319" 
d="M30 233v112h259v-112h-259z" />
    <glyph glyph-name="figuredash" unicode="&#x2012;" horiz-adv-x="540" 
d="M64 287v124h412v-124h-412z" />
    <glyph glyph-name="endash" unicode="&#x2013;" horiz-adv-x="509" 
d="M60 227v124h389v-124h-389z" />
    <glyph glyph-name="emdash" unicode="&#x2014;" horiz-adv-x="706" 
d="M20 227v124h666v-124h-666z" />
    <glyph glyph-name="quoteleft" unicode="&#x2018;" horiz-adv-x="243" 
d="M46 534v162l137 117v-279h-137z" />
    <glyph glyph-name="quoteright" unicode="&#x2019;" horiz-adv-x="249" 
d="M180 706v-165l-134 -114v279h134z" />
    <glyph glyph-name="quotesinglbase" unicode="&#x201a;" horiz-adv-x="256" 
d="M196 136v-162l-136 -117v279h136z" />
    <glyph glyph-name="quotedblleft" unicode="&#x201c;" horiz-adv-x="386" 
d="M19 534v162l137 117v-279h-137zM199 534v162l136 117v-279h-136z" />
    <glyph glyph-name="quotedblright" unicode="&#x201d;" horiz-adv-x="386" 
d="M156 706v-162l-137 -117v279h137zM335 706v-162l-136 -117v279h136z" />
    <glyph glyph-name="quotedblbase" unicode="&#x201e;" horiz-adv-x="427" 
d="M376 136v-162l-137 -117v279h137zM196 136v-162l-136 -117v279h136z" />
    <glyph glyph-name="dagger" unicode="&#x2020;" horiz-adv-x="580" 
d="M33 500h187v190h140v-190h186v-119h-186v-571h-140v571h-187v119z" />
    <glyph glyph-name="daggerdbl" unicode="&#x2021;" horiz-adv-x="580" 
d="M33 500h187v190h140v-190h186v-119h-186v-263h186v-118h-186v-190h-140v190h-187v118h187v263h-187v119z" />
    <glyph glyph-name="bullet" unicode="&#x2022;" horiz-adv-x="296" 
d="M33 341c0 64 52 116 116 116s116 -52 116 -116s-52 -116 -116 -116s-116 52 -116 116z" />
    <glyph glyph-name="ellipsis" unicode="&#x2026;" horiz-adv-x="882" 
d="M216 156v-156h-156v156h156zM822 156v-156h-156v156h156zM519 156v-156h-156v156h156z" />
    <glyph glyph-name="perthousand" unicode="&#x2030;" horiz-adv-x="1112" 
d="M510 690h123l-385 -690h-124zM739 200v-59c0 -90 -43 -150 -151 -150c-98 0 -150 53 -150 150v59c0 97 54 148 150 148c98 0 151 -50 151 -148zM588 78c33 0 48 20 48 63v56c0 46 -16 63 -48 63c-30 0 -46 -18 -46 -63v-56c0 -43 14 -63 46 -63zM323 551v-59
c0 -90 -43 -150 -152 -150c-97 0 -149 53 -149 150v59c0 97 54 148 149 148c99 0 152 -50 152 -148zM172 429c33 0 48 20 48 63v56c0 46 -16 63 -48 63c-30 0 -46 -18 -46 -63v-56c0 -43 13 -63 46 -63zM1077 200v-59c0 -90 -43 -150 -152 -150c-98 0 -150 53 -150 150v59
c0 97 54 148 150 148c99 0 152 -50 152 -148zM926 78c33 0 47 20 47 63v56c0 46 -15 63 -47 63c-30 0 -46 -18 -46 -63v-56c0 -43 13 -63 46 -63z" />
    <glyph glyph-name="guilsinglleft" unicode="&#x2039;" horiz-adv-x="330" 
d="M30 283l232 231v-143l-90 -88l90 -89v-142z" />
    <glyph glyph-name="guilsinglright" unicode="&#x203a;" horiz-adv-x="330" 
d="M58 514l232 -231l-232 -231v142l89 89l-89 88v143z" />
    <glyph glyph-name="fraction" unicode="&#x2044;" horiz-adv-x="566" 
d="M485 690h127l-474 -690h-128z" />
    <glyph glyph-name="uni2074" unicode="&#x2074;" horiz-adv-x="349" 
d="M149 690h102l-123 -198h51v45h88v-45h39v-71h-39v-47h-88v47h-161v64z" />
    <glyph glyph-name="Euro" unicode="&#x20ac;" horiz-adv-x="540" 
d="M10 316h68v51h-68v112h73c20 153 99 220 227 220c133 0 201 -75 216 -223h-134c-8 68 -29 105 -82 105s-79 -27 -88 -102h111v-112h-115v-51h115v-112h-110c11 -66 37 -95 87 -95c49 0 73 31 82 105h133c-15 -151 -78 -223 -215 -223c-125 0 -204 68 -226 213h-74v112z
" />
    <glyph glyph-name="uni20B4" unicode="&#x20b4;" horiz-adv-x="540" 
d="M7 219v106h526v-106h-338c-4 -10 -6 -21 -6 -33c0 -42 26 -77 96 -77c54 0 81 23 118 69l106 -74c-63 -80 -121 -113 -235 -113c-151 0 -225 88 -225 194c0 12 1 23 3 34h-45zM7 366v106h336c5 10 8 20 8 33c0 47 -29 76 -84 76c-48 0 -76 -23 -107 -69l-104 74
c48 72 116 113 212 113c154 0 224 -85 223 -186c0 -15 -2 -29 -6 -41h48v-106h-526z" />
    <glyph glyph-name="uni20B8" unicode="&#x20b8;" horiz-adv-x="540" 
d="M14 524h513v-119h-187v-405h-140v405h-186v119zM14 690h513v-119h-513v119z" />
    <glyph glyph-name="uni20BD" unicode="&#x20bd;" horiz-adv-x="540" 
d="M9 243v118h84v329h192c159 0 258 -73 258 -221c0 -146 -98 -226 -258 -226h-52v-39h115v-118h-115v-86h-140v86h-84v118h84v39h-84zM233 361h32c97 0 138 34 138 108c0 66 -41 102 -138 102h-32v-210z" />
    <glyph glyph-name="afii61352" unicode="&#x2116;" horiz-adv-x="946" 
d="M927 537v-47c0 -94 -47 -163 -153 -163c-99 0 -153 64 -153 163v47c0 103 56 162 153 162c98 0 153 -59 153 -162zM645 166v119h259v-119h-259zM774 426c32 0 45 28 45 68v39c0 47 -15 67 -45 67s-46 -21 -46 -67v-39c0 -41 10 -68 46 -68zM444 690h133v-690h-117
l-269 427v-427h-133v690h116l270 -433v433z" />
    <glyph glyph-name="trademark" unicode="&#x2122;" horiz-adv-x="910" 
d="M511 690l123 -215l123 215h106v-417h-112v195l-77 -131h-85l-72 131v-195h-111v417h105zM24 690h351v-100h-119v-317h-112v317h-120v100z" />
    <glyph glyph-name="uni2190" unicode="&#x2190;" horiz-adv-x="875" 
d="M523 -92h-110l-353 353l353 353h110l-314 -314h606v-78h-606z" />
    <glyph glyph-name="uni2191" unicode="&#x2191;" horiz-adv-x="826" 
d="M766 286v-110l-314 314v-606h-78v606l-314 -314v110l353 353z" />
    <glyph glyph-name="uni2192" unicode="&#x2192;" horiz-adv-x="875" 
d="M462 -92h-110l314 314h-606v78h606l-314 314h110l353 -353z" />
    <glyph glyph-name="uni2193" unicode="&#x2193;" horiz-adv-x="826" 
d="M60 236v110l314 -314v606h78v-606l314 314v-110l-353 -353z" />
    <glyph glyph-name="uni2196" unicode="&#x2196;" horiz-adv-x="698" 
d="M137 -78l-77 78v500h500l78 -77h-445l428 -429l-55 -55l-429 428v-445z" />
    <glyph glyph-name="uni2197" unicode="&#x2197;" horiz-adv-x="698" 
d="M638 0l-77 -78v445l-429 -428l-55 55l428 429h-445l78 77h500v-500z" />
    <glyph glyph-name="uni2198" unicode="&#x2198;" horiz-adv-x="698" 
d="M561 578l77 -78v-500h-500l-78 77h445l-428 429l55 55l429 -428v445z" />
    <glyph glyph-name="uni2199" unicode="&#x2199;" horiz-adv-x="698" 
d="M60 500l77 78v-445l429 428l55 -55l-428 -429h445l-78 -77h-500v500z" />
    <glyph glyph-name="uni21A3" unicode="&#x21a3;" horiz-adv-x="1375" 
d="M264 464l124 -124h768l-64 65l60 59l183 -183l-183 -183l-60 59l64 65h-768l-124 -124l-61 59l124 124l-124 124zM100 464l183 -183l-183 -183l-60 59l124 124l-124 124z" />
    <glyph glyph-name="partialdiff" unicode="&#x2202;" horiz-adv-x="503" 
d="M465 460v-239c0 -137 -65 -230 -216 -230c-145 0 -216 90 -216 230v60c0 150 79 228 208 228c41 0 72 -9 97 -24c-3 79 -40 107 -100 107c-37 0 -71 -13 -106 -35l-58 79c41 38 106 63 177 63c145 0 214 -80 214 -239zM249 99c70 0 89 54 89 126v52c0 80 -26 124 -89 124
s-89 -44 -89 -124v-52c0 -72 18 -126 89 -126z" />
    <glyph glyph-name="product" unicode="&#x220f;" horiz-adv-x="638" 
d="M58 690h522v-880h-140v761h-242v-761h-140v880z" />
    <glyph glyph-name="summation" unicode="&#x2211;" horiz-adv-x="519" 
d="M499 690v-118h-291l176 -268v-110l-176 -266h291v-118h-469v103l225 337l-225 337v103h469z" />
    <glyph glyph-name="minus" unicode="&#x2212;" horiz-adv-x="506" 
d="M58 298v112h389v-112h-389z" />
    <glyph glyph-name="uni2215" unicode="&#x2215;" horiz-adv-x="485" 
d="M162 -116h-115l336 928h115z" />
    <glyph glyph-name="radical" unicode="&#x221a;" horiz-adv-x="697" 
d="M7 500h214l126 -302l106 492h298v-119h-184l-142 -571h-132l-177 381h-109v119z" />
    <glyph glyph-name="infinity" unicode="&#x221e;" horiz-adv-x="802" 
d="M400 266c-54 -64 -111 -107 -191 -107c-104 0 -176 82 -176 183s72 183 180 183c76 0 140 -41 193 -105c54 64 107 105 186 105c105 0 176 -82 176 -183s-71 -183 -170 -183c-85 0 -144 43 -198 107zM588 272c37 0 69 27 69 70c0 41 -32 68 -73 68
c-42 0 -70 -29 -105 -67c35 -39 69 -71 109 -71zM216 272c45 0 78 32 112 70c-34 38 -71 68 -112 68c-38 0 -71 -27 -71 -68c0 -43 33 -70 71 -70z" />
    <glyph glyph-name="integral" unicode="&#x222b;" horiz-adv-x="309" 
d="M213 507v-534c0 -129 -53 -163 -174 -163h-37v114h24c45 0 57 19 57 68v535c0 129 53 163 174 163h37v-114h-23c-43 0 -58 -16 -58 -69z" />
    <glyph glyph-name="approxequal" unicode="&#x2248;" horiz-adv-x="500" 
d="M416 485l45 -93c-31 -33 -63 -53 -113 -53c-73 0 -134 53 -193 53c-29 0 -50 -13 -70 -29l-46 95c36 36 68 53 113 53c70 0 136 -53 197 -53c29 0 46 10 67 27zM416 311l45 -92c-31 -33 -63 -53 -113 -53c-73 0 -134 53 -193 53c-29 0 -50 -13 -70 -29l-46 95
c36 36 68 53 113 53c70 0 136 -53 197 -53c29 0 46 9 67 26z" />
    <glyph glyph-name="notequal" unicode="&#x2260;" horiz-adv-x="500" 
d="M55 359v120h206l68 156l100 -40l-51 -116h66v-120h-118l-25 -58h143v-119h-195l-64 -148l-100 40l47 108h-77v119h129l25 58h-154z" />
    <glyph glyph-name="lessequal" unicode="&#x2264;" horiz-adv-x="385" 
d="M83 401l232 231v-143l-90 -88l90 -89v-142zM83 195v141l232 -229v-143z" />
    <glyph glyph-name="greaterequal" unicode="&#x2265;" horiz-adv-x="385" 
d="M83 632l232 -231l-232 -231v142l89 89l-89 88v143zM315 336v-141l-232 -231v143z" />
    <glyph glyph-name="uni231A" unicode="&#x231a;" horiz-adv-x="666" 
d="M185 -205v235c-75 45 -125 127 -125 220s50 174 125 219v235h261v-234c64 -38 110 -104 122 -180h38v-80h-38c-12 -77 -58 -142 -122 -180v-235h-261zM105 250c0 -116 95 -211 211 -211s210 95 210 211s-94 210 -210 210s-211 -94 -211 -210zM482 318l-166 -93l-133 75
l-6 20l20 5l119 -70l153 87l19 -5z" />
    <glyph glyph-name="uni23F2" unicode="&#x23f2;" horiz-adv-x="1072" 
d="M60 342c0 263 213 476 476 476s476 -213 476 -476s-213 -476 -476 -476s-476 213 -476 476zM114 342c0 -233 189 -422 422 -422s421 189 421 422s-188 421 -421 421s-422 -188 -422 -421zM871 508l-335 -192l-248 142l-10 35l36 10l222 -129l309 179l36 -9zM802 364h126
v-46h-126v46zM513 -50v126h46v-126h-46zM145 364h126v-46h-126v46zM513 607v126h46v-126h-46z" />
    <glyph glyph-name="uni2550" unicode="&#x2550;" horiz-adv-x="2158" 
d="M2158 417v-119h-2158v119h2158zM2158 255v-119h-2158v119h2158z" />
    <glyph glyph-name="lozenge" unicode="&#x25ca;" horiz-adv-x="564" 
d="M215 587h136l190 -291l-190 -296h-136l-192 296zM282 476l-112 -180l112 -186l111 186z" />
    <glyph glyph-name="uni261D" unicode="&#x261d;" horiz-adv-x="705" 
d="M645 -28h-370l-215 292s72 69 144 -6l71 -74v450c0 42 20 61 50 61s50 -19 50 -58v-229h36c38 0 54 -16 54 -54h36c38 0 54 -16 54 -54h34c40 0 56 -16 56 -51v-277zM275 -243v161h370v-161h-370zM565 -135c-16 0 -28 -11 -28 -27s12 -28 28 -28c17 0 27 12 27 28
s-11 27 -27 27z" />
    <glyph glyph-name="uni261E" unicode="&#x261e;" horiz-adv-x="1061" 
d="M278 51v370l292 215s69 -72 -6 -144l-74 -71h450c42 0 61 -20 61 -50s-19 -50 -58 -50h-229v-36c0 -38 -16 -54 -54 -54v-36c0 -38 -16 -54 -54 -54v-34c0 -40 -16 -56 -51 -56h-277zM60 421h164v-370h-164v370zM169 131c0 16 -11 28 -27 28s-28 -12 -28 -28
c0 -17 12 -27 28 -27s27 11 27 27z" />
    <glyph glyph-name="uni26F3" unicode="&#x26f3;" horiz-adv-x="674" 
d="M60 513c0 153 124 277 277 277s277 -124 277 -277c0 -54 -17 -113 -82 -216l-195 -307l-197 309c-64 102 -80 160 -80 214zM226 513c0 -61 50 -110 111 -110s110 49 110 110c0 62 -49 110 -110 110s-111 -48 -111 -110z" />
    <glyph glyph-name="uni2709" unicode="&#x2709;" horiz-adv-x="1236" 
d="M60 578h1116v-60l-558 -334l-558 334v60zM60 481l338 -201l-338 -243v444zM1176 0h-1116l366 263l192 -114l192 114zM838 280l338 201v-444z" />
    <glyph glyph-name="uniF040" unicode="&#xf040;" horiz-adv-x="3054" 
d="M1637 469l129 -129h1288v-118h-1286l-131 -131l-61 59l130 130l-130 129zM0 222v118h1288l129 129l61 -60l-130 -129l130 -130l-61 -59l-131 131h-1286z" />
    <glyph glyph-name="uniF041" unicode="&#xf041;" horiz-adv-x="2855" 
d="M1559 440l80 -46l-31 -54h1247v-118h-1316l-57 -99l-79 45zM1373 440l79 -46l-156 -271l-80 45l31 54h-1247v118h1315z" />
    <glyph glyph-name="uniF042" unicode="&#xf042;" horiz-adv-x="2825" 
d="M1437 222v118h1388v-118h-1388zM1268 340v-118h-1268v118h1268z" />
    <glyph glyph-name="uniF043" unicode="&#xf043;" horiz-adv-x="705" 
d="M275 -28h370v277c0 35 -16 51 -56 51h-34c0 38 -16 54 -54 54h-36c0 38 -16 54 -54 54h-36v229c0 39 -20 58 -50 58s-50 -19 -50 -61v-450l-71 74c-72 75 -144 6 -144 6zM275 -82v-161h370v161h-370zM565 -135c16 0 27 -11 27 -27s-10 -28 -27 -28c-16 0 -28 12 -28 28
s12 27 28 27zM83 660h158v-55h-158v55zM409 660h158v-55h-158v55zM297 725v158h55v-158h-55z" />
    <glyph glyph-name="uniF044" unicode="&#xf044;" horiz-adv-x="931" 
d="M177 126l324 -154h370v277c0 35 -16 51 -56 51h-34c0 38 -16 54 -54 54h-36c0 38 -16 54 -54 54h-36v229c0 39 -20 58 -50 58s-50 -19 -50 -61v-478l-201 45c-101 23 -123 -75 -123 -75zM501 -82v-161h370v161h-370zM553 814h158v-158h-55v103h-103v55zM218 15h-158v158
h55v-103h103v-55zM791 -135c16 0 27 -11 27 -27s-10 -28 -27 -28c-16 0 -28 12 -28 28s12 27 28 27z" />
    <glyph glyph-name="uniF045" unicode="&#xf045;" horiz-adv-x="903" 
d="M370 665h503v-55h-498v-202h36c38 0 54 -16 54 -54h36c38 0 54 -16 54 -54h34c40 0 56 -16 56 -51v-277h-370l-215 292s72 69 144 -6l71 -74v450c0 42 20 61 50 61c21 0 38 -10 45 -30zM275 -243v161h370v-161h-370zM87 637l112 112l39 -39l-73 -73l73 -73l-39 -39z
M565 -135c-16 0 -28 -11 -28 -27s12 -28 28 -28c17 0 27 12 27 28s-11 27 -27 27z" />
    <glyph glyph-name="uniF046" unicode="&#xf046;" horiz-adv-x="952" 
d="M892 -28h-370l-215 292s72 69 144 -6l71 -74v426h-492v55h497c7 20 24 30 45 30c30 0 50 -19 50 -58v-229h36c38 0 54 -16 54 -54h36c38 0 54 -16 54 -54h34c40 0 56 -16 56 -51v-277zM522 -243v161h370v-161h-370zM816 637l-112 -112l-39 39l73 73l-73 73l39 39z
M812 -135c-16 0 -28 -11 -28 -27s12 -28 28 -28c17 0 27 12 27 28s-11 27 -27 27z" />
    <glyph glyph-name="uniF047" unicode="&#xf047;" horiz-adv-x="1010" 
d="M866 510v-634h-55v603l-137 -79l17 -31c19 -33 14 -55 -19 -73l18 -32c19 -33 13 -54 -20 -73l17 -30c20 -35 14 -56 -17 -74c-40 -24 -239 -139 -239 -139l-185 321l145 332s96 -28 67 -128l-29 -99l391 226c37 21 62 13 78 -13c15 -26 8 -53 -26 -73zM60 162l140 81
l184 -321l-139 -81zM726 690l112 112l112 -112l-39 -39l-73 73l-73 -73zM276 -20c-16 0 -28 -11 -28 -27s12 -28 28 -28c17 0 27 12 27 28s-11 27 -27 27z" />
    <glyph glyph-name="uniF048" unicode="&#xf048;" horiz-adv-x="1145" 
d="M245 137l186 321l360 40s24 -97 -77 -122l-100 -24l332 -192v603h55v-635l4 -2c36 -21 42 -47 27 -74c-15 -26 -42 -33 -76 -14l-198 115l-18 -30c-19 -33 -41 -40 -73 -21l-18 -31c-19 -33 -41 -38 -74 -19l-17 -30c-20 -35 -42 -40 -73 -22c-40 22 -240 137 -240 137z
M245 565l140 -80l-186 -320l-139 80zM973 -163l-112 112l39 39l73 -73l73 73l39 -39zM172 301c-16 0 -28 -11 -28 -27s12 -28 28 -28c17 0 27 12 27 28s-11 27 -27 27z" />
    <glyph glyph-name="uniF400" unicode="&#xf400;" horiz-adv-x="0" 
d="M-314 567l70 158h143l-91 -158h-122z" />
    <glyph glyph-name="uniF401" unicode="&#xf401;" horiz-adv-x="0" 
d="M-378 742l80 129h147l-103 -129h-124z" />
    <glyph glyph-name="uniF406" unicode="&#xf406;" horiz-adv-x="519" 
d="M338 879h112c0 -100 -81 -152 -191 -152s-191 52 -191 152h111c7 -33 28 -54 80 -54c53 0 73 21 79 54z" />
    <glyph glyph-name="uniF407" unicode="&#xf407;" horiz-adv-x="410" 
d="M145 -72l20 97l81 -3l-12 -44c34 -13 53 -37 53 -72c0 -54 -50 -86 -119 -86c-21 0 -38 2 -46 4l15 65c6 -1 11 -2 19 -2c20 0 33 7 33 21c0 15 -17 20 -44 20z" />
    <glyph glyph-name="uniF408" unicode="&#xf408;" horiz-adv-x="519" 
d="M207 879h105l138 -142h-133l-58 61l-57 -61h-133z" />
    <glyph glyph-name="uniF409" unicode="&#xf409;" horiz-adv-x="397" 
d="M267 -51v-129l-137 -117v246h137z" />
    <glyph glyph-name="uniF40A" unicode="&#xf40a;" horiz-adv-x="205" 
d="M193 690v-150l-136 -116v266h136z" />
    <glyph glyph-name="uniF40B" unicode="&#xf40b;" horiz-adv-x="399" 
d="M129 759v110h141v-110h-141z" />
    <glyph glyph-name="uniF40C" unicode="&#xf40c;" horiz-adv-x="445" 
d="M106 800c0 61 49 99 115 99c68 0 117 -38 117 -99c0 -60 -49 -98 -117 -98c-66 0 -115 38 -115 98zM185 800c0 -20 14 -31 36 -31c24 0 37 11 37 31c0 21 -13 31 -37 31c-22 0 -36 -10 -36 -31z" />
    <glyph glyph-name="uniF40D" unicode="&#xf40d;" horiz-adv-x="504" 
d="M313 738c-51 0 -83 29 -118 29c-19 0 -37 -9 -52 -26l-68 69c30 36 73 60 118 60c46 0 80 -29 117 -29c18 0 35 9 50 27l68 -69c-29 -36 -72 -61 -115 -61z" />
    <glyph glyph-name="uniF40E" unicode="&#xf40e;" horiz-adv-x="413" 
d="M235 48l34 -48c-27 -24 -45 -40 -45 -61c0 -16 12 -22 27 -22c7 0 14 1 19 2l15 -65c-8 -2 -26 -4 -48 -4c-51 0 -110 19 -110 76c0 52 41 88 108 122z" />
    <glyph glyph-name="dollar.fitted" unicode="&#xf5f5;" horiz-adv-x="575" 
d="M532 586l-105 -75c-22 33 -46 55 -83 64v-175c134 -36 195 -90 195 -208c0 -101 -60 -181 -187 -198v-110h-116v111c-87 10 -152 44 -201 109l107 74c27 -35 58 -56 101 -65v181c-126 37 -189 101 -189 211c0 96 56 173 182 190v117h116v-118c79 -12 140 -47 180 -108z
M399 186c0 32 -13 55 -55 75v-146c40 12 55 40 55 71zM194 505c0 -33 16 -55 49 -72v140c-32 -11 -49 -35 -49 -68z" />
    <glyph glyph-name="Euro.fitted" unicode="&#xf5f6;" horiz-adv-x="639" 
d="M8 316h84v51h-84v112h90c26 153 125 220 258 220c137 0 230 -72 253 -223h-134c-13 65 -51 105 -119 105c-61 0 -100 -31 -116 -102h148v-112h-156v-51h156v-112h-146c17 -65 56 -95 114 -95c70 0 104 35 119 105h133c-23 -155 -110 -223 -252 -223
c-131 0 -228 66 -256 213h-92v112z" />
    <glyph glyph-name="cent.fitted" unicode="&#xf5f7;" horiz-adv-x="446" 
d="M343 145l95 -66c-27 -47 -68 -73 -126 -82v-113h-114v115c-107 21 -165 104 -165 220v64c0 122 57 198 165 218v121h114v-120c54 -10 99 -36 126 -79l-96 -67c-17 24 -42 42 -82 42c-72 0 -100 -44 -100 -124v-46c0 -72 19 -126 100 -126c38 0 65 12 83 43z" />
    <glyph glyph-name="sterling.fitted" unicode="&#xf5f8;" horiz-adv-x="536" 
d="M25 0v118h73v159h-73v119h73v31c0 200 92 272 219 272c91 0 155 -30 203 -103l-115 -65c-18 24 -44 50 -82 50c-52 0 -85 -37 -85 -154v-31h131v-119h-131v-159h259v-118h-472z" />
    <glyph glyph-name="yen.fitted" unicode="&#xf5f9;" horiz-adv-x="596" 
d="M85 231h143v51h-143v112h84l-156 296h162l123 -257l124 257h161l-156 -296h85v-112h-144v-51h144v-112h-144v-119h-140v119h-143v112z" />
    <glyph glyph-name="florin.fitted" unicode="&#xf5fa;" horiz-adv-x="324" 
d="M24 500h64v27c0 129 59 163 180 163h37v-119h-21c-47 0 -59 -21 -59 -66v-5h80v-119h-80v-408c0 -128 -71 -163 -204 -163v119c53 0 67 23 67 70v382h-64v119z" />
    <glyph glyph-name="uni20B4.fitted" unicode="&#xf5fb;" horiz-adv-x="596" 
d="M35 219v106h526v-106h-338c-4 -10 -6 -21 -6 -33c0 -42 25 -77 96 -77c53 0 80 23 118 69l106 -74c-63 -80 -121 -113 -236 -113c-151 0 -224 88 -224 194c0 12 1 23 3 34h-45zM35 366v106h336c5 10 8 20 8 33c0 47 -30 76 -84 76c-49 0 -77 -23 -107 -69l-104 74
c47 72 115 113 211 113c154 0 224 -85 224 -186c0 -15 -2 -29 -6 -41h48v-106h-526z" />
    <glyph glyph-name="uni20BD.fitted" unicode="&#xf5fc;" horiz-adv-x="540" 
d="M9 243v118h84v329h192c159 0 258 -73 258 -221c0 -146 -98 -226 -258 -226h-52v-39h115v-118h-115v-86h-140v86h-84v118h84v39h-84zM233 361h32c97 0 138 34 138 108c0 66 -41 102 -138 102h-32v-210z" />
    <glyph glyph-name="uni20B8.fitted" unicode="&#xf5fd;" horiz-adv-x="536" 
d="M8 524h520v-119h-190v-405h-140v405h-190v119zM8 690h520v-119h-520v119z" />
    <glyph glyph-name="currency.fitted" unicode="&#xf5fe;" horiz-adv-x="578" 
d="M90 366c0 33 8 64 22 92l-79 79l84 84l77 -78c28 15 60 24 95 24c34 0 66 -8 94 -23l78 78l84 -84l-78 -78c15 -28 23 -60 23 -94s-9 -66 -24 -94l79 -78l-84 -84l-79 78c-28 -14 -60 -22 -93 -22c-34 0 -66 8 -94 23l-78 -78l-84 84l79 79c-14 27 -22 58 -22 92z
M197 366c0 -53 40 -95 92 -95c53 0 93 42 93 95s-40 96 -93 96c-52 0 -92 -43 -92 -96z" />
    <glyph glyph-name="uniF639" unicode="&#xf639;" horiz-adv-x="570" 
d="M517 480v-269c0 -155 -108 -220 -232 -220s-232 65 -232 220v268c0 162 108 220 232 220s232 -58 232 -219zM377 467c0 74 -30 114 -92 114c-63 0 -93 -40 -93 -114v-244c0 -74 30 -114 93 -114c62 0 92 40 92 114v244z" />
    <glyph glyph-name="uniF63A" unicode="&#xf63a;" horiz-adv-x="515" 
d="M462 118v-118h-426v90l231 272c43 50 64 92 64 137c0 56 -41 84 -86 84c-47 0 -82 -29 -86 -84h-124c0 119 98 200 217 200c124 0 218 -86 218 -200c0 -91 -60 -162 -104 -214l-142 -167h238z" />
    <glyph glyph-name="uniF63B" unicode="&#xf63b;" horiz-adv-x="513" 
d="M183 297v118h51c57 0 96 30 96 88c0 46 -35 80 -86 80c-49 0 -80 -31 -86 -74h-124c5 113 98 190 217 190c126 0 218 -87 218 -190c0 -78 -48 -126 -94 -151c59 -29 104 -83 104 -165c0 -112 -78 -202 -220 -202c-146 0 -229 82 -234 194h123c7 -44 40 -76 102 -76
c56 0 90 40 90 91c0 61 -35 97 -106 97h-51z" />
    <glyph glyph-name="uniF63C" unicode="&#xf63c;" horiz-adv-x="545" 
d="M249 690h153l-215 -473h132v176h140v-176h63v-119h-63v-98h-140v98h-306v97z" />
    <glyph glyph-name="uniF63D" unicode="&#xf63d;" horiz-adv-x="526" 
d="M266 355c-36 0 -58 -20 -73 -51h-126v386h393v-127h-256v-118c19 18 50 36 102 36c106 0 180 -81 180 -246c0 -163 -74 -244 -216 -244c-116 0 -213 65 -224 187h138c11 -44 37 -69 82 -69c50 0 80 38 80 119c0 84 -24 127 -80 127z" />
    <glyph glyph-name="uniF63E" unicode="&#xf63e;" horiz-adv-x="531" 
d="M385 690l-144 -284c21 10 42 13 67 13c106 0 189 -87 189 -206c0 -153 -103 -222 -231 -222c-129 0 -233 68 -233 221c0 54 24 118 63 197l139 281h150zM173 207c0 -58 31 -98 93 -98c60 0 91 40 91 98c0 57 -31 97 -91 97c-62 0 -93 -40 -93 -97z" />
    <glyph glyph-name="uniF63F" unicode="&#xf63f;" horiz-adv-x="452" 
d="M135 464h-119v226h422v-98l-199 -592h-145l200 571h-159v-107z" />
    <glyph glyph-name="uniF640" unicode="&#xf640;" horiz-adv-x="536" 
d="M33 192c0 78 49 141 103 166c-55 28 -93 87 -93 152c0 122 108 189 225 189c118 0 225 -67 225 -189c0 -65 -38 -124 -93 -152c56 -25 103 -88 103 -166c0 -129 -107 -201 -235 -201s-235 72 -235 201zM173 205c0 -53 40 -97 95 -97c53 0 96 44 96 97c0 60 -50 96 -96 96
c-47 0 -95 -36 -95 -96zM182 496c0 -48 38 -87 86 -87c47 0 86 39 86 87c0 47 -39 85 -86 85c-48 0 -86 -38 -86 -85z" />
    <glyph glyph-name="uniF641" unicode="&#xf641;" horiz-adv-x="531" 
d="M145 0l145 284c-22 -10 -43 -13 -67 -13c-106 0 -190 87 -190 206c0 153 104 222 232 222c129 0 233 -68 233 -221c0 -54 -25 -118 -64 -197l-139 -281h-150zM358 483c0 58 -32 98 -93 98c-60 0 -92 -40 -92 -98c0 -57 32 -97 92 -97c61 0 93 40 93 97z" />
    <glyph glyph-name="uniF6BA" unicode="&#xf6ba;" horiz-adv-x="319" 
d="M30 289v112h259v-112h-259z" />
    <glyph glyph-name="uniF6BB" unicode="&#xf6bb;" horiz-adv-x="509" 
d="M60 283v124h389v-124h-389z" />
    <glyph glyph-name="uniF6BC" unicode="&#xf6bc;" horiz-adv-x="706" 
d="M20 283v124h666v-124h-666z" />
    <glyph glyph-name="uniF6C3" unicode="&#xf6c3;" horiz-adv-x="332" 
d="M234 -51v-129l-137 -117v246h137z" />
    <glyph glyph-name="uniF6C9" unicode="&#xf6c9;" horiz-adv-x="379" 
d="M76 742l80 129h147l-103 -129h-124z" />
    <glyph glyph-name="uniF6CA" unicode="&#xf6ca;" horiz-adv-x="519" 
d="M312 737h-105l-138 142h133l57 -61l58 61h133z" />
    <glyph glyph-name="uniF6CB" unicode="&#xf6cb;" horiz-adv-x="492" 
d="M82 752v117h124v-117h-124zM285 752v117h124v-117h-124z" />
    <glyph glyph-name="uniF6CE" unicode="&#xf6ce;" horiz-adv-x="404" 
d="M236 871l80 -129h-125l-103 129h148z" />
    <glyph glyph-name="uniF6CF" unicode="&#xf6cf;" horiz-adv-x="590" 
d="M74 742l80 129h148l-103 -129h-125zM278 742l90 129h147l-113 -129h-124z" />
    <glyph glyph-name="uniF6D0" unicode="&#xf6d0;" horiz-adv-x="490" 
d="M84 744v112h322v-112h-322z" />
    <glyph glyph-name="uniF6D1" unicode="&#xf6d1;" horiz-adv-x="455" 
d="M290 879h128c0 -100 -60 -151 -190 -151s-191 51 -191 151h129c0 -37 13 -62 62 -62s62 25 62 62z" />
    <glyph glyph-name="uniF6D4" unicode="&#xf6d4;" horiz-adv-x="417" 
d="M259 687h104c0 -94 -66 -129 -154 -129s-155 35 -155 129h104c0 -32 13 -55 51 -55c37 0 50 23 50 55z" />
    <glyph glyph-name="uniF6DC" unicode="&#xf6dc;" horiz-adv-x="337" 
d="M269 690v-690h-140v544l-99 -65v135l113 76h126z" />
    <glyph glyph-name="uniFEFF" unicode="&#xfeff;" horiz-adv-x="0" 
 />
    <glyph glyph-name="uniF4D3" unicode="&#x1f4d3;" horiz-adv-x="752" 
d="M60 60v815c0 34 27 61 61 61h510c33 0 61 -27 61 -61v-815c0 -33 -28 -60 -61 -60h-510c-34 0 -61 27 -61 60zM334 66c0 -23 18 -41 42 -41c22 0 41 18 41 41s-19 41 -41 41c-24 0 -42 -18 -42 -41zM648 823h-544v-691h544v691zM357 879c0 -10 8 -18 18 -18s18 8 18 18
s-8 17 -18 17s-18 -7 -18 -17z" />
    <glyph glyph-name="uniF4F1" unicode="&#x1f4f1;" horiz-adv-x="552" 
d="M60 60v715c0 34 27 61 61 61h310c33 0 61 -27 61 -61v-715c0 -33 -28 -60 -61 -60h-310c-34 0 -61 27 -61 60zM234 66c0 -23 18 -41 42 -41c22 0 41 18 41 41s-19 41 -41 41c-24 0 -42 -18 -42 -41zM448 723h-344v-591h344v591zM323 790h-94c-7 0 -11 -6 -11 -12
s3 -12 11 -12h94c7 0 11 6 11 12s-3 12 -11 12z" />
    <glyph glyph-name="uni2197.ss02" horiz-adv-x="667" 
d="M607 0h-78v367l-414 -414l-55 55l414 414h-367v78h500v-500z" />
    <glyph glyph-name="uni2199.ss02" horiz-adv-x="667" 
d="M60 500h78v-367l414 414l55 -55l-414 -414h367v-78h-500v500z" />
    <glyph glyph-name="a.ss01" horiz-adv-x="517" 
d="M33 217v68c0 146 79 224 198 224c46 0 81 -13 107 -34v25h127v-500h-127v28c-27 -24 -62 -37 -107 -37c-131 0 -198 93 -198 226zM249 99c72 0 89 54 89 126v52c0 80 -26 124 -89 124s-89 -44 -89 -124v-52c0 -72 20 -126 89 -126z" />
    <glyph glyph-name="uni2198.ss02" horiz-adv-x="667" 
d="M529 500h78v-500h-500v78h367l-414 414l55 55l414 -414v367z" />
    <glyph glyph-name="afii10069.ss01" horiz-adv-x="517" 
d="M465 460v-239c0 -137 -65 -230 -216 -230c-145 0 -216 90 -216 230v60c0 150 79 228 208 228c41 0 72 -9 97 -24c-3 79 -40 107 -100 107c-37 0 -71 -13 -106 -35l-58 79c41 38 106 63 177 63c145 0 214 -80 214 -239zM249 99c70 0 89 54 89 126v52c0 80 -26 124 -89 124
s-89 -44 -89 -124v-52c0 -72 18 -126 89 -126z" />
    <glyph glyph-name="afii10074.ss01" horiz-adv-x="526" 
d="M474 500v-500h-125v42c-21 -34 -48 -51 -114 -51c-101 0 -184 50 -184 197v312h128v-293c0 -79 28 -106 81 -106c59 0 87 36 87 105v294h127z" />
    <glyph glyph-name="afii10075.ss01" horiz-adv-x="526" 
d="M474 500v-500h-125v42c-21 -34 -48 -51 -114 -51c-101 0 -184 50 -184 197v312h128v-293c0 -79 28 -106 81 -106c59 0 87 36 87 105v294h127zM313 687h104c0 -94 -66 -129 -154 -129s-155 35 -155 129h104c0 -32 13 -55 51 -55c37 0 50 23 50 55z" />
    <glyph glyph-name="afii10081.ss01" horiz-adv-x="526" 
d="M51 0v500h125v-42c19 25 59 51 115 51c101 0 183 -48 183 -196v-313h-127v293c0 78 -28 106 -80 106c-59 0 -88 -39 -88 -105v-294h-128z" />
    <glyph glyph-name="afii10084.ss01" horiz-adv-x="795" 
d="M461 294v-294h-127v293c0 80 -31 106 -76 106c-46 0 -79 -34 -79 -105v-294h-128v500h125v-42c19 26 55 51 111 51c60 0 109 -23 140 -67c32 39 81 67 144 67c109 0 173 -66 173 -196v-313h-128v293c0 75 -26 106 -77 106c-46 0 -78 -34 -78 -105z" />
    <glyph glyph-name="uni2193.ss02" horiz-adv-x="826" 
d="M60 246l55 55l259 -259v586h78v-586l259 259l55 -55l-353 -353z" />
    <glyph glyph-name="uni2196.ss02" horiz-adv-x="667" 
d="M138 0h-78v500h500v-78h-367l414 -414l-55 -55l-414 414v-367z" />
    <glyph glyph-name="uni261E.ss02" horiz-adv-x="1061" 
d="M278 51v370l292 215s69 -72 -6 -144l-74 -71h450c42 0 61 -20 61 -50s-19 -50 -58 -50h-229v-36c0 -38 -16 -54 -54 -54v-36c0 -38 -16 -54 -54 -54v-34c0 -40 -16 -56 -51 -56h-277zM60 421h164v-370h-164v370zM86 396v-319h20v319h-20zM198 77v319h-20v-319h20z
M132 396v-222h20v222h-20zM132 112v-35h20v35h-20z" />
    <glyph glyph-name="uni2191.ss02" horiz-adv-x="826" 
d="M766 276l-55 -55l-259 259v-586h-78v586l-259 -259l-55 55l353 353z" />
    <glyph glyph-name="uni2192.ss02" horiz-adv-x="855" 
d="M442 -92l-55 55l259 259h-586v78h586l-259 259l55 55l353 -353z" />
    <glyph glyph-name="acircumflex.ss01" horiz-adv-x="517" 
d="M33 217v68c0 146 79 224 198 224c46 0 81 -13 107 -34v25h127v-500h-127v28c-27 -24 -62 -37 -107 -37c-131 0 -198 93 -198 226zM249 99c72 0 89 54 89 126v52c0 80 -26 124 -89 124s-89 -44 -89 -124v-52c0 -72 20 -126 89 -126zM200 710h106l108 -142h-114l-47 65
l-47 -65h-114z" />
    <glyph glyph-name="atilde.ss01" horiz-adv-x="517" 
d="M33 217v68c0 146 79 224 198 224c46 0 81 -13 107 -34v25h127v-500h-127v28c-27 -24 -62 -37 -107 -37c-131 0 -198 93 -198 226zM249 99c72 0 89 54 89 126v52c0 80 -26 124 -89 124s-89 -44 -89 -124v-52c0 -72 20 -126 89 -126zM322 569c-50 0 -82 29 -117 29
c-20 0 -38 -9 -53 -27l-67 64c29 37 73 61 117 61c46 0 80 -29 117 -29c18 0 35 9 51 27l67 -64c-28 -36 -71 -61 -115 -61z" />
    <glyph glyph-name="adieresis.ss01" horiz-adv-x="517" 
d="M33 217v68c0 146 79 224 198 224c46 0 81 -13 107 -34v25h127v-500h-127v28c-27 -24 -62 -37 -107 -37c-131 0 -198 93 -198 226zM249 99c72 0 89 54 89 126v52c0 80 -26 124 -89 124s-89 -44 -89 -124v-52c0 -72 20 -126 89 -126zM95 573v117h124v-117h-124zM299 573
v117h123v-117h-123z" />
    <glyph glyph-name="aring.ss01" horiz-adv-x="517" 
d="M33 217v68c0 146 79 224 198 224c46 0 81 -13 107 -34v25h127v-500h-127v28c-27 -24 -62 -37 -107 -37c-131 0 -198 93 -198 226zM249 99c72 0 89 54 89 126v52c0 80 -26 124 -89 124s-89 -44 -89 -124v-52c0 -72 20 -126 89 -126zM137 646c0 64 49 110 123 110
s123 -46 123 -110c0 -63 -49 -109 -123 -109s-123 46 -123 109zM223 646c0 -27 14 -44 37 -44c24 0 37 17 37 44c0 28 -13 43 -37 43c-23 0 -37 -15 -37 -43z" />
    <glyph glyph-name="egrave.ss01" 
d="M343 142l95 -66c-35 -61 -93 -85 -183 -85c-150 0 -222 97 -222 226v68c0 151 79 224 210 224c145 0 202 -72 202 -163c0 -85 -57 -148 -202 -148h-82c5 -58 29 -99 93 -99c53 0 70 16 89 43zM243 401c-56 0 -82 -42 -83 -108h83c49 0 75 18 75 53c0 36 -24 55 -75 55z
M263 725l70 -158h-122l-91 158h143z" />
    <glyph glyph-name="eacute.ss01" 
d="M343 142l95 -66c-35 -61 -93 -85 -183 -85c-150 0 -222 97 -222 226v68c0 151 79 224 210 224c145 0 202 -72 202 -163c0 -85 -57 -148 -202 -148h-82c5 -58 29 -99 93 -99c53 0 70 16 89 43zM243 401c-56 0 -82 -42 -83 -108h83c49 0 75 18 75 53c0 36 -24 55 -75 55z
M177 567l70 158h143l-91 -158h-122z" />
    <glyph glyph-name="ecircumflex.ss01" 
d="M343 142l95 -66c-35 -61 -93 -85 -183 -85c-150 0 -222 97 -222 226v68c0 151 79 224 210 224c145 0 202 -72 202 -163c0 -85 -57 -148 -202 -148h-82c5 -58 29 -99 93 -99c53 0 70 16 89 43zM243 401c-56 0 -82 -42 -83 -108h83c49 0 75 18 75 53c0 36 -24 55 -75 55z
M198 710h106l108 -142h-114l-47 65l-47 -65h-114z" />
    <glyph glyph-name="edieresis.ss01" 
d="M343 142l95 -66c-35 -61 -93 -85 -183 -85c-150 0 -222 97 -222 226v68c0 151 79 224 210 224c145 0 202 -72 202 -163c0 -85 -57 -148 -202 -148h-82c5 -58 29 -99 93 -99c53 0 70 16 89 43zM243 401c-56 0 -82 -42 -83 -108h83c49 0 75 18 75 53c0 36 -24 55 -75 55z
M87 573v117h124v-117h-124zM291 573v117h123v-117h-123z" />
    <glyph glyph-name="afii10065.ss01" horiz-adv-x="517" 
d="M33 217v68c0 146 79 224 198 224c46 0 81 -13 107 -34v25h127v-500h-127v28c-27 -24 -62 -37 -107 -37c-131 0 -198 93 -198 226zM249 99c72 0 89 54 89 126v52c0 80 -26 124 -89 124s-89 -44 -89 -124v-52c0 -72 20 -126 89 -126z" />
    <glyph glyph-name="afii10070.ss01" 
d="M343 142l95 -66c-35 -61 -93 -85 -183 -85c-150 0 -222 97 -222 226v68c0 151 79 224 210 224c145 0 202 -72 202 -163c0 -85 -57 -148 -202 -148h-82c5 -58 29 -99 93 -99c53 0 70 16 89 43zM243 401c-56 0 -82 -42 -83 -108h83c49 0 75 18 75 53c0 36 -24 55 -75 55z
" />
    <glyph glyph-name="afii10071.ss01" 
d="M343 142l95 -66c-35 -61 -93 -85 -183 -85c-150 0 -222 97 -222 226v68c0 151 79 224 210 224c145 0 202 -72 202 -163c0 -85 -57 -148 -202 -148h-82c5 -58 29 -99 93 -99c53 0 70 16 89 43zM243 401c-56 0 -82 -42 -83 -108h83c49 0 75 18 75 53c0 36 -24 55 -75 55z
M87 573v117h124v-117h-124zM291 573v117h123v-117h-123z" />
    <glyph glyph-name="aogonek.ss01" horiz-adv-x="517" 
d="M465 500v-500c-27 -24 -44 -40 -44 -61c0 -16 12 -22 27 -22c7 0 14 1 19 2l15 -65c-8 -2 -26 -4 -48 -4c-51 0 -110 19 -110 76c0 29 12 53 35 74h-21v28c-27 -24 -62 -37 -107 -37c-131 0 -198 93 -198 226v68c0 146 79 224 198 224c46 0 81 -13 107 -34v25h127z
M249 99c72 0 89 54 89 126v52c0 80 -26 124 -89 124s-89 -44 -89 -124v-52c0 -72 20 -126 89 -126z" />
    <glyph glyph-name="abreve.ss01" horiz-adv-x="517" 
d="M33 217v68c0 146 79 224 198 224c46 0 81 -13 107 -34v25h127v-500h-127v28c-27 -24 -62 -37 -107 -37c-131 0 -198 93 -198 226zM249 99c72 0 89 54 89 126v52c0 80 -26 124 -89 124s-89 -44 -89 -124v-52c0 -72 20 -126 89 -126zM325 690h92c-3 -85 -58 -132 -149 -132
s-147 47 -150 132h93c4 -32 18 -53 57 -53s53 21 57 53z" />
    <glyph glyph-name="eogonek.ss01" 
d="M343 142l95 -66c-23 -41 -57 -64 -102 -76c-27 -24 -45 -40 -45 -61c0 -16 12 -22 27 -22c7 0 14 1 19 2l15 -65c-8 -2 -26 -4 -48 -4c-51 0 -110 19 -110 76c0 26 10 47 28 67c-128 13 -189 105 -189 224v68c0 151 79 224 210 224c145 0 202 -72 202 -163
c0 -85 -57 -148 -202 -148h-82c5 -58 29 -99 93 -99c53 0 70 16 89 43zM243 401c-56 0 -82 -42 -83 -108h83c49 0 75 18 75 53c0 36 -24 55 -75 55z" />
    <glyph glyph-name="ecaron.ss01" 
d="M343 142l95 -66c-35 -61 -93 -85 -183 -85c-150 0 -222 97 -222 226v68c0 151 79 224 210 224c145 0 202 -72 202 -163c0 -85 -57 -148 -202 -148h-82c5 -58 29 -99 93 -99c53 0 70 16 89 43zM243 401c-56 0 -82 -42 -83 -108h83c49 0 75 18 75 53c0 36 -24 55 -75 55z
M300 568h-106l-108 142h114l47 -65l47 65h114z" />
    <glyph glyph-name="amacron.ss01" horiz-adv-x="517" 
d="M33 217v68c0 146 79 224 198 224c46 0 81 -13 107 -34v25h127v-500h-127v28c-27 -24 -62 -37 -107 -37c-131 0 -198 93 -198 226zM249 99c72 0 89 54 89 126v52c0 80 -26 124 -89 124s-89 -44 -89 -124v-52c0 -72 20 -126 89 -126zM122 573v111h283v-111h-283z" />
    <glyph glyph-name="emacron.ss01" 
d="M343 142l95 -66c-35 -61 -93 -85 -183 -85c-150 0 -222 97 -222 226v68c0 151 79 224 210 224c145 0 202 -72 202 -163c0 -85 -57 -148 -202 -148h-82c5 -58 29 -99 93 -99c53 0 70 16 89 43zM243 401c-56 0 -82 -42 -83 -108h83c49 0 75 18 75 53c0 36 -24 55 -75 55z
M102 573v111h283v-111h-283z" />
    <glyph glyph-name="edotaccent.ss01" 
d="M343 142l95 -66c-35 -61 -93 -85 -183 -85c-150 0 -222 97 -222 226v68c0 151 79 224 210 224c145 0 202 -72 202 -163c0 -85 -57 -148 -202 -148h-82c5 -58 29 -99 93 -99c53 0 70 16 89 43zM243 401c-56 0 -82 -42 -83 -108h83c49 0 75 18 75 53c0 36 -24 55 -75 55z
M175 566v124h138v-124h-138z" />
    <glyph glyph-name="afii10065.var.accented.ss01" horiz-adv-x="517" 
d="M33 217v68c0 146 79 224 198 224c46 0 81 -13 107 -34v25h127v-500h-127v28c-27 -24 -62 -37 -107 -37c-131 0 -198 93 -198 226zM249 99c72 0 89 54 89 126v52c0 80 -26 124 -89 124s-89 -44 -89 -124v-52c0 -72 20 -126 89 -126zM189 567l70 158h143l-91 -158h-122z
" />
    <glyph glyph-name="afii10070.var.accented.ss01" 
d="M343 142l95 -66c-35 -61 -93 -85 -183 -85c-150 0 -222 97 -222 226v68c0 151 79 224 210 224c145 0 202 -72 202 -163c0 -85 -57 -148 -202 -148h-82c5 -58 29 -99 93 -99c53 0 70 16 89 43zM243 401c-56 0 -82 -42 -83 -108h83c49 0 75 18 75 53c0 36 -24 55 -75 55z
M177 567l70 158h143l-91 -158h-122z" />
    <glyph glyph-name="afii10074.var.accented.ss01" horiz-adv-x="526" 
d="M474 500v-500h-125v42c-21 -34 -48 -51 -114 -51c-101 0 -184 50 -184 197v312h128v-293c0 -79 28 -106 81 -106c59 0 87 36 87 105v294h127zM196 567l70 158h143l-91 -158h-122z" />
    <glyph glyph-name="afii10071.var.accented.ss01" 
d="M343 142l95 -66c-35 -61 -93 -85 -183 -85c-150 0 -222 97 -222 226v68c0 151 79 224 210 224c145 0 202 -72 202 -163c0 -85 -57 -148 -202 -148h-82c5 -58 29 -99 93 -99c53 0 70 16 89 43zM243 401c-56 0 -82 -42 -83 -108h83c49 0 75 18 75 53c0 36 -24 55 -75 55z
M171 717l70 158h143l-91 -158h-122zM73 573v117h124v-117h-124zM277 573v117h123v-117h-123z" />
    <glyph glyph-name="uni04E3.ss01" horiz-adv-x="526" 
d="M474 500v-500h-125v42c-21 -34 -48 -51 -114 -51c-101 0 -184 50 -184 197v312h128v-293c0 -79 28 -106 81 -106c59 0 87 36 87 105v294h127zM122 573v111h283v-111h-283z" />
    <glyph glyph-name="afii10193.ss01" horiz-adv-x="526" 
d="M189 -117v112c-79 14 -138 69 -138 193v312h128v-293c0 -79 28 -106 81 -106c59 0 87 36 87 105v294h127v-500h-125v42c-15 -25 -34 -40 -67 -47v-112h-93z" />
    <glyph glyph-name="uni2190.ss02" horiz-adv-x="855" 
d="M468 -37l-55 -55l-353 353l353 353l55 -55l-259 -259h586v-78h-586z" />
    <glyph glyph-name="aacute.ss01" horiz-adv-x="517" 
d="M33 217v68c0 146 79 224 198 224c46 0 81 -13 107 -34v25h127v-500h-127v28c-27 -24 -62 -37 -107 -37c-131 0 -198 93 -198 226zM249 99c72 0 89 54 89 126v52c0 80 -26 124 -89 124s-89 -44 -89 -124v-52c0 -72 20 -126 89 -126zM189 567l70 158h143l-91 -158h-122z
" />
    <glyph glyph-name="agrave.ss01" horiz-adv-x="517" 
d="M33 217v68c0 146 79 224 198 224c46 0 81 -13 107 -34v25h127v-500h-127v28c-27 -24 -62 -37 -107 -37c-131 0 -198 93 -198 226zM249 99c72 0 89 54 89 126v52c0 80 -26 124 -89 124s-89 -44 -89 -124v-52c0 -72 20 -126 89 -126zM281 725l70 -158h-122l-91 158h143z
" />
    <glyph glyph-name="afii10091.ss01" horiz-adv-x="807" 
d="M724 500v-392h66v-225h-117v117h-74v42c-20 -28 -49 -51 -105 -51c-59 0 -107 22 -137 66c-32 -41 -74 -66 -137 -66c-107 0 -169 66 -169 196v313h128v-293c0 -75 23 -106 73 -106c46 0 72 34 72 105v294h127v-293c0 -80 28 -106 72 -106c45 0 73 34 73 105v294h128z
" />
    <glyph glyph-name="afii10090.ss01" horiz-adv-x="776" 
d="M324 206v294h127v-293c0 -80 28 -106 72 -106c45 0 73 34 73 105v294h128v-500h-125v42c-20 -28 -49 -51 -105 -51c-59 0 -107 22 -137 66c-32 -41 -74 -66 -137 -66c-107 0 -169 66 -169 196v313h128v-293c0 -75 23 -106 73 -106c46 0 72 34 72 105z" />
    <glyph glyph-name="afii10088.ss01" horiz-adv-x="557" 
d="M474 500v-392h66v-225h-116v117h-75v42c-21 -34 -48 -51 -114 -51c-101 0 -184 50 -184 197v312h128v-293c0 -79 28 -106 81 -106c59 0 87 36 87 105v294h127z" />
    <glyph glyph-name="e.ss01" 
d="M343 142l95 -66c-35 -61 -93 -85 -183 -85c-150 0 -222 97 -222 226v68c0 151 79 224 210 224c145 0 202 -72 202 -163c0 -85 -57 -148 -202 -148h-82c5 -58 29 -99 93 -99c53 0 70 16 89 43zM243 401c-56 0 -82 -42 -83 -108h83c49 0 75 18 75 53c0 36 -24 55 -75 55z
" />
    </font>
</defs>
</svg>
