<?xml version="1.0" standalone="no"?>
<!DOCTYPE svg PUBLIC "-//W3C//DTD SVG 1.1//EN" "http://www.w3.org/Graphics/SVG/1.1/DTD/svg11.dtd" >
<svg xmlns="http://www.w3.org/2000/svg" xmlns:xlink="http://www.w3.org/1999/xlink" version="1.1">
<metadata>
Created by FontForge 20201107 at Thu Jan  1 01:00:00 1970
 By Jimmy Wärting
DIN 2014 is a contemporary version of a well-known DIN typeface. The Regular performs well in long text settings, while Light and Bold faces are extremely legible at large sizes. Type family spans 18 faces: 6 Upright with the matching Italics of normal width and 6 Narrow ones. The typeface was designed by Vasily Biryukov and released by Paratype in 2015.
</metadata>
<defs>
<font id="DIN2014-Regular" horiz-adv-x="500" >
  <font-face 
    font-family="DIN 2014"
    font-weight="400"
    font-stretch="normal"
    units-per-em="1000"
    panose-1="2 0 5 3 0 0 0 0 0 0"
    ascent="800"
    descent="-200"
    x-height="500"
    cap-height="690"
    bbox="-344 -243 3054 969"
    underline-thickness="50"
    underline-position="-100"
    stemh="72"
    stemv="80"
    unicode-range="U+0020-FEFF"
  />
    <missing-glyph />
    <glyph glyph-name="space" unicode=" " horiz-adv-x="250" 
 />
    <glyph glyph-name="exclam" unicode="!" horiz-adv-x="216" 
d="M151 690v-501h-86v501h86zM156 0v96h-96v-96h96z" />
    <glyph glyph-name="quotedbl" unicode="&#x22;" horiz-adv-x="322" 
d="M126 690v-169h-86v169h86zM282 690v-169h-86v169h86z" />
    <glyph glyph-name="numbersign" unicode="#" horiz-adv-x="605" 
d="M18 494h130l37 196h87l-37 -196h150l37 196h88l-37 -196h108v-78h-123l-24 -132h110v-78h-125l-38 -206h-87l38 206h-150l-38 -206h-88l38 206h-113v78h128l24 132h-115v78zM221 416l-25 -132h150l25 132h-150z" />
    <glyph glyph-name="dollar" unicode="$" 
d="M291 381c123 -24 198 -73 198 -195c0 -84 -52 -180 -198 -192v-110h-74v110c-92 8 -161 47 -206 113l71 49c37 -45 72 -75 135 -84v242c-117 23 -191 84 -191 197c0 92 56 174 191 185v116h74v-116c86 -9 143 -47 186 -113l-67 -48c-30 39 -62 71 -119 81v-235zM291 300
v-228c85 10 112 57 112 110c0 55 -24 95 -112 118zM217 397v221c-64 -8 -105 -44 -105 -107c0 -65 39 -95 105 -114z" />
    <glyph glyph-name="percent" unicode="%" horiz-adv-x="725" 
d="M511 690h83l-385 -690h-84zM705 192v-43c0 -90 -43 -157 -145 -157c-91 0 -143 60 -143 157v43c0 97 54 155 143 155c92 0 145 -57 145 -155zM560 52c57 0 82 43 82 98v40c0 62 -28 96 -82 96c-51 0 -79 -35 -79 -96v-40c0 -56 20 -98 79 -98zM313 543v-43
c0 -90 -43 -157 -145 -157c-91 0 -143 60 -143 157v43c0 97 54 155 143 155c92 0 145 -57 145 -155zM168 403c57 0 82 43 82 98v40c0 62 -28 96 -82 96c-51 0 -79 -35 -79 -96v-40c0 -56 20 -98 79 -98z" />
    <glyph glyph-name="ampersand" unicode="&#x26;" horiz-adv-x="653" 
d="M45 186c0 94 57 155 121 203c-42 51 -71 96 -71 154c0 93 70 155 169 155c125 0 167 -72 167 -135c0 -78 -75 -128 -150 -180l181 -197c22 41 32 88 32 136h78c0 -68 -18 -138 -55 -196l116 -126h-113l-57 62c-49 -43 -115 -70 -200 -70c-147 0 -218 96 -218 194zM263 70
c62 0 111 19 147 50l-195 215c-50 -40 -88 -86 -88 -148c0 -72 55 -117 136 -117zM181 543c0 -41 28 -80 52 -108c60 40 112 75 112 122c0 27 -25 64 -81 64c-49 0 -83 -31 -83 -78z" />
    <glyph glyph-name="quotesingle" unicode="'" horiz-adv-x="166" 
d="M126 690v-169h-86v169h86z" />
    <glyph glyph-name="parenleft" unicode="(" horiz-adv-x="317" 
d="M287 -52l-50 -64c-141 103 -167 167 -167 278v372c0 111 26 175 167 278l50 -64c-104 -76 -137 -125 -137 -233v-334c0 -108 33 -157 137 -233z" />
    <glyph glyph-name="parenright" unicode=")" horiz-adv-x="317" 
d="M80 -116l-50 64c104 76 137 125 137 233v334c0 108 -33 157 -137 233l50 64c141 -103 167 -167 167 -278v-372c0 -111 -26 -175 -167 -278z" />
    <glyph glyph-name="asterisk" unicode="*" horiz-adv-x="416" 
d="M242 690l-3 -121l103 63l34 -59l-106 -58l106 -57l-34 -59l-103 62l3 -120h-68l3 120l-103 -62l-34 59l105 57l-105 58l34 59l103 -63l-3 121h68z" />
    <glyph glyph-name="plus" unicode="+" 
d="M55 318v72h158v159h72v-159h159v-72h-159v-158h-72v158h-158z" />
    <glyph glyph-name="comma" unicode="," horiz-adv-x="216" 
d="M156 116v-175l-96 -83v258h96z" />
    <glyph glyph-name="hyphen" unicode="-" horiz-adv-x="319" 
d="M30 253v72h259v-72h-259z" />
    <glyph glyph-name="period" unicode="." horiz-adv-x="236" 
d="M176 116v-116h-116v116h116z" />
    <glyph glyph-name="slash" unicode="/" horiz-adv-x="485" 
d="M124 -116h-77l336 928h77z" />
    <glyph glyph-name="zero" unicode="0" 
d="M448 499v-308c0 -127 -94 -199 -198 -199s-198 72 -198 200v306c0 128 94 200 198 200s198 -72 198 -199zM362 499c0 74 -50 121 -112 121c-63 0 -113 -47 -113 -121v-308c0 -74 50 -121 113 -121c62 0 112 47 112 121v308z" />
    <glyph glyph-name="one" unicode="1" 
d="M309 690v-690h-86v591l-99 -71v94l99 76h86z" />
    <glyph glyph-name="two" unicode="2" 
d="M443 78v-78h-405v72l243 287c47 55 78 102 78 154c0 72 -55 108 -112 108c-62 0 -111 -37 -113 -108h-85c0 114 90 185 198 185c110 0 198 -71 198 -189c0 -82 -60 -148 -104 -201l-190 -230h292z" />
    <glyph glyph-name="three" unicode="3" 
d="M186 317v78h43c91 0 130 47 130 122c0 54 -44 104 -112 104c-65 0 -111 -43 -113 -99h-84c0 109 94 176 197 176c115 0 198 -77 198 -183c0 -71 -40 -127 -103 -157c67 -27 113 -82 113 -170c0 -106 -79 -196 -201 -196c-132 0 -206 77 -213 181h84
c9 -56 47 -103 129 -103c65 0 115 50 115 116c0 82 -48 131 -140 131h-43z" />
    <glyph glyph-name="four" unicode="4" 
d="M263 690h85l-228 -500h199v203h86v-203h63v-78h-63v-112h-86v112h-299v63z" />
    <glyph glyph-name="five" unicode="5" 
d="M248 382c-47 0 -79 -24 -98 -51h-79v359h350v-86h-267v-181c22 25 57 45 110 45c128 0 186 -98 186 -253c0 -136 -70 -223 -202 -223c-107 0 -186 75 -193 170h84c13 -58 53 -92 109 -92c71 0 116 41 116 145c0 108 -34 167 -116 167z" />
    <glyph glyph-name="six" unicode="6" 
d="M335 690l-133 -304c18 11 46 14 65 14c110 0 181 -87 181 -202c0 -122 -81 -206 -199 -206c-116 0 -199 82 -199 202c0 48 25 109 47 160l142 336h96zM136 198c0 -78 45 -128 113 -128c67 0 113 50 113 128c0 77 -46 128 -113 128c-68 0 -113 -51 -113 -128z" />
    <glyph glyph-name="seven" unicode="7" 
d="M134 491h-78v199h388v-78l-219 -612h-91l220 612h-220v-121z" />
    <glyph glyph-name="eight" unicode="8" 
d="M42 194c0 78 51 141 105 164c-55 27 -95 85 -95 150c0 115 94 190 198 190s198 -75 198 -190c0 -65 -41 -123 -96 -150c56 -23 106 -86 106 -164c0 -122 -100 -202 -208 -202s-208 80 -208 202zM128 194c0 -68 52 -124 122 -124c68 0 122 56 122 124
c0 76 -64 123 -122 123c-60 0 -122 -47 -122 -123zM137 508c0 -63 50 -114 113 -114c62 0 112 51 112 114c0 62 -50 112 -112 112c-63 0 -113 -50 -113 -112z" />
    <glyph glyph-name="nine" unicode="9" 
d="M165 0l133 304c-18 -11 -46 -14 -65 -14c-110 0 -181 87 -181 202c0 122 81 206 199 206c116 0 199 -82 199 -202c0 -48 -25 -109 -47 -160l-142 -336h-96zM364 492c0 78 -45 128 -113 128c-67 0 -113 -50 -113 -128c0 -77 46 -128 113 -128c68 0 113 51 113 128z" />
    <glyph glyph-name="colon" unicode=":" horiz-adv-x="216" 
d="M156 96v-96h-96v96h96zM156 500v-96h-96v96h96z" />
    <glyph glyph-name="semicolon" unicode=";" horiz-adv-x="216" 
d="M156 96v-175l-96 -83v258h96zM156 500v-96h-96v96h96z" />
    <glyph glyph-name="less" unicode="&#x3c;" 
d="M392 490l-242 -134l242 -134v-90l-325 183v82l325 183v-90z" />
    <glyph glyph-name="equal" unicode="=" 
d="M55 400v72h389v-72h-389zM55 236v72h389v-72h-389z" />
    <glyph glyph-name="greater" unicode="&#x3e;" 
d="M344 356l-242 134v90l325 -183v-82l-325 -183v90z" />
    <glyph glyph-name="question" unicode="?" horiz-adv-x="486" 
d="M284 189h-80v77c0 30 7 50 29 70l49 44c52 47 78 81 78 133c0 72 -55 108 -112 108c-62 0 -111 -37 -113 -108h-85c0 114 90 185 198 185c110 0 198 -71 198 -189c0 -82 -55 -137 -104 -184l-29 -28c-21 -21 -29 -35 -29 -71v-37zM292 0v96h-96v-96h96z" />
    <glyph glyph-name="at" unicode="@" horiz-adv-x="898" 
d="M620 484v-259c0 -80 35 -95 71 -95c66 0 87 62 87 146c0 243 -173 337 -329 337c-229 0 -329 -180 -329 -337c0 -221 159 -336 334 -336c82 0 148 14 220 50l31 -57c-28 -24 -127 -65 -256 -65c-203 0 -409 143 -409 408c0 257 197 409 409 409c217 0 409 -149 409 -409
c0 -123 -51 -218 -169 -218c-51 0 -99 22 -121 69c-20 -46 -59 -69 -129 -69c-114 0 -168 81 -168 190v52c0 121 63 189 168 189c46 0 78 -12 101 -33v28h80zM446 130c74 0 94 48 94 122v55c0 73 -32 110 -94 110c-66 0 -95 -40 -95 -121v-44c0 -74 27 -122 95 -122z" />
    <glyph glyph-name="A" unicode="A" horiz-adv-x="580" 
d="M101 0h-91l240 690h80l240 -690h-91l-53 158h-272zM290 560l-109 -324h218z" />
    <glyph glyph-name="B" unicode="B" horiz-adv-x="596" 
d="M85 690h211c161 0 238 -61 238 -176c0 -72 -47 -138 -114 -154c87 -16 136 -74 136 -162c0 -100 -61 -198 -238 -198h-233v690zM171 319v-241h147c104 0 152 45 152 120c0 83 -54 121 -168 121h-131zM171 613v-216h140c97 0 137 49 137 117c0 61 -31 99 -152 99h-125z
" />
    <glyph glyph-name="C" unicode="C" horiz-adv-x="578" 
d="M548 475h-84c-24 108 -79 145 -164 145c-106 0 -164 -66 -164 -237v-76c0 -171 58 -237 164 -237c90 0 141 44 164 145h83c-22 -155 -116 -223 -247 -223c-153 0 -250 92 -250 315v76c0 223 97 315 250 315c136 0 226 -72 248 -223z" />
    <glyph glyph-name="D" unicode="D" horiz-adv-x="605" 
d="M305 0h-220v690h220c153 0 250 -86 250 -309v-72c0 -223 -97 -309 -250 -309zM305 78c106 0 164 60 164 231v72c0 171 -58 231 -164 231h-134v-534h134z" />
    <glyph glyph-name="E" unicode="E" horiz-adv-x="541" 
d="M85 690h416v-78h-330v-216h300v-78h-300v-240h330v-78h-416v690z" />
    <glyph glyph-name="F" unicode="F" horiz-adv-x="531" 
d="M85 690h416v-78h-330v-232h300v-78h-300v-302h-86v690z" />
    <glyph glyph-name="G" unicode="G" horiz-adv-x="604" 
d="M303 347h251v-40c0 -223 -101 -315 -254 -315s-250 92 -250 315v76c0 223 97 315 250 315c134 0 226 -71 248 -223h-84c-22 103 -76 145 -164 145c-106 0 -164 -66 -164 -237v-76c0 -171 58 -237 164 -237c97 0 158 56 167 199h-164v78z" />
    <glyph glyph-name="H" unicode="H" horiz-adv-x="638" 
d="M171 690v-294h296v294h86v-690h-86v318h-296v-318h-86v690h86z" />
    <glyph glyph-name="I" unicode="I" horiz-adv-x="276" 
d="M181 690v-690h-86v690h86z" />
    <glyph glyph-name="J" unicode="J" horiz-adv-x="505" 
d="M5 78l74 42c22 -29 56 -50 109 -50c98 0 146 56 146 214v406h86v-406c0 -210 -87 -292 -232 -292c-74 0 -145 26 -183 86z" />
    <glyph glyph-name="K" unicode="K" horiz-adv-x="638" 
d="M633 0h-103l-232 344l-127 -156v-188h-86v690h86v-371l300 371h111l-227 -277z" />
    <glyph glyph-name="L" unicode="L" horiz-adv-x="501" 
d="M171 690v-612h330v-78h-416v690h86z" />
    <glyph glyph-name="M" unicode="M" horiz-adv-x="752" 
d="M169 690l207 -430l206 430h85v-690h-86v506l-168 -362h-77l-165 359v-503h-86v690h84z" />
    <glyph glyph-name="N" unicode="N" horiz-adv-x="638" 
d="M467 690h86v-690h-84l-298 522v-522h-86v690h82l300 -527v527z" />
    <glyph glyph-name="O" unicode="O" horiz-adv-x="600" 
d="M550 307c0 -223 -97 -315 -250 -315s-250 92 -250 315v76c0 223 97 315 250 315s250 -92 250 -315v-76zM136 383v-76c0 -171 58 -237 164 -237s164 66 164 237v76c0 171 -58 237 -164 237s-164 -66 -164 -237z" />
    <glyph glyph-name="P" unicode="P" horiz-adv-x="588" 
d="M305 263h-134v-263h-86v690h220c159 0 251 -80 251 -214c0 -133 -91 -213 -251 -213zM171 341h134c117 0 165 50 165 135c0 86 -48 136 -165 136h-134v-271z" />
    <glyph glyph-name="Q" unicode="Q" horiz-adv-x="600" 
d="M550 307c0 -82 -14 -146 -38 -195l90 -85l-53 -56l-83 77c-42 -39 -99 -56 -166 -56c-153 0 -250 92 -250 315v76c0 223 97 315 250 315s250 -92 250 -315v-76zM136 383v-76c0 -171 58 -237 164 -237c43 0 78 11 105 35l-100 94l55 58l87 -83c11 35 17 78 17 133v76
c0 171 -58 237 -164 237s-164 -66 -164 -237z" />
    <glyph glyph-name="R" unicode="R" horiz-adv-x="604" 
d="M574 0h-96l-144 291h-163v-291h-86v690h220c159 0 251 -66 251 -200c0 -97 -48 -158 -136 -184zM171 369h134c117 0 165 36 165 121c0 86 -48 122 -165 122h-134v-243z" />
    <glyph glyph-name="S" unicode="S" horiz-adv-x="571" 
d="M511 585l-67 -48c-37 48 -77 83 -164 83c-80 0 -134 -36 -134 -108c0 -82 62 -110 163 -128c133 -23 214 -71 214 -199c0 -90 -60 -193 -232 -193c-112 0 -194 38 -246 113l71 49c45 -53 85 -84 175 -84c113 0 146 52 146 111c0 65 -33 109 -163 129s-214 82 -214 202
c0 99 65 186 223 186c110 0 179 -37 228 -113z" />
    <glyph glyph-name="T" unicode="T" horiz-adv-x="516" 
d="M5 690h506v-78h-210v-612h-86v612h-210v78z" />
    <glyph glyph-name="U" unicode="U" horiz-adv-x="670" 
d="M499 690h86v-409c0 -204 -97 -289 -250 -289s-250 85 -250 288v410h86v-410c0 -151 58 -210 164 -210s164 59 164 210v410z" />
    <glyph glyph-name="V" unicode="V" horiz-adv-x="601" 
d="M10 690h95l194 -550l197 550h95l-250 -690h-81z" />
    <glyph glyph-name="W" unicode="W" horiz-adv-x="842" 
d="M420 536l-156 -536h-86l-168 690h90l125 -542l152 542h85l155 -545l125 545h90l-168 -690h-87z" />
    <glyph glyph-name="X" unicode="X" horiz-adv-x="552" 
d="M115 0h-95l206 356l-185 334h95l140 -256l140 256h95l-186 -334l207 -356h-95l-161 271z" />
    <glyph glyph-name="Y" unicode="Y" horiz-adv-x="556" 
d="M20 690h101l157 -300l157 300h101l-215 -394v-296h-86v296z" />
    <glyph glyph-name="Z" unicode="Z" horiz-adv-x="519" 
d="M30 690h449v-58l-338 -554h348v-78h-459v58l337 554h-337v78z" />
    <glyph glyph-name="bracketleft" unicode="[" horiz-adv-x="335" 
d="M70 -102v894h205v-72h-125v-750h125v-72h-205z" />
    <glyph glyph-name="backslash" unicode="\" horiz-adv-x="485" 
d="M47 812h77l336 -928h-77z" />
    <glyph glyph-name="bracketright" unicode="]" horiz-adv-x="335" 
d="M60 792h205v-894h-205v72h125v750h-125v72z" />
    <glyph glyph-name="asciicircum" unicode="^" 
d="M205 690h88l176 -253h-90l-129 190l-129 -190h-90z" />
    <glyph glyph-name="underscore" unicode="_" horiz-adv-x="526" 
d="M0 -93h526v-62h-526v62z" />
    <glyph glyph-name="grave" unicode="`" horiz-adv-x="319" 
d="M172 725l70 -158h-75l-91 158h96z" />
    <glyph glyph-name="a" unicode="a" horiz-adv-x="491" 
d="M40 146c0 108 77 143 187 143h119v58c0 71 -33 87 -111 87c-60 0 -92 -5 -120 -51l-60 42c35 58 86 83 181 83c127 0 190 -41 190 -161v-347h-80v49c-28 -46 -62 -57 -127 -57c-116 0 -179 57 -179 154zM346 192v29h-119c-79 0 -107 -27 -107 -77c0 -56 40 -78 99 -78
c74 0 127 14 127 126z" />
    <glyph glyph-name="b" unicode="b" horiz-adv-x="521" 
d="M145 690v-240c27 37 70 58 136 58c124 0 200 -81 200 -224v-66c0 -130 -64 -226 -200 -226c-67 0 -109 17 -136 52v-44h-80v690h80zM273 64c85 0 128 69 128 154v66c0 95 -46 152 -128 152c-80 0 -128 -55 -128 -145v-73c0 -86 36 -154 128 -154z" />
    <glyph glyph-name="c" unicode="c" horiz-adv-x="444" 
d="M367 120l62 -44c-31 -58 -92 -84 -173 -84c-137 0 -216 88 -216 226v66c0 142 81 224 216 224c75 0 137 -27 173 -78l-63 -44c-22 32 -64 50 -110 50c-86 0 -136 -58 -136 -152v-66c0 -86 40 -154 136 -154c47 0 90 16 111 56z" />
    <glyph glyph-name="d" unicode="d" horiz-adv-x="521" 
d="M376 450v240h80v-690h-80v44c-27 -35 -70 -52 -136 -52c-136 0 -200 96 -200 226v66c0 143 76 224 200 224c66 0 109 -21 136 -58zM248 64c89 0 128 64 128 147v73c0 94 -46 152 -128 152s-128 -57 -128 -152v-66c0 -85 43 -154 128 -154z" />
    <glyph glyph-name="e" unicode="e" horiz-adv-x="488" 
d="M367 120l62 -44c-35 -61 -88 -84 -175 -84c-134 0 -214 87 -214 226v66c0 142 67 224 198 224c132 0 198 -81 198 -224v-52h-316v-14c0 -86 41 -154 128 -154c65 0 98 19 119 56zM238 436c-77 0 -113 -51 -118 -134h235c-4 84 -41 134 -117 134z" />
    <glyph glyph-name="f" unicode="f" horiz-adv-x="285" 
d="M21 500h64v36c0 104 34 154 152 154h23v-76h-20c-67 0 -75 -29 -75 -98v-16h95v-72h-95v-428h-80v428h-64v72z" />
    <glyph glyph-name="g" unicode="g" horiz-adv-x="521" 
d="M376 450v50h80v-490c0 -139 -80 -206 -214 -206c-87 0 -140 23 -175 84l62 44c21 -37 54 -56 119 -56c87 0 128 48 128 134v34c-27 -35 -70 -52 -136 -52c-136 0 -200 96 -200 226v66c0 143 76 224 200 224c66 0 109 -21 136 -58zM248 64c92 0 128 68 128 154v66
c0 94 -46 152 -128 152s-128 -57 -128 -152v-66c0 -85 43 -154 128 -154z" />
    <glyph glyph-name="h" unicode="h" horiz-adv-x="526" 
d="M65 0v690h80v-239c25 38 60 57 134 57c107 0 182 -56 182 -196v-312h-80v311c0 101 -55 123 -114 123c-75 0 -122 -53 -122 -122v-312h-80z" />
    <glyph glyph-name="i" unicode="i" horiz-adv-x="240" 
d="M80 0v500h80v-500h-80zM75 600v90h90v-90h-90z" />
    <glyph glyph-name="j" unicode="j" horiz-adv-x="235" 
d="M165 500v-536c0 -104 -39 -154 -165 -154v74c82 0 85 46 85 100v516h80zM80 600v90h90v-90h-90z" />
    <glyph glyph-name="k" unicode="k" horiz-adv-x="487" 
d="M347 500h104l-216 -221l247 -279h-104l-202 218l-31 -33v-185h-80v690h80v-394z" />
    <glyph glyph-name="l" unicode="l" horiz-adv-x="274" 
d="M65 154v536h80v-516c0 -54 3 -100 85 -100v-74c-126 0 -165 50 -165 154z" />
    <glyph glyph-name="m" unicode="m" horiz-adv-x="802" 
d="M65 0v500h80v-49c22 34 60 57 124 57c67 0 118 -27 146 -79c34 53 89 79 150 79c107 0 172 -66 172 -196v-312h-80v311c0 91 -45 123 -104 123c-64 0 -112 -51 -112 -122v-312h-80v311c0 91 -45 123 -104 123c-65 0 -112 -53 -112 -122v-312h-80z" />
    <glyph glyph-name="n" unicode="n" horiz-adv-x="526" 
d="M65 0v500h80v-49c25 38 60 57 134 57c107 0 182 -56 182 -196v-312h-80v311c0 101 -55 123 -114 123c-75 0 -122 -53 -122 -122v-312h-80z" />
    <glyph glyph-name="o" unicode="o" horiz-adv-x="496" 
d="M456 284v-66c0 -130 -64 -226 -208 -226c-133 0 -208 88 -208 226v66c0 142 77 224 208 224c132 0 208 -81 208 -224zM248 64c85 0 128 69 128 154v66c0 95 -46 152 -128 152s-128 -58 -128 -152v-66c0 -86 36 -154 128 -154z" />
    <glyph glyph-name="p" unicode="p" horiz-adv-x="521" 
d="M145 450c27 37 70 58 136 58c124 0 200 -81 200 -224v-66c0 -130 -64 -226 -200 -226c-66 0 -109 21 -136 58v-240h-80v690h80v-50zM273 64c85 0 128 69 128 154v66c0 95 -46 152 -128 152c-80 0 -128 -55 -128 -145v-73c0 -86 36 -154 128 -154z" />
    <glyph glyph-name="q" unicode="q" horiz-adv-x="521" 
d="M376 450v50h80v-690h-80v234c-27 -35 -70 -52 -136 -52c-136 0 -200 96 -200 226v66c0 143 76 224 200 224c66 0 109 -21 136 -58zM248 64c89 0 128 64 128 147v73c0 94 -46 152 -128 152s-128 -57 -128 -152v-66c0 -85 43 -154 128 -154z" />
    <glyph glyph-name="r" unicode="r" horiz-adv-x="394" 
d="M404 440l-68 -48c-21 29 -47 42 -84 42c-61 0 -107 -46 -107 -121v-313h-80v500h80v-49c21 35 55 57 116 57c68 0 111 -23 143 -68z" />
    <glyph glyph-name="s" unicode="s" horiz-adv-x="466" 
d="M406 425l-60 -42c-27 35 -55 51 -124 51c-59 0 -97 -23 -97 -67c0 -57 50 -74 116 -79c94 -7 180 -34 180 -149c0 -87 -59 -147 -188 -147c-102 0 -155 31 -193 83l59 42c27 -36 63 -51 135 -51c67 0 107 26 107 71c0 54 -32 73 -129 80c-84 6 -167 40 -167 149
c0 83 60 142 179 142c81 0 143 -21 182 -83z" />
    <glyph glyph-name="t" unicode="t" horiz-adv-x="315" 
d="M21 428v72h64v110h80v-110h115v-72h-115v-254c0 -69 8 -98 75 -98h40v-76h-43c-118 0 -152 50 -152 154v274h-64z" />
    <glyph glyph-name="u" unicode="u" horiz-adv-x="526" 
d="M461 500v-500h-80v49c-25 -38 -60 -57 -134 -57c-107 0 -182 56 -182 196v312h80v-311c0 -101 55 -123 114 -123c75 0 122 53 122 122v312h80z" />
    <glyph glyph-name="v" unicode="v" horiz-adv-x="504" 
d="M404 500h90l-200 -500h-80l-204 500h90l152 -398z" />
    <glyph glyph-name="w" unicode="w" horiz-adv-x="716" 
d="M358 374l-133 -374h-70l-145 500h85l100 -351l126 351h67l133 -354l100 354h85l-145 -500h-70z" />
    <glyph glyph-name="x" unicode="x" horiz-adv-x="478" 
d="M468 0h-94l-135 186l-135 -186h-94l182 256l-162 244h94l115 -177l115 177h94l-162 -244z" />
    <glyph glyph-name="y" unicode="y" horiz-adv-x="466" 
d="M199 -12l2 7l-196 505h86l149 -388l131 388h85l-176 -516c-41 -120 -68 -174 -208 -174v78c66 0 97 11 127 100z" />
    <glyph glyph-name="z" unicode="z" horiz-adv-x="450" 
d="M41 62l264 366h-264v72h369v-62l-262 -366h262v-72h-369v62z" />
    <glyph glyph-name="braceleft" unicode="{" horiz-adv-x="317" 
d="M180 629v-213c0 -43 -14 -60 -45 -70c31 -10 45 -41 45 -70v-213c0 -78 32 -86 84 -86h23v-72h-23c-102 0 -164 25 -164 155v198c0 38 -15 52 -50 52h-19v72h19c35 0 50 14 50 52v198c0 130 62 155 164 155h23v-72h-23c-52 0 -84 -8 -84 -86z" />
    <glyph glyph-name="bar" unicode="|" horiz-adv-x="255" 
d="M159 812v-928h-74v928h74z" />
    <glyph glyph-name="braceright" unicode="}" horiz-adv-x="317" 
d="M138 416v213c0 78 -32 86 -84 86h-23v72h23c102 0 164 -25 164 -155v-198c0 -38 15 -52 50 -52h19v-72h-19c-35 0 -50 -14 -50 -52v-198c0 -130 -62 -155 -164 -155h-23v72h23c52 0 84 8 84 86v213c0 29 14 60 45 70c-31 10 -45 27 -45 70z" />
    <glyph glyph-name="asciitilde" unicode="~" 
d="M333 277c-83 0 -106 46 -167 46c-40 0 -76 -19 -100 -48l-56 46c37 45 93 74 156 74c83 0 106 -46 167 -46c40 0 76 19 100 48l56 -46c-37 -45 -93 -74 -156 -74z" />
    <glyph glyph-name="uni00A0" unicode="&#xa0;" horiz-adv-x="250" 
 />
    <glyph glyph-name="exclamdown" unicode="&#xa1;" horiz-adv-x="216" 
d="M151 -190v501h-86v-501h86zM156 500v-96h-96v96h96z" />
    <glyph glyph-name="cent" unicode="&#xa2;" 
d="M367 120l62 -44c-26 -49 -74 -75 -137 -82v-110h-74v111c-114 14 -178 98 -178 223v66c0 128 66 207 178 221v117h74v-117c59 -7 107 -33 137 -75l-63 -44c-22 32 -64 50 -110 50c-86 0 -136 -58 -136 -152v-66c0 -86 40 -154 136 -154c47 0 90 16 111 56z" />
    <glyph glyph-name="sterling" unicode="&#xa3;" 
d="M22 0v78h71v240h-71v78h71v10c0 210 83 292 210 292c72 0 135 -26 173 -86l-74 -42c-22 29 -52 50 -99 50c-85 0 -124 -56 -124 -214v-10h156v-78h-156v-240h280v-78h-437z" />
    <glyph glyph-name="currency" unicode="&#xa4;" 
d="M50 366c0 40 11 78 32 110l-68 68l57 57l67 -68c32 21 70 34 111 34s79 -13 110 -34l69 69l57 -57l-69 -69c21 -31 34 -69 34 -110s-13 -79 -34 -111l69 -68l-57 -57l-69 68c-31 -20 -70 -32 -110 -32c-41 0 -79 12 -110 33l-68 -68l-57 57l68 68c-21 31 -32 69 -32 110z
M136 366c0 -64 49 -117 113 -117c65 0 115 53 115 117s-50 118 -115 118c-64 0 -113 -54 -113 -118z" />
    <glyph glyph-name="yen" unicode="&#xa5;" 
d="M57 224h140v72h-140v78h97l-129 316h93l122 -311l139 311h96l-150 -316h98v-78h-140v-72h140v-78h-140v-146h-86v146h-140v78z" />
    <glyph glyph-name="brokenbar" unicode="&#xa6;" horiz-adv-x="246" 
d="M166 243v-243h-86v243h86zM166 690v-243h-86v243h86z" />
    <glyph glyph-name="section" unicode="&#xa7;" horiz-adv-x="499" 
d="M79 -47h86c5 -36 18 -66 83 -66c62 0 88 29 88 68c0 44 -29 69 -106 91c-80 23 -180 50 -180 204c0 79 37 136 101 163c-44 24 -79 62 -79 129c0 86 67 149 174 149c113 0 167 -55 169 -144h-86c-5 36 -18 66 -83 66c-62 0 -88 -29 -88 -68c0 -44 29 -69 106 -91
c78 -23 180 -49 180 -196v-8c0 -79 -38 -137 -102 -164c45 -23 80 -62 80 -128c0 -86 -67 -149 -174 -149c-113 0 -167 55 -169 144zM357 250v17c0 60 -46 94 -110 94c-70 0 -111 -41 -111 -111v-15c0 -61 46 -96 111 -96c70 0 110 41 110 111z" />
    <glyph glyph-name="dieresis" unicode="&#xa8;" horiz-adv-x="413" 
d="M56 600v90h90v-90h-90zM266 600v90h90v-90h-90z" />
    <glyph glyph-name="copyright" unicode="&#xa9;" horiz-adv-x="980" 
d="M50 250c0 246 197 440 440 440s440 -194 440 -440s-197 -440 -440 -440s-440 194 -440 440zM130 250c0 -205 158 -369 360 -369s360 164 360 369s-158 368 -360 368s-360 -163 -360 -368zM609 120l62 -44c-31 -58 -92 -84 -173 -84c-137 0 -216 88 -216 226v66
c0 142 81 224 216 224c75 0 137 -27 173 -78l-63 -44c-22 32 -64 50 -110 50c-86 0 -136 -58 -136 -152v-66c0 -86 40 -154 136 -154c47 0 90 16 111 56z" />
    <glyph glyph-name="ordfeminine" unicode="&#xaa;" horiz-adv-x="316" 
d="M25 466c0 68 49 92 118 92h75v28c0 44 -21 57 -70 57c-38 0 -56 -7 -74 -36l-42 30c22 36 57 55 117 55c79 0 123 -26 123 -101v-217h-54v30c-18 -29 -39 -34 -80 -34c-73 0 -113 35 -113 96zM218 496v16h-72c-50 0 -67 -16 -67 -48s25 -45 62 -45c46 0 77 14 77 77z" />
    <glyph glyph-name="guillemotleft" unicode="&#xab;" horiz-adv-x="519" 
d="M30 283l232 231v-102l-130 -129l130 -129v-102zM232 283l232 231v-102l-130 -129l130 -129v-102z" />
    <glyph glyph-name="logicalnot" unicode="&#xac;" 
d="M457 187h-74v127h-359v78h433v-205z" />
    <glyph glyph-name="uni00AD" unicode="&#xad;" horiz-adv-x="319" 
d="M30 253v72h259v-72h-259z" />
    <glyph glyph-name="registered" unicode="&#xae;" horiz-adv-x="576" 
d="M35 501c0 139 114 253 253 253s253 -114 253 -253s-114 -253 -253 -253s-253 114 -253 253zM92 501c0 -108 88 -196 196 -196s196 88 196 196s-88 196 -196 196s-196 -88 -196 -196zM238 374h-52v261h107c72 0 97 -43 97 -79c0 -41 -21 -66 -56 -78l69 -104h-59l-64 97
h-42v-97zM238 515h44c39 0 56 12 56 40c0 24 -18 35 -51 35h-49v-75z" />
    <glyph glyph-name="macron" unicode="&#xaf;" horiz-adv-x="398" 
d="M64 600v72h269v-72h-269z" />
    <glyph glyph-name="degree" unicode="&#xb0;" horiz-adv-x="308" 
d="M20 559c0 76 60 134 134 134s134 -58 134 -134s-60 -134 -134 -134s-134 58 -134 134zM88 559c0 -38 29 -68 66 -68s65 30 65 68s-28 67 -65 67s-66 -29 -66 -67z" />
    <glyph glyph-name="plusminus" unicode="&#xb1;" 
d="M56 358v72h158v159h72v-159h159v-72h-159v-128h-72v128h-158zM56 128v72h389v-72h-389z" />
    <glyph glyph-name="twosuperior" unicode="&#xb2;" horiz-adv-x="278" 
d="M245 424v-50h-207v50l107 102c27 26 40 45 40 70c0 31 -21 47 -44 47c-26 0 -48 -18 -50 -47h-52c0 59 48 97 102 97c59 0 98 -34 98 -93c0 -41 -20 -71 -54 -103l-76 -73h136z" />
    <glyph glyph-name="threesuperior" unicode="&#xb3;" horiz-adv-x="301" 
d="M108 512v50h19c38 0 59 14 59 43c0 25 -18 38 -43 38c-29 0 -45 -15 -49 -38h-54c0 50 45 88 103 88s96 -31 96 -84c0 -37 -23 -58 -52 -71c34 -9 58 -37 58 -75c0 -59 -43 -92 -102 -92c-65 0 -104 42 -107 90h55c4 -23 20 -40 52 -40c26 0 48 13 48 44
c0 27 -17 47 -64 47h-19z" />
    <glyph glyph-name="acute" unicode="&#xb4;" horiz-adv-x="365" 
d="M99 567l70 158h96l-91 -158h-75z" />
    <glyph glyph-name="mu" unicode="&#xb5;" 
d="M134 -137h-80v637h80v-309c0 -101 55 -125 114 -125c75 0 122 53 122 122v312h80v-500h-80v49c-25 -38 -60 -57 -134 -57c-44 0 -77 8 -102 29v-158z" />
    <glyph glyph-name="paragraph" unicode="&#xb6;" horiz-adv-x="595" 
d="M495 690v-880h-86v802h-88v-802h-86v500c-105 0 -190 85 -190 190s85 190 190 190h260z" />
    <glyph glyph-name="periodcentered" unicode="&#xb7;" horiz-adv-x="216" 
d="M156 396v-96h-96v96h96z" />
    <glyph glyph-name="cedilla" unicode="&#xb8;" horiz-adv-x="343" 
d="M120 -69l19 94l57 -3l-13 -45c37 -10 62 -34 62 -74c0 -54 -48 -82 -111 -82c-14 0 -29 1 -37 3l12 52c6 -1 12 -1 19 -1c21 0 47 4 47 28c0 25 -30 28 -55 28z" />
    <glyph glyph-name="onesuperior" unicode="&#xb9;" horiz-adv-x="277" 
d="M181 690v-316h-54v254l-57 -41v60l57 43h54z" />
    <glyph glyph-name="ordmasculine" unicode="&#xba;" horiz-adv-x="337" 
d="M301 555v-45c0 -80 -44 -139 -133 -139c-82 0 -132 54 -132 139v45c0 87 52 138 132 138c82 0 133 -50 133 -138zM168 421c49 0 79 33 79 89v45c0 62 -32 88 -79 88c-46 0 -78 -26 -78 -88v-45c0 -57 26 -89 78 -89z" />
    <glyph glyph-name="guillemotright" unicode="&#xbb;" horiz-adv-x="519" 
d="M257 514l232 -231l-232 -231v102l130 129l-130 129v102zM55 514l232 -231l-232 -231v102l130 129l-130 129v102z" />
    <glyph glyph-name="onequarter" unicode="&#xbc;" horiz-adv-x="604" 
d="M165 690v-316h-54v254l-57 -41v60l57 43h54zM440 316h64l-123 -205h85v56h54v-56h39v-50h-39v-61h-54v61h-157v43zM485 690h79l-474 -690h-80z" />
    <glyph glyph-name="onehalf" unicode="&#xbd;" horiz-adv-x="605" 
d="M165 690v-316h-54v254l-57 -41v60l57 43h54zM565 50v-50h-207v50l107 102c27 26 40 45 40 70c0 31 -21 47 -44 47c-26 0 -48 -18 -50 -47h-52c0 59 48 97 102 97c59 0 98 -34 98 -93c0 -41 -20 -71 -54 -103l-76 -73h136zM485 690h79l-474 -690h-80z" />
    <glyph glyph-name="threequarters" unicode="&#xbe;" horiz-adv-x="604" 
d="M90 512v50h19c38 0 59 14 59 43c0 25 -18 38 -43 38c-29 0 -45 -15 -49 -38h-54c0 50 45 88 103 88s96 -31 96 -84c0 -37 -23 -58 -52 -71c34 -9 58 -37 58 -75c0 -59 -43 -92 -102 -92c-65 0 -104 42 -107 90h55c4 -23 20 -40 52 -40c26 0 48 13 48 44
c0 27 -17 47 -64 47h-19zM440 316h64l-123 -205h85v56h54v-56h39v-50h-39v-61h-54v61h-157v43zM485 690h79l-474 -690h-80z" />
    <glyph glyph-name="questiondown" unicode="&#xbf;" horiz-adv-x="486" 
d="M212 311h80v-77c0 -30 -7 -50 -29 -70l-49 -44c-52 -47 -78 -81 -78 -133c0 -72 55 -108 112 -108c62 0 111 37 113 108h85c0 -114 -90 -185 -198 -185c-110 0 -198 71 -198 189c0 82 55 137 104 184l29 28c21 21 29 35 29 71v37zM204 404v96h96v-96h-96z" />
    <glyph glyph-name="Agrave" unicode="&#xc0;" horiz-adv-x="580" 
d="M101 0h-91l240 690h80l240 -690h-91l-53 158h-272zM290 560l-109 -324h218zM241 876l80 -129h-77l-103 129h100z" />
    <glyph glyph-name="Aacute" unicode="&#xc1;" horiz-adv-x="580" 
d="M101 0h-91l240 690h80l240 -690h-91l-53 158h-272zM290 560l-109 -324h218zM256 747l80 129h100l-103 -129h-77z" />
    <glyph glyph-name="Acircumflex" unicode="&#xc2;" horiz-adv-x="580" 
d="M101 0h-91l240 690h80l240 -690h-91l-53 158h-272zM290 560l-109 -324h218zM244 879h92l138 -142h-97l-87 91l-87 -91h-97z" />
    <glyph glyph-name="Atilde" unicode="&#xc3;" horiz-adv-x="580" 
d="M101 0h-91l240 690h80l240 -690h-91l-53 158h-272zM290 560l-109 -324h218zM348 762c-44 0 -74 27 -115 27c-21 0 -43 -10 -59 -26l-47 49c27 31 65 50 106 50c43 0 73 -27 116 -27c19 0 41 10 57 26l47 -49c-27 -31 -65 -50 -105 -50z" />
    <glyph glyph-name="Adieresis" unicode="&#xc4;" horiz-adv-x="580" 
d="M101 0h-91l240 690h80l240 -690h-91l-53 158h-272zM290 560l-109 -324h218zM140 779v90h90v-90h-90zM350 779v90h90v-90h-90z" />
    <glyph glyph-name="Aring" unicode="&#xc5;" horiz-adv-x="580" 
d="M101 0h-91l226 650c-33 16 -55 46 -55 87c0 61 49 99 109 99c61 0 110 -38 110 -99c0 -41 -23 -72 -56 -87l226 -650h-91l-53 158h-272zM290 560l-109 -324h218zM233 737c0 -31 26 -47 57 -47c32 0 57 16 57 47c0 32 -25 47 -57 47c-31 0 -57 -15 -57 -47z" />
    <glyph glyph-name="AE" unicode="&#xc6;" horiz-adv-x="857" 
d="M107 0h-97l391 690h416v-78h-330v-216h300v-78h-300v-240h330v-78h-416v158h-206zM238 236h163v292z" />
    <glyph glyph-name="Ccedilla" unicode="&#xc7;" horiz-adv-x="578" 
d="M268 -69l12 62c-141 7 -230 100 -230 314v76c0 223 97 315 250 315c136 0 226 -72 248 -223h-84c-24 108 -79 145 -164 145c-106 0 -164 -66 -164 -237v-76c0 -171 58 -237 164 -237c90 0 141 44 164 145h83c-20 -141 -99 -210 -211 -221l-5 -17c37 -10 62 -34 62 -74
c0 -54 -48 -82 -111 -82c-14 0 -29 1 -37 3l12 52c6 -1 12 -1 19 -1c21 0 47 4 47 28c0 25 -30 28 -55 28z" />
    <glyph glyph-name="Egrave" unicode="&#xc8;" horiz-adv-x="541" 
d="M85 690h416v-78h-330v-216h300v-78h-300v-240h330v-78h-416v690zM273 876l80 -129h-77l-103 129h100z" />
    <glyph glyph-name="Eacute" unicode="&#xc9;" horiz-adv-x="541" 
d="M85 690h416v-78h-330v-216h300v-78h-300v-240h330v-78h-416v690zM245 747l80 129h100l-103 -129h-77z" />
    <glyph glyph-name="Ecircumflex" unicode="&#xca;" horiz-adv-x="541" 
d="M85 690h416v-78h-330v-216h300v-78h-300v-240h330v-78h-416v690zM247 879h92l138 -142h-97l-87 91l-87 -91h-97z" />
    <glyph glyph-name="Edieresis" unicode="&#xcb;" horiz-adv-x="541" 
d="M85 690h416v-78h-330v-216h300v-78h-300v-240h330v-78h-416v690zM143 779v90h90v-90h-90zM353 779v90h90v-90h-90z" />
    <glyph glyph-name="Igrave" unicode="&#xcc;" horiz-adv-x="276" 
d="M181 690v-690h-86v690h86zM102 876l80 -129h-77l-103 129h100z" />
    <glyph glyph-name="Iacute" unicode="&#xcd;" horiz-adv-x="276" 
d="M181 690v-690h-86v690h86zM95 747l80 129h100l-103 -129h-77z" />
    <glyph glyph-name="Icircumflex" unicode="&#xce;" horiz-adv-x="276" 
d="M181 690v-690h-86v690h86zM92 879h92l138 -142h-97l-87 91l-87 -91h-97z" />
    <glyph glyph-name="Idieresis" unicode="&#xcf;" horiz-adv-x="276" 
d="M181 690v-690h-86v690h86zM-12 779v90h90v-90h-90zM198 779v90h90v-90h-90z" />
    <glyph glyph-name="Eth" unicode="&#xd0;" horiz-adv-x="613" 
d="M313 0h-220v318h-103v78h103v294h220c153 0 250 -86 250 -309v-72c0 -223 -97 -309 -250 -309zM313 78c106 0 164 60 164 231v72c0 171 -58 231 -164 231h-134v-216h180v-78h-180v-240h134z" />
    <glyph glyph-name="Ntilde" unicode="&#xd1;" horiz-adv-x="638" 
d="M467 690h86v-690h-84l-298 522v-522h-86v690h82l300 -527v527zM377 762c-44 0 -74 27 -115 27c-21 0 -43 -10 -59 -26l-47 49c27 31 65 50 106 50c43 0 73 -27 116 -27c19 0 41 10 57 26l47 -49c-27 -31 -65 -50 -105 -50z" />
    <glyph glyph-name="Ograve" unicode="&#xd2;" horiz-adv-x="600" 
d="M550 307c0 -223 -97 -315 -250 -315s-250 92 -250 315v76c0 223 97 315 250 315s250 -92 250 -315v-76zM136 383v-76c0 -171 58 -237 164 -237s164 66 164 237v76c0 171 -58 237 -164 237s-164 -66 -164 -237zM280 876l80 -129h-77l-103 129h100z" />
    <glyph glyph-name="Oacute" unicode="&#xd3;" horiz-adv-x="600" 
d="M550 307c0 -223 -97 -315 -250 -315s-250 92 -250 315v76c0 223 97 315 250 315s250 -92 250 -315v-76zM136 383v-76c0 -171 58 -237 164 -237s164 66 164 237v76c0 171 -58 237 -164 237s-164 -66 -164 -237zM228 747l80 129h100l-103 -129h-77z" />
    <glyph glyph-name="Ocircumflex" unicode="&#xd4;" horiz-adv-x="600" 
d="M550 307c0 -223 -97 -315 -250 -315s-250 92 -250 315v76c0 223 97 315 250 315s250 -92 250 -315v-76zM136 383v-76c0 -171 58 -237 164 -237s164 66 164 237v76c0 171 -58 237 -164 237s-164 -66 -164 -237zM254 879h92l138 -142h-97l-87 91l-87 -91h-97z" />
    <glyph glyph-name="Otilde" unicode="&#xd5;" horiz-adv-x="600" 
d="M550 307c0 -223 -97 -315 -250 -315s-250 92 -250 315v76c0 223 97 315 250 315s250 -92 250 -315v-76zM136 383v-76c0 -171 58 -237 164 -237s164 66 164 237v76c0 171 -58 237 -164 237s-164 -66 -164 -237zM357 762c-44 0 -74 27 -115 27c-21 0 -43 -10 -59 -26
l-47 49c27 31 65 50 106 50c43 0 73 -27 116 -27c19 0 41 10 57 26l47 -49c-27 -31 -65 -50 -105 -50z" />
    <glyph glyph-name="Odieresis" unicode="&#xd6;" horiz-adv-x="600" 
d="M550 307c0 -223 -97 -315 -250 -315s-250 92 -250 315v76c0 223 97 315 250 315s250 -92 250 -315v-76zM136 383v-76c0 -171 58 -237 164 -237s164 66 164 237v76c0 171 -58 237 -164 237s-164 -66 -164 -237zM150 779v90h90v-90h-90zM360 779v90h90v-90h-90z" />
    <glyph glyph-name="multiply" unicode="&#xd7;" 
d="M124 177l-51 51l126 126l-126 127l50 50l127 -127l127 127l50 -50l-127 -127l127 -126l-51 -51l-126 126z" />
    <glyph glyph-name="Oslash" unicode="&#xd8;" horiz-adv-x="600" 
d="M177 -116h-77l54 149c-66 46 -104 134 -104 274v76c0 223 97 315 250 315c32 0 63 -5 90 -13l46 127h77l-59 -161c61 -48 96 -135 96 -268v-76c0 -223 -97 -315 -250 -315c-29 0 -56 4 -80 10zM136 383v-76c0 -92 17 -153 48 -190l179 493c-19 7 -40 10 -63 10
c-106 0 -164 -66 -164 -237zM464 383c0 84 -14 143 -41 181l-176 -488c16 -4 34 -6 53 -6c106 0 164 66 164 237v76z" />
    <glyph glyph-name="Ugrave" unicode="&#xd9;" horiz-adv-x="670" 
d="M499 690h86v-409c0 -204 -97 -289 -250 -289s-250 85 -250 288v410h86v-410c0 -151 58 -210 164 -210s164 59 164 210v410zM318 876l80 -129h-77l-103 129h100z" />
    <glyph glyph-name="Uacute" unicode="&#xda;" horiz-adv-x="670" 
d="M499 690h86v-409c0 -204 -97 -289 -250 -289s-250 85 -250 288v410h86v-410c0 -151 58 -210 164 -210s164 59 164 210v410zM270 747l80 129h100l-103 -129h-77z" />
    <glyph glyph-name="Ucircumflex" unicode="&#xdb;" horiz-adv-x="670" 
d="M499 690h86v-409c0 -204 -97 -289 -250 -289s-250 85 -250 288v410h86v-410c0 -151 58 -210 164 -210s164 59 164 210v410zM289 879h92l138 -142h-97l-87 91l-87 -91h-97z" />
    <glyph glyph-name="Udieresis" unicode="&#xdc;" horiz-adv-x="670" 
d="M499 690h86v-409c0 -204 -97 -289 -250 -289s-250 85 -250 288v410h86v-410c0 -151 58 -210 164 -210s164 59 164 210v410zM185 779v90h90v-90h-90zM395 779v90h90v-90h-90z" />
    <glyph glyph-name="Yacute" unicode="&#xdd;" horiz-adv-x="556" 
d="M20 690h101l157 -300l157 300h101l-215 -394v-296h-86v296zM230 747l80 129h100l-103 -129h-77z" />
    <glyph glyph-name="Thorn" unicode="&#xde;" horiz-adv-x="588" 
d="M305 143h-134v-143h-86v690h86v-120h134c159 0 251 -80 251 -214c0 -133 -91 -213 -251 -213zM171 221h134c117 0 165 50 165 135c0 86 -48 136 -165 136h-134v-271z" />
    <glyph glyph-name="germandbls" unicode="&#xdf;" horiz-adv-x="527" 
d="M462 564c0 -43 -17 -76 -61 -97c50 -18 61 -56 61 -115v-212c0 -120 -44 -140 -149 -140h-40v72h40c48 0 69 16 69 68v212c0 56 -14 76 -69 76h-40v72h40c41 0 69 20 69 59c0 35 -28 67 -109 67c-83 0 -128 -32 -128 -135v-491h-80v499c0 128 66 199 208 199
c141 0 189 -67 189 -134z" />
    <glyph glyph-name="agrave" unicode="&#xe0;" horiz-adv-x="491" 
d="M40 146c0 108 77 143 187 143h119v58c0 71 -33 87 -111 87c-60 0 -92 -5 -120 -51l-60 42c35 58 86 83 181 83c127 0 190 -41 190 -161v-347h-80v49c-28 -46 -62 -57 -127 -57c-116 0 -179 57 -179 154zM346 192v29h-119c-79 0 -107 -27 -107 -77c0 -56 40 -78 99 -78
c74 0 127 14 127 126zM236 725l70 -158h-75l-91 158h96z" />
    <glyph glyph-name="aacute" unicode="&#xe1;" horiz-adv-x="491" 
d="M40 146c0 108 77 143 187 143h119v58c0 71 -33 87 -111 87c-60 0 -92 -5 -120 -51l-60 42c35 58 86 83 181 83c127 0 190 -41 190 -161v-347h-80v49c-28 -46 -62 -57 -127 -57c-116 0 -179 57 -179 154zM346 192v29h-119c-79 0 -107 -27 -107 -77c0 -56 40 -78 99 -78
c74 0 127 14 127 126zM201 567l70 158h96l-91 -158h-75z" />
    <glyph glyph-name="acircumflex" unicode="&#xe2;" horiz-adv-x="491" 
d="M40 146c0 108 77 143 187 143h119v58c0 71 -33 87 -111 87c-60 0 -92 -5 -120 -51l-60 42c35 58 86 83 181 83c127 0 190 -41 190 -161v-347h-80v49c-28 -46 -62 -57 -127 -57c-116 0 -179 57 -179 154zM346 192v29h-119c-79 0 -107 -27 -107 -77c0 -56 40 -78 99 -78
c74 0 127 14 127 126zM202 700h92l108 -142h-82l-72 97l-72 -97h-82z" />
    <glyph glyph-name="atilde" unicode="&#xe3;" horiz-adv-x="491" 
d="M40 146c0 108 77 143 187 143h119v58c0 71 -33 87 -111 87c-60 0 -92 -5 -120 -51l-60 42c35 58 86 83 181 83c127 0 190 -41 190 -161v-347h-80v49c-28 -46 -62 -57 -127 -57c-116 0 -179 57 -179 154zM346 192v29h-119c-79 0 -107 -27 -107 -77c0 -56 40 -78 99 -78
c74 0 127 14 127 126zM306 589c-44 0 -74 27 -115 27c-21 0 -43 -10 -59 -26l-47 44c27 31 65 50 106 50c43 0 73 -27 116 -27c19 0 41 10 57 26l47 -44c-27 -31 -65 -50 -105 -50z" />
    <glyph glyph-name="adieresis" unicode="&#xe4;" horiz-adv-x="491" 
d="M40 146c0 108 77 143 187 143h119v58c0 71 -33 87 -111 87c-60 0 -92 -5 -120 -51l-60 42c35 58 86 83 181 83c127 0 190 -41 190 -161v-347h-80v49c-28 -46 -62 -57 -127 -57c-116 0 -179 57 -179 154zM346 192v29h-119c-79 0 -107 -27 -107 -77c0 -56 40 -78 99 -78
c74 0 127 14 127 126zM92 600v90h90v-90h-90zM302 600v90h90v-90h-90z" />
    <glyph glyph-name="aring" unicode="&#xe5;" horiz-adv-x="491" 
d="M40 146c0 108 77 143 187 143h119v58c0 71 -33 87 -111 87c-60 0 -92 -5 -120 -51l-60 42c35 58 86 83 181 83c127 0 190 -41 190 -161v-347h-80v49c-28 -46 -62 -57 -127 -57c-116 0 -179 57 -179 154zM346 192v29h-119c-79 0 -107 -27 -107 -77c0 -56 40 -78 99 -78
c74 0 127 14 127 126zM136 646c0 61 49 110 109 110c61 0 110 -49 110 -110c0 -60 -49 -109 -110 -109c-60 0 -109 49 -109 109zM188 646c0 -31 26 -57 57 -57c32 0 57 26 57 57c0 32 -25 57 -57 57c-31 0 -57 -25 -57 -57z" />
    <glyph glyph-name="ae" unicode="&#xe6;" horiz-adv-x="794" 
d="M673 120l62 -44c-35 -61 -88 -84 -175 -84c-82 0 -139 33 -170 91c-36 -74 -97 -91 -171 -91c-116 0 -179 56 -179 153c0 108 77 144 187 144h119v58c0 71 -33 87 -111 87c-60 0 -92 -5 -120 -51l-60 42c35 58 86 83 181 83c84 0 136 -23 162 -71c29 44 76 71 146 71
c126 0 198 -76 198 -208v-70h-316v-10c0 -86 41 -156 128 -156c65 0 98 19 119 56zM346 194v27h-119c-79 0 -107 -28 -107 -78c0 -56 40 -77 99 -77c74 0 127 16 127 128zM544 436c-77 0 -113 -53 -118 -136h235c-4 84 -41 136 -117 136z" />
    <glyph glyph-name="ccedilla" unicode="&#xe7;" horiz-adv-x="444" 
d="M214 -69l12 63c-119 11 -186 96 -186 224v66c0 142 81 224 216 224c75 0 137 -27 173 -78l-63 -44c-22 32 -64 50 -110 50c-86 0 -136 -58 -136 -152v-66c0 -86 40 -154 136 -154c47 0 90 16 111 56l62 -44c-28 -52 -79 -78 -148 -83l-4 -16c37 -10 62 -34 62 -74
c0 -54 -48 -82 -111 -82c-14 0 -29 1 -37 3l12 52c6 -1 12 -1 19 -1c21 0 47 4 47 28c0 25 -30 28 -55 28z" />
    <glyph glyph-name="egrave" unicode="&#xe8;" horiz-adv-x="488" 
d="M367 120l62 -44c-35 -61 -88 -84 -175 -84c-134 0 -214 87 -214 226v66c0 142 67 224 198 224c132 0 198 -81 198 -224v-52h-316v-14c0 -86 41 -154 128 -154c65 0 98 19 119 56zM238 436c-77 0 -113 -51 -118 -134h235c-4 84 -41 134 -117 134zM230 725l70 -158h-75
l-91 158h96z" />
    <glyph glyph-name="eacute" unicode="&#xe9;" horiz-adv-x="488" 
d="M367 120l62 -44c-35 -61 -88 -84 -175 -84c-134 0 -214 87 -214 226v66c0 142 67 224 198 224c132 0 198 -81 198 -224v-52h-316v-14c0 -86 41 -154 128 -154c65 0 98 19 119 56zM238 436c-77 0 -113 -51 -118 -134h235c-4 84 -41 134 -117 134zM188 567l70 158h96
l-91 -158h-75z" />
    <glyph glyph-name="ecircumflex" unicode="&#xea;" horiz-adv-x="488" 
d="M367 120l62 -44c-35 -61 -88 -84 -175 -84c-134 0 -214 87 -214 226v66c0 142 67 224 198 224c132 0 198 -81 198 -224v-52h-316v-14c0 -86 41 -154 128 -154c65 0 98 19 119 56zM238 436c-77 0 -113 -51 -118 -134h235c-4 84 -41 134 -117 134zM192 700h92l108 -142h-82
l-72 97l-72 -97h-82z" />
    <glyph glyph-name="edieresis" unicode="&#xeb;" horiz-adv-x="488" 
d="M367 120l62 -44c-35 -61 -88 -84 -175 -84c-134 0 -214 87 -214 226v66c0 142 67 224 198 224c132 0 198 -81 198 -224v-52h-316v-14c0 -86 41 -154 128 -154c65 0 98 19 119 56zM238 436c-77 0 -113 -51 -118 -134h235c-4 84 -41 134 -117 134zM88 600v90h90v-90h-90z
M298 600v90h90v-90h-90z" />
    <glyph glyph-name="igrave" unicode="&#xec;" horiz-adv-x="230" 
d="M75 0v500h80v-500h-80zM85 725l70 -158h-75l-91 158h96z" />
    <glyph glyph-name="iacute" unicode="&#xed;" horiz-adv-x="230" 
d="M75 0v500h80v-500h-80zM75 567l70 158h96l-91 -158h-75z" />
    <glyph glyph-name="icircumflex" unicode="&#xee;" horiz-adv-x="230" 
d="M75 0v500h80v-500h-80zM69 700h92l108 -142h-82l-72 97l-72 -97h-82z" />
    <glyph glyph-name="idieresis" unicode="&#xef;" horiz-adv-x="230" 
d="M75 0v500h80v-500h-80zM-35 600v90h90v-90h-90zM175 600v90h90v-90h-90z" />
    <glyph glyph-name="eth" unicode="&#xf0;" horiz-adv-x="496" 
d="M173 566l30 52l-57 23l37 65l58 -25l36 61l61 -37l-32 -54c111 -55 150 -106 150 -261v-172c0 -130 -64 -226 -208 -226c-133 0 -208 88 -208 226v66c0 142 77 224 208 224c52 0 99 -15 129 -48c-7 61 -35 93 -108 128l-34 -58zM248 64c85 0 128 69 128 154v66
c0 95 -46 152 -128 152s-128 -58 -128 -152v-66c0 -86 36 -154 128 -154z" />
    <glyph glyph-name="ntilde" unicode="&#xf1;" horiz-adv-x="526" 
d="M65 0v500h80v-49c25 38 60 57 134 57c107 0 182 -56 182 -196v-312h-80v311c0 101 -55 123 -114 123c-75 0 -122 -53 -122 -122v-312h-80zM321 589c-44 0 -74 27 -115 27c-21 0 -43 -10 -59 -26l-47 44c27 31 65 50 106 50c43 0 73 -27 116 -27c19 0 41 10 57 26l47 -44
c-27 -31 -65 -50 -105 -50z" />
    <glyph glyph-name="ograve" unicode="&#xf2;" horiz-adv-x="496" 
d="M456 284v-66c0 -130 -64 -226 -208 -226c-133 0 -208 88 -208 226v66c0 142 77 224 208 224c132 0 208 -81 208 -224zM248 64c85 0 128 69 128 154v66c0 95 -46 152 -128 152s-128 -58 -128 -152v-66c0 -86 36 -154 128 -154zM231 725l70 -158h-75l-91 158h96z" />
    <glyph glyph-name="oacute" unicode="&#xf3;" horiz-adv-x="496" 
d="M456 284v-66c0 -130 -64 -226 -208 -226c-133 0 -208 88 -208 226v66c0 142 77 224 208 224c132 0 208 -81 208 -224zM248 64c85 0 128 69 128 154v66c0 95 -46 152 -128 152s-128 -58 -128 -152v-66c0 -86 36 -154 128 -154zM195 567l70 158h96l-91 -158h-75z" />
    <glyph glyph-name="ocircumflex" unicode="&#xf4;" horiz-adv-x="496" 
d="M456 284v-66c0 -130 -64 -226 -208 -226c-133 0 -208 88 -208 226v66c0 142 77 224 208 224c132 0 208 -81 208 -224zM248 64c85 0 128 69 128 154v66c0 95 -46 152 -128 152s-128 -58 -128 -152v-66c0 -86 36 -154 128 -154zM202 700h92l108 -142h-82l-72 97l-72 -97
h-82z" />
    <glyph glyph-name="otilde" unicode="&#xf5;" horiz-adv-x="496" 
d="M456 284v-66c0 -130 -64 -226 -208 -226c-133 0 -208 88 -208 226v66c0 142 77 224 208 224c132 0 208 -81 208 -224zM248 64c85 0 128 69 128 154v66c0 95 -46 152 -128 152s-128 -58 -128 -152v-66c0 -86 36 -154 128 -154zM306 589c-44 0 -74 27 -115 27
c-21 0 -43 -10 -59 -26l-47 44c27 31 65 50 106 50c43 0 73 -27 116 -27c19 0 41 10 57 26l47 -44c-27 -31 -65 -50 -105 -50z" />
    <glyph glyph-name="odieresis" unicode="&#xf6;" horiz-adv-x="496" 
d="M456 284v-66c0 -130 -64 -226 -208 -226c-133 0 -208 88 -208 226v66c0 142 77 224 208 224c132 0 208 -81 208 -224zM248 64c85 0 128 69 128 154v66c0 95 -46 152 -128 152s-128 -58 -128 -152v-66c0 -86 36 -154 128 -154zM98 600v90h90v-90h-90zM308 600v90h90v-90
h-90z" />
    <glyph glyph-name="divide" unicode="&#xf7;" 
d="M55 318v72h389v-72h-389zM203 149v90h90v-90h-90zM203 469v90h90v-90h-90z" />
    <glyph glyph-name="oslash" unicode="&#xf8;" horiz-adv-x="496" 
d="M139 -79h-77l51 114c-48 39 -73 102 -73 183v66c0 142 77 224 208 224c26 0 50 -3 72 -10l38 84h77l-52 -116c47 -37 73 -99 73 -182v-66c0 -130 -64 -226 -208 -226c-27 0 -51 4 -73 10zM120 218c0 -42 8 -79 27 -106l143 318c-13 4 -27 6 -42 6
c-82 0 -128 -58 -128 -152v-66zM248 64c85 0 128 69 128 154v66c0 43 -10 79 -28 104l-143 -319c13 -3 27 -5 43 -5z" />
    <glyph glyph-name="ugrave" unicode="&#xf9;" horiz-adv-x="526" 
d="M461 500v-500h-80v49c-25 -38 -60 -57 -134 -57c-107 0 -182 56 -182 196v312h80v-311c0 -101 55 -123 114 -123c75 0 122 53 122 122v312h80zM263 725l70 -158h-75l-91 158h96z" />
    <glyph glyph-name="uacute" unicode="&#xfa;" horiz-adv-x="526" 
d="M461 500v-500h-80v49c-25 -38 -60 -57 -134 -57c-107 0 -182 56 -182 196v312h80v-311c0 -101 55 -123 114 -123c75 0 122 53 122 122v312h80zM219 567l70 158h96l-91 -158h-75z" />
    <glyph glyph-name="ucircumflex" unicode="&#xfb;" horiz-adv-x="526" 
d="M461 500v-500h-80v49c-25 -38 -60 -57 -134 -57c-107 0 -182 56 -182 196v312h80v-311c0 -101 55 -123 114 -123c75 0 122 53 122 122v312h80zM217 700h92l108 -142h-82l-72 97l-72 -97h-82z" />
    <glyph glyph-name="udieresis" unicode="&#xfc;" horiz-adv-x="526" 
d="M461 500v-500h-80v49c-25 -38 -60 -57 -134 -57c-107 0 -182 56 -182 196v312h80v-311c0 -101 55 -123 114 -123c75 0 122 53 122 122v312h80zM113 600v90h90v-90h-90zM323 600v90h90v-90h-90z" />
    <glyph glyph-name="yacute" unicode="&#xfd;" horiz-adv-x="466" 
d="M199 -12l2 7l-196 505h86l149 -388l131 388h85l-176 -516c-41 -120 -68 -174 -208 -174v78c66 0 97 11 127 100zM193 567l70 158h96l-91 -158h-75z" />
    <glyph glyph-name="thorn" unicode="&#xfe;" horiz-adv-x="521" 
d="M145 450c27 37 70 58 136 58c124 0 200 -81 200 -224v-66c0 -130 -64 -226 -200 -226c-66 0 -109 21 -136 58v-240h-80v880h80v-240zM273 64c85 0 128 69 128 154v66c0 95 -46 152 -128 152c-80 0 -128 -55 -128 -145v-73c0 -86 36 -154 128 -154z" />
    <glyph glyph-name="ydieresis" unicode="&#xff;" horiz-adv-x="466" 
d="M199 -12l2 7l-196 505h86l149 -388l131 388h85l-176 -516c-41 -120 -68 -174 -208 -174v78c66 0 97 11 127 100zM87 600v90h90v-90h-90zM297 600v90h90v-90h-90z" />
    <glyph glyph-name="Amacron" unicode="&#x100;" horiz-adv-x="580" 
d="M101 0h-91l240 690h80l240 -690h-91l-53 158h-272zM290 560l-109 -324h218zM136 768v72h309v-72h-309z" />
    <glyph glyph-name="amacron" unicode="&#x101;" horiz-adv-x="491" 
d="M40 146c0 108 77 143 187 143h119v58c0 71 -33 87 -111 87c-60 0 -92 -5 -120 -51l-60 42c35 58 86 83 181 83c127 0 190 -41 190 -161v-347h-80v49c-28 -46 -62 -57 -127 -57c-116 0 -179 57 -179 154zM346 192v29h-119c-79 0 -107 -27 -107 -77c0 -56 40 -78 99 -78
c74 0 127 14 127 126zM103 600v72h269v-72h-269z" />
    <glyph glyph-name="Abreve" unicode="&#x102;" horiz-adv-x="580" 
d="M101 0h-91l240 690h80l240 -690h-91l-53 158h-272zM290 560l-109 -324h218zM397 880h78c0 -100 -74 -152 -184 -152s-185 52 -185 152h78c4 -40 31 -74 107 -74s102 34 106 74z" />
    <glyph glyph-name="abreve" unicode="&#x103;" horiz-adv-x="491" 
d="M40 146c0 108 77 143 187 143h119v58c0 71 -33 87 -111 87c-60 0 -92 -5 -120 -51l-60 42c35 58 86 83 181 83c127 0 190 -41 190 -161v-347h-80v49c-28 -46 -62 -57 -127 -57c-116 0 -179 57 -179 154zM346 192v29h-119c-79 0 -107 -27 -107 -77c0 -56 40 -78 99 -78
c74 0 127 14 127 126zM322 690h65c-3 -78 -52 -118 -136 -118s-133 40 -136 118h66c4 -39 22 -60 70 -60s67 21 71 60z" />
    <glyph glyph-name="Aogonek" unicode="&#x104;" horiz-adv-x="580" 
d="M101 0h-91l240 690h80l240 -690c-42 -25 -65 -43 -65 -68c0 -24 21 -28 45 -28c8 0 15 0 21 1l12 -52c-8 -2 -23 -3 -44 -3c-48 0 -104 19 -104 76c0 32 15 57 42 78l-51 154h-272zM290 560l-109 -324h218z" />
    <glyph glyph-name="aogonek" unicode="&#x105;" horiz-adv-x="491" 
d="M40 146c0 108 77 143 187 143h119v58c0 71 -33 87 -111 87c-60 0 -92 -5 -120 -51l-60 42c35 58 86 83 181 83c127 0 190 -41 190 -161v-347c-42 -25 -65 -43 -65 -68c0 -24 21 -28 45 -28c8 0 15 1 21 2l12 -53c-8 -2 -23 -3 -44 -3c-48 0 -104 19 -104 76
c0 36 20 63 55 87v36c-28 -46 -62 -57 -127 -57c-116 0 -179 57 -179 154zM346 192v29h-119c-79 0 -107 -27 -107 -77c0 -56 40 -78 99 -78c74 0 127 14 127 126z" />
    <glyph glyph-name="Cacute" unicode="&#x106;" horiz-adv-x="578" 
d="M548 475h-84c-24 108 -79 145 -164 145c-106 0 -164 -66 -164 -237v-76c0 -171 58 -237 164 -237c90 0 141 44 164 145h83c-22 -155 -116 -223 -247 -223c-153 0 -250 92 -250 315v76c0 223 97 315 250 315c136 0 226 -72 248 -223zM206 747l80 129h100l-103 -129h-77z
" />
    <glyph glyph-name="cacute" unicode="&#x107;" horiz-adv-x="444" 
d="M367 120l62 -44c-31 -58 -92 -84 -173 -84c-137 0 -216 88 -216 226v66c0 142 81 224 216 224c75 0 137 -27 173 -78l-63 -44c-22 32 -64 50 -110 50c-86 0 -136 -58 -136 -152v-66c0 -86 40 -154 136 -154c47 0 90 16 111 56zM203 567l70 158h96l-91 -158h-75z" />
    <glyph glyph-name="Ccircumflex" unicode="&#x108;" horiz-adv-x="578" 
d="M548 475h-84c-24 108 -79 145 -164 145c-106 0 -164 -66 -164 -237v-76c0 -171 58 -237 164 -237c90 0 141 44 164 145h83c-22 -155 -116 -223 -247 -223c-153 0 -250 92 -250 315v76c0 223 97 315 250 315c136 0 226 -72 248 -223zM254 879h92l138 -142h-97l-87 91
l-87 -91h-97z" />
    <glyph glyph-name="ccircumflex" unicode="&#x109;" horiz-adv-x="444" 
d="M367 120l62 -44c-31 -58 -92 -84 -173 -84c-137 0 -216 88 -216 226v66c0 142 81 224 216 224c75 0 137 -27 173 -78l-63 -44c-22 32 -64 50 -110 50c-86 0 -136 -58 -136 -152v-66c0 -86 40 -154 136 -154c47 0 90 16 111 56zM206 700h92l108 -142h-82l-72 97l-72 -97
h-82z" />
    <glyph glyph-name="Cdotaccent" unicode="&#x10a;" horiz-adv-x="578" 
d="M548 475h-84c-24 108 -79 145 -164 145c-106 0 -164 -66 -164 -237v-76c0 -171 58 -237 164 -237c90 0 141 44 164 145h83c-22 -155 -116 -223 -247 -223c-153 0 -250 92 -250 315v76c0 223 97 315 250 315c136 0 226 -72 248 -223zM254 779v90h90v-90h-90z" />
    <glyph glyph-name="cdotaccent" unicode="&#x10b;" horiz-adv-x="444" 
d="M367 120l62 -44c-31 -58 -92 -84 -173 -84c-137 0 -216 88 -216 226v66c0 142 81 224 216 224c75 0 137 -27 173 -78l-63 -44c-22 32 -64 50 -110 50c-86 0 -136 -58 -136 -152v-66c0 -86 40 -154 136 -154c47 0 90 16 111 56zM189 600v90h90v-90h-90z" />
    <glyph glyph-name="Ccaron" unicode="&#x10c;" horiz-adv-x="578" 
d="M548 475h-84c-24 108 -79 145 -164 145c-106 0 -164 -66 -164 -237v-76c0 -171 58 -237 164 -237c90 0 141 44 164 145h83c-22 -155 -116 -223 -247 -223c-153 0 -250 92 -250 315v76c0 223 97 315 250 315c136 0 226 -72 248 -223zM346 737h-92l-138 142h97l87 -91
l87 91h97z" />
    <glyph glyph-name="ccaron" unicode="&#x10d;" horiz-adv-x="444" 
d="M367 120l62 -44c-31 -58 -92 -84 -173 -84c-137 0 -216 88 -216 226v66c0 142 81 224 216 224c75 0 137 -27 173 -78l-63 -44c-22 32 -64 50 -110 50c-86 0 -136 -58 -136 -152v-66c0 -86 40 -154 136 -154c47 0 90 16 111 56zM298 558h-92l-108 142h82l72 -97l72 97h82z
" />
    <glyph glyph-name="Dcaron" unicode="&#x10e;" horiz-adv-x="605" 
d="M305 0h-220v690h220c153 0 250 -86 250 -309v-72c0 -223 -97 -309 -250 -309zM305 78c106 0 164 60 164 231v72c0 171 -58 231 -164 231h-134v-534h134zM322 737h-92l-138 142h97l87 -91l87 91h97z" />
    <glyph glyph-name="dcaron" unicode="&#x10f;" horiz-adv-x="576" 
d="M376 450v240h80v-690h-80v44c-27 -35 -70 -52 -136 -52c-136 0 -200 96 -200 226v66c0 143 76 224 200 224c66 0 109 -21 136 -58zM248 64c89 0 128 64 128 147v73c0 94 -46 152 -128 152s-128 -57 -128 -152v-66c0 -85 43 -154 128 -154zM596 690v-96l-96 -83v179h96z
" />
    <glyph glyph-name="Dcroat" unicode="&#x110;" horiz-adv-x="623" 
d="M323 0h-220v318h-113v78h113v294h220c153 0 250 -86 250 -309v-72c0 -223 -97 -309 -250 -309zM323 78c106 0 164 60 164 231v72c0 171 -58 231 -164 231h-134v-216h170v-78h-170v-240h134z" />
    <glyph glyph-name="dcroat" unicode="&#x111;" horiz-adv-x="554" 
d="M376 630v60h80v-60h96v-72h-96v-558h-80v44c-27 -35 -70 -52 -136 -52c-136 0 -200 96 -200 226v66c0 143 76 224 200 224c66 0 109 -21 136 -58v108h-163v72h163zM248 64c89 0 128 64 128 147v73c0 94 -46 152 -128 152s-128 -57 -128 -152v-66c0 -85 43 -154 128 -154z
" />
    <glyph glyph-name="Emacron" unicode="&#x112;" horiz-adv-x="541" 
d="M85 690h416v-78h-330v-216h300v-78h-300v-240h330v-78h-416v690zM139 768v72h309v-72h-309z" />
    <glyph glyph-name="emacron" unicode="&#x113;" horiz-adv-x="488" 
d="M367 120l62 -44c-35 -61 -88 -84 -175 -84c-134 0 -214 87 -214 226v66c0 142 67 224 198 224c132 0 198 -81 198 -224v-52h-316v-14c0 -86 41 -154 128 -154c65 0 98 19 119 56zM238 436c-77 0 -113 -51 -118 -134h235c-4 84 -41 134 -117 134zM104 600v72h269v-72h-269
z" />
    <glyph glyph-name="Edotaccent" unicode="&#x116;" horiz-adv-x="541" 
d="M85 690h416v-78h-330v-216h300v-78h-300v-240h330v-78h-416v690zM248 779v90h90v-90h-90z" />
    <glyph glyph-name="edotaccent" unicode="&#x117;" horiz-adv-x="488" 
d="M367 120l62 -44c-35 -61 -88 -84 -175 -84c-134 0 -214 87 -214 226v66c0 142 67 224 198 224c132 0 198 -81 198 -224v-52h-316v-14c0 -86 41 -154 128 -154c65 0 98 19 119 56zM238 436c-77 0 -113 -51 -118 -134h235c-4 84 -41 134 -117 134zM193 600v90h90v-90h-90z
" />
    <glyph glyph-name="Eogonek" unicode="&#x118;" horiz-adv-x="541" 
d="M85 690h416v-78h-330v-216h300v-78h-300v-240h330v-78h-117c-42 -25 -65 -43 -65 -68c0 -24 21 -28 45 -28c8 0 15 0 21 1l12 -52c-8 -2 -23 -3 -44 -3c-48 0 -104 19 -104 76c0 30 13 53 37 74h-201v690z" />
    <glyph glyph-name="eogonek" unicode="&#x119;" horiz-adv-x="488" 
d="M367 120l62 -44c-26 -45 -62 -70 -113 -79c-39 -23 -60 -41 -60 -65s21 -28 45 -28c8 0 15 1 21 2l12 -53c-8 -2 -23 -3 -44 -3c-48 0 -104 19 -104 76c0 27 12 48 32 68c-112 14 -178 98 -178 224v66c0 142 67 224 198 224c132 0 198 -81 198 -224v-52h-316v-14
c0 -86 41 -154 128 -154c65 0 98 19 119 56zM238 436c-77 0 -113 -51 -118 -134h235c-4 84 -41 134 -117 134z" />
    <glyph glyph-name="Ecaron" unicode="&#x11a;" horiz-adv-x="541" 
d="M85 690h416v-78h-330v-216h300v-78h-300v-240h330v-78h-416v690zM339 737h-92l-138 142h97l87 -91l87 91h97z" />
    <glyph glyph-name="ecaron" unicode="&#x11b;" horiz-adv-x="488" 
d="M367 120l62 -44c-35 -61 -88 -84 -175 -84c-134 0 -214 87 -214 226v66c0 142 67 224 198 224c132 0 198 -81 198 -224v-52h-316v-14c0 -86 41 -154 128 -154c65 0 98 19 119 56zM238 436c-77 0 -113 -51 -118 -134h235c-4 84 -41 134 -117 134zM291 558h-92l-108 142h82
l72 -97l72 97h82z" />
    <glyph glyph-name="Gcircumflex" unicode="&#x11c;" horiz-adv-x="604" 
d="M303 347h251v-40c0 -223 -101 -315 -254 -315s-250 92 -250 315v76c0 223 97 315 250 315c134 0 226 -71 248 -223h-84c-22 103 -76 145 -164 145c-106 0 -164 -66 -164 -237v-76c0 -171 58 -237 164 -237c97 0 158 56 167 199h-164v78zM254 879h92l138 -142h-97l-87 91
l-87 -91h-97z" />
    <glyph glyph-name="gcircumflex" unicode="&#x11d;" horiz-adv-x="521" 
d="M376 450v50h80v-490c0 -139 -80 -206 -214 -206c-87 0 -140 23 -175 84l62 44c21 -37 54 -56 119 -56c87 0 128 48 128 134v34c-27 -35 -70 -52 -136 -52c-136 0 -200 96 -200 226v66c0 143 76 224 200 224c66 0 109 -21 136 -58zM248 64c92 0 128 68 128 154v66
c0 94 -46 152 -128 152s-128 -57 -128 -152v-66c0 -85 43 -154 128 -154zM228 700h92l108 -142h-82l-72 97l-72 -97h-82z" />
    <glyph glyph-name="Gbreve" unicode="&#x11e;" horiz-adv-x="604" 
d="M303 347h251v-40c0 -223 -101 -315 -254 -315s-250 92 -250 315v76c0 223 97 315 250 315c134 0 226 -71 248 -223h-84c-22 103 -76 145 -164 145c-106 0 -164 -66 -164 -237v-76c0 -171 58 -237 164 -237c97 0 158 56 167 199h-164v78zM406 880h78
c0 -100 -74 -152 -184 -152s-185 52 -185 152h78c4 -40 31 -74 107 -74s102 34 106 74z" />
    <glyph glyph-name="gbreve" unicode="&#x11f;" horiz-adv-x="521" 
d="M376 450v50h80v-490c0 -139 -80 -206 -214 -206c-87 0 -140 23 -175 84l62 44c21 -37 54 -56 119 -56c87 0 128 48 128 134v34c-27 -35 -70 -52 -136 -52c-136 0 -200 96 -200 226v66c0 143 76 224 200 224c66 0 109 -21 136 -58zM248 64c92 0 128 68 128 154v66
c0 94 -46 152 -128 152s-128 -57 -128 -152v-66c0 -85 43 -154 128 -154zM352 690h65c-3 -78 -52 -118 -136 -118s-133 40 -136 118h66c4 -39 22 -60 70 -60s67 21 71 60z" />
    <glyph glyph-name="Gdotaccent" unicode="&#x120;" horiz-adv-x="604" 
d="M303 347h251v-40c0 -223 -101 -315 -254 -315s-250 92 -250 315v76c0 223 97 315 250 315c134 0 226 -71 248 -223h-84c-22 103 -76 145 -164 145c-106 0 -164 -66 -164 -237v-76c0 -171 58 -237 164 -237c97 0 158 56 167 199h-164v78zM257 779v90h90v-90h-90z" />
    <glyph glyph-name="gdotaccent" unicode="&#x121;" horiz-adv-x="521" 
d="M376 450v50h80v-490c0 -139 -80 -206 -214 -206c-87 0 -140 23 -175 84l62 44c21 -37 54 -56 119 -56c87 0 128 48 128 134v34c-27 -35 -70 -52 -136 -52c-136 0 -200 96 -200 226v66c0 143 76 224 200 224c66 0 109 -21 136 -58zM248 64c92 0 128 68 128 154v66
c0 94 -46 152 -128 152s-128 -57 -128 -152v-66c0 -85 43 -154 128 -154zM194 600v90h90v-90h-90z" />
    <glyph glyph-name="Gcommaaccent" unicode="&#x122;" horiz-adv-x="604" 
d="M303 347h251v-40c0 -223 -101 -315 -254 -315s-250 92 -250 315v76c0 223 97 315 250 315c134 0 226 -71 248 -223h-84c-22 103 -76 145 -164 145c-106 0 -164 -66 -164 -237v-76c0 -171 58 -237 164 -237c97 0 158 56 167 199h-164v78zM350 -64v-96l-96 -83v179h96z" />
    <glyph glyph-name="gcommaaccent" unicode="&#x123;" horiz-adv-x="521" 
d="M376 450v50h80v-490c0 -139 -80 -206 -214 -206c-87 0 -140 23 -175 84l62 44c21 -37 54 -56 119 -56c87 0 128 48 128 134v34c-27 -35 -70 -52 -136 -52c-136 0 -200 96 -200 226v66c0 143 76 224 200 224c66 0 109 -21 136 -58zM248 64c92 0 128 68 128 154v66
c0 94 -46 152 -128 152s-128 -57 -128 -152v-66c0 -85 43 -154 128 -154zM212 593v96l96 83v-179h-96z" />
    <glyph glyph-name="Hcircumflex" unicode="&#x124;" horiz-adv-x="638" 
d="M171 690v-294h296v294h86v-690h-86v318h-296v-318h-86v690h86zM273 879h92l138 -142h-97l-87 91l-87 -91h-97z" />
    <glyph glyph-name="hcircumflex" unicode="&#x125;" horiz-adv-x="526" 
d="M65 0v690h80v-239c25 38 60 57 134 57c107 0 182 -56 182 -196v-312h-80v311c0 101 -55 123 -114 123c-75 0 -122 -53 -122 -122v-312h-80zM59 866h92l108 -142h-82l-72 97l-72 -97h-82z" />
    <glyph glyph-name="Hbar" unicode="&#x126;" horiz-adv-x="648" 
d="M176 690v-144h296v144h86v-144h100v-78h-100v-468h-86v318h-296v-318h-86v468h-100v78h100v144h86zM176 396h296v72h-296v-72z" />
    <glyph glyph-name="hbar" unicode="&#x127;" horiz-adv-x="535" 
d="M-20 558v72h94v60h80v-60h165v-72h-165v-107c25 38 60 57 134 57c107 0 182 -56 182 -196v-312h-80v311c0 101 -55 123 -114 123c-75 0 -122 -53 -122 -122v-312h-80v558h-94z" />
    <glyph glyph-name="Imacron" unicode="&#x12a;" horiz-adv-x="276" 
d="M181 690v-690h-86v690h86zM-16 768v72h309v-72h-309z" />
    <glyph glyph-name="imacron" unicode="&#x12b;" horiz-adv-x="230" 
d="M75 0v500h80v-500h-80zM-19 600v72h269v-72h-269z" />
    <glyph glyph-name="Iogonek" unicode="&#x12e;" horiz-adv-x="276" 
d="M181 690v-690c-42 -25 -65 -43 -65 -68c0 -24 21 -28 45 -28c8 0 15 0 21 1l12 -52c-8 -2 -23 -3 -44 -3c-48 0 -104 19 -104 76c0 34 18 61 49 84v680h86z" />
    <glyph glyph-name="iogonek" unicode="&#x12f;" horiz-adv-x="240" 
d="M160 500v-500c-42 -25 -65 -43 -65 -68c0 -24 21 -28 45 -28c8 0 15 1 21 2l12 -53c-8 -2 -23 -3 -44 -3c-48 0 -104 19 -104 76c0 36 20 63 55 87v487h80zM75 600v90h90v-90h-90z" />
    <glyph glyph-name="Idotaccent" unicode="&#x130;" horiz-adv-x="276" 
d="M181 690v-690h-86v690h86zM93 779v90h90v-90h-90z" />
    <glyph glyph-name="dotlessi" unicode="&#x131;" horiz-adv-x="230" 
d="M75 0v500h80v-500h-80z" />
    <glyph glyph-name="Jcircumflex" unicode="&#x134;" horiz-adv-x="505" 
d="M5 78l74 42c22 -29 56 -50 109 -50c98 0 146 56 146 214v406h86v-406c0 -210 -87 -292 -232 -292c-74 0 -145 26 -183 86zM343 879h92l138 -142h-97l-87 91l-87 -91h-97z" />
    <glyph glyph-name="jcircumflex" unicode="&#x135;" horiz-adv-x="235" 
d="M165 500v-536c0 -104 -39 -154 -165 -154v74c82 0 85 46 85 100v516h80zM77 700h92l108 -142h-82l-72 97l-72 -97h-82z" />
    <glyph glyph-name="Kcommaaccent" unicode="&#x136;" horiz-adv-x="638" 
d="M633 0h-103l-232 344l-127 -156v-188h-86v690h86v-371l300 371h111l-227 -277zM366 -64v-96l-96 -83v179h96z" />
    <glyph glyph-name="kcommaaccent" unicode="&#x137;" horiz-adv-x="487" 
d="M347 500h104l-216 -221l247 -279h-104l-202 218l-31 -33v-185h-80v690h80v-394zM300 -64v-96l-96 -83v179h96z" />
    <glyph glyph-name="Lacute" unicode="&#x139;" horiz-adv-x="501" 
d="M171 690v-612h330v-78h-416v690h86zM94 747l80 129h100l-103 -129h-77z" />
    <glyph glyph-name="lacute" unicode="&#x13a;" horiz-adv-x="274" 
d="M65 154v536h80v-516c0 -54 3 -100 85 -100v-74c-126 0 -165 50 -165 154zM67 718l70 158h96l-91 -158h-75z" />
    <glyph glyph-name="Lcommaaccent" unicode="&#x13b;" horiz-adv-x="501" 
d="M171 690v-612h330v-78h-416v690h86zM341 -64v-96l-96 -83v179h96z" />
    <glyph glyph-name="lcommaaccent" unicode="&#x13c;" horiz-adv-x="274" 
d="M65 154v536h80v-516c0 -54 3 -100 85 -100v-74c-126 0 -165 50 -165 154zM202 -64v-96l-96 -83v179h96z" />
    <glyph glyph-name="Lcaron" unicode="&#x13d;" horiz-adv-x="501" 
d="M171 690v-612h330v-78h-416v690h86zM389 740v-185l-86 -74v259h86z" />
    <glyph glyph-name="lcaron" unicode="&#x13e;" horiz-adv-x="288" 
d="M65 154v536h80v-516c0 -54 3 -100 85 -100v-74c-126 0 -165 50 -165 154zM318 690v-96l-96 -83v179h96z" />
    <glyph glyph-name="Ldot" unicode="&#x13f;" horiz-adv-x="501" 
d="M171 690v-612h330v-78h-416v690h86zM333 350v90h90v-90h-90z" />
    <glyph glyph-name="ldot" unicode="&#x140;" horiz-adv-x="316" 
d="M65 154v536h80v-516c0 -54 3 -100 85 -100v-74c-126 0 -165 50 -165 154zM223 344v90h90v-90h-90z" />
    <glyph glyph-name="Lslash" unicode="&#x141;" horiz-adv-x="521" 
d="M191 690v-245l135 108l45 -56l-180 -144v-275h330v-78h-416v284l-70 -56l-45 56l115 92v314h86z" />
    <glyph glyph-name="lslash" unicode="&#x142;" horiz-adv-x="285" 
d="M30 236l-40 60l105 72v322h80v-267l88 61l40 -59l-128 -89v-162c0 -54 3 -100 85 -100v-74c-126 0 -165 50 -165 154v127z" />
    <glyph glyph-name="Nacute" unicode="&#x143;" horiz-adv-x="638" 
d="M467 690h86v-690h-84l-298 522v-522h-86v690h82l300 -527v527zM268 747l80 129h100l-103 -129h-77z" />
    <glyph glyph-name="nacute" unicode="&#x144;" horiz-adv-x="526" 
d="M65 0v500h80v-49c25 38 60 57 134 57c107 0 182 -56 182 -196v-312h-80v311c0 101 -55 123 -114 123c-75 0 -122 -53 -122 -122v-312h-80zM211 567l70 158h96l-91 -158h-75z" />
    <glyph glyph-name="Ncommaaccent" unicode="&#x145;" horiz-adv-x="638" 
d="M467 690h86v-690h-84l-298 522v-522h-86v690h82l300 -527v527zM367 -64v-96l-96 -83v179h96z" />
    <glyph glyph-name="ncommaaccent" unicode="&#x146;" horiz-adv-x="526" 
d="M65 0v500h80v-49c25 38 60 57 134 57c107 0 182 -56 182 -196v-312h-80v311c0 101 -55 123 -114 123c-75 0 -122 -53 -122 -122v-312h-80zM311 -64v-96l-96 -83v179h96z" />
    <glyph glyph-name="Ncaron" unicode="&#x147;" horiz-adv-x="638" 
d="M467 690h86v-690h-84l-298 522v-522h-86v690h82l300 -527v527zM365 737h-92l-138 142h97l87 -91l87 91h97z" />
    <glyph glyph-name="ncaron" unicode="&#x148;" horiz-adv-x="526" 
d="M65 0v500h80v-49c25 38 60 57 134 57c107 0 182 -56 182 -196v-312h-80v311c0 101 -55 123 -114 123c-75 0 -122 -53 -122 -122v-312h-80zM310 558h-92l-108 142h82l72 -97l72 97h82z" />
    <glyph glyph-name="Omacron" unicode="&#x14c;" horiz-adv-x="600" 
d="M550 307c0 -223 -97 -315 -250 -315s-250 92 -250 315v76c0 223 97 315 250 315s250 -92 250 -315v-76zM136 383v-76c0 -171 58 -237 164 -237s164 66 164 237v76c0 171 -58 237 -164 237s-164 -66 -164 -237zM146 768v72h309v-72h-309z" />
    <glyph glyph-name="omacron" unicode="&#x14d;" horiz-adv-x="496" 
d="M456 284v-66c0 -130 -64 -226 -208 -226c-133 0 -208 88 -208 226v66c0 142 77 224 208 224c132 0 208 -81 208 -224zM248 64c85 0 128 69 128 154v66c0 95 -46 152 -128 152s-128 -58 -128 -152v-66c0 -86 36 -154 128 -154zM114 600v72h269v-72h-269z" />
    <glyph glyph-name="Ohungarumlaut" unicode="&#x150;" horiz-adv-x="600" 
d="M550 307c0 -223 -97 -315 -250 -315s-250 92 -250 315v76c0 223 97 315 250 315s250 -92 250 -315v-76zM136 383v-76c0 -171 58 -237 164 -237s164 66 164 237v76c0 171 -58 237 -164 237s-164 -66 -164 -237zM160 747l80 129h100l-103 -129h-77zM330 747l90 129h100
l-113 -129h-77z" />
    <glyph glyph-name="ohungarumlaut" unicode="&#x151;" horiz-adv-x="496" 
d="M456 284v-66c0 -130 -64 -226 -208 -226c-133 0 -208 88 -208 226v66c0 142 77 224 208 224c132 0 208 -81 208 -224zM248 64c85 0 128 69 128 154v66c0 95 -46 152 -128 152s-128 -58 -128 -152v-66c0 -86 36 -154 128 -154zM130 567l70 158h96l-91 -158h-75zM284 567
l90 158h96l-111 -158h-75z" />
    <glyph glyph-name="OE" unicode="&#x152;" horiz-adv-x="920" 
d="M880 690v-78h-330v-216h300v-78h-300v-240h330v-78h-416v64c-35 -50 -89 -72 -164 -72c-153 0 -250 92 -250 315v76c0 223 97 315 250 315c75 0 129 -23 164 -72v64h416zM136 383v-76c0 -171 58 -237 164 -237s164 66 164 237v76c0 171 -58 237 -164 237
s-164 -66 -164 -237z" />
    <glyph glyph-name="oe" unicode="&#x153;" horiz-adv-x="824" 
d="M703 120l62 -44c-35 -61 -88 -84 -175 -84c-85 0 -142 34 -173 95c-28 -59 -81 -95 -169 -95c-133 0 -208 88 -208 226v66c0 142 77 224 208 224c82 0 137 -32 167 -90c27 58 78 90 159 90c132 0 198 -83 198 -226v-52h-316v-12c0 -86 41 -154 128 -154
c65 0 98 19 119 56zM248 64c85 0 128 69 128 154v66c0 95 -46 152 -128 152s-128 -58 -128 -152v-66c0 -86 36 -154 128 -154zM574 436c-77 0 -113 -53 -118 -136h235c-4 84 -41 136 -117 136z" />
    <glyph glyph-name="Racute" unicode="&#x154;" horiz-adv-x="604" 
d="M574 0h-96l-144 291h-163v-291h-86v690h220c159 0 251 -66 251 -200c0 -97 -48 -158 -136 -184zM171 369h134c117 0 165 36 165 121c0 86 -48 122 -165 122h-134v-243zM224 747l80 129h100l-103 -129h-77z" />
    <glyph glyph-name="racute" unicode="&#x155;" horiz-adv-x="394" 
d="M404 440l-68 -48c-21 29 -47 42 -84 42c-61 0 -107 -46 -107 -121v-313h-80v500h80v-49c21 35 55 57 116 57c68 0 111 -23 143 -68zM148 567l70 158h96l-91 -158h-75z" />
    <glyph glyph-name="Rcommaaccent" unicode="&#x156;" horiz-adv-x="604" 
d="M574 0h-96l-144 291h-163v-291h-86v690h220c159 0 251 -66 251 -200c0 -97 -48 -158 -136 -184zM171 369h134c117 0 165 36 165 121c0 86 -48 122 -165 122h-134v-243zM343 -64v-96l-96 -83v179h96z" />
    <glyph glyph-name="rcommaaccent" unicode="&#x157;" horiz-adv-x="394" 
d="M404 440l-68 -48c-21 29 -47 42 -84 42c-61 0 -107 -46 -107 -121v-313h-80v500h80v-49c21 35 55 57 116 57c68 0 111 -23 143 -68zM156 -64v-96l-96 -83v179h96z" />
    <glyph glyph-name="Rcaron" unicode="&#x158;" horiz-adv-x="604" 
d="M574 0h-96l-144 291h-163v-291h-86v690h220c159 0 251 -66 251 -200c0 -97 -48 -158 -136 -184zM171 369h134c117 0 165 36 165 121c0 86 -48 122 -165 122h-134v-243zM346 737h-92l-138 142h97l87 -91l87 91h97z" />
    <glyph glyph-name="rcaron" unicode="&#x159;" horiz-adv-x="394" 
d="M404 440l-68 -48c-21 29 -47 42 -84 42c-61 0 -107 -46 -107 -121v-313h-80v500h80v-49c21 35 55 57 116 57c68 0 111 -23 143 -68zM277 558h-92l-108 142h82l72 -97l72 97h82z" />
    <glyph glyph-name="Sacute" unicode="&#x15a;" horiz-adv-x="571" 
d="M511 585l-67 -48c-37 48 -77 83 -164 83c-80 0 -134 -36 -134 -108c0 -82 62 -110 163 -128c133 -23 214 -71 214 -199c0 -90 -60 -193 -232 -193c-112 0 -194 38 -246 113l71 49c45 -53 85 -84 175 -84c113 0 146 52 146 111c0 65 -33 109 -163 129s-214 82 -214 202
c0 99 65 186 223 186c110 0 179 -37 228 -113zM224 747l80 129h100l-103 -129h-77z" />
    <glyph glyph-name="sacute" unicode="&#x15b;" horiz-adv-x="466" 
d="M406 425l-60 -42c-27 35 -55 51 -124 51c-59 0 -97 -23 -97 -67c0 -57 50 -74 116 -79c94 -7 180 -34 180 -149c0 -87 -59 -147 -188 -147c-102 0 -155 31 -193 83l59 42c27 -36 63 -51 135 -51c67 0 107 26 107 71c0 54 -32 73 -129 80c-84 6 -167 40 -167 149
c0 83 60 142 179 142c81 0 143 -21 182 -83zM172 567l70 158h96l-91 -158h-75z" />
    <glyph glyph-name="Scircumflex" unicode="&#x15c;" horiz-adv-x="571" 
d="M511 585l-67 -48c-37 48 -77 83 -164 83c-80 0 -134 -36 -134 -108c0 -82 62 -110 163 -128c133 -23 214 -71 214 -199c0 -90 -60 -193 -232 -193c-112 0 -194 38 -246 113l71 49c45 -53 85 -84 175 -84c113 0 146 52 146 111c0 65 -33 109 -163 129s-214 82 -214 202
c0 99 65 186 223 186c110 0 179 -37 228 -113zM242 879h92l138 -142h-97l-87 91l-87 -91h-97z" />
    <glyph glyph-name="scircumflex" unicode="&#x15d;" horiz-adv-x="466" 
d="M406 425l-60 -42c-27 35 -55 51 -124 51c-59 0 -97 -23 -97 -67c0 -57 50 -74 116 -79c94 -7 180 -34 180 -149c0 -87 -59 -147 -188 -147c-102 0 -155 31 -193 83l59 42c27 -36 63 -51 135 -51c67 0 107 26 107 71c0 54 -32 73 -129 80c-84 6 -167 40 -167 149
c0 83 60 142 179 142c81 0 143 -21 182 -83zM184 700h92l108 -142h-82l-72 97l-72 -97h-82z" />
    <glyph glyph-name="Scedilla" unicode="&#x15e;" horiz-adv-x="571" 
d="M248 -69l12 62c-96 7 -168 44 -215 112l71 49c45 -53 85 -84 175 -84c113 0 146 52 146 111c0 65 -33 109 -163 129s-214 82 -214 202c0 99 65 186 223 186c110 0 179 -37 228 -113l-67 -48c-37 48 -77 83 -164 83c-80 0 -134 -36 -134 -108c0 -82 62 -110 163 -128
c133 -23 214 -71 214 -199c0 -86 -55 -183 -208 -192l-4 -16c37 -10 62 -34 62 -74c0 -54 -48 -82 -111 -82c-14 0 -29 1 -37 3l12 52c6 -1 12 -1 19 -1c21 0 47 4 47 28c0 25 -30 28 -55 28z" />
    <glyph glyph-name="scedilla" unicode="&#x15f;" horiz-adv-x="466" 
d="M197 -69l13 62c-87 4 -135 34 -170 82l59 42c27 -36 63 -51 135 -51c67 0 107 26 107 71c0 54 -32 73 -129 80c-84 6 -167 40 -167 149c0 83 60 142 179 142c81 0 143 -21 182 -83l-60 -42c-27 35 -55 51 -124 51c-59 0 -97 -23 -97 -67c0 -57 50 -74 116 -79
c94 -7 180 -34 180 -149c0 -80 -49 -137 -156 -145l-5 -17c37 -10 62 -34 62 -74c0 -54 -48 -82 -111 -82c-14 0 -29 1 -37 3l12 52c6 -1 12 -1 19 -1c21 0 47 4 47 28c0 25 -30 28 -55 28z" />
    <glyph glyph-name="Scaron" unicode="&#x160;" horiz-adv-x="571" 
d="M511 585l-67 -48c-37 48 -77 83 -164 83c-80 0 -134 -36 -134 -108c0 -82 62 -110 163 -128c133 -23 214 -71 214 -199c0 -90 -60 -193 -232 -193c-112 0 -194 38 -246 113l71 49c45 -53 85 -84 175 -84c113 0 146 52 146 111c0 65 -33 109 -163 129s-214 82 -214 202
c0 99 65 186 223 186c110 0 179 -37 228 -113zM325 737h-92l-138 142h97l87 -91l87 91h97z" />
    <glyph glyph-name="scaron" unicode="&#x161;" horiz-adv-x="466" 
d="M406 425l-60 -42c-27 35 -55 51 -124 51c-59 0 -97 -23 -97 -67c0 -57 50 -74 116 -79c94 -7 180 -34 180 -149c0 -87 -59 -147 -188 -147c-102 0 -155 31 -193 83l59 42c27 -36 63 -51 135 -51c67 0 107 26 107 71c0 54 -32 73 -129 80c-84 6 -167 40 -167 149
c0 83 60 142 179 142c81 0 143 -21 182 -83zM278 558h-92l-108 142h82l72 -97l72 97h82z" />
    <glyph glyph-name="Tcedilla" unicode="&#x162;" horiz-adv-x="516" 
d="M217 -69l14 69h-16v612h-210v78h506v-78h-210v-612h-15l-6 -23c37 -10 62 -34 62 -74c0 -54 -48 -82 -111 -82c-14 0 -29 1 -37 3l12 52c6 -1 12 -1 19 -1c21 0 47 4 47 28c0 25 -30 28 -55 28z" />
    <glyph glyph-name="tcedilla" unicode="&#x163;" horiz-adv-x="315" 
d="M158 -69l15 76c-67 17 -88 65 -88 147v274h-64v72h64v110h80v-110h115v-72h-115v-254c0 -69 8 -98 75 -98h40v-76h-53l-6 -23c37 -10 62 -34 62 -74c0 -54 -48 -82 -111 -82c-14 0 -29 1 -37 3l12 52c6 -1 12 -1 19 -1c21 0 47 4 47 28c0 25 -30 28 -55 28z" />
    <glyph glyph-name="Tcaron" unicode="&#x164;" horiz-adv-x="516" 
d="M5 690h506v-78h-210v-612h-86v612h-210v78zM304 737h-92l-138 142h97l87 -91l87 91h97z" />
    <glyph glyph-name="tcaron" unicode="&#x165;" horiz-adv-x="371" 
d="M21 428v72h64v110h80v-110h115v-72h-115v-254c0 -69 8 -98 75 -98h40v-76h-43c-118 0 -152 50 -152 154v274h-64zM391 690v-96l-96 -83v179h96z" />
    <glyph glyph-name="Umacron" unicode="&#x16a;" horiz-adv-x="670" 
d="M499 690h86v-409c0 -204 -97 -289 -250 -289s-250 85 -250 288v410h86v-410c0 -151 58 -210 164 -210s164 59 164 210v410zM180 768v72h309v-72h-309z" />
    <glyph glyph-name="umacron" unicode="&#x16b;" horiz-adv-x="526" 
d="M461 500v-500h-80v49c-25 -38 -60 -57 -134 -57c-107 0 -182 56 -182 196v312h80v-311c0 -101 55 -123 114 -123c75 0 122 53 122 122v312h80zM129 600v72h269v-72h-269z" />
    <glyph glyph-name="Ubreve" unicode="&#x16c;" horiz-adv-x="670" 
d="M499 690h86v-409c0 -204 -97 -289 -250 -289s-250 85 -250 288v410h86v-410c0 -151 58 -210 164 -210s164 59 164 210v410zM442 880h78c0 -100 -74 -152 -184 -152s-185 52 -185 152h78c4 -40 31 -74 107 -74s102 34 106 74z" />
    <glyph glyph-name="ubreve" unicode="&#x16d;" horiz-adv-x="526" 
d="M461 500v-500h-80v49c-25 -38 -60 -57 -134 -57c-107 0 -182 56 -182 196v312h80v-311c0 -101 55 -123 114 -123c75 0 122 53 122 122v312h80zM334 690h65c-3 -78 -52 -118 -136 -118s-133 40 -136 118h66c4 -39 22 -60 70 -60s67 21 71 60z" />
    <glyph glyph-name="Uring" unicode="&#x16e;" horiz-adv-x="670" 
d="M499 690h86v-409c0 -204 -97 -289 -250 -289s-250 85 -250 288v410h86v-410c0 -151 58 -210 164 -210s164 59 164 210v410zM226 800c0 61 49 99 109 99c61 0 110 -38 110 -99c0 -60 -49 -98 -110 -98c-60 0 -109 38 -109 98zM278 800c0 -31 26 -47 57 -47
c32 0 57 16 57 47c0 32 -25 47 -57 47c-31 0 -57 -15 -57 -47z" />
    <glyph glyph-name="uring" unicode="&#x16f;" horiz-adv-x="526" 
d="M461 500v-500h-80v49c-25 -38 -60 -57 -134 -57c-107 0 -182 56 -182 196v312h80v-311c0 -101 55 -123 114 -123c75 0 122 53 122 122v312h80zM155 646c0 61 49 110 109 110c61 0 110 -49 110 -110c0 -60 -49 -109 -110 -109c-60 0 -109 49 -109 109zM207 646
c0 -31 26 -57 57 -57c32 0 57 26 57 57c0 32 -25 57 -57 57c-31 0 -57 -25 -57 -57z" />
    <glyph glyph-name="Uhungarumlaut" unicode="&#x170;" horiz-adv-x="670" 
d="M499 690h86v-409c0 -204 -97 -289 -250 -289s-250 85 -250 288v410h86v-410c0 -151 58 -210 164 -210s164 59 164 210v410zM203 747l80 129h100l-103 -129h-77zM373 747l90 129h100l-113 -129h-77z" />
    <glyph glyph-name="uhungarumlaut" unicode="&#x171;" horiz-adv-x="526" 
d="M461 500v-500h-80v49c-25 -38 -60 -57 -134 -57c-107 0 -182 56 -182 196v312h80v-311c0 -101 55 -123 114 -123c75 0 122 53 122 122v312h80zM145 567l70 158h96l-91 -158h-75zM299 567l90 158h96l-111 -158h-75z" />
    <glyph glyph-name="Uogonek" unicode="&#x172;" horiz-adv-x="670" 
d="M499 690h86v-409c0 -181 -77 -268 -201 -285c-36 -22 -55 -40 -55 -63c0 -24 21 -28 45 -28c8 0 15 0 21 1l12 -52c-8 -2 -23 -3 -44 -3c-48 0 -104 19 -104 76c0 27 11 48 30 68c-126 15 -204 103 -204 285v410h86v-410c0 -151 58 -210 164 -210s164 59 164 210v410z
" />
    <glyph glyph-name="uogonek" unicode="&#x173;" horiz-adv-x="526" 
d="M461 500v-500c-42 -25 -65 -43 -65 -68c0 -24 21 -28 45 -28c8 0 15 1 21 2l12 -53c-8 -2 -23 -3 -44 -3c-48 0 -104 19 -104 76c0 36 20 63 55 87v36c-25 -38 -60 -57 -134 -57c-107 0 -182 56 -182 196v312h80v-311c0 -101 55 -123 114 -123c75 0 122 53 122 122v312
h80z" />
    <glyph glyph-name="Ydieresis" unicode="&#x178;" horiz-adv-x="556" 
d="M20 690h101l157 -300l157 300h101l-215 -394v-296h-86v296zM128 779v90h90v-90h-90zM338 779v90h90v-90h-90z" />
    <glyph glyph-name="Zacute" unicode="&#x179;" horiz-adv-x="519" 
d="M30 690h449v-58l-338 -554h348v-78h-459v58l337 554h-337v78zM202 747l80 129h100l-103 -129h-77z" />
    <glyph glyph-name="zacute" unicode="&#x17a;" horiz-adv-x="450" 
d="M41 62l264 366h-264v72h369v-62l-262 -366h262v-72h-369v62zM183 567l70 158h96l-91 -158h-75z" />
    <glyph glyph-name="Zdotaccent" unicode="&#x17b;" horiz-adv-x="519" 
d="M30 690h449v-58l-338 -554h348v-78h-459v58l337 554h-337v78zM213 779v90h90v-90h-90z" />
    <glyph glyph-name="zdotaccent" unicode="&#x17c;" horiz-adv-x="450" 
d="M41 62l264 366h-264v72h369v-62l-262 -366h262v-72h-369v62zM186 600v90h90v-90h-90z" />
    <glyph glyph-name="Zcaron" unicode="&#x17d;" horiz-adv-x="519" 
d="M30 690h449v-58l-338 -554h348v-78h-459v58l337 554h-337v78zM316 737h-92l-138 142h97l87 -91l87 91h97z" />
    <glyph glyph-name="zcaron" unicode="&#x17e;" horiz-adv-x="450" 
d="M41 62l264 366h-264v72h369v-62l-262 -366h262v-72h-369v62zM280 558h-92l-108 142h82l72 -97l72 97h82z" />
    <glyph glyph-name="uni018F" unicode="&#x18f;" horiz-adv-x="604" 
d="M50 307v40h418v36c0 171 -58 237 -164 237c-88 0 -142 -42 -164 -145h-84c22 152 114 223 248 223c153 0 250 -92 250 -315v-76c0 -223 -97 -315 -250 -315s-254 92 -254 315zM304 70c97 0 154 56 163 199h-330c9 -143 69 -199 167 -199z" />
    <glyph glyph-name="florin" unicode="&#x192;" 
d="M137 500h64v36c0 104 34 154 152 154h23v-78h-20c-67 0 -72 -27 -72 -96v-16h92v-78h-92v-458c0 -104 -42 -154 -168 -154v78c82 0 85 42 85 96v438h-64v78z" />
    <glyph glyph-name="uni01DD" unicode="&#x1dd;" horiz-adv-x="488" 
d="M121 380l-62 44c35 61 88 84 175 84c134 0 214 -87 214 -226v-66c0 -142 -67 -224 -198 -224c-132 0 -198 81 -198 224v52h316v14c0 86 -41 154 -128 154c-65 0 -98 -19 -119 -56zM250 64c77 0 113 51 118 134h-235c4 -84 41 -134 117 -134z" />
    <glyph glyph-name="Scommaaccent" unicode="&#x218;" horiz-adv-x="571" 
d="M511 585l-67 -48c-37 48 -77 83 -164 83c-80 0 -134 -36 -134 -108c0 -82 62 -110 163 -128c133 -23 214 -71 214 -199c0 -90 -60 -193 -232 -193c-112 0 -194 38 -246 113l71 49c45 -53 85 -84 175 -84c113 0 146 52 146 111c0 65 -33 109 -163 129s-214 82 -214 202
c0 99 65 186 223 186c110 0 179 -37 228 -113zM349 -64v-96l-96 -83v179h96z" />
    <glyph glyph-name="scommaaccent" unicode="&#x219;" horiz-adv-x="466" 
d="M406 425l-60 -42c-27 35 -55 51 -124 51c-59 0 -97 -23 -97 -67c0 -57 50 -74 116 -79c94 -7 180 -34 180 -149c0 -87 -59 -147 -188 -147c-102 0 -155 31 -193 83l59 42c27 -36 63 -51 135 -51c67 0 107 26 107 71c0 54 -32 73 -129 80c-84 6 -167 40 -167 149
c0 83 60 142 179 142c81 0 143 -21 182 -83zM283 -64v-96l-96 -83v179h96z" />
    <glyph glyph-name="Tcommaaccent" unicode="&#x162;" horiz-adv-x="516" 
d="M5 690h506v-78h-210v-612h-86v612h-210v78zM306 -64v-96l-96 -83v179h96z" />
    <glyph glyph-name="tcommaaccent" unicode="&#x163;" horiz-adv-x="315" 
d="M21 428v72h64v110h80v-110h115v-72h-115v-254c0 -69 8 -98 75 -98h40v-76h-43c-118 0 -152 50 -152 154v274h-64zM233 -64v-96l-96 -83v179h96z" />
    <glyph glyph-name="uni0237" unicode="&#x237;" horiz-adv-x="235" 
d="M165 500v-536c0 -104 -39 -154 -165 -154v74c82 0 85 46 85 100v516h80z" />
    <glyph glyph-name="uni0259" unicode="&#x259;" horiz-adv-x="488" 
d="M121 380l-62 44c35 61 88 84 175 84c134 0 214 -87 214 -226v-66c0 -142 -67 -224 -198 -224c-132 0 -198 81 -198 224v52h316v14c0 86 -41 154 -128 154c-65 0 -98 -19 -119 -56zM250 64c77 0 113 51 118 134h-235c4 -84 41 -134 117 -134z" />
    <glyph glyph-name="afii57929" unicode="&#x2bc;" horiz-adv-x="151" 
d="M131 500v-146l-96 -83v229h96z" />
    <glyph glyph-name="circumflex" unicode="&#x2c6;" horiz-adv-x="407" 
d="M157 700h92l108 -142h-82l-72 97l-72 -97h-82z" />
    <glyph glyph-name="caron" unicode="&#x2c7;" horiz-adv-x="407" 
d="M249 558h-92l-108 142h82l72 -97l72 97h82z" />
    <glyph glyph-name="breve" unicode="&#x2d8;" horiz-adv-x="399" 
d="M270 690h65c-3 -78 -52 -118 -136 -118s-133 40 -136 118h66c4 -39 22 -60 70 -60s67 21 71 60z" />
    <glyph glyph-name="dotaccent" unicode="&#x2d9;" horiz-adv-x="299" 
d="M104 600v90h90v-90h-90z" />
    <glyph glyph-name="ring" unicode="&#x2da;" horiz-adv-x="373" 
d="M77 646c0 61 49 110 109 110c61 0 110 -49 110 -110c0 -60 -49 -109 -110 -109c-60 0 -109 49 -109 109zM129 646c0 -31 26 -57 57 -57c32 0 57 26 57 57c0 32 -25 57 -57 57c-31 0 -57 -25 -57 -57z" />
    <glyph glyph-name="ogonek" unicode="&#x2db;" horiz-adv-x="333" 
d="M216 52l11 -52c-42 -25 -65 -43 -65 -68c0 -24 21 -28 45 -28c8 0 15 1 21 2l12 -53c-8 -2 -23 -3 -44 -3c-48 0 -104 19 -104 76c0 56 48 90 124 126z" />
    <glyph glyph-name="tilde" unicode="&#x2dc;" horiz-adv-x="420" 
d="M268 589c-44 0 -74 27 -115 27c-21 0 -43 -10 -59 -26l-47 44c27 31 65 50 106 50c43 0 73 -27 116 -27c19 0 41 10 57 26l47 -44c-27 -31 -65 -50 -105 -50z" />
    <glyph glyph-name="hungarumlaut" unicode="&#x2dd;" horiz-adv-x="453" 
d="M56 567l70 158h96l-91 -158h-75zM210 567l90 158h96l-111 -158h-75z" />
    <glyph glyph-name="acutecomb" unicode="&#x301;" horiz-adv-x="0" 
d="M-301 567l70 158h96l-91 -158h-75z" />
    <glyph glyph-name="uni0394" unicode="&#x394;" horiz-adv-x="531" 
d="M511 0h-491l195 690h100zM398 78l-133 497l-133 -497h266z" />
    <glyph glyph-name="uni03A9" unicode="&#x3a9;" horiz-adv-x="620" 
d="M486 78h74v-78h-184v78c49 30 98 73 98 231v74c0 171 -58 237 -164 237s-164 -66 -164 -237v-74c0 -158 49 -201 98 -231v-78h-184v78h74c-49 50 -74 116 -74 231v74c0 223 97 315 250 315s250 -92 250 -315v-74c0 -115 -25 -181 -74 -231z" />
    <glyph glyph-name="pi" unicode="&#x3c0;" horiz-adv-x="581" 
d="M391 154v274h-236v-428h-80v428h-85v72h566v-72h-85v-254c0 -54 3 -100 85 -100v-74c-126 0 -165 50 -165 154z" />
    <glyph glyph-name="afii10023" unicode="&#x401;" horiz-adv-x="541" 
d="M85 690h416v-78h-330v-216h300v-78h-300v-240h330v-78h-416v690zM139 779v90h90v-90h-90zM349 779v90h90v-90h-90z" />
    <glyph glyph-name="afii10051" unicode="&#x402;" horiz-adv-x="727" 
d="M5 690h506v-78h-210v-227c20 18 77 47 154 47c171 0 228 -76 228 -238v-27c0 -164 -96 -167 -161 -167h-31v78h31c58 0 75 36 75 93v23c0 122 -51 160 -156 160c-68 0 -117 -26 -140 -61v-293h-86v612h-210v78z" />
    <glyph glyph-name="afii10052" unicode="&#x403;" horiz-adv-x="481" 
d="M481 690v-78h-310v-612h-86v690h396zM236 747l80 129h100l-103 -129h-77z" />
    <glyph glyph-name="afii10053" unicode="&#x404;" horiz-adv-x="578" 
d="M548 475h-84c-24 108 -79 145 -164 145c-106 0 -164 -66 -164 -234h261v-78h-261c0 -172 58 -238 164 -238c90 0 141 44 164 145h83c-22 -155 -116 -223 -247 -223c-153 0 -250 92 -250 315v76c0 223 97 315 250 315c136 0 226 -72 248 -223z" />
    <glyph glyph-name="afii10054" unicode="&#x405;" horiz-adv-x="571" 
d="M511 585l-67 -48c-37 48 -77 83 -164 83c-80 0 -134 -36 -134 -108c0 -82 62 -110 163 -128c133 -23 214 -71 214 -199c0 -90 -60 -193 -232 -193c-112 0 -194 38 -246 113l71 49c45 -53 85 -84 175 -84c113 0 146 52 146 111c0 65 -33 109 -163 129s-214 82 -214 202
c0 99 65 186 223 186c110 0 179 -37 228 -113z" />
    <glyph glyph-name="afii10055" unicode="&#x406;" horiz-adv-x="276" 
d="M181 690v-690h-86v690h86zM94 779v90h90v-90h-90z" />
    <glyph glyph-name="afii10056" unicode="&#x407;" horiz-adv-x="276" 
d="M181 690v-690h-86v690h86zM-12 779v90h90v-90h-90zM198 779v90h90v-90h-90z" />
    <glyph glyph-name="afii10057" unicode="&#x408;" horiz-adv-x="505" 
d="M5 78l74 42c22 -29 56 -50 109 -50c98 0 146 56 146 214v406h86v-406c0 -210 -87 -292 -232 -292c-74 0 -145 26 -183 86z" />
    <glyph glyph-name="afii10058" unicode="&#x409;" horiz-adv-x="983" 
d="M144 690h414v-273h147c177 0 238 -109 238 -209s-61 -208 -238 -208h-233v612h-242v-82c0 -222 -10 -338 -36 -404c-31 -82 -86 -113 -174 -134v97c40 9 75 27 94 78c21 58 30 159 30 363v160zM705 339h-147v-261h147c104 0 152 55 152 130s-48 131 -152 131z" />
    <glyph glyph-name="afii10059" unicode="&#x40a;" horiz-adv-x="978" 
d="M171 690v-294h296v294h86v-273h147c177 0 238 -109 238 -209s-61 -208 -238 -208h-233v318h-296v-318h-86v690h86zM700 339h-147v-261h147c104 0 152 55 152 130s-48 131 -152 131z" />
    <glyph glyph-name="afii10060" unicode="&#x40b;" horiz-adv-x="727" 
d="M597 0v194c0 122 -51 160 -156 160c-68 0 -117 -26 -140 -61v-293h-86v612h-210v78h506v-78h-210v-227c20 18 77 47 154 47c171 0 228 -76 228 -238v-194h-86z" />
    <glyph glyph-name="afii10061" unicode="&#x40c;" horiz-adv-x="603" 
d="M593 0h-105l-220 308h-97v-308h-86v690h86v-304h95l190 304h96l-210 -340zM245 747l80 129h100l-103 -129h-77z" />
    <glyph glyph-name="afii10062" unicode="&#x40e;" horiz-adv-x="582" 
d="M478 690h90l-235 -574c-39 -95 -80 -124 -198 -124v79c69 0 96 7 124 76l3 8l-237 535h94l187 -427zM391 879h81c0 -100 -64 -142 -174 -142s-175 42 -175 142h82c0 -40 17 -80 93 -80s93 40 93 80z" />
    <glyph glyph-name="afii10145" unicode="&#x40f;" horiz-adv-x="638" 
d="M362 -130h-86v130h-191v690h86v-612h296v612h86v-690h-191v-130z" />
    <glyph glyph-name="afii10017" unicode="&#x410;" horiz-adv-x="580" 
d="M101 0h-91l240 690h80l240 -690h-91l-53 158h-272zM290 560l-109 -324h218z" />
    <glyph glyph-name="afii10018" unicode="&#x411;" horiz-adv-x="596" 
d="M512 690v-78h-341v-195h147c177 0 238 -109 238 -209s-61 -208 -238 -208h-233v690h427zM318 339h-147v-261h147c104 0 152 55 152 130s-48 131 -152 131z" />
    <glyph glyph-name="afii10019" unicode="&#x412;" horiz-adv-x="596" 
d="M85 690h211c161 0 238 -61 238 -176c0 -72 -47 -138 -114 -154c87 -16 136 -74 136 -162c0 -100 -61 -198 -238 -198h-233v690zM171 319v-241h147c104 0 152 45 152 120c0 83 -54 121 -168 121h-131zM171 613v-216h140c97 0 137 49 137 117c0 61 -31 99 -152 99h-125z
" />
    <glyph glyph-name="afii10020" unicode="&#x413;" horiz-adv-x="481" 
d="M481 690v-78h-310v-612h-86v690h396z" />
    <glyph glyph-name="afii10021" unicode="&#x414;" horiz-adv-x="666" 
d="M96 -130h-86v208h30c31 18 58 71 73 119c21 67 33 181 33 335v158h414v-612h86v-208h-86v130h-464v-130zM190 156c-10 -31 -23 -57 -40 -78h324v534h-242v-80c0 -179 -16 -299 -42 -376z" />
    <glyph glyph-name="afii10022" unicode="&#x415;" horiz-adv-x="541" 
d="M85 690h416v-78h-330v-216h300v-78h-300v-240h330v-78h-416v690z" />
    <glyph glyph-name="afii10024" unicode="&#x416;" horiz-adv-x="868" 
d="M113 0h-103l212 349l-171 341h94l150 -304h96v304h86v-304h95l151 304h94l-172 -341l213 -349h-103l-187 308h-91v-308h-86v308h-91z" />
    <glyph glyph-name="afii10025" unicode="&#x417;" horiz-adv-x="558" 
d="M211 319v78h62c97 0 137 50 137 118c0 61 -36 106 -124 106c-82 0 -129 -33 -153 -107h-80c16 117 122 184 228 184c138 0 215 -68 215 -183c0 -72 -40 -124 -114 -152c80 -19 136 -85 136 -166c0 -100 -61 -205 -229 -205c-132 0 -216 61 -248 196h85
c32 -79 71 -118 163 -118c95 0 143 52 143 127c0 77 -54 122 -168 122h-53z" />
    <glyph glyph-name="afii10026" unicode="&#x418;" horiz-adv-x="656" 
d="M85 690h86v-519l328 519h72v-690h-86v514l-326 -514h-74v690z" />
    <glyph glyph-name="afii10027" unicode="&#x419;" horiz-adv-x="656" 
d="M85 690h86v-519l328 519h72v-690h-86v514l-326 -514h-74v690zM432 879h81c0 -100 -64 -142 -174 -142s-175 42 -175 142h82c0 -40 17 -80 93 -80s93 40 93 80z" />
    <glyph glyph-name="afii10028" unicode="&#x41a;" horiz-adv-x="603" 
d="M593 0h-105l-220 308h-97v-308h-86v690h86v-304h95l190 304h96l-210 -340z" />
    <glyph glyph-name="afii10029" unicode="&#x41b;" horiz-adv-x="643" 
d="M144 690h414v-690h-86v612h-242v-82c0 -222 -10 -338 -36 -404c-31 -82 -86 -113 -174 -134v97c40 9 75 27 94 78c21 58 30 159 30 363v160z" />
    <glyph glyph-name="afii10030" unicode="&#x41c;" horiz-adv-x="752" 
d="M169 690l207 -430l206 430h85v-690h-86v506l-168 -362h-77l-165 359v-503h-86v690h84z" />
    <glyph glyph-name="afii10031" unicode="&#x41d;" horiz-adv-x="638" 
d="M171 690v-294h296v294h86v-690h-86v318h-296v-318h-86v690h86z" />
    <glyph glyph-name="afii10032" unicode="&#x41e;" horiz-adv-x="600" 
d="M550 307c0 -223 -97 -315 -250 -315s-250 92 -250 315v76c0 223 97 315 250 315s250 -92 250 -315v-76zM136 383v-76c0 -171 58 -237 164 -237s164 66 164 237v76c0 171 -58 237 -164 237s-164 -66 -164 -237z" />
    <glyph glyph-name="afii10033" unicode="&#x41f;" horiz-adv-x="638" 
d="M85 690h468v-690h-86v612h-296v-612h-86v690z" />
    <glyph glyph-name="afii10034" unicode="&#x420;" horiz-adv-x="588" 
d="M305 263h-134v-263h-86v690h220c159 0 251 -80 251 -214c0 -133 -91 -213 -251 -213zM171 341h134c117 0 165 50 165 135c0 86 -48 136 -165 136h-134v-271z" />
    <glyph glyph-name="afii10035" unicode="&#x421;" horiz-adv-x="578" 
d="M548 475h-84c-24 108 -79 145 -164 145c-106 0 -164 -66 -164 -237v-76c0 -171 58 -237 164 -237c90 0 141 44 164 145h83c-22 -155 -116 -223 -247 -223c-153 0 -250 92 -250 315v76c0 223 97 315 250 315c136 0 226 -72 248 -223z" />
    <glyph glyph-name="afii10036" unicode="&#x422;" horiz-adv-x="516" 
d="M5 690h506v-78h-210v-612h-86v612h-210v78z" />
    <glyph glyph-name="afii10037" unicode="&#x423;" horiz-adv-x="582" 
d="M478 690h90l-235 -574c-39 -95 -80 -124 -198 -124v79c69 0 96 7 124 76l3 8l-237 535h94l187 -427z" />
    <glyph glyph-name="afii10038" unicode="&#x424;" horiz-adv-x="746" 
d="M330 636v54h86v-54c153 0 280 -62 280 -275v-32c0 -213 -127 -275 -280 -275v-54h-86v54c-153 0 -280 62 -280 275v32c0 213 127 275 280 275zM416 558v-426c106 0 194 36 194 197v32c0 161 -88 197 -194 197zM330 132v426c-106 0 -194 -36 -194 -197v-32
c0 -161 88 -197 194 -197z" />
    <glyph glyph-name="afii10039" unicode="&#x425;" horiz-adv-x="552" 
d="M115 0h-95l206 356l-185 334h95l140 -256l140 256h95l-186 -334l207 -356h-95l-161 271z" />
    <glyph glyph-name="afii10040" unicode="&#x426;" horiz-adv-x="649" 
d="M171 690v-612h296v612h86v-612h86v-208h-86v130h-468v690h86z" />
    <glyph glyph-name="afii10041" unicode="&#x427;" horiz-adv-x="588" 
d="M121 690v-194c0 -122 41 -160 156 -160c81 0 120 20 140 61v293h86v-690h-86v299c-21 -21 -65 -41 -154 -41c-181 0 -228 76 -228 238v194h86z" />
    <glyph glyph-name="afii10042" unicode="&#x428;" horiz-adv-x="860" 
d="M171 690v-612h216v612h86v-612h216v612h86v-690h-690v690h86z" />
    <glyph glyph-name="afii10043" unicode="&#x429;" horiz-adv-x="871" 
d="M171 690v-612h216v612h86v-612h216v612h86v-612h86v-208h-86v130h-690v690h86z" />
    <glyph glyph-name="afii10044" unicode="&#x42a;" horiz-adv-x="644" 
d="M-20 690h239v-273h147c177 0 238 -109 238 -209s-61 -208 -238 -208h-233v612h-153v78zM366 339h-147v-261h147c104 0 152 55 152 130s-48 131 -152 131z" />
    <glyph glyph-name="afii10045" unicode="&#x42b;" horiz-adv-x="776" 
d="M85 690h86v-273h117c177 0 238 -109 238 -209s-61 -208 -238 -208h-203v690zM288 339h-117v-261h117c104 0 152 55 152 130s-48 131 -152 131zM691 690v-690h-86v690h86z" />
    <glyph glyph-name="afii10046" unicode="&#x42c;" horiz-adv-x="596" 
d="M85 690h86v-273h147c177 0 238 -109 238 -209s-61 -208 -238 -208h-233v690zM318 339h-147v-261h147c104 0 152 55 152 130s-48 131 -152 131z" />
    <glyph glyph-name="afii10047" unicode="&#x42d;" horiz-adv-x="578" 
d="M181 308v78h261c-1 168 -59 234 -164 234c-85 0 -140 -37 -164 -145h-84c22 151 112 223 248 223c153 0 250 -92 250 -315v-76c0 -223 -97 -315 -250 -315c-131 0 -225 68 -247 223h83c23 -101 74 -145 164 -145c106 0 164 66 164 238h-261z" />
    <glyph glyph-name="afii10048" unicode="&#x42e;" horiz-adv-x="788" 
d="M738 307c0 -223 -87 -315 -230 -315s-230 92 -230 315v11h-107v-318h-86v690h86v-294h107c3 213 90 302 230 302c143 0 230 -92 230 -315v-76zM364 383v-76c0 -171 48 -237 144 -237s144 66 144 237v76c0 171 -48 237 -144 237s-144 -66 -144 -237z" />
    <glyph glyph-name="afii10049" unicode="&#x42f;" horiz-adv-x="604" 
d="M116 0h-96l178 302c-97 23 -150 86 -150 188c0 134 92 200 251 200h220v-690h-86v291h-147zM299 369h134v243h-134c-117 0 -165 -36 -165 -122c0 -85 48 -121 165 -121z" />
    <glyph glyph-name="afii10065" unicode="&#x430;" horiz-adv-x="491" 
d="M40 146c0 108 77 143 187 143h119v58c0 71 -33 87 -111 87c-60 0 -92 -5 -120 -51l-60 42c35 58 86 83 181 83c127 0 190 -41 190 -161v-347h-80v49c-28 -46 -62 -57 -127 -57c-116 0 -179 57 -179 154zM346 192v29h-119c-79 0 -107 -27 -107 -77c0 -56 40 -78 99 -78
c74 0 127 14 127 126z" />
    <glyph glyph-name="afii10066" unicode="&#x431;" horiz-adv-x="497" 
d="M398 722l45 -57c-17 -30 -42 -41 -87 -45l-95 -7c-58 -4 -90 -25 -111 -65c-10 -20 -19 -55 -24 -99c30 37 73 59 131 59c123 0 199 -81 199 -224v-66c0 -130 -64 -226 -208 -226c-133 0 -208 88 -208 226v64c0 125 13 246 44 308c26 52 75 92 162 99l99 8
c31 3 41 12 53 25zM248 64c85 0 128 69 128 154v66c0 95 -46 152 -128 152s-128 -58 -128 -152v-66c0 -86 36 -154 128 -154z" />
    <glyph glyph-name="afii10067" unicode="&#x432;" horiz-adv-x="492" 
d="M65 500h185c108 0 178 -44 178 -130c0 -45 -28 -81 -64 -98c51 -16 93 -63 93 -129c0 -72 -52 -143 -181 -143h-211v500zM145 226v-154h112c71 0 110 22 110 78c0 57 -36 76 -122 76h-100zM145 428v-130h93c70 0 100 25 100 66c0 38 -23 64 -111 64h-82z" />
    <glyph glyph-name="afii10068" unicode="&#x433;" horiz-adv-x="359" 
d="M369 500v-72h-224v-428h-80v500h304z" />
    <glyph glyph-name="afii10069" unicode="&#x434;" horiz-adv-x="536" 
d="M97 -117h-80v189h39c15 11 26 33 40 66c21 53 24 155 24 237v125h326v-428h70v-189h-80v117h-339v-117zM163 90c-3 -7 -7 -13 -10 -18h213v356h-166v-67c0 -101 -8 -212 -37 -271z" />
    <glyph glyph-name="afii10070" unicode="&#x435;" horiz-adv-x="488" 
d="M367 120l62 -44c-35 -61 -88 -84 -175 -84c-134 0 -214 87 -214 226v66c0 142 67 224 198 224c132 0 198 -81 198 -224v-52h-316v-14c0 -86 41 -154 128 -154c65 0 98 19 119 56zM238 436c-77 0 -113 -51 -118 -134h235c-4 84 -41 134 -117 134z" />
    <glyph glyph-name="afii10072" unicode="&#x436;" horiz-adv-x="666" 
d="M548 500h87l-132 -243l153 -257h-94l-126 216h-63v-216h-80v216h-63l-126 -216h-94l153 257l-132 243h87l115 -214h60v214h80v-214h60z" />
    <glyph glyph-name="afii10073" unicode="&#x437;" horiz-adv-x="448" 
d="M141 226v72h46c66 0 104 26 104 73c0 37 -27 65 -89 65c-48 0 -78 -16 -109 -50l-63 44c28 37 74 78 177 78c106 0 174 -55 174 -127c0 -55 -31 -92 -74 -112c51 -16 93 -61 93 -128c0 -74 -56 -149 -188 -149c-98 0 -156 29 -189 84l62 44c18 -28 51 -56 124 -56
c58 0 101 29 101 84c0 50 -40 78 -126 78h-43z" />
    <glyph glyph-name="afii10074" unicode="&#x438;" horiz-adv-x="536" 
d="M145 500v-361l249 361h77v-500h-80v368l-251 -368h-75v500h80z" />
    <glyph glyph-name="afii10075" unicode="&#x439;" horiz-adv-x="536" 
d="M145 500v-361l249 361h77v-500h-80v368l-251 -368h-75v500h80zM333 690h71c0 -78 -48 -118 -136 -118s-136 40 -136 118h71c0 -39 17 -62 65 -62s65 23 65 62z" />
    <glyph glyph-name="afii10076" unicode="&#x43a;" horiz-adv-x="469" 
d="M349 500h94l-164 -242l180 -258h-97l-151 216h-66v-216h-80v500h80v-214h60z" />
    <glyph glyph-name="afii10077" unicode="&#x43b;" horiz-adv-x="510" 
d="M109 500h336v-500h-80v428h-176v-157c0 -79 -8 -140 -26 -183c-28 -67 -82 -95 -143 -100v80c32 9 58 25 73 69c15 43 16 96 16 162v201z" />
    <glyph glyph-name="afii10078" unicode="&#x43c;" horiz-adv-x="636" 
d="M143 500l175 -312l175 312h78v-500h-80v348l-143 -253h-67l-136 250v-345h-80v500h78z" />
    <glyph glyph-name="afii10079" unicode="&#x43d;" horiz-adv-x="526" 
d="M145 500v-210h236v210h80v-500h-80v218h-236v-218h-80v500h80z" />
    <glyph glyph-name="afii10080" unicode="&#x43e;" horiz-adv-x="496" 
d="M456 284v-66c0 -130 -64 -226 -208 -226c-133 0 -208 88 -208 226v66c0 142 77 224 208 224c132 0 208 -81 208 -224zM248 64c85 0 128 69 128 154v66c0 95 -46 152 -128 152s-128 -58 -128 -152v-66c0 -86 36 -154 128 -154z" />
    <glyph glyph-name="afii10081" unicode="&#x43f;" horiz-adv-x="526" 
d="M65 500h396v-500h-80v428h-236v-428h-80v500z" />
    <glyph glyph-name="afii10082" unicode="&#x440;" horiz-adv-x="521" 
d="M145 450c27 37 70 58 136 58c124 0 200 -81 200 -224v-66c0 -130 -64 -226 -200 -226c-66 0 -109 21 -136 58v-240h-80v690h80v-50zM273 64c85 0 128 69 128 154v66c0 95 -46 152 -128 152c-80 0 -128 -55 -128 -145v-73c0 -86 36 -154 128 -154z" />
    <glyph glyph-name="afii10083" unicode="&#x441;" horiz-adv-x="444" 
d="M367 120l62 -44c-31 -58 -92 -84 -173 -84c-137 0 -216 88 -216 226v66c0 142 81 224 216 224c75 0 137 -27 173 -78l-63 -44c-22 32 -64 50 -110 50c-86 0 -136 -58 -136 -152v-66c0 -86 40 -154 136 -154c47 0 90 16 111 56z" />
    <glyph glyph-name="afii10084" unicode="&#x442;" horiz-adv-x="407" 
d="M0 500h407v-72h-164v-428h-80v428h-163v72z" />
    <glyph glyph-name="afii10085" unicode="&#x443;" horiz-adv-x="466" 
d="M199 -12l2 7l-196 505h86l149 -388l131 388h85l-176 -516c-41 -120 -68 -174 -208 -174v78c66 0 97 11 127 100z" />
    <glyph glyph-name="afii10086" unicode="&#x444;" horiz-adv-x="648" 
d="M364 690v-182c157 0 244 -78 244 -224v-66c0 -142 -85 -226 -244 -226v-182h-80v182c-159 0 -244 84 -244 226v66c0 146 87 224 244 224v182h80zM528 284c0 100 -56 152 -164 152v-372c118 0 164 62 164 154v66zM120 218c0 -92 46 -154 164 -154v372
c-108 0 -164 -52 -164 -152v-66z" />
    <glyph glyph-name="afii10087" unicode="&#x445;" horiz-adv-x="478" 
d="M468 0h-94l-135 186l-135 -186h-94l182 256l-162 244h94l115 -177l115 177h94l-162 -244z" />
    <glyph glyph-name="afii10088" unicode="&#x446;" horiz-adv-x="551" 
d="M531 -117h-80v117h-386v500h80v-428h236v428h80v-428h70v-189z" />
    <glyph glyph-name="afii10089" unicode="&#x447;" horiz-adv-x="482" 
d="M125 500v-120c0 -99 51 -119 112 -119c64 0 88 26 100 48v191h80v-500h-80v217c-23 -21 -68 -31 -106 -31c-114 0 -186 44 -186 194v120h80z" />
    <glyph glyph-name="afii10090" unicode="&#x448;" horiz-adv-x="710" 
d="M645 0h-580v500h80v-428h170v428h80v-428h170v428h80v-500z" />
    <glyph glyph-name="afii10091" unicode="&#x449;" horiz-adv-x="735" 
d="M715 -117h-80v117h-570v500h80v-428h170v428h80v-428h170v428h80v-428h70v-189z" />
    <glyph glyph-name="afii10092" unicode="&#x44a;" horiz-adv-x="534" 
d="M-20 500h217v-192h103c137 0 209 -45 209 -151c0 -88 -52 -157 -181 -157h-211v428h-137v72zM197 236v-164h112c71 0 110 28 110 86c0 55 -36 78 -122 78h-100z" />
    <glyph glyph-name="afii10093" unicode="&#x44b;" horiz-adv-x="639" 
d="M65 500h80v-192h73c137 0 209 -45 209 -151c0 -88 -52 -157 -181 -157h-181v500zM494 500h80v-500h-80v500zM145 236v-164h82c71 0 110 28 110 86c0 55 -36 78 -122 78h-70z" />
    <glyph glyph-name="afii10094" unicode="&#x44c;" horiz-adv-x="482" 
d="M65 500h80v-192h103c137 0 209 -45 209 -151c0 -88 -52 -157 -181 -157h-211v500zM145 236v-164h112c71 0 110 28 110 86c0 55 -36 78 -122 78h-100z" />
    <glyph glyph-name="afii10095" unicode="&#x44d;" horiz-adv-x="459" 
d="M142 218v72h197c-2 90 -52 146 -136 146c-46 0 -88 -18 -110 -50l-63 44c36 51 98 78 173 78c135 0 216 -82 216 -224v-66c0 -138 -79 -226 -216 -226c-81 0 -142 26 -173 84l62 44c21 -40 64 -56 111 -56c96 0 136 68 136 154h-197z" />
    <glyph glyph-name="afii10096" unicode="&#x44e;" horiz-adv-x="665" 
d="M625 284v-66c0 -130 -54 -226 -192 -226c-127 0 -192 88 -192 226h-96v-218h-80v500h80v-210h96c2 138 69 218 192 218c126 0 192 -81 192 -224zM433 64c79 0 112 69 112 154v66c0 95 -36 152 -112 152s-112 -58 -112 -152v-66c0 -86 26 -154 112 -154z" />
    <glyph glyph-name="afii10097" unicode="&#x44f;" 
d="M435 0h-80v192h-105l-125 -192h-90l133 203c-71 20 -115 67 -115 149c0 72 49 148 190 148h192v-500zM355 264v164h-102c-73 0 -110 -26 -110 -78c0 -59 36 -86 122 -86h90z" />
    <glyph glyph-name="afii10071" unicode="&#x451;" horiz-adv-x="488" 
d="M367 120l62 -44c-35 -61 -88 -84 -175 -84c-134 0 -214 87 -214 226v66c0 142 67 224 198 224c132 0 198 -81 198 -224v-52h-316v-14c0 -86 41 -154 128 -154c65 0 98 19 119 56zM238 436c-77 0 -113 -51 -118 -134h235c-4 84 -41 134 -117 134zM85 600v90h90v-90h-90z
M295 600v90h90v-90h-90z" />
    <glyph glyph-name="afii10099" unicode="&#x452;" horiz-adv-x="526" 
d="M-29 558v72h94v60h80v-60h165v-72h-165v-139c25 38 60 57 134 57c107 0 182 -56 182 -196v-324c0 -100 -41 -146 -141 -146h-14v72h14c37 0 61 12 61 74v323c0 101 -55 123 -114 123c-75 0 -122 -53 -122 -122v-280h-80v558h-94z" />
    <glyph glyph-name="afii10100" unicode="&#x453;" horiz-adv-x="359" 
d="M369 500v-72h-224v-428h-80v500h304zM160 567l70 158h96l-91 -158h-75z" />
    <glyph glyph-name="afii10101" unicode="&#x454;" horiz-adv-x="459" 
d="M307 290v-72h-197c0 -86 40 -154 136 -154c47 0 90 16 111 56l62 -44c-31 -58 -92 -84 -173 -84c-137 0 -216 88 -216 226v66c0 142 81 224 216 224c75 0 137 -27 173 -78l-63 -44c-22 32 -64 50 -110 50c-84 0 -134 -56 -136 -146h197z" />
    <glyph glyph-name="afii10102" unicode="&#x455;" horiz-adv-x="466" 
d="M406 425l-60 -42c-27 35 -55 51 -124 51c-59 0 -97 -23 -97 -67c0 -57 50 -74 116 -79c94 -7 180 -34 180 -149c0 -87 -59 -147 -188 -147c-102 0 -155 31 -193 83l59 42c27 -36 63 -51 135 -51c67 0 107 26 107 71c0 54 -32 73 -129 80c-84 6 -167 40 -167 149
c0 83 60 142 179 142c81 0 143 -21 182 -83z" />
    <glyph glyph-name="afii10103" unicode="&#x456;" horiz-adv-x="240" 
d="M80 0v500h80v-500h-80zM75 600v90h90v-90h-90z" />
    <glyph glyph-name="afii10104" unicode="&#x457;" horiz-adv-x="230" 
d="M75 0v500h80v-500h-80zM-35 600v90h90v-90h-90zM175 600v90h90v-90h-90z" />
    <glyph glyph-name="afii10105" unicode="&#x458;" horiz-adv-x="235" 
d="M165 500v-536c0 -104 -39 -154 -165 -154v74c82 0 85 46 85 100v516h80zM80 600v90h90v-90h-90z" />
    <glyph glyph-name="afii10106" unicode="&#x459;" horiz-adv-x="782" 
d="M109 500h336v-192h103c137 0 209 -45 209 -151c0 -88 -52 -157 -181 -157h-211v428h-176v-157c0 -79 -8 -140 -26 -183c-28 -67 -82 -95 -143 -100v80c32 9 58 25 73 69c15 43 16 96 16 162v201zM445 236v-164h112c71 0 110 28 110 86c0 55 -36 78 -122 78h-100z" />
    <glyph glyph-name="afii10107" unicode="&#x45a;" horiz-adv-x="798" 
d="M145 500v-210h236v210h80v-192h103c137 0 209 -45 209 -151c0 -88 -52 -157 -181 -157h-211v218h-236v-218h-80v500h80zM461 236v-164h112c71 0 110 28 110 86c0 55 -36 78 -122 78h-100z" />
    <glyph glyph-name="afii10108" unicode="&#x45b;" horiz-adv-x="526" 
d="M-29 558v72h94v60h80v-60h165v-72h-165v-139c25 38 60 57 134 57c107 0 182 -56 182 -196v-280h-80v279c0 101 -55 123 -114 123c-75 0 -122 -53 -122 -122v-280h-80v558h-94z" />
    <glyph glyph-name="afii10109" unicode="&#x45c;" horiz-adv-x="469" 
d="M349 500h94l-164 -242l180 -258h-97l-151 216h-66v-216h-80v500h80v-214h60zM195 567l70 158h96l-91 -158h-75z" />
    <glyph glyph-name="afii10110" unicode="&#x45e;" horiz-adv-x="466" 
d="M199 -12l2 7l-196 505h86l149 -388l131 388h85l-176 -516c-41 -120 -68 -174 -208 -174v78c66 0 97 11 127 100zM303 690h71c0 -78 -48 -118 -136 -118s-136 40 -136 118h71c0 -39 17 -62 65 -62s65 23 65 62z" />
    <glyph glyph-name="afii10193" unicode="&#x45f;" horiz-adv-x="526" 
d="M303 -117h-80v117h-158v500h80v-428h236v428h80v-500h-158v-117z" />
    <glyph glyph-name="afii10146" unicode="&#x462;" horiz-adv-x="596" 
d="M85 690h86v-84h188v-78h-188v-111h147c177 0 238 -109 238 -209s-61 -208 -238 -208h-233v528h-95v78h95v84zM318 339h-147v-261h147c104 0 152 55 152 130s-48 131 -152 131z" />
    <glyph glyph-name="afii10194" unicode="&#x463;" horiz-adv-x="482" 
d="M-29 428v72h94v190h80v-190h165v-72h-165v-120h103c137 0 209 -45 209 -151c0 -88 -52 -157 -181 -157h-211v428h-94zM145 236v-164h112c71 0 110 28 110 86c0 55 -36 78 -122 78h-100z" />
    <glyph glyph-name="afii10147" unicode="&#x472;" horiz-adv-x="600" 
d="M550 307c0 -223 -97 -315 -250 -315s-250 92 -250 315v76c0 223 97 315 250 315s250 -92 250 -315v-76zM300 70c106 0 164 66 164 237v11h-328v-11c0 -171 58 -237 164 -237zM300 620c-103 0 -161 -63 -164 -224h328c-3 161 -61 224 -164 224z" />
    <glyph glyph-name="afii10195" unicode="&#x473;" horiz-adv-x="496" 
d="M456 284v-66c0 -130 -64 -226 -208 -226c-133 0 -208 88 -208 226v66c0 142 77 224 208 224c132 0 208 -81 208 -224zM248 64c85 0 128 69 128 154h-256c0 -86 36 -154 128 -154zM248 436c-80 0 -126 -56 -128 -146h256c-2 91 -48 146 -128 146z" />
    <glyph glyph-name="afii10148" unicode="&#x474;" horiz-adv-x="601" 
d="M10 690h95l194 -549l153 428c31 86 72 129 177 129v-78c-50 0 -72 -21 -91 -73l-197 -547h-81z" />
    <glyph glyph-name="afii10196" unicode="&#x475;" horiz-adv-x="503" 
d="M513 508v-72c-42 0 -53 -21 -70 -63l-149 -373h-80l-204 500h90l152 -398l121 317c26 68 57 89 140 89z" />
    <glyph glyph-name="afii10050" unicode="&#x490;" horiz-adv-x="481" 
d="M395 690v108h86v-186h-310v-612h-86v690h310z" />
    <glyph glyph-name="afii10098" unicode="&#x491;" horiz-adv-x="359" 
d="M289 500v93h80v-165h-224v-428h-80v500h224z" />
    <glyph glyph-name="uni0492" unicode="&#x492;" horiz-adv-x="489" 
d="M489 690v-78h-310v-216h180v-78h-180v-318h-86v318h-103v78h103v294h396z" />
    <glyph glyph-name="uni0493" unicode="&#x493;" horiz-adv-x="384" 
d="M394 500v-72h-224v-138h127v-72h-127v-218h-80v218h-100v72h100v210h304z" />
    <glyph glyph-name="uni0496" unicode="&#x496;" horiz-adv-x="897" 
d="M113 0h-103l212 349l-171 341h94l150 -304h96v304h86v-304h95l151 304h94l-172 -341l165 -271h77v-208h-86v130h-46l-187 308h-91v-308h-86v308h-91z" />
    <glyph glyph-name="uni0497" unicode="&#x497;" horiz-adv-x="693" 
d="M548 500h87l-132 -243l110 -185h70v-189h-80v117h-41l-126 216h-63v-216h-80v216h-63l-126 -216h-94l153 257l-132 243h87l115 -214h60v214h80v-214h60z" />
    <glyph glyph-name="uni0498" unicode="&#x498;" horiz-adv-x="558" 
d="M330 -130h-86v125c-106 13 -175 74 -203 193h85c32 -79 71 -118 163 -118c95 0 143 52 143 127c0 77 -54 122 -168 122h-53v78h62c97 0 137 50 137 118c0 61 -36 106 -124 106c-82 0 -129 -33 -153 -107h-80c16 117 122 184 228 184c138 0 215 -68 215 -183
c0 -72 -40 -124 -114 -152c80 -19 136 -85 136 -166c0 -92 -51 -187 -188 -203v-124z" />
    <glyph glyph-name="uni0499" unicode="&#x499;" horiz-adv-x="448" 
d="M254 -117h-80v111c-76 6 -123 34 -151 82l62 44c18 -28 51 -56 124 -56c58 0 101 29 101 84c0 50 -40 78 -126 78h-43v72h46c66 0 104 26 104 73c0 37 -27 65 -89 65c-48 0 -78 -16 -109 -50l-63 44c28 37 74 78 177 78c106 0 174 -55 174 -127c0 -55 -31 -92 -74 -112
c51 -16 93 -61 93 -128c0 -66 -44 -132 -146 -146v-112z" />
    <glyph glyph-name="uni049A" unicode="&#x49a;" horiz-adv-x="622" 
d="M612 -130h-86v130h-38l-220 308h-97v-308h-86v690h86v-304h95l190 304h96l-210 -340l195 -272h75v-208z" />
    <glyph glyph-name="uni049B" unicode="&#x49b;" horiz-adv-x="489" 
d="M349 500h94l-164 -242l130 -186h70v-189h-80v117h-37l-151 216h-66v-216h-80v500h80v-214h60z" />
    <glyph glyph-name="uni049C" unicode="&#x49c;" horiz-adv-x="651" 
d="M641 0h-105l-220 308h-27v-116h-78v116h-40v-308h-86v690h86v-304h40v125h78v-125h25l190 304h96l-210 -340z" />
    <glyph glyph-name="uni049D" unicode="&#x49d;" horiz-adv-x="509" 
d="M389 500h94l-164 -242l180 -258h-97l-151 216h-12v-108h-72v108h-22v-216h-80v500h80v-214h22v109h72v-109h6z" />
    <glyph glyph-name="uni04A0" unicode="&#x4a0;" horiz-adv-x="651" 
d="M641 0h-105l-220 308h-97v-308h-86v612h-153v78h239v-304h95l190 304h96l-210 -340z" />
    <glyph glyph-name="uni04A1" unicode="&#x4a1;" horiz-adv-x="521" 
d="M401 500h94l-164 -242l180 -258h-97l-151 216h-66v-216h-80v428h-137v72h217v-214h60z" />
    <glyph glyph-name="uni04A2" unicode="&#x4a2;" horiz-adv-x="649" 
d="M171 690v-294h296v294h86v-612h86v-208h-86v130h-86v318h-296v-318h-86v690h86z" />
    <glyph glyph-name="uni04A3" unicode="&#x4a3;" horiz-adv-x="551" 
d="M145 500v-210h236v210h80v-428h70v-189h-80v117h-70v218h-236v-218h-80v500h80z" />
    <glyph glyph-name="uni04AA" unicode="&#x4aa;" horiz-adv-x="578" 
d="M343 -130h-86v125c-128 16 -207 111 -207 312v76c0 223 97 315 250 315c136 0 226 -72 248 -223h-84c-24 108 -79 145 -164 145c-106 0 -164 -66 -164 -237v-76c0 -171 58 -237 164 -237c90 0 141 44 164 145h83c-20 -138 -96 -207 -204 -220v-125z" />
    <glyph glyph-name="uni04AB" unicode="&#x4ab;" horiz-adv-x="444" 
d="M296 -117h-80v112c-113 15 -176 99 -176 223v66c0 142 81 224 216 224c75 0 137 -27 173 -78l-63 -44c-22 32 -64 50 -110 50c-86 0 -136 -58 -136 -152v-66c0 -86 40 -154 136 -154c47 0 90 16 111 56l62 -44c-26 -48 -72 -74 -133 -81v-112z" />
    <glyph glyph-name="uni04AE" unicode="&#x4ae;" horiz-adv-x="556" 
d="M20 690h101l157 -300l157 300h101l-215 -394v-296h-86v296z" />
    <glyph glyph-name="uni04AF" unicode="&#x4af;" horiz-adv-x="504" 
d="M404 500h90l-200 -500v-190h-80v190l-204 500h90l152 -398z" />
    <glyph glyph-name="uni04B0" unicode="&#x4b0;" horiz-adv-x="556" 
d="M20 690h101l157 -300l157 300h101l-215 -394h142v-78h-142v-218h-86v218h-141v78h141z" />
    <glyph glyph-name="uni04B1" unicode="&#x4b1;" horiz-adv-x="504" 
d="M404 500h90l-200 -500h112v-72h-112v-118h-80v118h-115v72h115l-204 500h90l152 -398z" />
    <glyph glyph-name="uni04B2" unicode="&#x4b2;" horiz-adv-x="572" 
d="M115 0h-95l206 356l-185 334h95l140 -256l140 256h95l-186 -334l161 -278h76v-208h-86v130h-39l-161 271z" />
    <glyph glyph-name="uni04B3" unicode="&#x4b3;" horiz-adv-x="497" 
d="M487 -117h-80v117h-33l-135 186l-135 -186h-94l182 256l-162 244h94l115 -177l115 177h94l-162 -244l131 -184h70v-189z" />
    <glyph glyph-name="uni04B6" unicode="&#x4b6;" horiz-adv-x="599" 
d="M121 690v-194c0 -122 41 -160 156 -160c81 0 120 20 140 61v293h86v-612h86v-208h-86v130h-86v299c-21 -21 -65 -41 -154 -41c-181 0 -228 76 -228 238v194h86z" />
    <glyph glyph-name="uni04B7" unicode="&#x4b7;" horiz-adv-x="512" 
d="M130 500v-120c0 -99 51 -119 112 -119c64 0 88 26 100 48v191h80v-428h70v-189h-80v117h-70v217c-23 -21 -68 -31 -106 -31c-114 0 -186 44 -186 194v120h80z" />
    <glyph glyph-name="uni04B8" unicode="&#x4b8;" horiz-adv-x="588" 
d="M310 461v-124c59 5 90 25 107 60v293h86v-690h-86v299c-17 -17 -49 -34 -107 -39v-118h-78v117c-156 8 -197 84 -197 237v194h86v-194c0 -105 30 -148 111 -158v123h78z" />
    <glyph glyph-name="uni04B9" unicode="&#x4b9;" horiz-adv-x="487" 
d="M130 500v-120c0 -76 30 -106 72 -116v111h72v-112c40 7 58 28 68 46v191h80v-500h-80v217c-16 -15 -41 -24 -68 -28v-101h-72v99c-94 9 -152 58 -152 193v120h80z" />
    <glyph glyph-name="uni04BA" unicode="&#x4ba;" horiz-adv-x="588" 
d="M467 0v270c0 122 -41 160 -156 160c-81 0 -120 -20 -140 -61v-369h-86v690h86v-223c21 21 65 41 154 41c181 0 228 -76 228 -238v-270h-86z" />
    <glyph glyph-name="uni04BB" unicode="&#x4bb;" horiz-adv-x="526" 
d="M65 0v690h80v-239c25 38 60 57 134 57c107 0 182 -56 182 -196v-312h-80v311c0 101 -55 123 -114 123c-75 0 -122 -53 -122 -122v-312h-80z" />
    <glyph glyph-name="uni04D8" unicode="&#x4d8;" horiz-adv-x="604" 
d="M50 307v40h418v36c0 171 -58 237 -164 237c-88 0 -142 -42 -164 -145h-84c22 152 114 223 248 223c153 0 250 -92 250 -315v-76c0 -223 -97 -315 -250 -315s-254 92 -254 315zM304 70c97 0 154 56 163 199h-330c9 -143 69 -199 167 -199z" />
    <glyph glyph-name="afii10846" unicode="&#x4d9;" horiz-adv-x="488" 
d="M121 380l-62 44c35 61 88 84 175 84c134 0 214 -87 214 -226v-66c0 -142 -67 -224 -198 -224c-132 0 -198 81 -198 224v52h316v14c0 86 -41 154 -128 154c-65 0 -98 -19 -119 -56zM250 64c77 0 113 51 118 134h-235c4 -84 41 -134 117 -134z" />
    <glyph glyph-name="uni04E2" unicode="&#x4e2;" horiz-adv-x="656" 
d="M85 690h86v-519l328 519h72v-690h-86v514l-326 -514h-74v690zM174 768v72h309v-72h-309z" />
    <glyph glyph-name="uni04E3" unicode="&#x4e3;" horiz-adv-x="536" 
d="M145 500v-361l249 361h77v-500h-80v368l-251 -368h-75v500h80zM134 600v72h269v-72h-269z" />
    <glyph glyph-name="uni04E8" unicode="&#x4e8;" horiz-adv-x="600" 
d="M550 307c0 -223 -97 -315 -250 -315s-250 92 -250 315v76c0 223 97 315 250 315s250 -92 250 -315v-76zM300 70c106 0 164 66 164 237v11h-328v-11c0 -171 58 -237 164 -237zM300 620c-103 0 -161 -63 -164 -224h328c-3 161 -61 224 -164 224z" />
    <glyph glyph-name="uni04E9" unicode="&#x4e9;" horiz-adv-x="496" 
d="M456 284v-66c0 -130 -64 -226 -208 -226c-133 0 -208 88 -208 226v66c0 142 77 224 208 224c132 0 208 -81 208 -224zM248 64c85 0 128 69 128 154h-256c0 -86 36 -154 128 -154zM248 436c-80 0 -126 -56 -128 -146h256c-2 91 -48 146 -128 146z" />
    <glyph glyph-name="uni04EE" unicode="&#x4ee;" horiz-adv-x="582" 
d="M478 690h90l-235 -574c-39 -95 -80 -124 -198 -124v79c69 0 96 7 124 76l3 8l-237 535h94l187 -427zM146 768v72h309v-72h-309z" />
    <glyph glyph-name="uni04EF" unicode="&#x4ef;" horiz-adv-x="466" 
d="M199 -12l2 7l-196 505h86l149 -388l131 388h85l-176 -516c-41 -120 -68 -174 -208 -174v78c66 0 97 11 127 100zM97 600v72h269v-72h-269z" />
    <glyph glyph-name="uni1E9E" unicode="&#x1e9e;" horiz-adv-x="604" 
d="M524 636l-117 -191c85 -10 117 -52 117 -143v-162c0 -120 -50 -140 -155 -140h-70v78h70c48 0 69 16 69 68v150c0 56 -14 76 -69 76h-70v63l104 167c-14 7 -54 18 -94 18c-93 0 -138 -31 -138 -129v-491h-86v499c0 123 72 199 224 199c100 0 184 -41 215 -62z" />
    <glyph glyph-name="uni2010" unicode="&#x2010;" horiz-adv-x="319" 
d="M30 253v72h259v-72h-259z" />
    <glyph glyph-name="uni2011" unicode="&#x2011;" horiz-adv-x="319" 
d="M30 253v72h259v-72h-259z" />
    <glyph glyph-name="figuredash" unicode="&#x2012;" 
d="M59 313v72h382v-72h-382z" />
    <glyph glyph-name="endash" unicode="&#x2013;" horiz-adv-x="509" 
d="M60 253v72h389v-72h-389z" />
    <glyph glyph-name="emdash" unicode="&#x2014;" horiz-adv-x="679" 
d="M20 253v72h639v-72h-639z" />
    <glyph glyph-name="quoteleft" unicode="&#x2018;" horiz-adv-x="216" 
d="M60 534v176l96 83v-259h-96z" />
    <glyph glyph-name="quoteright" unicode="&#x2019;" horiz-adv-x="222" 
d="M146 740v-185l-86 -74v259h86z" />
    <glyph glyph-name="quotesinglbase" unicode="&#x201a;" horiz-adv-x="216" 
d="M156 96v-176l-96 -83v259h96z" />
    <glyph glyph-name="quotedblleft" unicode="&#x201c;" horiz-adv-x="386" 
d="M60 534v176l96 83v-259h-96zM226 534v176l96 83v-259h-96z" />
    <glyph glyph-name="quotedblright" unicode="&#x201d;" horiz-adv-x="386" 
d="M322 740v-176l-96 -83v259h96zM156 740v-176l-96 -83v259h96z" />
    <glyph glyph-name="quotedblbase" unicode="&#x201e;" horiz-adv-x="382" 
d="M322 96v-176l-96 -83v259h96zM156 96v-176l-96 -83v259h96z" />
    <glyph glyph-name="dagger" unicode="&#x2020;" horiz-adv-x="526" 
d="M20 500h200v190h86v-190h200v-78h-200v-612h-86v612h-200v78z" />
    <glyph glyph-name="daggerdbl" unicode="&#x2021;" horiz-adv-x="526" 
d="M20 500h200v190h86v-190h200v-78h-200v-344h200v-78h-200v-190h-86v190h-200v78h200v344h-200v78z" />
    <glyph glyph-name="bullet" unicode="&#x2022;" horiz-adv-x="298" 
d="M65 341c0 46 38 84 84 84s84 -38 84 -84s-38 -84 -84 -84s-84 38 -84 84z" />
    <glyph glyph-name="ellipsis" unicode="&#x2026;" horiz-adv-x="788" 
d="M176 116v-116h-116v116h116zM728 116v-116h-116v116h116zM452 116v-116h-116v116h116z" />
    <glyph glyph-name="perthousand" unicode="&#x2030;" horiz-adv-x="1045" 
d="M511 690h83l-385 -690h-84zM705 192v-43c0 -90 -43 -157 -145 -157c-91 0 -143 60 -143 157v43c0 97 54 155 143 155c92 0 145 -57 145 -155zM560 52c57 0 82 43 82 98v40c0 62 -28 96 -82 96c-51 0 -79 -35 -79 -96v-40c0 -56 20 -98 79 -98zM313 543v-43
c0 -90 -43 -157 -145 -157c-91 0 -143 60 -143 157v43c0 97 54 155 143 155c92 0 145 -57 145 -155zM168 403c57 0 82 43 82 98v40c0 62 -28 96 -82 96c-51 0 -79 -35 -79 -96v-40c0 -56 20 -98 79 -98zM1025 192v-43c0 -90 -43 -157 -145 -157c-91 0 -143 60 -143 157v43
c0 97 54 155 143 155c92 0 145 -57 145 -155zM880 52c57 0 82 43 82 98v40c0 62 -28 96 -82 96c-51 0 -79 -35 -79 -96v-40c0 -56 20 -98 79 -98z" />
    <glyph glyph-name="guilsinglleft" unicode="&#x2039;" horiz-adv-x="330" 
d="M30 283l232 231v-102l-130 -129l130 -129v-102z" />
    <glyph glyph-name="guilsinglright" unicode="&#x203a;" horiz-adv-x="330" 
d="M58 514l232 -231l-232 -231v102l130 129l-130 129v102z" />
    <glyph glyph-name="fraction" unicode="&#x2044;" horiz-adv-x="566" 
d="M476 690h79l-474 -690h-80z" />
    <glyph glyph-name="uni2074" unicode="&#x2074;" horiz-adv-x="339" 
d="M179 690h64l-123 -205h85v56h54v-56h39v-50h-39v-61h-54v61h-157v43z" />
    <glyph glyph-name="Euro" unicode="&#x20ac;" 
d="M8 309h65v72h-65v78h68c17 168 90 239 207 239c126 0 185 -81 198 -223h-84c-14 114 -49 145 -114 145c-73 0 -111 -40 -121 -161h142v-78h-145v-72h145v-78h-142c11 -109 50 -161 121 -161c70 0 101 44 114 145h83c-16 -151 -80 -223 -197 -223c-116 0 -190 78 -207 239
h-68v78z" />
    <glyph glyph-name="uni20B4" unicode="&#x20b4;" 
d="M4 236v80h493v-80h-357c-8 -16 -11 -35 -11 -55c0 -59 33 -111 126 -111c69 0 100 31 145 84l69 -47c-60 -77 -112 -115 -214 -115c-152 0 -212 103 -212 193c0 18 2 35 7 51h-46zM4 376v80h352c9 15 14 33 14 56c0 72 -44 108 -114 108c-69 0 -99 -34 -136 -82l-65 47
c49 76 116 113 198 113c146 0 203 -87 203 -186c0 -21 -3 -39 -9 -56h50v-80h-493z" />
    <glyph glyph-name="uni20B8" unicode="&#x20b8;" 
d="M7 560h486v-78h-200v-482h-86v482h-200v78zM7 690h486v-78h-486v78z" />
    <glyph glyph-name="uni20BD" unicode="&#x20bd;" 
d="M8 263v78h90v349h140c159 0 251 -80 251 -214c0 -133 -91 -213 -251 -213h-54v-52h117v-78h-117v-133h-86v133h-90v78h90v52h-90zM184 341h54c117 0 165 50 165 135c0 86 -48 136 -165 136h-54v-271z" />
    <glyph glyph-name="afii61352" unicode="&#x2116;" horiz-adv-x="948" 
d="M918 536v-45c0 -94 -47 -163 -151 -163c-96 0 -150 64 -150 163v45c0 103 56 162 150 162c96 0 151 -59 151 -162zM767 400c53 0 79 42 79 95v37c0 60 -28 94 -79 94c-50 0 -79 -35 -79 -94v-37c0 -54 23 -95 79 -95zM638 213v72h259v-72h-259zM467 690h86v-690h-84
l-298 522v-522h-86v690h82l300 -527v527z" />
    <glyph glyph-name="trademark" unicode="&#x2122;" horiz-adv-x="882" 
d="M477 690l150 -260l150 260h65v-417h-71v278l-115 -198h-64l-109 198v-278h-71v417h65zM30 690h338v-66h-134v-351h-71v351h-133v66z" />
    <glyph glyph-name="uni2190" unicode="&#x2190;" horiz-adv-x="875" 
d="M523 -92h-110l-353 353l353 353h110l-314 -314h606v-78h-606z" />
    <glyph glyph-name="uni2191" unicode="&#x2191;" horiz-adv-x="826" 
d="M766 286v-110l-314 314v-606h-78v606l-314 -314v110l353 353z" />
    <glyph glyph-name="uni2192" unicode="&#x2192;" horiz-adv-x="875" 
d="M462 -92h-110l314 314h-606v78h606l-314 314h110l353 -353z" />
    <glyph glyph-name="uni2193" unicode="&#x2193;" horiz-adv-x="826" 
d="M60 236v110l314 -314v606h78v-606l314 314v-110l-353 -353z" />
    <glyph glyph-name="uni2196" unicode="&#x2196;" horiz-adv-x="698" 
d="M137 -78l-77 78v500h500l78 -77h-445l428 -429l-55 -55l-429 428v-445z" />
    <glyph glyph-name="uni2197" unicode="&#x2197;" horiz-adv-x="698" 
d="M638 0l-77 -78v445l-429 -428l-55 55l428 429h-445l78 77h500v-500z" />
    <glyph glyph-name="uni2198" unicode="&#x2198;" horiz-adv-x="698" 
d="M561 578l77 -78v-500h-500l-78 77h445l-428 429l55 55l429 -428v445z" />
    <glyph glyph-name="uni2199" unicode="&#x2199;" horiz-adv-x="698" 
d="M60 500l77 78v-445l429 428l55 -55l-428 -429h445l-78 -77h-500v500z" />
    <glyph glyph-name="uni21A3" unicode="&#x21a3;" horiz-adv-x="1252" 
d="M207 414l94 -94h794l-55 55l39 39l133 -133l-133 -133l-39 39l55 55h-794l-94 -94l-39 39l94 94l-94 94zM79 414l133 -133l-133 -133l-39 39l94 94l-94 94z" />
    <glyph glyph-name="partialdiff" unicode="&#x2202;" 
d="M456 474v-256c0 -130 -64 -226 -208 -226c-133 0 -208 88 -208 226v66c0 142 77 224 208 224c60 0 100 -16 128 -43v9c0 95 -46 152 -134 152c-43 0 -82 -19 -117 -45l-44 58c41 36 106 59 162 59c137 0 213 -81 213 -224zM248 64c85 0 128 69 128 154v66
c0 95 -46 152 -128 152s-128 -58 -128 -152v-66c0 -86 36 -154 128 -154z" />
    <glyph glyph-name="product" unicode="&#x220f;" horiz-adv-x="638" 
d="M85 690h468v-880h-86v802h-296v-802h-86v880z" />
    <glyph glyph-name="summation" unicode="&#x2211;" horiz-adv-x="519" 
d="M479 690v-78h-338l196 -321v-83l-196 -320h338v-78h-449v58l232 382l-232 382v58h449z" />
    <glyph glyph-name="minus" unicode="&#x2212;" 
d="M55 318v72h389v-72h-389z" />
    <glyph glyph-name="uni2215" unicode="&#x2215;" horiz-adv-x="485" 
d="M124 -116h-77l336 928h77z" />
    <glyph glyph-name="radical" unicode="&#x221a;" horiz-adv-x="653" 
d="M22 500h171l151 -356l124 546h251v-78h-186l-143 -612h-78l-182 422h-108v78z" />
    <glyph glyph-name="infinity" unicode="&#x221e;" horiz-adv-x="768" 
d="M383 284c-45 -61 -107 -116 -177 -116c-107 0 -176 77 -176 174s69 174 176 174c70 0 138 -53 183 -114c45 61 103 114 173 114c107 0 176 -77 176 -174s-69 -174 -176 -174c-70 0 -134 55 -179 116zM570 247c50 0 95 36 95 95c0 57 -45 94 -99 94
c-59 0 -86 -35 -132 -92c46 -59 82 -97 136 -97zM200 247c61 0 94 37 140 96c-46 57 -84 93 -140 93c-52 0 -97 -37 -97 -94c0 -59 45 -95 97 -95z" />
    <glyph glyph-name="integral" unicode="&#x222b;" horiz-adv-x="286" 
d="M80 -10v546c0 104 40 154 158 154h23v-82h-20c-67 0 -75 -29 -75 -98v-546c0 -104 -40 -154 -158 -154h-23v82h20c67 0 75 29 75 98z" />
    <glyph glyph-name="approxequal" unicode="&#x2248;" 
d="M419 465l37 -54c-36 -32 -65 -52 -109 -52c-66 0 -140 53 -197 53c-27 0 -45 -13 -70 -34l-37 54c37 34 68 52 108 52c64 0 143 -53 197 -53c29 0 50 15 71 34zM419 306l37 -54c-36 -32 -65 -52 -109 -52c-66 0 -140 53 -197 53c-27 0 -45 -13 -70 -34l-37 54
c37 34 68 52 108 52c64 0 143 -53 197 -53c29 0 50 15 71 34z" />
    <glyph glyph-name="notequal" unicode="&#x2260;" 
d="M55 400v72h211l77 178l66 -28l-65 -150h100v-72h-131l-39 -92h170v-72h-201l-74 -172l-66 28l62 144h-110v72h141l39 92h-180z" />
    <glyph glyph-name="lessequal" unicode="&#x2264;" 
d="M134 401l232 231v-102l-130 -129l130 -129v-102zM134 209v100l232 -229v-102z" />
    <glyph glyph-name="greaterequal" unicode="&#x2265;" 
d="M134 632l232 -231l-232 -231v102l130 129l-130 129v102zM366 309v-100l-232 -231v102z" />
    <glyph glyph-name="uni231A" unicode="&#x231a;" horiz-adv-x="666" 
d="M185 -205v235c-75 45 -125 127 -125 220s50 174 125 219v235h261v-234c64 -38 110 -104 122 -180h38v-80h-38c-12 -77 -58 -142 -122 -180v-235h-261zM105 250c0 -116 95 -211 211 -211s210 95 210 211s-94 210 -210 210s-211 -94 -211 -210zM482 318l-166 -93l-133 75
l-6 20l20 5l119 -70l153 87l19 -5z" />
    <glyph glyph-name="uni23F2" unicode="&#x23f2;" horiz-adv-x="1072" 
d="M60 342c0 263 213 476 476 476s476 -213 476 -476s-213 -476 -476 -476s-476 213 -476 476zM114 342c0 -233 189 -422 422 -422s421 189 421 422s-188 421 -421 421s-422 -188 -422 -421zM871 508l-335 -192l-248 142l-10 35l36 10l222 -129l309 179l36 -9zM802 364h126
v-46h-126v46zM513 -50v126h46v-126h-46zM145 364h126v-46h-126v46zM513 607v126h46v-126h-46z" />
    <glyph glyph-name="uni2550" unicode="&#x2550;" horiz-adv-x="2158" 
d="M2158 387v-78h-2158v78h2158zM2158 259v-78h-2158v78h2158z" />
    <glyph glyph-name="lozenge" unicode="&#x25ca;" horiz-adv-x="551" 
d="M229 587h95l197 -291l-197 -296h-95l-199 296zM275 517l-145 -221l145 -226l145 226z" />
    <glyph glyph-name="uni261D" unicode="&#x261d;" horiz-adv-x="705" 
d="M645 -28h-370l-215 292s72 69 144 -6l71 -74v450c0 42 20 61 50 61s50 -19 50 -58v-229h36c38 0 54 -16 54 -54h36c38 0 54 -16 54 -54h34c40 0 56 -16 56 -51v-277zM275 -243v161h370v-161h-370zM565 -135c-16 0 -28 -11 -28 -27s12 -28 28 -28c17 0 27 12 27 28
s-11 27 -27 27z" />
    <glyph glyph-name="uni261E" unicode="&#x261e;" horiz-adv-x="1061" 
d="M278 51v370l292 215s69 -72 -6 -144l-74 -71h450c42 0 61 -20 61 -50s-19 -50 -58 -50h-229v-36c0 -38 -16 -54 -54 -54v-36c0 -38 -16 -54 -54 -54v-34c0 -40 -16 -56 -51 -56h-277zM60 421h164v-370h-164v370zM169 131c0 16 -11 28 -27 28s-28 -12 -28 -28
c0 -17 12 -27 28 -27s27 11 27 27z" />
    <glyph glyph-name="uni26F3" unicode="&#x26f3;" horiz-adv-x="674" 
d="M60 513c0 153 124 277 277 277s277 -124 277 -277c0 -54 -17 -113 -82 -216l-195 -307l-197 309c-64 102 -80 160 -80 214zM226 513c0 -61 50 -110 111 -110s110 49 110 110c0 62 -49 110 -110 110s-111 -48 -111 -110z" />
    <glyph glyph-name="uni2709" unicode="&#x2709;" horiz-adv-x="1236" 
d="M60 578h1116v-60l-558 -334l-558 334v60zM60 481l338 -201l-338 -243v444zM1176 0h-1116l366 263l192 -114l192 114zM838 280l338 201v-444z" />
    <glyph glyph-name="uniF040" unicode="&#xf040;" horiz-adv-x="3054" 
d="M1619 414l94 -94h1341v-78h-1341l-94 -94l-39 39l94 94l-94 94zM0 242v78h1341l94 94l39 -39l-94 -94l94 -94l-39 -39l-94 94h-1341z" />
    <glyph glyph-name="uniF041" unicode="&#xf041;" horiz-adv-x="2855" 
d="M1556 422l68 -39l-37 -63h1268v-78h-1313l-58 -101l-67 39zM1371 422l68 -39l-140 -242l-67 39l35 62h-1267v78h1312z" />
    <glyph glyph-name="uniF042" unicode="&#xf042;" horiz-adv-x="2825" 
d="M1464 242v78h1361v-78h-1361zM1241 320v-78h-1241v78h1241z" />
    <glyph glyph-name="uniF043" unicode="&#xf043;" horiz-adv-x="705" 
d="M275 -28h370v277c0 35 -16 51 -56 51h-34c0 38 -16 54 -54 54h-36c0 38 -16 54 -54 54h-36v229c0 39 -20 58 -50 58s-50 -19 -50 -61v-450l-71 74c-72 75 -144 6 -144 6zM275 -82v-161h370v161h-370zM565 -135c16 0 27 -11 27 -27s-10 -28 -27 -28c-16 0 -28 12 -28 28
s12 27 28 27zM83 660h158v-55h-158v55zM409 660h158v-55h-158v55zM297 725v158h55v-158h-55z" />
    <glyph glyph-name="uniF044" unicode="&#xf044;" horiz-adv-x="931" 
d="M177 126l324 -154h370v277c0 35 -16 51 -56 51h-34c0 38 -16 54 -54 54h-36c0 38 -16 54 -54 54h-36v229c0 39 -20 58 -50 58s-50 -19 -50 -61v-478l-201 45c-101 23 -123 -75 -123 -75zM501 -82v-161h370v161h-370zM553 814h158v-158h-55v103h-103v55zM218 15h-158v158
h55v-103h103v-55zM791 -135c16 0 27 -11 27 -27s-10 -28 -27 -28c-16 0 -28 12 -28 28s12 27 28 27z" />
    <glyph glyph-name="uniF045" unicode="&#xf045;" horiz-adv-x="903" 
d="M370 665h503v-55h-498v-202h36c38 0 54 -16 54 -54h36c38 0 54 -16 54 -54h34c40 0 56 -16 56 -51v-277h-370l-215 292s72 69 144 -6l71 -74v450c0 42 20 61 50 61c21 0 38 -10 45 -30zM275 -243v161h370v-161h-370zM87 637l112 112l39 -39l-73 -73l73 -73l-39 -39z
M565 -135c-16 0 -28 -11 -28 -27s12 -28 28 -28c17 0 27 12 27 28s-11 27 -27 27z" />
    <glyph glyph-name="uniF046" unicode="&#xf046;" horiz-adv-x="952" 
d="M892 -28h-370l-215 292s72 69 144 -6l71 -74v426h-492v55h497c7 20 24 30 45 30c30 0 50 -19 50 -58v-229h36c38 0 54 -16 54 -54h36c38 0 54 -16 54 -54h34c40 0 56 -16 56 -51v-277zM522 -243v161h370v-161h-370zM816 637l-112 -112l-39 39l73 73l-73 73l39 39z
M812 -135c-16 0 -28 -11 -28 -27s12 -28 28 -28c17 0 27 12 27 28s-11 27 -27 27z" />
    <glyph glyph-name="uniF047" unicode="&#xf047;" horiz-adv-x="1010" 
d="M866 510v-634h-55v603l-137 -79l17 -31c19 -33 14 -55 -19 -73l18 -32c19 -33 13 -54 -20 -73l17 -30c20 -35 14 -56 -17 -74c-40 -24 -239 -139 -239 -139l-185 321l145 332s96 -28 67 -128l-29 -99l391 226c37 21 62 13 78 -13c15 -26 8 -53 -26 -73zM60 162l140 81
l184 -321l-139 -81zM726 690l112 112l112 -112l-39 -39l-73 73l-73 -73zM276 -20c-16 0 -28 -11 -28 -27s12 -28 28 -28c17 0 27 12 27 28s-11 27 -27 27z" />
    <glyph glyph-name="uniF048" unicode="&#xf048;" horiz-adv-x="1145" 
d="M245 137l186 321l360 40s24 -97 -77 -122l-100 -24l332 -192v603h55v-635l4 -2c36 -21 42 -47 27 -74c-15 -26 -42 -33 -76 -14l-198 115l-18 -30c-19 -33 -41 -40 -73 -21l-18 -31c-19 -33 -41 -38 -74 -19l-17 -30c-20 -35 -42 -40 -73 -22c-40 22 -240 137 -240 137z
M245 565l140 -80l-186 -320l-139 80zM973 -163l-112 112l39 39l73 -73l73 73l39 -39zM172 301c-16 0 -28 -11 -28 -27s12 -28 28 -28c17 0 27 12 27 28s-11 27 -27 27z" />
    <glyph glyph-name="uniF400" unicode="&#xf400;" horiz-adv-x="0" 
d="M-301 567l70 158h96l-91 -158h-75z" />
    <glyph glyph-name="uniF401" unicode="&#xf401;" horiz-adv-x="0" 
d="M-344 747l80 129h100l-103 -129h-77z" />
    <glyph glyph-name="uniF406" unicode="&#xf406;" horiz-adv-x="503" 
d="M358 880h78c0 -100 -74 -152 -184 -152s-185 52 -185 152h78c4 -40 31 -74 107 -74s102 34 106 74z" />
    <glyph glyph-name="uniF407" unicode="&#xf407;" horiz-adv-x="413" 
d="M155 -69l19 94l57 -3l-13 -45c37 -10 62 -34 62 -74c0 -54 -48 -82 -111 -82c-14 0 -29 1 -37 3l12 52c6 -1 12 -1 19 -1c21 0 47 4 47 28c0 25 -30 28 -55 28z" />
    <glyph glyph-name="uniF408" unicode="&#xf408;" horiz-adv-x="503" 
d="M205 879h92l138 -142h-97l-87 91l-87 -91h-97z" />
    <glyph glyph-name="uniF409" unicode="&#xf409;" horiz-adv-x="367" 
d="M231 -64v-96l-96 -83v179h96z" />
    <glyph glyph-name="uniF40A" unicode="&#xf40a;" horiz-adv-x="161" 
d="M146 690v-136l-96 -83v219h96z" />
    <glyph glyph-name="uniF40B" unicode="&#xf40b;" horiz-adv-x="364" 
d="M137 779v90h90v-90h-90z" />
    <glyph glyph-name="uniF40C" unicode="&#xf40c;" horiz-adv-x="429" 
d="M105 800c0 61 49 99 109 99c61 0 110 -38 110 -99c0 -60 -49 -98 -110 -98c-60 0 -109 38 -109 98zM157 800c0 -31 26 -47 57 -47c32 0 57 16 57 47c0 32 -25 47 -57 47c-31 0 -57 -15 -57 -47z" />
    <glyph glyph-name="uniF40D" unicode="&#xf40d;" horiz-adv-x="484" 
d="M300 762c-44 0 -74 27 -115 27c-21 0 -43 -10 -59 -26l-47 49c27 31 65 50 106 50c43 0 73 -27 116 -27c19 0 41 10 57 26l47 -49c-27 -31 -65 -50 -105 -50z" />
    <glyph glyph-name="uniF40E" unicode="&#xf40e;" horiz-adv-x="403" 
d="M236 45l26 -45c-42 -25 -65 -43 -65 -68c0 -24 21 -28 45 -28c8 0 15 0 21 1l12 -52c-8 -2 -23 -3 -44 -3c-48 0 -104 19 -104 76c0 52 42 86 109 119z" />
    <glyph glyph-name="afii10017.var.accented" horiz-adv-x="580" 
d="M101 0h-91l240 690h80l240 -690h-91l-53 158h-272zM290 560l-109 -324h218zM256 747l80 129h100l-103 -129h-77z" />
    <glyph glyph-name="afii10022.var.accented" horiz-adv-x="541" 
d="M85 690h416v-78h-330v-216h300v-78h-300v-240h330v-78h-416v690zM245 747l80 129h100l-103 -129h-77z" />
    <glyph glyph-name="afii10026.var.accented" horiz-adv-x="656" 
d="M85 690h86v-519l328 519h72v-690h-86v514l-326 -514h-74v690zM272 747l80 129h100l-103 -129h-77z" />
    <glyph glyph-name="afii10032.var.accented" horiz-adv-x="600" 
d="M550 307c0 -223 -97 -315 -250 -315s-250 92 -250 315v76c0 223 97 315 250 315s250 -92 250 -315v-76zM136 383v-76c0 -171 58 -237 164 -237s164 66 164 237v76c0 171 -58 237 -164 237s-164 -66 -164 -237zM228 747l80 129h100l-103 -129h-77z" />
    <glyph glyph-name="afii10037.var.accented" horiz-adv-x="582" 
d="M478 690h90l-235 -574c-39 -95 -80 -124 -198 -124v79c69 0 96 7 124 76l3 8l-237 535h94l187 -427zM257 747l80 129h100l-103 -129h-77z" />
    <glyph glyph-name="afii10045.var.accented" horiz-adv-x="776" 
d="M85 690h86v-273h117c177 0 238 -109 238 -209s-61 -208 -238 -208h-203v690zM288 339h-117v-261h117c104 0 152 55 152 130s-48 131 -152 131zM691 690v-690h-86v690h86zM327 747l80 129h100l-103 -129h-77z" />
    <glyph glyph-name="afii10047.var.accented" horiz-adv-x="578" 
d="M181 308v78h261c-1 168 -59 234 -164 234c-85 0 -140 -37 -164 -145h-84c22 151 112 223 248 223c153 0 250 -92 250 -315v-76c0 -223 -97 -315 -250 -315c-131 0 -225 68 -247 223h83c23 -101 74 -145 164 -145c106 0 164 66 164 238h-261zM228 747l80 129h100
l-103 -129h-77z" />
    <glyph glyph-name="afii10048.var.accented" horiz-adv-x="788" 
d="M738 307c0 -223 -87 -315 -230 -315s-230 92 -230 315v11h-107v-318h-86v690h86v-294h107c3 213 90 302 230 302c143 0 230 -92 230 -315v-76zM364 383v-76c0 -171 48 -237 144 -237s144 66 144 237v76c0 171 -48 237 -144 237s-144 -66 -144 -237zM266 747l80 129h100
l-103 -129h-77z" />
    <glyph glyph-name="afii10049.var.accented" horiz-adv-x="604" 
d="M116 0h-96l178 302c-97 23 -150 86 -150 188c0 134 92 200 251 200h220v-690h-86v291h-147zM299 369h134v243h-134c-117 0 -165 -36 -165 -122c0 -85 48 -121 165 -121zM252 747l80 129h100l-103 -129h-77z" />
    <glyph glyph-name="afii10023.var.accented" horiz-adv-x="541" 
d="M85 690h416v-78h-330v-216h300v-78h-300v-240h330v-78h-416v690zM143 779v90h90v-90h-90zM353 779v90h90v-90h-90zM239 840l80 129h100l-103 -129h-77z" />
    <glyph glyph-name="afii10065.var.accented" horiz-adv-x="491" 
d="M40 146c0 108 77 143 187 143h119v58c0 71 -33 87 -111 87c-60 0 -92 -5 -120 -51l-60 42c35 58 86 83 181 83c127 0 190 -41 190 -161v-347h-80v49c-28 -46 -62 -57 -127 -57c-116 0 -179 57 -179 154zM346 192v29h-119c-79 0 -107 -27 -107 -77c0 -56 40 -78 99 -78
c74 0 127 14 127 126zM201 567l70 158h96l-91 -158h-75z" />
    <glyph glyph-name="afii10070.var.accented" horiz-adv-x="488" 
d="M367 120l62 -44c-35 -61 -88 -84 -175 -84c-134 0 -214 87 -214 226v66c0 142 67 224 198 224c132 0 198 -81 198 -224v-52h-316v-14c0 -86 41 -154 128 -154c65 0 98 19 119 56zM238 436c-77 0 -113 -51 -118 -134h235c-4 84 -41 134 -117 134zM195 567l70 158h96
l-91 -158h-75z" />
    <glyph glyph-name="afii10074.var.accented" horiz-adv-x="536" 
d="M145 500v-361l249 361h77v-500h-80v368l-251 -368h-75v500h80zM219 567l70 158h96l-91 -158h-75z" />
    <glyph glyph-name="afii10080.var.accented" horiz-adv-x="496" 
d="M456 284v-66c0 -130 -64 -226 -208 -226c-133 0 -208 88 -208 226v66c0 142 77 224 208 224c132 0 208 -81 208 -224zM248 64c85 0 128 69 128 154v66c0 95 -46 152 -128 152s-128 -58 -128 -152v-66c0 -86 36 -154 128 -154zM195 567l70 158h96l-91 -158h-75z" />
    <glyph glyph-name="afii10085.var.accented" horiz-adv-x="466" 
d="M199 -12l2 7l-196 505h86l149 -388l131 388h85l-176 -516c-41 -120 -68 -174 -208 -174v78c66 0 97 11 127 100zM197 567l70 158h96l-91 -158h-75z" />
    <glyph glyph-name="afii10093.var.accented" horiz-adv-x="639" 
d="M65 500h80v-192h73c137 0 209 -45 209 -151c0 -88 -52 -157 -181 -157h-181v500zM494 500h80v-500h-80v500zM145 236v-164h82c71 0 110 28 110 86c0 55 -36 78 -122 78h-70zM256 567l70 158h96l-91 -158h-75z" />
    <glyph glyph-name="afii10095.var.accented" horiz-adv-x="459" 
d="M142 218v72h197c-2 90 -52 146 -136 146c-46 0 -88 -18 -110 -50l-63 44c36 51 98 78 173 78c135 0 216 -82 216 -224v-66c0 -138 -79 -226 -216 -226c-81 0 -142 26 -173 84l62 44c21 -40 64 -56 111 -56c96 0 136 68 136 154h-197zM170 567l70 158h96l-91 -158h-75z
" />
    <glyph glyph-name="afii10096.var.accented" horiz-adv-x="665" 
d="M625 284v-66c0 -130 -54 -226 -192 -226c-127 0 -192 88 -192 226h-96v-218h-80v500h80v-210h96c2 138 69 218 192 218c126 0 192 -81 192 -224zM433 64c79 0 112 69 112 154v66c0 95 -36 152 -112 152s-112 -58 -112 -152v-66c0 -86 26 -154 112 -154zM222 567l70 158
h96l-91 -158h-75z" />
    <glyph glyph-name="afii10097.var.accented" 
d="M435 0h-80v192h-105l-125 -192h-90l133 203c-71 20 -115 67 -115 149c0 72 49 148 190 148h192v-500zM355 264v164h-102c-73 0 -110 -26 -110 -78c0 -59 36 -86 122 -86h90zM227 567l70 158h96l-91 -158h-75z" />
    <glyph glyph-name="afii10071.var.accented" horiz-adv-x="488" 
d="M367 120l62 -44c-35 -61 -88 -84 -175 -84c-134 0 -214 87 -214 226v66c0 142 67 224 198 224c132 0 198 -81 198 -224v-52h-316v-14c0 -86 41 -154 128 -154c65 0 98 19 119 56zM238 436c-77 0 -113 -51 -118 -134h235c-4 84 -41 134 -117 134zM193 717l70 158h96
l-91 -158h-75zM85 600v90h90v-90h-90zM295 600v90h90v-90h-90z" />
    <glyph glyph-name="dollar.fitted" horiz-adv-x="571" 
d="M318 -116h-74v111c-89 9 -155 46 -199 110l71 49c36 -43 69 -71 128 -81v242c-113 25 -184 86 -184 197c0 90 54 170 184 184v116h74v-115c90 -8 149 -45 193 -112l-67 -48c-31 40 -65 71 -126 80v-235c127 -23 205 -72 205 -197c0 -85 -54 -182 -205 -192v-109zM437 181
c0 57 -25 98 -119 120v-230c91 8 119 56 119 110zM146 512c0 -63 36 -94 98 -113v218c-60 -10 -98 -45 -98 -105z" />
    <glyph glyph-name="Euro.fitted" horiz-adv-x="615" 
d="M5 309h82v72h-82v78h86c21 168 111 239 246 239c136 0 226 -72 248 -223h-84c-24 108 -79 145 -164 145c-89 0 -144 -46 -159 -161h193v-78h-198v-72h198v-78h-193c15 -115 70 -161 159 -161c90 0 141 44 164 145h83c-22 -155 -116 -223 -247 -223
c-135 0 -225 71 -246 239h-86v78z" />
    <glyph glyph-name="cent.fitted" horiz-adv-x="444" 
d="M367 120l62 -44c-26 -49 -74 -75 -137 -82v-110h-74v111c-114 14 -178 98 -178 223v66c0 128 66 207 178 221v117h74v-117c59 -7 107 -33 137 -75l-63 -44c-22 32 -64 50 -110 50c-86 0 -136 -58 -136 -152v-66c0 -86 40 -154 136 -154c47 0 90 16 111 56z" />
    <glyph glyph-name="sterling.fitted" horiz-adv-x="499" 
d="M25 0v78h71v240h-71v78h71v10c0 210 83 292 210 292c72 0 135 -26 173 -86l-74 -42c-22 29 -52 50 -99 50c-85 0 -124 -56 -124 -214v-10h156v-78h-156v-240h280v-78h-437z" />
    <glyph glyph-name="yen.fitted" horiz-adv-x="556" 
d="M95 224h140v72h-140v78h97l-172 316h101l157 -300l157 300h101l-173 -316h98v-78h-140v-72h140v-78h-140v-146h-86v146h-140v78z" />
    <glyph glyph-name="florin.fitted" horiz-adv-x="306" 
d="M42 500h64v36c0 104 34 154 152 154h23v-78h-20c-67 0 -72 -27 -72 -96v-16h92v-78h-92v-458c0 -104 -42 -154 -168 -154v78c82 0 85 42 85 96v438h-64v78z" />
    <glyph glyph-name="uni20B4.fitted" horiz-adv-x="583" 
d="M45 236v80h493v-80h-357c-8 -16 -11 -35 -11 -55c0 -59 33 -111 126 -111c69 0 100 31 145 84l69 -47c-60 -77 -112 -115 -214 -115c-152 0 -212 103 -212 193c0 18 2 35 7 51h-46zM45 376v80h352c9 15 14 33 14 56c0 72 -44 108 -114 108c-69 0 -99 -34 -136 -82l-65 47
c49 76 116 113 198 113c146 0 203 -87 203 -186c0 -21 -3 -39 -9 -56h50v-80h-493z" />
    <glyph glyph-name="uni20BD.fitted" 
d="M8 263v78h90v349h140c159 0 251 -80 251 -214c0 -133 -91 -213 -251 -213h-54v-52h117v-78h-117v-133h-86v133h-90v78h90v52h-90zM184 341h54c117 0 165 50 165 135c0 86 -48 136 -165 136h-54v-271z" />
    <glyph glyph-name="uni20B8.fitted" horiz-adv-x="516" 
d="M5 560h506v-78h-210v-482h-86v482h-210v78zM5 690h506v-78h-506v78z" />
    <glyph glyph-name="currency.fitted" horiz-adv-x="531" 
d="M66 366c0 40 11 78 32 110l-68 68l57 57l67 -68c32 21 70 34 111 34s79 -13 110 -34l69 69l57 -57l-69 -69c21 -31 34 -69 34 -110s-13 -79 -34 -111l69 -68l-57 -57l-69 68c-31 -20 -70 -32 -110 -32c-41 0 -79 12 -110 33l-68 -68l-57 57l68 68c-21 31 -32 69 -32 110z
M152 366c0 -64 49 -117 113 -117c65 0 115 53 115 117s-50 118 -115 118c-64 0 -113 -54 -113 -118z" />
    <glyph glyph-name="uniF639" unicode="&#xf639;" horiz-adv-x="516" 
d="M456 499v-308c0 -127 -94 -199 -198 -199s-198 72 -198 200v306c0 128 94 200 198 200s198 -72 198 -199zM370 499c0 74 -50 121 -112 121c-63 0 -113 -47 -113 -121v-308c0 -74 50 -121 113 -121c62 0 112 47 112 121v308z" />
    <glyph glyph-name="uniF63A" unicode="&#xf63a;" horiz-adv-x="497" 
d="M440 78v-78h-405v72l243 287c47 55 78 102 78 154c0 72 -55 108 -112 108c-62 0 -111 -37 -113 -108h-85c0 114 90 185 198 185c110 0 198 -71 198 -189c0 -82 -60 -148 -104 -201l-190 -230h292z" />
    <glyph glyph-name="uniF63B" unicode="&#xf63b;" horiz-adv-x="489" 
d="M180 317v78h43c91 0 130 47 130 122c0 54 -44 104 -112 104c-65 0 -111 -43 -113 -99h-84c0 109 94 176 197 176c115 0 198 -77 198 -183c0 -71 -40 -127 -103 -157c67 -27 113 -82 113 -170c0 -106 -79 -196 -201 -196c-132 0 -206 77 -213 181h84
c9 -56 47 -103 129 -103c65 0 115 50 115 116c0 82 -48 131 -140 131h-43z" />
    <glyph glyph-name="uniF63C" unicode="&#xf63c;" 
d="M263 690h85l-228 -500h199v203h86v-203h63v-78h-63v-112h-86v112h-299v63z" />
    <glyph glyph-name="uniF63D" unicode="&#xf63d;" horiz-adv-x="485" 
d="M243 382c-47 0 -79 -24 -98 -51h-79v359h350v-86h-267v-181c22 25 57 45 110 45c128 0 186 -98 186 -253c0 -136 -70 -223 -202 -223c-107 0 -186 75 -193 170h84c13 -58 53 -92 109 -92c71 0 116 41 116 145c0 108 -34 167 -116 167z" />
    <glyph glyph-name="uniF63E" unicode="&#xf63e;" horiz-adv-x="478" 
d="M325 690l-133 -304c18 11 46 14 65 14c110 0 181 -87 181 -202c0 -122 -81 -206 -199 -206c-116 0 -199 82 -199 202c0 48 25 109 47 160l142 336h96zM126 198c0 -78 45 -128 113 -128c67 0 113 50 113 128c0 77 -46 128 -113 128c-68 0 -113 -51 -113 -128z" />
    <glyph glyph-name="uniF63F" unicode="&#xf63f;" horiz-adv-x="428" 
d="M98 491h-78v199h388v-78l-219 -612h-91l220 612h-220v-121z" />
    <glyph glyph-name="uniF640" unicode="&#xf640;" horiz-adv-x="496" 
d="M40 194c0 78 51 141 105 164c-55 27 -95 85 -95 150c0 115 94 190 198 190s198 -75 198 -190c0 -65 -41 -123 -96 -150c56 -23 106 -86 106 -164c0 -122 -100 -202 -208 -202s-208 80 -208 202zM126 194c0 -68 52 -124 122 -124c68 0 122 56 122 124
c0 76 -64 123 -122 123c-60 0 -122 -47 -122 -123zM135 508c0 -63 50 -114 113 -114c62 0 112 51 112 114c0 62 -50 112 -112 112c-63 0 -113 -50 -113 -112z" />
    <glyph glyph-name="uniF641" unicode="&#xf641;" horiz-adv-x="478" 
d="M153 0l133 304c-18 -11 -46 -14 -65 -14c-110 0 -181 87 -181 202c0 122 81 206 199 206c116 0 199 -82 199 -202c0 -48 -25 -109 -47 -160l-142 -336h-96zM352 492c0 78 -45 128 -113 128c-67 0 -113 -50 -113 -128c0 -77 46 -128 113 -128c68 0 113 51 113 128z" />
    <glyph glyph-name="uniF6BA" unicode="&#xf6ba;" horiz-adv-x="319" 
d="M30 309v72h259v-72h-259z" />
    <glyph glyph-name="uniF6BB" unicode="&#xf6bb;" horiz-adv-x="509" 
d="M60 309v72h389v-72h-389z" />
    <glyph glyph-name="uniF6BC" unicode="&#xf6bc;" horiz-adv-x="679" 
d="M20 309v72h639v-72h-639z" />
    <glyph glyph-name="uniF6C3" unicode="&#xf6c3;" horiz-adv-x="312" 
d="M204 -64v-96l-96 -83v179h96z" />
    <glyph glyph-name="uniF6C9" unicode="&#xf6c9;" horiz-adv-x="440" 
d="M130 747l80 129h100l-103 -129h-77z" />
    <glyph glyph-name="uniF6CA" unicode="&#xf6ca;" horiz-adv-x="503" 
d="M297 737h-92l-138 142h97l87 -91l87 91h97z" />
    <glyph glyph-name="uniF6CB" unicode="&#xf6cb;" horiz-adv-x="469" 
d="M84 779v90h90v-90h-90zM294 779v90h90v-90h-90z" />
    <glyph glyph-name="uniF6CE" unicode="&#xf6ce;" horiz-adv-x="370" 
d="M195 876l80 -129h-77l-103 129h100z" />
    <glyph glyph-name="uniF6CF" unicode="&#xf6cf;" horiz-adv-x="550" 
d="M95 747l80 129h100l-103 -129h-77zM265 747l90 129h100l-113 -129h-77z" />
    <glyph glyph-name="uniF6D0" unicode="&#xf6d0;" horiz-adv-x="474" 
d="M82 768v72h309v-72h-309z" />
    <glyph glyph-name="uniF6D1" unicode="&#xf6d1;" horiz-adv-x="493" 
d="M340 879h81c0 -100 -64 -142 -174 -142s-175 42 -175 142h82c0 -40 17 -80 93 -80s93 40 93 80z" />
    <glyph glyph-name="uniF6D4" unicode="&#xf6d4;" horiz-adv-x="405" 
d="M267 690h71c0 -78 -48 -118 -136 -118s-136 40 -136 118h71c0 -39 17 -62 65 -62s65 23 65 62z" />
    <glyph glyph-name="uniF6DC" unicode="&#xf6dc;" horiz-adv-x="310" 
d="M225 690v-690h-86v591l-99 -71v94l99 76h86z" />
    <glyph glyph-name="fi" unicode="&#xfb01;" horiz-adv-x="465" 
d="M21 500h64v36c0 104 34 154 152 154h23v-76h-20c-67 0 -75 -29 -75 -98v-16h235v-500h-80v428h-155v-428h-80v428h-64v72z" />
    <glyph glyph-name="fl" unicode="&#xfb02;" horiz-adv-x="510" 
d="M320 154v460h-80c-67 0 -75 -29 -75 -98v-16h95v-72h-95v-428h-80v428h-64v72h64v36c0 104 34 154 152 154h163v-516c0 -54 3 -100 85 -100v-74c-126 0 -165 50 -165 154z" />
    <glyph glyph-name="uniFEFF" unicode="&#xfeff;" horiz-adv-x="0" 
 />
    <glyph glyph-name="uniF4D3" unicode="&#xf4d3;" horiz-adv-x="752" 
d="M60 60v815c0 34 27 61 61 61h510c33 0 61 -27 61 -61v-815c0 -33 -28 -60 -61 -60h-510c-34 0 -61 27 -61 60zM334 66c0 -23 18 -41 42 -41c22 0 41 18 41 41s-19 41 -41 41c-24 0 -42 -18 -42 -41zM648 823h-544v-691h544v691zM357 879c0 -10 8 -18 18 -18s18 8 18 18
s-8 17 -18 17s-18 -7 -18 -17z" />
    <glyph glyph-name="uniF4F1" unicode="&#xf4f1;" horiz-adv-x="552" 
d="M60 60v715c0 34 27 61 61 61h310c33 0 61 -27 61 -61v-715c0 -33 -28 -60 -61 -60h-310c-34 0 -61 27 -61 60zM234 66c0 -23 18 -41 42 -41c22 0 41 18 41 41s-19 41 -41 41c-24 0 -42 -18 -42 -41zM448 723h-344v-591h344v591zM323 790h-94c-7 0 -11 -6 -11 -12
s3 -12 11 -12h94c7 0 11 5 11 11s-3 13 -11 13z" />
    <glyph glyph-name="uni2197.ss02" horiz-adv-x="667" 
d="M607 0h-78v367l-414 -414l-55 55l414 414h-367v78h500v-500z" />
    <glyph glyph-name="uni2199.ss02" horiz-adv-x="667" 
d="M60 500h78v-367l414 414l55 -55l-414 -414h367v-78h-500v500z" />
    <glyph glyph-name="a.ss01" horiz-adv-x="521" 
d="M40 218v66c0 143 76 224 200 224c66 0 109 -21 136 -58v50h80v-500h-80v44c-27 -35 -70 -52 -136 -52c-136 0 -200 96 -200 226zM248 64c89 0 128 64 128 147v73c0 94 -46 152 -128 152s-128 -57 -128 -152v-66c0 -85 43 -154 128 -154z" />
    <glyph glyph-name="uni2198.ss02" horiz-adv-x="667" 
d="M529 500h78v-500h-500v78h367l-414 414l55 55l414 -414v367z" />
    <glyph glyph-name="afii10069.ss01" horiz-adv-x="521" 
d="M456 474v-256c0 -130 -64 -226 -208 -226c-133 0 -208 88 -208 226v66c0 142 77 224 208 224c60 0 100 -16 128 -43v9c0 95 -46 152 -134 152c-43 0 -82 -19 -117 -45l-44 58c41 36 106 59 162 59c137 0 213 -81 213 -224zM248 64c85 0 128 69 128 154v66
c0 95 -46 152 -128 152s-128 -58 -128 -152v-66c0 -86 36 -154 128 -154z" />
    <glyph glyph-name="afii10074.ss01" horiz-adv-x="526" 
d="M461 500v-500h-80v49c-25 -38 -60 -57 -134 -57c-107 0 -182 56 -182 196v312h80v-311c0 -101 55 -123 114 -123c75 0 122 53 122 122v312h80z" />
    <glyph glyph-name="afii10075.ss01" horiz-adv-x="526" 
d="M461 500v-500h-80v49c-25 -38 -60 -57 -134 -57c-107 0 -182 56 -182 196v312h80v-311c0 -101 55 -123 114 -123c75 0 122 53 122 122v312h80zM328 690h71c0 -78 -48 -118 -136 -118s-136 40 -136 118h71c0 -39 17 -62 65 -62s65 23 65 62z" />
    <glyph glyph-name="afii10081.ss01" horiz-adv-x="526" 
d="M65 0v500h80v-49c25 38 60 57 134 57c107 0 182 -56 182 -196v-312h-80v311c0 101 -55 123 -114 123c-75 0 -122 -53 -122 -122v-312h-80z" />
    <glyph glyph-name="afii10084.ss01" horiz-adv-x="802" 
d="M65 0v500h80v-49c22 34 60 57 124 57c67 0 118 -27 146 -79c34 53 89 79 150 79c107 0 172 -66 172 -196v-312h-80v311c0 91 -45 123 -104 123c-64 0 -112 -51 -112 -122v-312h-80v311c0 91 -45 123 -104 123c-65 0 -112 -53 -112 -122v-312h-80z" />
    <glyph glyph-name="uni2193.ss02" horiz-adv-x="826" 
d="M60 246l55 55l259 -259v586h78v-586l259 259l55 -55l-353 -353z" />
    <glyph glyph-name="uni2196.ss02" horiz-adv-x="667" 
d="M138 0h-78v500h500v-78h-367l414 -414l-55 -55l-414 414v-367z" />
    <glyph glyph-name="uni261E.ss02" horiz-adv-x="1061" 
d="M278 51v370l292 215s69 -72 -6 -144l-74 -71h450c42 0 61 -20 61 -50s-19 -50 -58 -50h-229v-36c0 -38 -16 -54 -54 -54v-36c0 -38 -16 -54 -54 -54v-34c0 -40 -16 -56 -51 -56h-277zM60 421h164v-370h-164v370zM86 396v-319h20v319h-20zM198 77v319h-20v-319h20z
M132 396v-222h20v222h-20zM132 112v-35h20v35h-20z" />
    <glyph glyph-name="uni2191.ss02" horiz-adv-x="826" 
d="M766 276l-55 -55l-259 259v-586h-78v586l-259 -259l-55 55l353 353z" />
    <glyph glyph-name="uni2192.ss02" horiz-adv-x="855" 
d="M442 -92l-55 55l259 259h-586v78h586l-259 259l55 55l353 -353z" />
    <glyph glyph-name="acircumflex.ss01" horiz-adv-x="521" 
d="M40 218v66c0 143 76 224 200 224c66 0 109 -21 136 -58v50h80v-500h-80v44c-27 -35 -70 -52 -136 -52c-136 0 -200 96 -200 226zM248 64c89 0 128 64 128 147v73c0 94 -46 152 -128 152s-128 -57 -128 -152v-66c0 -85 43 -154 128 -154zM212 700h92l108 -142h-82l-72 97
l-72 -97h-82z" />
    <glyph glyph-name="atilde.ss01" horiz-adv-x="521" 
d="M40 218v66c0 143 76 224 200 224c66 0 109 -21 136 -58v50h80v-500h-80v44c-27 -35 -70 -52 -136 -52c-136 0 -200 96 -200 226zM248 64c89 0 128 64 128 147v73c0 94 -46 152 -128 152s-128 -57 -128 -152v-66c0 -85 43 -154 128 -154zM315 589c-44 0 -74 27 -115 27
c-21 0 -43 -10 -59 -26l-47 44c27 31 65 50 106 50c43 0 73 -27 116 -27c19 0 41 10 57 26l47 -44c-27 -31 -65 -50 -105 -50z" />
    <glyph glyph-name="adieresis.ss01" horiz-adv-x="521" 
d="M40 218v66c0 143 76 224 200 224c66 0 109 -21 136 -58v50h80v-500h-80v44c-27 -35 -70 -52 -136 -52c-136 0 -200 96 -200 226zM248 64c89 0 128 64 128 147v73c0 94 -46 152 -128 152s-128 -57 -128 -152v-66c0 -85 43 -154 128 -154zM108 600v90h90v-90h-90zM318 600
v90h90v-90h-90z" />
    <glyph glyph-name="aring.ss01" horiz-adv-x="521" 
d="M40 218v66c0 143 76 224 200 224c66 0 109 -21 136 -58v50h80v-500h-80v44c-27 -35 -70 -52 -136 -52c-136 0 -200 96 -200 226zM248 64c89 0 128 64 128 147v73c0 94 -46 152 -128 152s-128 -57 -128 -152v-66c0 -85 43 -154 128 -154zM145 646c0 61 49 110 109 110
c61 0 110 -49 110 -110c0 -60 -49 -109 -110 -109c-60 0 -109 49 -109 109zM197 646c0 -31 26 -57 57 -57c32 0 57 26 57 57c0 32 -25 57 -57 57c-31 0 -57 -25 -57 -57z" />
    <glyph glyph-name="egrave.ss01" horiz-adv-x="488" 
d="M367 120l62 -44c-35 -61 -88 -84 -175 -84c-134 0 -214 87 -214 226v66c0 142 77 224 208 224c126 0 188 -63 188 -146s-63 -144 -188 -144h-128c0 -86 41 -154 128 -154c65 0 98 19 119 56zM248 436c-81 0 -127 -57 -128 -148h128c72 0 108 22 108 74s-36 74 -108 74z
M249 725l70 -158h-75l-91 158h96z" />
    <glyph glyph-name="eacute.ss01" horiz-adv-x="488" 
d="M367 120l62 -44c-35 -61 -88 -84 -175 -84c-134 0 -214 87 -214 226v66c0 142 77 224 208 224c126 0 188 -63 188 -146s-63 -144 -188 -144h-128c0 -86 41 -154 128 -154c65 0 98 19 119 56zM248 436c-81 0 -127 -57 -128 -148h128c72 0 108 22 108 74s-36 74 -108 74z
M199 567l70 158h96l-91 -158h-75z" />
    <glyph glyph-name="ecircumflex.ss01" horiz-adv-x="488" 
d="M367 120l62 -44c-35 -61 -88 -84 -175 -84c-134 0 -214 87 -214 226v66c0 142 77 224 208 224c126 0 188 -63 188 -146s-63 -144 -188 -144h-128c0 -86 41 -154 128 -154c65 0 98 19 119 56zM248 436c-81 0 -127 -57 -128 -148h128c72 0 108 22 108 74s-36 74 -108 74z
M207 700h92l108 -142h-82l-72 97l-72 -97h-82z" />
    <glyph glyph-name="edieresis.ss01" horiz-adv-x="488" 
d="M367 120l62 -44c-35 -61 -88 -84 -175 -84c-134 0 -214 87 -214 226v66c0 142 77 224 208 224c126 0 188 -63 188 -146s-63 -144 -188 -144h-128c0 -86 41 -154 128 -154c65 0 98 19 119 56zM248 436c-81 0 -127 -57 -128 -148h128c72 0 108 22 108 74s-36 74 -108 74z
M98 600v90h90v-90h-90zM308 600v90h90v-90h-90z" />
    <glyph glyph-name="afii10065.ss01" horiz-adv-x="521" 
d="M40 218v66c0 143 76 224 200 224c66 0 109 -21 136 -58v50h80v-500h-80v44c-27 -35 -70 -52 -136 -52c-136 0 -200 96 -200 226zM248 64c89 0 128 64 128 147v73c0 94 -46 152 -128 152s-128 -57 -128 -152v-66c0 -85 43 -154 128 -154z" />
    <glyph glyph-name="afii10070.ss01" horiz-adv-x="488" 
d="M367 120l62 -44c-35 -61 -88 -84 -175 -84c-134 0 -214 87 -214 226v66c0 142 77 224 208 224c126 0 188 -63 188 -146s-63 -144 -188 -144h-128c0 -86 41 -154 128 -154c65 0 98 19 119 56zM248 436c-81 0 -127 -57 -128 -148h128c72 0 108 22 108 74s-36 74 -108 74z
" />
    <glyph glyph-name="afii10071.ss01" horiz-adv-x="488" 
d="M367 120l62 -44c-35 -61 -88 -84 -175 -84c-134 0 -214 87 -214 226v66c0 142 77 224 208 224c126 0 188 -63 188 -146s-63 -144 -188 -144h-128c0 -86 41 -154 128 -154c65 0 98 19 119 56zM248 436c-81 0 -127 -57 -128 -148h128c72 0 108 22 108 74s-36 74 -108 74z
M98 600v90h90v-90h-90zM308 600v90h90v-90h-90z" />
    <glyph glyph-name="aogonek.ss01" horiz-adv-x="521" 
d="M456 500v-500c-42 -25 -65 -43 -65 -68c0 -24 21 -28 45 -28c8 0 15 1 21 2l12 -53c-8 -2 -23 -3 -44 -3c-48 0 -104 19 -104 76c0 36 20 63 55 87v31c-27 -35 -70 -52 -136 -52c-136 0 -200 96 -200 226v66c0 143 76 224 200 224c66 0 109 -21 136 -58v50h80zM248 64
c89 0 128 64 128 147v73c0 94 -46 152 -128 152s-128 -57 -128 -152v-66c0 -85 43 -154 128 -154z" />
    <glyph glyph-name="abreve.ss01" horiz-adv-x="521" 
d="M40 218v66c0 143 76 224 200 224c66 0 109 -21 136 -58v50h80v-500h-80v44c-27 -35 -70 -52 -136 -52c-136 0 -200 96 -200 226zM248 64c89 0 128 64 128 147v73c0 94 -46 152 -128 152s-128 -57 -128 -152v-66c0 -85 43 -154 128 -154zM336 690h65
c-3 -78 -52 -118 -136 -118s-133 40 -136 118h66c4 -39 22 -60 70 -60s67 21 71 60z" />
    <glyph glyph-name="eogonek.ss01" horiz-adv-x="488" 
d="M367 120l62 -44c-24 -42 -57 -66 -102 -76c-42 -25 -64 -43 -64 -68c0 -24 21 -28 45 -28c8 0 15 1 21 2l12 -53c-8 -2 -23 -3 -44 -3c-48 0 -104 19 -104 76c0 27 11 49 30 68c-115 12 -183 96 -183 224v66c0 142 77 224 208 224c126 0 188 -63 188 -146
s-63 -144 -188 -144h-128c0 -86 41 -154 128 -154c65 0 98 19 119 56zM248 436c-81 0 -127 -57 -128 -148h128c72 0 108 22 108 74s-36 74 -108 74z" />
    <glyph glyph-name="ecaron.ss01" horiz-adv-x="488" 
d="M367 120l62 -44c-35 -61 -88 -84 -175 -84c-134 0 -214 87 -214 226v66c0 142 77 224 208 224c126 0 188 -63 188 -146s-63 -144 -188 -144h-128c0 -86 41 -154 128 -154c65 0 98 19 119 56zM248 436c-81 0 -127 -57 -128 -148h128c72 0 108 22 108 74s-36 74 -108 74z
M294 558h-92l-108 142h82l72 -97l72 97h82z" />
    <glyph glyph-name="amacron.ss01" horiz-adv-x="521" 
d="M40 218v66c0 143 76 224 200 224c66 0 109 -21 136 -58v50h80v-500h-80v44c-27 -35 -70 -52 -136 -52c-136 0 -200 96 -200 226zM248 64c89 0 128 64 128 147v73c0 94 -46 152 -128 152s-128 -57 -128 -152v-66c0 -85 43 -154 128 -154zM122 600v72h269v-72h-269z" />
    <glyph glyph-name="emacron.ss01" horiz-adv-x="488" 
d="M367 120l62 -44c-35 -61 -88 -84 -175 -84c-134 0 -214 87 -214 226v66c0 142 77 224 208 224c126 0 188 -63 188 -146s-63 -144 -188 -144h-128c0 -86 41 -154 128 -154c65 0 98 19 119 56zM248 436c-81 0 -127 -57 -128 -148h128c72 0 108 22 108 74s-36 74 -108 74z
M114 600v72h269v-72h-269z" />
    <glyph glyph-name="edotaccent.ss01" horiz-adv-x="488" 
d="M367 120l62 -44c-35 -61 -88 -84 -175 -84c-134 0 -214 87 -214 226v66c0 142 77 224 208 224c126 0 188 -63 188 -146s-63 -144 -188 -144h-128c0 -86 41 -154 128 -154c65 0 98 19 119 56zM248 436c-81 0 -127 -57 -128 -148h128c72 0 108 22 108 74s-36 74 -108 74z
M209 600v90h90v-90h-90z" />
    <glyph glyph-name="afii10065.var.accented.ss01" horiz-adv-x="521" 
d="M40 218v66c0 143 76 224 200 224c66 0 109 -21 136 -58v50h80v-500h-80v44c-27 -35 -70 -52 -136 -52c-136 0 -200 96 -200 226zM248 64c89 0 128 64 128 147v73c0 94 -46 152 -128 152s-128 -57 -128 -152v-66c0 -85 43 -154 128 -154zM209 567l70 158h96l-91 -158h-75z
" />
    <glyph glyph-name="afii10070.var.accented.ss01" horiz-adv-x="488" 
d="M367 120l62 -44c-35 -61 -88 -84 -175 -84c-134 0 -214 87 -214 226v66c0 142 77 224 208 224c126 0 188 -63 188 -146s-63 -144 -188 -144h-128c0 -86 41 -154 128 -154c65 0 98 19 119 56zM248 436c-81 0 -127 -57 -128 -148h128c72 0 108 22 108 74s-36 74 -108 74z
M199 567l70 158h96l-91 -158h-75z" />
    <glyph glyph-name="afii10074.var.accented.ss01" horiz-adv-x="526" 
d="M461 500v-500h-80v49c-25 -38 -60 -57 -134 -57c-107 0 -182 56 -182 196v312h80v-311c0 -101 55 -123 114 -123c75 0 122 53 122 122v312h80zM219 567l70 158h96l-91 -158h-75z" />
    <glyph glyph-name="afii10071.var.accented.ss01" horiz-adv-x="488" 
d="M367 120l62 -44c-35 -61 -88 -84 -175 -84c-134 0 -214 87 -214 226v66c0 142 77 224 208 224c126 0 188 -63 188 -146s-63 -144 -188 -144h-128c0 -86 41 -154 128 -154c65 0 98 19 119 56zM248 436c-81 0 -127 -57 -128 -148h128c72 0 108 22 108 74s-36 74 -108 74z
M193 717l70 158h96l-91 -158h-75zM85 600v90h90v-90h-90zM295 600v90h90v-90h-90z" />
    <glyph glyph-name="uni04E3.ss01" horiz-adv-x="526" 
d="M461 500v-500h-80v49c-25 -38 -60 -57 -134 -57c-107 0 -182 56 -182 196v312h80v-311c0 -101 55 -123 114 -123c75 0 122 53 122 122v312h80zM129 600v72h269v-72h-269z" />
    <glyph glyph-name="afii10193.ss01" horiz-adv-x="526" 
d="M461 500v-500h-80v49c-20 -31 -47 -49 -94 -55v-111h-80v112c-85 13 -142 71 -142 193v312h80v-311c0 -101 55 -123 114 -123c75 0 122 53 122 122v312h80z" />
    <glyph glyph-name="uni2190.ss02" horiz-adv-x="855" 
d="M468 -37l-55 -55l-353 353l353 353l55 -55l-259 -259h586v-78h-586z" />
    <glyph glyph-name="aacute.ss01" horiz-adv-x="521" 
d="M40 218v66c0 143 76 224 200 224c66 0 109 -21 136 -58v50h80v-500h-80v44c-27 -35 -70 -52 -136 -52c-136 0 -200 96 -200 226zM248 64c89 0 128 64 128 147v73c0 94 -46 152 -128 152s-128 -57 -128 -152v-66c0 -85 43 -154 128 -154zM209 567l70 158h96l-91 -158h-75z
" />
    <glyph glyph-name="agrave.ss01" horiz-adv-x="521" 
d="M40 218v66c0 143 76 224 200 224c66 0 109 -21 136 -58v50h80v-500h-80v44c-27 -35 -70 -52 -136 -52c-136 0 -200 96 -200 226zM248 64c89 0 128 64 128 147v73c0 94 -46 152 -128 152s-128 -57 -128 -152v-66c0 -85 43 -154 128 -154zM249 725l70 -158h-75l-91 158h96z
" />
    <glyph glyph-name="afii10091.ss01" horiz-adv-x="807" 
d="M717 500v-428h70v-189h-80v117h-70v49c-24 -34 -54 -57 -118 -57c-67 0 -117 26 -144 77c-34 -52 -82 -77 -142 -77c-107 0 -168 66 -168 196v312h80v-311c0 -91 41 -123 100 -123c65 0 106 53 106 122v312h80v-311c0 -91 41 -123 100 -123c65 0 106 53 106 122v312h80z
" />
    <glyph glyph-name="afii10090.ss01" horiz-adv-x="782" 
d="M351 188v312h80v-311c0 -91 41 -123 100 -123c65 0 106 53 106 122v312h80v-500h-80v49c-24 -34 -54 -57 -118 -57c-67 0 -117 26 -144 77c-34 -52 -82 -77 -142 -77c-107 0 -168 66 -168 196v312h80v-311c0 -91 41 -123 100 -123c65 0 106 53 106 122z" />
    <glyph glyph-name="afii10088.ss01" horiz-adv-x="551" 
d="M461 500v-428h70v-189h-80v117h-70v49c-25 -38 -60 -57 -134 -57c-107 0 -182 56 -182 196v312h80v-311c0 -101 55 -123 114 -123c75 0 122 53 122 122v312h80z" />
    <glyph glyph-name="e.ss01" horiz-adv-x="488" 
d="M367 120l62 -44c-35 -61 -88 -84 -175 -84c-134 0 -214 87 -214 226v66c0 142 77 224 208 224c126 0 188 -63 188 -146s-63 -144 -188 -144h-128c0 -86 41 -154 128 -154c65 0 98 19 119 56zM248 436c-81 0 -127 -57 -128 -148h128c72 0 108 22 108 74s-36 74 -108 74z
" />
  </font>
</defs>
</svg>
